<svg width="171" height="253" viewBox="0 0 171 253" fill="none" xmlns="http://www.w3.org/2000/svg">
<g filter="url(#filter0_bd_55_2404)">
<ellipse cx="85.5" cy="162.891" rx="81.5" ry="81.6088" fill="white" fill-opacity="0.1" shape-rendering="crispEdges"/>
<path d="M166.5 162.891C166.5 207.687 130.234 244 85.5 244C40.7656 244 4.5 207.687 4.5 162.891C4.5 118.095 40.7656 81.7823 85.5 81.7823C130.234 81.7823 166.5 118.095 166.5 162.891Z" stroke="white" shape-rendering="crispEdges"/>
</g>
<mask id="mask0_55_2404" style="mask-type:alpha" maskUnits="userSpaceOnUse" x="4" y="81" width="163" height="164">
<ellipse cx="85.5" cy="162.891" rx="81.5" ry="81.6088" fill="#C4C4C4"/>
</mask>
<g mask="url(#mask0_55_2404)">
<ellipse rx="1.09057" ry="1.09196" transform="matrix(0.999723 -0.0235389 0.0234166 0.999726 94.9534 110.62)" fill="white"/>
<ellipse rx="1.09057" ry="1.09196" transform="matrix(0.999723 -0.0235389 0.0234166 0.999726 144.122 137.318)" fill="white"/>
<ellipse rx="1.09057" ry="1.09196" transform="matrix(0.999723 -0.023539 0.0234165 0.999726 99.1694 197.358)" fill="white"/>
<ellipse rx="1.09057" ry="1.09196" transform="matrix(0.999723 -0.0235388 0.0234167 0.999726 133.98 193.263)" fill="white"/>
<ellipse rx="1.09057" ry="1.09196" transform="matrix(0.999723 -0.0235389 0.0234166 0.999726 18.9442 125.515)" fill="white"/>
<ellipse rx="1.09057" ry="1.09196" transform="matrix(0.999723 -0.0235389 0.0234166 0.999726 111.261 131.536)" fill="white"/>
<ellipse rx="1.09057" ry="1.09196" transform="matrix(0.999723 -0.0235389 0.0234166 0.999726 68.6651 129.261)" fill="white"/>
<ellipse rx="1.09057" ry="1.09196" transform="matrix(0.999723 -0.0235389 0.0234166 0.999726 121.649 155.869)" fill="white"/>
<ellipse rx="1.09057" ry="1.09195" transform="matrix(0.999723 -0.0235388 0.0234167 0.999726 72.8426 214.362)" fill="white"/>
<ellipse rx="1.09057" ry="1.09195" transform="matrix(0.999723 -0.0235388 0.0234167 0.999726 108.782 211.878)" fill="white"/>
<ellipse rx="1.09057" ry="1.09196" transform="matrix(0.999723 -0.0235389 0.0234166 0.999726 83.4142 153.491)" fill="white"/>
<ellipse rx="1.09057" ry="1.09196" transform="matrix(0.999723 -0.0235389 0.0234166 0.999726 145.964 99.5899)" fill="white"/>
<ellipse rx="1.09057" ry="1.09196" transform="matrix(0.999723 -0.0235388 0.0234167 0.999726 167.062 115.478)" fill="white"/>
<ellipse rx="1.09057" ry="1.09196" transform="matrix(0.999723 -0.0235389 0.0234166 0.999726 7.31219 94.658)" fill="white"/>
<ellipse rx="1.09057" ry="1.09196" transform="matrix(0.999723 -0.0235389 0.0234166 0.999726 12.3879 171.545)" fill="white"/>
<ellipse rx="1.09057" ry="1.09196" transform="matrix(0.999723 -0.0235389 0.0234166 0.999726 30.3384 169.485)" fill="white"/>
<ellipse rx="1.09057" ry="1.09196" transform="matrix(0.999723 -0.0235388 0.0234166 0.999726 73.1562 88.1947)" fill="white"/>
<ellipse rx="1.09057" ry="1.09196" transform="matrix(0.999723 -0.0235389 0.0234166 0.999726 126.548 178.692)" fill="white"/>
<ellipse rx="1.09057" ry="1.09196" transform="matrix(0.999723 -0.0235389 0.0234166 0.999726 87.9596 184.514)" fill="white"/>
<ellipse rx="1.09057" ry="1.09196" transform="matrix(0.999723 -0.0235388 0.0234167 0.999726 158.518 169.748)" fill="white"/>
<ellipse rx="1.09057" ry="1.09196" transform="matrix(0.999723 -0.0235389 0.0234166 0.999726 17.102 163.242)" fill="white"/>
<ellipse rx="1.09057" ry="1.09196" transform="matrix(0.999723 -0.023539 0.0234165 0.999726 43.3295 211.779)" fill="white"/>
<ellipse rx="1.09057" ry="1.09196" transform="matrix(0.999723 -0.0235389 0.0234166 0.999726 101.518 157.981)" fill="white"/>
<ellipse rx="1.09057" ry="1.09196" transform="matrix(0.999723 -0.023539 0.0234165 0.999726 79.6603 202.732)" fill="white"/>
<ellipse rx="1.09057" ry="1.09196" transform="matrix(0.999723 -0.023539 0.0234165 0.999726 53.3719 221.373)" fill="white"/>
<ellipse rx="1.09057" ry="1.09195" transform="matrix(0.999723 -0.0235388 0.0234167 0.999726 61.1188 226.106)" fill="white"/>
<ellipse rx="1.09057" ry="1.09196" transform="matrix(0.999723 -0.023539 0.0234164 0.999726 130.856 222.828)" fill="white"/>
<ellipse rx="1.09057" ry="1.09196" transform="matrix(0.999723 -0.0235389 0.0234166 0.999726 151.261 92.9115)" fill="white"/>
<ellipse rx="1.09057" ry="1.09196" transform="matrix(0.999723 -0.0235389 0.0234166 0.999726 47.9582 106.81)" fill="white"/>
<ellipse rx="1.09057" ry="1.09196" transform="matrix(0.999723 -0.0235389 0.0234166 0.999726 6.31481 168.411)" fill="white"/>
<ellipse rx="1.09057" ry="1.09196" transform="matrix(0.999723 -0.0235389 0.0234166 0.999726 39.5285 165.992)" fill="white"/>
<ellipse rx="1.09057" ry="1.09196" transform="matrix(0.999723 -0.0235389 0.0234166 0.999726 13.4621 101.067)" fill="white"/>
<ellipse rx="1.09057" ry="1.09196" transform="matrix(0.999723 -0.0235389 0.0234166 0.999726 34.5147 138.256)" fill="white"/>
<ellipse rx="1.09057" ry="1.09196" transform="matrix(0.999723 -0.0235389 0.0234166 0.999726 109.503 149.601)" fill="white"/>
<ellipse rx="1.09057" ry="1.09196" transform="matrix(0.999723 -0.0235389 0.0234166 0.999726 119.224 191.971)" fill="white"/>
<ellipse rx="1.09057" ry="1.09196" transform="matrix(0.999723 -0.0235389 0.0234166 0.999726 154.179 101.035)" fill="white"/>
<ellipse rx="1.09057" ry="1.09196" transform="matrix(0.999723 -0.0235389 0.0234166 0.999726 134.317 114.61)" fill="white"/>
<ellipse rx="1.09057" ry="1.09195" transform="matrix(0.999723 -0.0235388 0.0234167 0.999726 90.7386 140.211)" fill="white"/>
<ellipse rx="1.09057" ry="1.09195" transform="matrix(0.999723 -0.0235388 0.0234167 0.999726 160.291 105.807)" fill="white"/>
<ellipse rx="1.09057" ry="1.09196" transform="matrix(0.999723 -0.0235389 0.0234166 0.999726 164.43 189.27)" fill="white"/>
<ellipse rx="1.09057" ry="1.09196" transform="matrix(0.999723 -0.0235389 0.0234166 0.999726 79.9206 120.804)" fill="white"/>
<ellipse rx="1.09057" ry="1.09196" transform="matrix(0.999723 -0.0235389 0.0234166 0.999726 21.0553 99.2503)" fill="white"/>
<ellipse rx="1.09057" ry="1.09196" transform="matrix(0.999723 -0.0235389 0.0234166 0.999726 44.7419 178.977)" fill="white"/>
<ellipse rx="1.09057" ry="1.09195" transform="matrix(0.999723 -0.0235387 0.0234167 0.999726 113.026 90.5338)" fill="white"/>
<ellipse rx="0.272701" ry="0.273044" transform="matrix(0.999723 -0.0235385 0.0234169 0.999726 135.699 115.396)" fill="white"/>
<ellipse rx="0.272701" ry="0.273049" transform="matrix(0.999723 -0.023539 0.0234164 0.999726 93.2877 144.247)" fill="white"/>
<ellipse rx="0.272701" ry="0.273049" transform="matrix(0.999723 -0.023539 0.0234164 0.999726 164.59 114.717)" fill="white"/>
<ellipse rx="0.2727" ry="0.273044" transform="matrix(0.999723 -0.0235386 0.0234169 0.999726 24.0727 99.9986)" fill="white"/>
<ellipse rx="0.272701" ry="0.273049" transform="matrix(0.999723 -0.023539 0.0234164 0.999726 47.836 183)" fill="white"/>
<ellipse rx="0.272701" ry="0.273046" transform="matrix(0.999723 -0.0235388 0.0234167 0.999726 114.954 91.3079)" fill="white"/>
<ellipse rx="0.272701" ry="0.273049" transform="matrix(0.999723 -0.023539 0.0234164 0.999726 140.29 125.119)" fill="white"/>
<ellipse rx="0.272701" ry="0.273044" transform="matrix(0.999723 -0.0235385 0.0234169 0.999726 130.625 154.838)" fill="white"/>
<ellipse rx="0.272701" ry="0.273044" transform="matrix(0.999723 -0.0235385 0.0234169 0.999726 36.6104 99.7038)" fill="white"/>
<ellipse rx="0.272701" ry="0.273044" transform="matrix(0.999723 -0.0235385 0.0234169 0.999726 22.7063 111.5)" fill="white"/>
<ellipse rx="0.272698" ry="0.273046" transform="matrix(0.999723 -0.023539 0.0234164 0.999726 75.1986 93.8812)" fill="white"/>
<ellipse rx="0.272701" ry="0.273049" transform="matrix(0.999723 -0.023539 0.0234164 0.999726 54.8532 156.62)" fill="white"/>
<ellipse rx="0.272701" ry="0.273049" transform="matrix(0.999723 -0.023539 0.0234164 0.999726 62.0475 184.304)" fill="white"/>
<ellipse rx="0.272701" ry="0.273049" transform="matrix(0.999723 -0.023539 0.0234164 0.999726 136.367 97.3579)" fill="white"/>
<ellipse rx="0.272701" ry="0.273049" transform="matrix(0.999723 -0.023539 0.0234164 0.999726 84.458 116.601)" fill="white"/>
<ellipse rx="0.272701" ry="0.273046" transform="matrix(0.999723 -0.0235388 0.0234167 0.999726 66.3231 87.5359)" fill="white"/>
<ellipse rx="0.272701" ry="0.273049" transform="matrix(0.999723 -0.023539 0.0234164 0.999726 25.018 186.813)" fill="white"/>
<ellipse rx="0.272701" ry="0.273044" transform="matrix(0.999723 -0.0235385 0.0234169 0.999726 50.3003 148.535)" fill="white"/>
<ellipse rx="0.272701" ry="0.273044" transform="matrix(0.999723 -0.0235385 0.0234169 0.999726 92.8728 103.296)" fill="white"/>
<ellipse rx="0.272701" ry="0.273049" transform="matrix(0.999723 -0.023539 0.0234164 0.999726 115.138 122.434)" fill="white"/>
<ellipse rx="0.272695" ry="0.273049" transform="matrix(0.999723 -0.0235395 0.023416 0.999726 138.948 184.135)" fill="white"/>
<ellipse rx="0.272701" ry="0.273049" transform="matrix(0.999723 -0.023539 0.0234164 0.999726 157.136 168.961)" fill="white"/>
<ellipse rx="0.272701" ry="0.273044" transform="matrix(0.999723 -0.0235385 0.0234169 0.999726 149.98 142.914)" fill="white"/>
<ellipse rx="0.272701" ry="0.273044" transform="matrix(0.999723 -0.0235385 0.0234169 0.999726 139.968 157.896)" fill="white"/>
<ellipse rx="0.272701" ry="0.273044" transform="matrix(0.999723 -0.0235385 0.0234169 0.999726 27.6284 181.837)" fill="white"/>
<ellipse rx="0.272701" ry="0.273049" transform="matrix(0.999723 -0.023539 0.0234164 0.999726 55.0144 140.232)" fill="white"/>
<ellipse rx="0.272701" ry="0.273046" transform="matrix(0.999723 -0.0235388 0.0234167 0.999726 98.0936 93.3428)" fill="white"/>
<ellipse rx="0.272701" ry="0.273044" transform="matrix(0.999723 -0.0235385 0.0234169 0.999726 118.801 115.794)" fill="white"/>
<ellipse rx="0.272701" ry="0.273049" transform="matrix(0.999723 -0.023539 0.0234164 0.999726 142.103 179.145)" fill="white"/>
<ellipse rx="0.272701" ry="0.273044" transform="matrix(0.999723 -0.0235385 0.0234169 0.999726 53.1944 109.145)" fill="white"/>
<ellipse rx="0.272701" ry="0.273049" transform="matrix(0.999723 -0.023539 0.0234164 0.999726 88.9267 144.35)" fill="white"/>
<ellipse rx="0.272701" ry="0.273044" transform="matrix(0.999723 -0.0235385 0.0234169 0.999726 154.141 157.562)" fill="white"/>
<ellipse rx="0.272701" ry="0.273046" transform="matrix(0.999723 -0.0235388 0.0234167 0.999726 104.52 88.2764)" fill="white"/>
<ellipse rx="0.272695" ry="0.273049" transform="matrix(0.999723 -0.0235395 0.023416 0.999726 132.06 169.551)" fill="white"/>
<ellipse rx="0.272701" ry="0.273044" transform="matrix(0.999723 -0.0235385 0.0234169 0.999726 73.4181 180.76)" fill="white"/>
<ellipse rx="0.272701" ry="0.273049" transform="matrix(0.999723 -0.023539 0.0234164 0.999726 54.8767 204.134)" fill="white"/>
<ellipse rx="0.272701" ry="0.273044" transform="matrix(0.999723 -0.0235385 0.0234169 0.999726 77.856 183.933)" fill="white"/>
<ellipse rx="0.272701" ry="0.273049" transform="matrix(0.999723 -0.023539 0.0234164 0.999726 4.28012 139.787)" fill="white"/>
<ellipse rx="0.272701" ry="0.273038" transform="matrix(0.999723 -0.023538 0.0234174 0.999726 33.456 221.022)" fill="white"/>
<ellipse rx="0.272701" ry="0.273049" transform="matrix(0.999723 -0.023539 0.0234164 0.999726 25.0403 117.999)" fill="white"/>
<ellipse rx="0.272701" ry="0.273049" transform="matrix(0.999723 -0.023539 0.0234164 0.999726 80.765 98.6658)" fill="white"/>
<ellipse rx="0.272701" ry="0.273049" transform="matrix(0.999723 -0.023539 0.0234164 0.999726 35.3975 117.755)" fill="white"/>
<ellipse rx="0.272701" ry="0.273049" transform="matrix(0.999723 -0.023539 0.0234164 0.999726 19.4431 88.6385)" fill="white"/>
<ellipse rx="0.272701" ry="0.273049" transform="matrix(0.999723 -0.023539 0.0234164 0.999726 119.768 133.794)" fill="white"/>
<ellipse rx="0.272701" ry="0.273049" transform="matrix(0.999723 -0.023539 0.0234164 0.999726 160.215 160.696)" fill="white"/>
<ellipse rx="0.272695" ry="0.273049" transform="matrix(0.999723 -0.0235395 0.023416 0.999726 103.714 170.217)" fill="white"/>
<ellipse rx="0.272701" ry="0.273044" transform="matrix(0.999723 -0.0235385 0.0234169 0.999726 57.6557 159.831)" fill="white"/>
<ellipse rx="0.272701" ry="0.273044" transform="matrix(0.999723 -0.0235386 0.0234169 0.999726 7.58169 164.286)" fill="white"/>
<ellipse rx="0.272701" ry="0.273049" transform="matrix(0.999723 -0.023539 0.0234164 0.999726 11.8126 205.147)" fill="white"/>
<ellipse rx="0.272701" ry="0.273049" transform="matrix(0.999723 -0.023539 0.0234164 0.999726 65.395 187.503)" fill="white"/>
<ellipse rx="0.272701" ry="0.273049" transform="matrix(0.999723 -0.023539 0.0234164 0.999726 141.273 97.2426)" fill="white"/>
<ellipse rx="0.272701" ry="0.273049" transform="matrix(0.999723 -0.023539 0.0234164 0.999726 166.602 153.992)" fill="white"/>
<ellipse rx="0.272701" ry="0.273049" transform="matrix(0.999723 -0.023539 0.0234164 0.999726 149.312 160.953)" fill="white"/>
<ellipse rx="0.272701" ry="0.273049" transform="matrix(0.999723 -0.023539 0.0234164 0.999726 25.4095 180.251)" fill="white"/>
<ellipse rx="0.272701" ry="0.273049" transform="matrix(0.999723 -0.023539 0.0234164 0.999726 52.7571 137.008)" fill="white"/>
<ellipse rx="0.272701" ry="0.273046" transform="matrix(0.999723 -0.0235388 0.0234167 0.999726 93.1491 91.8208)" fill="white"/>
<ellipse rx="0.272701" ry="0.273049" transform="matrix(0.999723 -0.023539 0.0234164 0.999726 116.037 114.22)" fill="white"/>
<ellipse rx="0.272701" ry="0.273044" transform="matrix(0.999723 -0.0235385 0.0234169 0.999726 139.922 179.196)" fill="white"/>
<ellipse rx="0.272701" ry="0.273049" transform="matrix(0.999723 -0.023539 0.0234164 0.999726 165.236 165.494)" fill="white"/>
<ellipse rx="0.272701" ry="0.273049" transform="matrix(0.999723 -0.023539 0.0234164 0.999726 150.333 134.714)" fill="white"/>
<ellipse rx="0.272701" ry="0.273049" transform="matrix(0.999723 -0.023539 0.0234164 0.999726 33.1179 183.346)" fill="white"/>
<ellipse rx="0.272701" ry="0.273049" transform="matrix(0.999723 -0.023539 0.0234164 0.999726 57.8551 145.08)" fill="white"/>
<ellipse rx="0.272701" ry="0.273049" transform="matrix(0.999723 -0.023539 0.0234164 0.999726 102.57 98.1528)" fill="white"/>
<ellipse rx="0.272701" ry="0.273044" transform="matrix(0.999723 -0.0235385 0.0234169 0.999726 123.2 117.329)" fill="white"/>
<ellipse rx="0.272701" ry="0.273044" transform="matrix(0.999723 -0.0235385 0.0234169 0.999726 146.541 182.318)" fill="white"/>
<ellipse rx="0.272701" ry="0.273049" transform="matrix(0.999723 -0.023539 0.0234164 0.999726 62.6535 117.114)" fill="white"/>
<ellipse rx="0.272701" ry="0.273049" transform="matrix(0.999723 -0.023539 0.0234164 0.999726 31.2212 148.984)" fill="white"/>
<ellipse rx="0.272701" ry="0.273049" transform="matrix(0.999723 -0.023539 0.0234164 0.999726 92.62 162.286)" fill="white"/>
<ellipse rx="0.272701" ry="0.273049" transform="matrix(0.999723 -0.023539 0.0234164 0.999726 124.359 143.517)" fill="white"/>
<ellipse rx="0.272701" ry="0.273046" transform="matrix(0.999723 -0.0235388 0.0234167 0.999726 44.0885 92.9742)" fill="white"/>
<ellipse rx="0.272701" ry="0.273049" transform="matrix(0.999723 -0.023539 0.0234164 0.999726 66.2548 177.652)" fill="white"/>
<ellipse rx="0.272701" ry="0.273049" transform="matrix(0.999723 -0.023539 0.0234164 0.999726 14.0773 185.433)" fill="white"/>
<ellipse rx="0.272701" ry="0.273049" transform="matrix(0.999723 -0.023539 0.0234164 0.999726 26.7141 119.598)" fill="white"/>
<ellipse rx="0.272701" ry="0.273049" transform="matrix(0.999723 -0.023539 0.0234164 0.999726 84.6961 103.489)" fill="white"/>
<ellipse rx="0.272701" ry="0.273049" transform="matrix(0.999723 -0.023539 0.0234164 0.999726 141.15 115.269)" fill="white"/>
<ellipse rx="0.272701" ry="0.273049" transform="matrix(0.999723 -0.023539 0.0234164 0.999726 129.557 86.0491)" fill="white"/>
<ellipse rx="0.272701" ry="0.273049" transform="matrix(0.999723 -0.023539 0.0234164 0.999726 62.0935 163.004)" fill="white"/>
<ellipse rx="0.272701" ry="0.273049" transform="matrix(0.999723 -0.023539 0.0234164 0.999726 18.484 164.029)" fill="white"/>
<ellipse rx="0.2727" ry="0.273038" transform="matrix(0.999723 -0.0235381 0.0234173 0.999726 27.6209 204.775)" fill="white"/>
<ellipse rx="0.272701" ry="0.273049" transform="matrix(0.999723 -0.023539 0.0234164 0.999726 68.4662 202.176)" fill="white"/>
<ellipse rx="0.272701" ry="0.273049" transform="matrix(0.999723 -0.023539 0.0234164 0.999726 150.225 106.863)" fill="white"/>
<ellipse rx="0.272701" ry="0.273049" transform="matrix(0.999723 -0.023539 0.0234164 0.999726 166.211 160.555)" fill="white"/>
<ellipse rx="0.272701" ry="0.273049" transform="matrix(0.999723 -0.023539 0.0234164 0.999726 28.7186 181.811)" fill="white"/>
<ellipse rx="0.272698" ry="0.273044" transform="matrix(0.999723 -0.0235388 0.0234167 0.999726 56.1432 141.844)" fill="white"/>
<ellipse rx="0.272701" ry="0.273046" transform="matrix(0.999723 -0.0235388 0.0234167 0.999726 101.441 96.5409)" fill="white"/>
<ellipse rx="0.272701" ry="0.273049" transform="matrix(0.999723 -0.023539 0.0234164 0.999726 122.071 115.717)" fill="white"/>
<ellipse rx="0.272701" ry="0.273044" transform="matrix(0.999723 -0.0235385 0.0234169 0.999726 143.777 180.744)" fill="white"/>
<ellipse rx="0.272701" ry="0.273049" transform="matrix(0.999723 -0.023539 0.0234164 0.999726 65.6095 126.875)" fill="white"/>
<ellipse rx="0.2727" ry="0.273049" transform="matrix(0.999723 -0.0235391 0.0234163 0.999726 36.0963 124.292)" fill="white"/>
<ellipse rx="0.272701" ry="0.273049" transform="matrix(0.999723 -0.023539 0.0234164 0.999726 91.8977 108.235)" fill="white"/>
<ellipse rx="0.272701" ry="0.273044" transform="matrix(0.999723 -0.0235385 0.0234169 0.999726 65.4408 166.202)" fill="white"/>
<ellipse rx="0.2727" ry="0.273049" transform="matrix(0.999723 -0.0235391 0.0234163 0.999726 30.1087 217.824)" fill="white"/>
<ellipse rx="0.272701" ry="0.273049" transform="matrix(0.999723 -0.023539 0.0234164 0.999726 57.9171 194.232)" fill="white"/>
<ellipse rx="0.272701" ry="0.273044" transform="matrix(0.999723 -0.0235385 0.0234169 0.999726 37.6783 168.493)" fill="white"/>
<ellipse rx="0.272701" ry="0.273049" transform="matrix(0.999723 -0.023539 0.0234164 0.999726 41.8324 206.08)" fill="white"/>
<ellipse rx="0.272701" ry="0.273049" transform="matrix(0.999723 -0.023539 0.0234164 0.999726 90.8161 201.651)" fill="white"/>
<ellipse rx="0.272701" ry="0.273044" transform="matrix(0.999723 -0.0235385 0.0234169 0.999726 33.7013 184.971)" fill="white"/>
<ellipse rx="0.272701" ry="0.273049" transform="matrix(0.999723 -0.023539 0.0234164 0.999726 60.5807 145.016)" fill="white"/>
<ellipse rx="0.272701" ry="0.273049" transform="matrix(0.999723 -0.023539 0.0234164 0.999726 104.205 98.1145)" fill="white"/>
<ellipse rx="0.272701" ry="0.273049" transform="matrix(0.999723 -0.023539 0.0234164 0.999726 126.586 122.165)" fill="white"/>
<ellipse rx="0.272701" ry="0.273049" transform="matrix(0.999723 -0.023539 0.0234164 0.999726 149.266 182.254)" fill="white"/>
<ellipse rx="0.272701" ry="0.273049" transform="matrix(0.999723 -0.023539 0.0234164 0.999726 159.247 142.696)" fill="white"/>
<ellipse rx="0.272701" ry="0.273044" transform="matrix(0.999723 -0.0235385 0.0234169 0.999726 73.1184 144.722)" fill="white"/>
<ellipse rx="0.272701" ry="0.273049" transform="matrix(0.999723 -0.023539 0.0234164 0.999726 9.23202 118.371)" fill="white"/>
<ellipse rx="0.272701" ry="0.273049" transform="matrix(0.999723 -0.023539 0.0234164 0.999726 46.6765 156.812)" fill="white"/>
<ellipse rx="0.272701" ry="0.273049" transform="matrix(0.999723 -0.023539 0.0234164 0.999726 113.45 166.711)" fill="white"/>
<ellipse rx="0.272701" ry="0.273049" transform="matrix(0.999723 -0.023539 0.0234164 0.999726 140.245 146.42)" fill="white"/>
<ellipse rx="0.272701" ry="0.273049" transform="matrix(0.999723 -0.023539 0.0234164 0.999726 61.0255 94.2143)" fill="white"/>
<ellipse rx="0.272701" ry="0.273049" transform="matrix(0.999723 -0.023539 0.0234164 0.999726 89.2265 180.388)" fill="white"/>
<ellipse rx="0.272701" ry="0.273049" transform="matrix(0.999723 -0.023539 0.0234164 0.999726 34.3235 188.233)" fill="white"/>
<ellipse rx="0.272701" ry="0.273049" transform="matrix(0.999723 -0.023539 0.0234164 0.999726 45.4016 125.712)" fill="white"/>
<ellipse rx="0.272701" ry="0.273049" transform="matrix(0.999723 -0.023539 0.0234164 0.999726 103.345 107.965)" fill="white"/>
<ellipse rx="0.272701" ry="0.273049" transform="matrix(0.999723 -0.023539 0.0234164 0.999726 76.3816 167.583)" fill="white"/>
<ellipse rx="0.272701" ry="0.273044" transform="matrix(0.999723 -0.0235385 0.0234169 0.999726 48.3429 181.35)" fill="white"/>
<ellipse rx="0.272701" ry="0.273038" transform="matrix(0.999723 -0.023538 0.0234174 0.999726 86.1021 209.954)" fill="white"/>
<ellipse rx="0.272701" ry="0.273049" transform="matrix(0.999723 -0.023539 0.0234164 0.999726 151.355 224.804)" fill="white"/>
<ellipse rx="0.272701" ry="0.273049" transform="matrix(0.999723 -0.023539 0.0234164 0.999726 100.175 158.831)" fill="white"/>
<ellipse rx="0.272701" ry="0.273049" transform="matrix(0.999723 -0.023539 0.0234164 0.999726 129.627 228.592)" fill="white"/>
<ellipse rx="0.272701" ry="0.273049" transform="matrix(0.999723 -0.023539 0.0234164 0.999726 68.5741 230.027)" fill="white"/>
<ellipse rx="0.272701" ry="0.273038" transform="matrix(0.999723 -0.023538 0.0234174 0.999726 57.2109 210.633)" fill="white"/>
<ellipse rx="0.272701" ry="0.273049" transform="matrix(0.999723 -0.023539 0.0234164 0.999726 124.652 202.494)" fill="white"/>
<ellipse rx="0.272701" ry="0.273049" transform="matrix(0.999723 -0.023539 0.0234164 0.999726 104.966 153.804)" fill="white"/>
<ellipse rx="0.272701" ry="0.273049" transform="matrix(0.999723 -0.023539 0.0234164 0.999726 63.6828 184.266)" fill="white"/>
<ellipse rx="0.272701" ry="0.273049" transform="matrix(0.999723 -0.023539 0.0234164 0.999726 65.5412 216.991)" fill="white"/>
<ellipse rx="0.272701" ry="0.273049" transform="matrix(0.999723 -0.023539 0.0234164 0.999726 139.915 202.135)" fill="white"/>
</g>
<mask id="mask1_55_2404" style="mask-type:alpha" maskUnits="userSpaceOnUse" x="4" y="81" width="163" height="164">
<ellipse cx="85.5" cy="162.891" rx="81.5" ry="81.6088" fill="#C4C4C4"/>
</mask>
<g mask="url(#mask1_55_2404)">
<path d="M5.86304 223.107L15.2564 220.99C24.5679 218.891 34.2292 218.886 43.5427 220.976L45.7449 221.47C56.4409 223.87 67.6028 223.125 77.885 219.325V219.325C85.9925 216.329 94.6768 215.221 103.277 216.087L120.312 217.802V243.567H5.86304V223.107Z" fill="#F5F5F5"/>
<path d="M28.7411 225.322L46.4305 221.573C55.6141 219.626 65.1093 219.682 74.2692 221.738L76.7147 222.286C87.4107 224.686 98.5726 223.941 108.855 220.141V220.141C116.962 217.145 125.647 216.037 134.247 216.903L151.282 218.618V244.383H36.8329L28.7411 225.322Z" fill="white"/>
</g>
<path d="M79.0382 168.487C79.0382 187.857 88.5449 204.617 95.8144 217.433C105.46 234.439 111.167 244.5 85.5 244.5C40.4888 244.5 4 207.962 4 162.891C4 117.82 40.4888 81.2824 85.5 81.2824C112.123 80.3192 105.076 95.1641 94.825 116.757C87.7045 131.757 79.0382 150.012 79.0382 168.487Z" fill="white" fill-opacity="0.15"/>
<path d="M79.0382 168.487C79.0382 187.857 88.5449 204.617 95.8144 217.433C105.46 234.439 111.167 244.5 85.5 244.5C40.4888 244.5 4 207.962 4 162.891C4 117.82 40.4888 81.2824 85.5 81.2824C112.123 80.3192 105.076 95.1641 94.825 116.757C87.7045 131.757 79.0382 150.012 79.0382 168.487Z" stroke="white"/>
<path d="M77.795 70.09H90.8177L88.1046 86.39H80.5081L77.795 70.09Z" fill="white"/>
<path d="M69.8882 150.775L77.5432 158.43L73.275 162.698L58.3333 147.756L73.275 132.815L77.5432 137.083L69.8882 144.738H91.537C97.9415 144.738 104.084 147.282 108.612 151.811C113.141 156.339 115.685 162.482 115.685 168.886C115.685 175.291 113.141 181.433 108.612 185.961C104.084 190.49 97.9415 193.034 91.537 193.034H64.3703V186.997H91.537C96.3404 186.997 100.947 185.089 104.344 181.693C107.74 178.296 109.648 173.689 109.648 168.886C109.648 164.083 107.74 159.476 104.344 156.08C100.947 152.683 96.3404 150.775 91.537 150.775H69.8882Z" fill="white"/>
<defs>
<filter id="filter0_bd_55_2404" x="-6" y="71.2823" width="183" height="183.218" filterUnits="userSpaceOnUse" color-interpolation-filters="sRGB">
<feFlood flood-opacity="0" result="BackgroundImageFix"/>
<feGaussianBlur in="BackgroundImageFix" stdDeviation="5"/>
<feComposite in2="SourceAlpha" operator="in" result="effect1_backgroundBlur_55_2404"/>
<feColorMatrix in="SourceAlpha" type="matrix" values="0 0 0 0 0 0 0 0 0 0 0 0 0 0 0 0 0 0 127 0" result="hardAlpha"/>
<feOffset dy="4"/>
<feGaussianBlur stdDeviation="2"/>
<feComposite in2="hardAlpha" operator="out"/>
<feColorMatrix type="matrix" values="0 0 0 0 0 0 0 0 0 0 0 0 0 0 0 0 0 0 0.25 0"/>
<feBlend mode="normal" in2="effect1_backgroundBlur_55_2404" result="effect2_dropShadow_55_2404"/>
<feBlend mode="normal" in="SourceGraphic" in2="effect2_dropShadow_55_2404" result="shape"/>
</filter>
</defs>
</svg>
