<svg width="1079" height="763" viewBox="0 0 1079 763" fill="none" xmlns="http://www.w3.org/2000/svg">
<g filter="url(#filter0_d_56_2745)">
<path d="M32.8956 148.867C35.4522 101.526 75.0527 64.7201 122.454 65.6285L981.081 82.0833C1031.56 83.0507 1070.87 126.199 1067.16 176.548L1032.94 639.857C1029.64 684.518 993.332 719.58 948.582 721.311L96.4796 754.268C44.7032 756.271 2.41244 713.328 5.20659 661.589L32.8956 148.867Z" fill="#5962B2"/>
</g>
<path d="M390.964 250.651V259.901H387.929C387.724 259.636 387.489 259.365 387.224 259.088C386.959 258.811 386.664 258.564 386.339 258.347C386.014 258.118 385.659 257.937 385.273 257.805C384.888 257.66 384.472 257.588 384.027 257.588V270.108L386.339 270.56V278.401H370.152V270.56L372.464 270.108V257.588C372.019 257.588 371.603 257.66 371.218 257.805C370.832 257.937 370.477 258.118 370.152 258.347C369.826 258.564 369.531 258.811 369.266 259.088C369.001 259.365 368.767 259.636 368.562 259.901H365.527V250.651H390.964ZM421.424 260.497C421.412 260.858 421.406 261.213 421.406 261.563C421.406 261.9 421.406 262.225 421.406 262.538V265.339C421.406 267.747 421.075 269.813 420.412 271.535C419.75 273.246 418.853 274.649 417.721 275.745C416.588 276.841 415.257 277.612 413.728 278.057C412.21 278.503 410.596 278.726 408.886 278.726C406.911 278.726 405.062 278.503 403.34 278.057C401.629 277.612 400.136 276.841 398.859 275.745C397.595 274.637 396.595 273.228 395.86 271.517C395.138 269.807 394.776 267.747 394.776 265.339V260.497L392.608 260.081V252.963H406.718V260.081L404.55 260.497V262.647C404.55 262.936 404.55 263.231 404.55 263.532C404.55 263.821 404.55 264.092 404.55 264.345C404.562 264.598 404.568 264.821 404.568 265.013C404.568 265.194 404.568 265.315 404.568 265.375C404.568 265.652 404.574 265.977 404.586 266.35C404.598 266.712 404.646 267.091 404.731 267.488C404.815 267.874 404.942 268.259 405.11 268.645C405.291 269.018 405.538 269.355 405.851 269.656C406.176 269.958 406.58 270.204 407.061 270.397C407.555 270.578 408.163 270.668 408.886 270.668C409.609 270.668 410.217 270.578 410.711 270.397C411.217 270.204 411.626 269.958 411.939 269.656C412.264 269.343 412.517 268.994 412.698 268.609C412.879 268.223 413.005 267.838 413.077 267.452C413.162 267.055 413.21 266.676 413.222 266.314C413.246 265.941 413.258 265.616 413.258 265.339C413.258 265.254 413.258 265.122 413.258 264.941C413.258 264.748 413.252 264.532 413.24 264.291C413.24 264.038 413.24 263.773 413.24 263.496C413.24 263.207 413.24 262.924 413.24 262.647V260.497L411.072 260.081V252.963H423.61V260.081L421.424 260.497ZM437.738 252.963H452.534C454.462 252.963 456.13 253.047 457.539 253.216C458.96 253.385 460.165 253.626 461.152 253.939C462.152 254.252 462.965 254.637 463.591 255.095C464.229 255.553 464.723 256.071 465.073 256.649C465.434 257.215 465.675 257.841 465.795 258.528C465.928 259.202 465.994 259.925 465.994 260.696C465.994 261.49 465.916 262.237 465.759 262.936C465.615 263.634 465.338 264.279 464.928 264.869C464.519 265.447 463.952 265.971 463.23 266.441C462.519 266.898 461.598 267.29 460.466 267.615C459.346 267.928 457.991 268.169 456.401 268.338C454.811 268.506 452.938 268.591 450.782 268.591V270.777L452.95 271.192V278.401H437.738V271.192L439.906 270.777V260.497L437.738 260.081V252.963ZM450.782 264.02C451.444 264.02 452.041 263.984 452.571 263.911C453.113 263.839 453.57 263.683 453.944 263.442C454.329 263.201 454.624 262.851 454.829 262.394C455.034 261.936 455.136 261.316 455.136 260.533C455.136 259.81 455.034 259.238 454.829 258.817C454.624 258.395 454.329 258.07 453.944 257.841C453.57 257.612 453.113 257.468 452.571 257.407C452.041 257.335 451.444 257.299 450.782 257.299V264.02ZM496.508 278.401H485.704C485.367 277.774 485.018 277.112 484.657 276.413C484.295 275.703 483.946 274.962 483.609 274.191C483.271 273.42 482.952 272.625 482.651 271.806C482.362 270.987 482.115 270.144 481.91 269.277H481.314V278.401H468.27V271.192L470.438 270.777V260.497L468.27 260.081V252.963H483.067C485.03 252.963 486.722 253.047 488.143 253.216C489.577 253.385 490.787 253.632 491.775 253.957C492.774 254.282 493.581 254.679 494.196 255.149C494.81 255.607 495.286 256.131 495.623 256.721C495.972 257.299 496.207 257.937 496.327 258.636C496.448 259.335 496.508 260.075 496.508 260.858C496.508 261.653 496.43 262.376 496.273 263.026C496.129 263.676 495.864 264.273 495.478 264.815C495.093 265.357 494.563 265.856 493.888 266.314C493.226 266.76 492.377 267.181 491.341 267.579C491.558 268.012 491.877 268.53 492.299 269.133C492.732 269.723 493.202 270.331 493.708 270.957C494.214 271.572 494.714 272.168 495.207 272.746C495.713 273.324 496.147 273.818 496.508 274.227V278.401ZM481.314 264.381C481.977 264.381 482.573 264.351 483.103 264.291C483.645 264.218 484.103 264.074 484.476 263.857C484.861 263.628 485.156 263.297 485.361 262.863C485.566 262.43 485.668 261.846 485.668 261.111C485.668 260.388 485.566 259.81 485.361 259.377C485.156 258.943 484.861 258.612 484.476 258.383C484.103 258.142 483.645 257.986 483.103 257.913C482.573 257.841 481.977 257.805 481.314 257.805V264.381ZM514.556 250.072H506.878L513.003 238.51H521.855L514.556 250.072ZM512.587 264.146L517.592 263.08V268.229L512.587 267.145V271.138C513.31 271.138 514.008 271.09 514.683 270.993C515.357 270.885 515.984 270.74 516.562 270.56C517.14 270.379 517.67 270.168 518.152 269.927C518.633 269.687 519.049 269.428 519.398 269.151H521.873V278.401H499.543V271.192L501.711 270.777V260.533L499.543 260.117V252.963H521.873V262.213H519.398C519.049 261.948 518.633 261.695 518.152 261.454C517.67 261.213 517.14 261.003 516.562 260.822C515.984 260.641 515.357 260.497 514.683 260.388C514.008 260.28 513.31 260.226 512.587 260.226V264.146ZM537.808 264.688L542.433 263.622V269.133L537.808 268.049V270.777L539.976 271.246V278.401H524.764V271.192L526.932 270.777V260.533L524.764 260.117V252.963H545.775V262.213H542.758C542.24 261.671 541.56 261.207 540.717 260.822C539.874 260.425 538.904 260.226 537.808 260.226V264.688ZM548.268 238.51H557.121L563.245 250.072H555.567L548.268 238.51ZM561.294 264.146L566.299 263.08V268.229L561.294 267.145V271.138C562.017 271.138 562.715 271.09 563.39 270.993C564.064 270.885 564.691 270.74 565.269 270.56C565.847 270.379 566.377 270.168 566.859 269.927C567.34 269.687 567.756 269.428 568.105 269.151H570.58V278.401H548.25V271.192L550.418 270.777V260.533L548.25 260.117V252.963H570.58V262.213H568.105C567.756 261.948 567.34 261.695 566.859 261.454C566.377 261.213 565.847 261.003 565.269 260.822C564.691 260.641 564.064 260.497 563.39 260.388C562.715 260.28 562.017 260.226 561.294 260.226V264.146ZM601.727 278.401H590.923C590.586 277.774 590.237 277.112 589.875 276.413C589.514 275.703 589.165 274.962 588.827 274.191C588.49 273.42 588.171 272.625 587.87 271.806C587.581 270.987 587.334 270.144 587.129 269.277H586.533V278.401H573.489V271.192L575.657 270.777V260.497L573.489 260.081V252.963H588.285C590.249 252.963 591.941 253.047 593.362 253.216C594.795 253.385 596.006 253.632 596.993 253.957C597.993 254.282 598.8 254.679 599.414 255.149C600.029 255.607 600.504 256.131 600.842 256.721C601.191 257.299 601.426 257.937 601.546 258.636C601.667 259.335 601.727 260.075 601.727 260.858C601.727 261.653 601.649 262.376 601.492 263.026C601.347 263.676 601.082 264.273 600.697 264.815C600.312 265.357 599.782 265.856 599.107 266.314C598.445 266.76 597.596 267.181 596.56 267.579C596.777 268.012 597.096 268.53 597.517 269.133C597.951 269.723 598.421 270.331 598.927 270.957C599.432 271.572 599.932 272.168 600.426 272.746C600.932 273.324 601.366 273.818 601.727 274.227V278.401ZM586.533 264.381C587.195 264.381 587.792 264.351 588.322 264.291C588.864 264.218 589.321 264.074 589.695 263.857C590.08 263.628 590.375 263.297 590.58 262.863C590.785 262.43 590.887 261.846 590.887 261.111C590.887 260.388 590.785 259.81 590.58 259.377C590.375 258.943 590.08 258.612 589.695 258.383C589.321 258.142 588.864 257.986 588.322 257.913C587.792 257.841 587.195 257.805 586.533 257.805V264.381ZM617.806 264.146L622.81 263.08V268.229L617.806 267.145V271.138C618.529 271.138 619.227 271.09 619.902 270.993C620.576 270.885 621.202 270.74 621.781 270.56C622.359 270.379 622.889 270.168 623.37 269.927C623.852 269.687 624.268 269.428 624.617 269.151H627.092V278.401H604.762V271.192L606.93 270.777V260.533L604.762 260.117V252.963H627.092V262.213H624.617C624.268 261.948 623.852 261.695 623.37 261.454C622.889 261.213 622.359 261.003 621.781 260.822C621.202 260.641 620.576 260.497 619.902 260.388C619.227 260.28 618.529 260.226 617.806 260.226V264.146ZM652.132 270.397C652.132 271.517 651.97 272.511 651.644 273.378C651.331 274.233 650.898 274.98 650.344 275.618C649.802 276.245 649.151 276.769 648.392 277.19C647.646 277.612 646.839 277.955 645.971 278.22C645.104 278.473 644.195 278.617 643.243 278.654C642.304 278.702 641.365 278.726 640.425 278.726C639.124 278.726 637.95 278.696 636.902 278.635C635.854 278.575 634.915 278.443 634.084 278.238C633.265 278.033 632.536 277.81 631.898 277.57C631.271 277.317 630.717 277.07 630.236 276.829V270.56H635.348C635.854 271.355 636.432 271.939 637.083 272.312C637.733 272.686 638.402 272.872 639.088 272.872C639.293 272.872 639.522 272.854 639.775 272.818C640.028 272.782 640.263 272.668 640.479 272.475C640.696 272.282 640.877 271.987 641.021 271.59C641.178 271.18 641.256 270.608 641.256 269.873C640.281 269.789 639.311 269.669 638.347 269.512C637.396 269.343 636.481 269.12 635.601 268.843C634.734 268.566 633.927 268.217 633.18 267.796C632.434 267.362 631.783 266.844 631.229 266.242C630.687 265.628 630.26 264.911 629.947 264.092C629.633 263.261 629.477 262.309 629.477 261.238C629.477 260.009 629.633 258.937 629.947 258.022C630.26 257.094 630.687 256.299 631.229 255.637C631.771 254.974 632.41 254.426 633.144 253.993C633.891 253.559 634.692 253.216 635.547 252.963C636.402 252.71 637.294 252.536 638.221 252.439C639.148 252.331 640.076 252.277 641.003 252.277C642.316 252.277 643.49 252.343 644.526 252.475C645.574 252.608 646.507 252.776 647.326 252.981C648.158 253.186 648.886 253.415 649.513 253.668C650.151 253.909 650.717 254.143 651.211 254.372V260.696H645.737C645.279 259.828 644.755 259.196 644.165 258.799C643.575 258.401 642.972 258.202 642.358 258.202C642.153 258.202 641.919 258.238 641.654 258.311C641.389 258.371 641.142 258.516 640.913 258.744C640.684 258.973 640.491 259.31 640.335 259.756C640.178 260.202 640.1 260.804 640.1 261.563C642.087 261.635 643.828 261.846 645.321 262.195C646.827 262.544 648.085 263.068 649.097 263.767C650.109 264.453 650.867 265.345 651.373 266.441C651.879 267.525 652.132 268.843 652.132 270.397ZM677.389 258.762C677.389 258.389 677.323 258.064 677.19 257.787C677.07 257.498 676.901 257.257 676.684 257.064C676.48 256.871 676.233 256.727 675.944 256.631C675.667 256.522 675.378 256.468 675.076 256.468C674.39 256.468 673.709 256.631 673.035 256.956C672.36 257.269 671.764 257.769 671.246 258.455H665.808V252.204C666.218 252 666.658 251.801 667.127 251.608C667.597 251.415 668.103 251.235 668.645 251.066C669.584 250.777 670.698 250.518 671.987 250.289C673.288 250.048 674.793 249.928 676.504 249.928C678.395 249.928 680.105 250.103 681.635 250.452C683.176 250.789 684.489 251.319 685.573 252.042C686.657 252.764 687.494 253.686 688.084 254.806C688.674 255.914 688.97 257.233 688.97 258.762C688.97 260.087 688.753 261.219 688.319 262.159C687.898 263.086 687.313 263.869 686.567 264.508C685.832 265.146 684.971 265.664 683.983 266.061C682.996 266.459 681.936 266.784 680.804 267.037V269.151H669.295C669.283 269.163 669.265 269.169 669.241 269.169V262.936C669.434 262.851 669.765 262.749 670.235 262.629C670.716 262.496 671.258 262.346 671.861 262.177C672.463 262.008 673.089 261.816 673.74 261.599C674.402 261.37 674.998 261.117 675.528 260.84C676.07 260.563 676.516 260.256 676.865 259.919C677.214 259.569 677.389 259.184 677.389 258.762ZM669.241 271.481H680.804V278.419H669.241V271.481Z" fill="white"/>
<path d="M79.5595 73.3039C82.9695 71.5194 86.7186 70.3577 90.597 69.8838L189.418 57.8093C192.058 57.4869 194.728 57.4865 197.359 57.8081L277.252 67.5746C280.199 67.9349 283.193 67.8909 286.136 67.4442L380.134 53.1765C387.21 52.1025 394.442 53.3754 400.529 56.766L414.873 64.7556C420.824 68.0703 427.873 69.3634 434.806 68.4119L550.347 52.5544C553.011 52.1888 555.712 52.1521 558.379 52.4455L676.499 65.4402L808.633 64.9721C810.069 64.967 811.504 64.8676 812.926 64.6745L927.445 49.1375L975.595 47.7222C978.044 47.6502 980.49 47.8529 982.878 48.3258L1023.37 56.343C1030.12 57.6794 1036.13 61.1167 1040.39 66.074L1070.46 101.054C1072.07 102.931 1070.45 105.695 1067.84 105.524L1042.65 103.868C1042.01 103.826 1041.37 103.974 1040.82 104.291L1025.07 113.402C1024.5 113.728 1024.07 114.214 1023.84 114.786L1007.92 153.674C1007.26 155.277 1005.2 155.97 1003.59 155.127L927.429 115.173C916.003 109.179 901.56 110.786 891.855 119.131L887.299 123.048C886.781 123.494 886.11 123.759 885.405 123.799L841.583 126.241C838.086 126.436 834.646 127.189 831.419 128.467L800.105 140.862C796.89 142.135 793.935 143.908 791.371 146.103L765.657 168.121L749.879 179.357C746.709 181.614 743.087 183.275 739.225 184.243L711.932 191.08C711.138 191.279 710.294 191.173 709.595 190.785L697.66 184.171L648.549 149.297C648.067 148.955 647.482 148.758 646.87 148.731L638.691 148.371C630.151 147.996 621.8 150.977 615.73 156.568L610.328 161.544C609.802 162.028 609.102 162.319 608.361 162.361L582.403 163.831C569.556 164.558 558.544 172.696 555.013 184.074L551.469 195.491C550.835 197.534 548.036 198.21 546.425 196.709L504.472 157.621C495.601 149.355 481.949 147.166 470.389 152.156L439.681 165.41C438.812 165.785 437.806 165.761 436.971 165.345L419.18 156.503C411.215 152.545 401.681 152.131 393.253 155.378L378.779 160.955C366.516 165.679 352.595 159.786 348.695 148.219C345.248 137.993 333.806 131.98 322.36 134.378L304.979 138.02L273.464 143.12C272.854 143.219 272.29 143.488 271.848 143.89L222.009 189.262C221.686 189.555 221.143 189.434 221.012 189.039L202.006 131.673C197.968 119.486 183.524 113.058 170.454 117.633C164.431 119.741 157.767 119.576 151.933 117.173L145.065 114.344C142.741 113.387 140.29 112.707 137.77 112.322L97.1812 106.107L47.6211 95.4841C44.9712 94.9161 44.4887 91.6572 46.87 90.411L79.5595 73.3039Z" fill="#98C4E7"/>
<path d="M79.5595 73.3039C82.9695 71.5194 86.7186 70.3577 90.597 69.8838L189.418 57.8093C192.058 57.4869 194.728 57.4865 197.359 57.8081L277.252 67.5746C280.199 67.9349 283.193 67.8909 286.136 67.4442L380.134 53.1765C387.21 52.1025 394.442 53.3754 400.529 56.766L414.873 64.7556C420.824 68.0703 427.873 69.3634 434.806 68.4119L550.347 52.5544C553.011 52.1888 555.712 52.1521 558.379 52.4455L676.499 65.4402L808.471 64.9727C810.014 64.9672 811.556 64.8527 813.083 64.6303L917.4 49.4328L969.546 47.9C971.744 47.8354 973.94 47.992 976.095 48.3669L1023.1 56.5469C1030.02 57.75 1036.22 61.1494 1040.63 66.1501L1076.68 107.039C1078.36 108.944 1076.66 111.784 1073.99 111.527L1051.03 109.314L1033.5 109.829C1024.05 110.107 1015.24 114.448 1009.72 121.546L993.777 142.047C992.632 143.519 990.294 143.624 989.033 142.259L971.996 123.805C970.456 122.136 968.7 120.645 966.768 119.363L944.315 104.463C937.11 99.6819 927.92 98.1158 919.242 100.191L891.169 106.903C883.115 108.828 876.251 113.713 872.202 120.399L831.186 188.138C830.122 189.896 827.447 190.082 826.148 188.489L791.465 145.971C790.843 145.209 789.831 144.802 788.791 144.895L742.444 149.075C741.834 149.13 741.255 149.354 740.784 149.718L737.057 152.595C726.254 160.937 710.676 161.372 699.54 153.642L673.572 135.619C672.848 135.117 671.91 134.946 671.023 135.155L650.698 139.953C648.129 140.559 645.488 140.853 642.843 140.826L605.974 140.453C605.347 140.446 604.748 140.225 604.294 139.833C598.778 135.064 591.171 132.872 583.611 133.873L578.229 134.586C577.068 134.74 575.923 134.262 575.295 133.362L553.786 102.522C552.459 100.619 549.315 100.947 548.438 103.079L532.682 141.385C532.05 142.92 530.115 143.632 528.522 142.915L500.658 130.374C494.097 127.421 486.556 126.785 479.459 128.585L440.325 138.516C439.425 138.744 438.464 138.578 437.725 138.066L415.555 122.701C406.572 116.476 394.477 115.449 384.267 120.044L371.424 125.824C370.68 126.159 369.823 126.2 369.052 125.938L328.092 112.023C322.309 110.058 315.985 109.786 309.984 111.244L291.384 115.761C286.057 117.055 280.412 115.73 276.47 112.262C270.903 107.364 262.239 106.929 256.009 111.236L244.557 119.152C238.58 123.284 230.33 123.12 224.661 118.756L222.789 117.316C218.691 114.161 212.826 113.774 208.206 116.353C203.966 118.719 198.635 118.604 194.583 116.059L189.035 112.574C185.039 110.064 180.264 108.79 175.396 108.933L92.2293 111.377C87.8899 111.505 83.5826 110.769 79.6037 109.221L45.7652 96.0566C43.4868 95.1702 43.3297 92.2637 45.4989 91.1286L79.5595 73.3039Z" fill="#D1E6F7"/>
<path d="M67.4859 79.6223C78.6692 73.7698 93.9753 69.471 111.065 67.3829L170.231 60.1538C184.405 58.4219 199.198 58.2854 213.034 59.7473C214.867 59.941 216.715 60.0165 218.561 59.9285L281.193 56.943C283.039 56.855 284.861 56.946 286.706 57.0139C306.077 57.7273 360.298 47.5715 376.078 45.1763L502.516 17.3249C519.107 14.8066 560.603 18.0135 570.612 23.5887C580.343 29.0093 680.459 37.9858 696.742 35.751C681.79 34.1061 711.936 33.6657 696.742 35.751L819.357 34.6266L897.237 49.0336C885.853 51.3443 909.616 48.9897 897.237 49.0336C886.541 49.3479 907.058 47.04 897.237 49.0336L948.212 42.7766C971.07 42.1048 997.547 42.9811 1012.95 49.5347L1022.87 53.756C1030.09 56.8272 1035.65 60.5015 1039.23 64.5628L1070.3 99.8012C1073.11 102.988 1063.41 105.858 1057.25 103.661L1012.98 87.8615C994 81.0877 966.175 80.0365 942.762 85.2089C928.82 88.289 912.938 89.2284 898.108 87.8502L801.073 78.8332C780.193 76.893 757.767 78.5755 738.906 83.4974L625.99 112.965C621.943 114.021 616.78 113.493 614.757 111.817L600.16 99.7189C581.533 84.2815 535.785 78.3719 496.276 86.2993L411.762 103.256C392.39 107.143 370.557 107.831 350.957 105.172L284.852 96.2033C270.81 94.2981 255.502 94.0965 240.678 95.6215L127.525 107.262C101.331 109.957 74.4006 107.197 55.6296 99.8944L45.3384 95.8906C42.4283 94.7585 42.2166 92.8462 44.8489 91.4687L67.4859 79.6223Z" fill="white"/>
<defs>
<filter id="filter0_d_56_2745" x="1.07568" y="65.612" width="1070.32" height="696.724" filterUnits="userSpaceOnUse" color-interpolation-filters="sRGB">
<feFlood flood-opacity="0" result="BackgroundImageFix"/>
<feColorMatrix in="SourceAlpha" type="matrix" values="0 0 0 0 0 0 0 0 0 0 0 0 0 0 0 0 0 0 127 0" result="hardAlpha"/>
<feOffset dy="4"/>
<feGaussianBlur stdDeviation="2"/>
<feComposite in2="hardAlpha" operator="out"/>
<feColorMatrix type="matrix" values="0 0 0 0 0 0 0 0 0 0 0 0 0 0 0 0 0 0 0.25 0"/>
<feBlend mode="normal" in2="BackgroundImageFix" result="effect1_dropShadow_56_2745"/>
<feBlend mode="normal" in="SourceGraphic" in2="effect1_dropShadow_56_2745" result="shape"/>
</filter>
</defs>
</svg>
