<svg width="621" height="607" viewBox="0 0 621 607" fill="none" xmlns="http://www.w3.org/2000/svg">
<rect x="7.78064" y="388.077" width="126.623" height="90.2451" fill="#FF4E4E"/>
<path fill-rule="evenodd" clip-rule="evenodd" d="M75.4672 351.489C76.6097 347.411 78.6408 342.877 81.9208 339.085C82.2557 338.698 82.6009 338.327 82.955 337.972C90.486 330.411 98.7314 340.37 91.7676 348.421C89.1917 351.399 86.6445 354.086 84.3327 356.307C83.9038 356.719 83.483 357.115 83.0716 357.494C78.963 361.278 75.794 363.354 74.8789 362.616C74.1045 361.992 73.9203 358.155 74.9994 353.343C75.1349 352.739 75.2904 352.119 75.4672 351.489ZM72.3005 353.966C72.3069 353.963 72.314 353.959 72.3218 353.954C72.2723 353.979 72.2641 353.986 72.3005 353.966ZM75.942 331.449C75.4315 331.962 74.932 332.498 74.4462 333.06C69.1839 339.144 66.5225 346.335 65.3363 351.962C64.736 354.81 64.4511 357.547 64.4836 359.887C64.4995 361.029 64.5935 362.34 64.8781 363.638C65.0198 364.285 65.2567 365.154 65.6803 366.087C66.0524 366.907 66.8867 368.498 68.5986 369.878C72.1601 372.748 76.148 372.272 77.7026 371.95C79.4597 371.587 80.9002 370.886 81.7999 370.396C83.6973 369.364 85.6119 367.914 87.3315 366.469C90.8897 363.478 95.101 359.234 99.2422 354.446C105.358 347.375 105.802 337.84 100.406 331.385C97.7188 328.17 93.5333 325.836 88.5267 325.847C83.5268 325.858 79.1922 328.187 75.942 331.449Z" fill="white"/>
<path fill-rule="evenodd" clip-rule="evenodd" d="M61.9868 351.489C60.8442 347.411 58.8131 342.877 55.5331 339.085C55.1982 338.698 54.853 338.327 54.499 337.972C46.9679 330.411 38.7225 340.37 45.6863 348.421C48.2622 351.399 50.8094 354.086 53.1212 356.307C53.5501 356.719 53.971 357.115 54.3824 357.494C58.4909 361.278 61.6599 363.354 62.575 362.616C63.3495 361.992 63.5336 358.155 62.4545 353.343C62.319 352.739 62.1635 352.119 61.9868 351.489ZM65.1535 353.966C65.147 353.963 65.1399 353.959 65.1321 353.954C65.1816 353.979 65.1898 353.986 65.1535 353.966ZM61.5119 331.449C62.0224 331.962 62.5219 332.498 63.0077 333.06C68.27 339.144 70.9315 346.335 72.1176 351.962C72.7179 354.81 73.0029 357.547 72.9703 359.887C72.9545 361.029 72.8604 362.34 72.5758 363.638C72.4341 364.285 72.1972 365.154 71.7737 366.087C71.4015 366.907 70.5672 368.498 68.8554 369.878C65.2938 372.748 61.3059 372.272 59.7513 371.95C57.9942 371.587 56.5537 370.886 55.654 370.396C53.7566 369.364 51.842 367.914 50.1224 366.469C46.5642 363.478 42.353 359.234 38.2117 354.446C32.0961 347.375 31.6522 337.84 37.0477 331.385C39.7352 328.17 43.9206 325.836 48.9272 325.847C53.9271 325.858 58.2617 328.187 61.5119 331.449Z" fill="white"/>
<rect x="0.784973" y="365.691" width="114.031" height="22.3864" rx="5" fill="#CF1717"/>
<rect x="60.9482" y="365.691" width="79.0519" height="22.3864" rx="5" fill="#FF4E4E"/>
<rect x="7.78064" y="388.077" width="53.1676" height="90.2451" fill="#EE2424"/>
<path d="M123.679 387.848L134.24 387.848L134.24 400.328L123.679 387.848Z" fill="#EE2424"/>
<path d="M72.1416 388.077L60.9484 388.077L60.9484 400.669L72.1416 388.077Z" fill="#EE2424"/>
<rect x="25.9696" y="388.077" width="16.0902" height="90.2451" fill="white"/>
<rect x="91.0302" y="388.077" width="16.0902" height="90.2451" fill="white"/>
<rect x="105.721" y="423.056" width="126.623" height="56.6655" fill="#00CCF1"/>
<path fill-rule="evenodd" clip-rule="evenodd" d="M173.399 386.467C174.541 382.39 176.573 377.856 179.853 374.064C180.188 373.676 180.533 373.305 180.887 372.95C188.418 365.39 196.663 375.348 189.699 383.4C187.124 386.378 184.576 389.064 182.265 391.286C181.836 391.698 181.415 392.094 181.003 392.473C176.895 396.257 173.726 398.332 172.811 397.595C172.036 396.971 171.852 393.133 172.931 388.322C173.067 387.717 173.222 387.098 173.399 386.467ZM170.232 388.945C170.239 388.941 170.246 388.937 170.254 388.933C170.204 388.958 170.196 388.964 170.232 388.945ZM173.874 366.428C173.363 366.94 172.864 367.477 172.378 368.039C167.116 374.123 164.454 381.313 163.268 386.941C162.668 389.788 162.383 392.526 162.415 394.865C162.431 396.007 162.525 397.318 162.81 398.617C162.952 399.264 163.188 400.132 163.612 401.065C163.984 401.885 164.819 403.476 166.53 404.856C170.092 407.727 174.08 407.251 175.634 406.929C177.392 406.565 178.832 405.864 179.732 405.375C181.629 404.342 183.544 402.893 185.263 401.448C188.822 398.457 193.033 394.213 197.174 389.425C203.29 382.354 203.734 372.819 198.338 366.364C195.651 363.149 191.465 360.815 186.459 360.826C181.459 360.837 177.124 363.165 173.874 366.428Z" fill="white"/>
<path fill-rule="evenodd" clip-rule="evenodd" d="M159.919 386.467C158.776 382.39 156.745 377.856 153.465 374.064C153.13 373.676 152.785 373.305 152.431 372.95C144.9 365.39 136.654 375.348 143.618 383.4C146.194 386.378 148.741 389.064 151.053 391.285C151.482 391.698 151.903 392.094 152.314 392.473C156.423 396.257 159.592 398.332 160.507 397.595C161.281 396.971 161.466 393.133 160.386 388.322C160.251 387.717 160.095 387.098 159.919 386.467ZM163.085 388.945C163.079 388.941 163.072 388.937 163.064 388.933C163.114 388.958 163.122 388.964 163.085 388.945ZM159.444 366.428C159.954 366.94 160.454 367.477 160.94 368.039C166.202 374.123 168.863 381.313 170.05 386.941C170.65 389.788 170.935 392.526 170.902 394.865C170.886 396.007 170.792 397.318 170.508 398.617C170.366 399.264 170.129 400.132 169.706 401.065C169.333 401.885 168.499 403.476 166.787 404.856C163.226 407.727 159.238 407.251 157.683 406.929C155.926 406.565 154.486 405.864 153.586 405.375C151.689 404.342 149.774 402.893 148.054 401.448C144.496 398.457 140.285 394.213 136.144 389.425C130.028 382.354 129.584 372.819 134.98 366.364C137.667 363.149 141.853 360.815 146.859 360.826C151.859 360.837 156.194 363.165 159.444 366.428Z" fill="white"/>
<rect x="98.7247" y="400.669" width="115.43" height="22.3864" rx="5" fill="#018BD4"/>
<rect x="158.888" y="400.669" width="79.0519" height="22.3864" rx="5" fill="#00CCF1"/>
<rect x="105.721" y="423.056" width="53.1676" height="62.2621" fill="#01A9D2"/>
<path d="M220.451 423.056L232.344 423.056L232.344 435.648L220.451 423.056Z" fill="#01A9D2"/>
<path d="M170.082 423.056L158.889 423.056L158.889 435.648L170.082 423.056Z" fill="#01A9D2"/>
<rect x="123.91" y="423.056" width="16.0902" height="64.3608" fill="white"/>
<rect x="188.97" y="423.056" width="16.0902" height="66.4596" fill="white"/>
<path d="M463.982 132.736L599.964 488.018H327.999L463.982 132.736Z" fill="#3B9356"/>
<path d="M464.945 56.1586L560.049 304.589H369.841L464.945 56.1586Z" fill="#34A45A"/>
<mask id="mask0_57_2761" style="mask-type:alpha" maskUnits="userSpaceOnUse" x="369" y="56" width="192" height="249">
<path d="M464.945 56.1586L560.049 304.589H369.841L464.945 56.1586Z" fill="#34A45A"/>
</mask>
<g mask="url(#mask0_57_2761)">
<path d="M494.96 145.273L401.911 145.273L401.911 169.959L494.96 145.273Z" fill="#2E5B37"/>
</g>
<mask id="mask1_57_2761" style="mask-type:alpha" maskUnits="userSpaceOnUse" x="327" y="132" width="273" height="357">
<path d="M463.982 132.736L599.964 488.018H327.999L463.982 132.736Z" fill="#3B9356"/>
</mask>
<g mask="url(#mask1_57_2761)">
<path d="M400.962 304.786L568.983 304.786L568.983 344.658L400.962 304.786Z" fill="#2E5B37"/>
</g>
<path d="M464.946 0.952026L520.006 146.538H409.886L464.946 0.952026Z" fill="#37B957"/>
<g filter="url(#filter0_b_57_2761)">
<circle cx="448.548" cy="404.896" r="17.6981" fill="#E88BFF"/>
<circle cx="448.548" cy="404.896" r="17.6981" fill="url(#paint0_linear_57_2761)"/>
<g filter="url(#filter1_f_57_2761)">
<mask id="mask2_57_2761" style="mask-type:alpha" maskUnits="userSpaceOnUse" x="430" y="387" width="37" height="36">
<path d="M466.246 404.896C466.246 414.67 458.323 422.594 448.548 422.594C438.774 422.594 430.85 414.67 430.85 404.896C430.85 395.121 438.774 387.197 448.548 387.197C458.323 387.197 466.246 395.121 466.246 404.896Z" fill="#E88BFF"/>
<path d="M466.246 404.896C466.246 414.67 458.323 422.594 448.548 422.594C438.774 422.594 430.85 414.67 430.85 404.896C430.85 395.121 438.774 387.197 448.548 387.197C458.323 387.197 466.246 395.121 466.246 404.896Z" fill="url(#paint1_linear_57_2761)"/>
</mask>
<g mask="url(#mask2_57_2761)">
<path d="M462.082 398.649C462.082 409.573 453.226 418.429 442.302 418.429C431.377 418.429 422.521 409.573 422.521 398.649C422.521 387.725 431.377 378.869 442.302 378.869C453.226 378.869 462.082 387.725 462.082 398.649Z" fill="#E88BFF"/>
<path d="M462.082 398.649C462.082 409.573 453.226 418.429 442.302 418.429C431.377 418.429 422.521 409.573 422.521 398.649C422.521 387.725 431.377 378.869 442.302 378.869C453.226 378.869 462.082 387.725 462.082 398.649Z" fill="url(#paint2_linear_57_2761)"/>
</g>
</g>
</g>
<g filter="url(#filter2_b_57_2761)">
<circle cx="491.024" cy="257.575" r="17.6981" fill="url(#paint3_linear_57_2761)"/>
<circle cx="491.024" cy="257.575" r="17.6981" fill="url(#paint4_linear_57_2761)"/>
<g filter="url(#filter3_f_57_2761)">
<mask id="mask3_57_2761" style="mask-type:alpha" maskUnits="userSpaceOnUse" x="473" y="239" width="36" height="37">
<path d="M508.722 257.575C508.722 267.35 500.798 275.273 491.024 275.273C481.249 275.273 473.326 267.35 473.326 257.575C473.326 247.801 481.249 239.877 491.024 239.877C500.798 239.877 508.722 247.801 508.722 257.575Z" fill="url(#paint5_linear_57_2761)"/>
<path d="M508.722 257.575C508.722 267.35 500.798 275.273 491.024 275.273C481.249 275.273 473.326 267.35 473.326 257.575C473.326 247.801 481.249 239.877 491.024 239.877C500.798 239.877 508.722 247.801 508.722 257.575Z" fill="url(#paint6_linear_57_2761)"/>
</mask>
<g mask="url(#mask3_57_2761)">
<path d="M504.557 251.329C504.557 262.253 495.701 271.109 484.777 271.109C473.853 271.109 464.997 262.253 464.997 251.329C464.997 240.404 473.853 231.548 484.777 231.548C495.701 231.548 504.557 240.404 504.557 251.329Z" fill="url(#paint7_linear_57_2761)"/>
<path d="M504.557 251.329C504.557 262.253 495.701 271.109 484.777 271.109C473.853 271.109 464.997 262.253 464.997 251.329C464.997 240.404 473.853 231.548 484.777 231.548C495.701 231.548 504.557 240.404 504.557 251.329Z" fill="url(#paint8_linear_57_2761)"/>
</g>
</g>
</g>
<g filter="url(#filter4_b_57_2761)">
<circle cx="492.794" cy="85.9031" r="12.3887" fill="url(#paint9_linear_57_2761)"/>
<circle cx="492.794" cy="85.9031" r="12.3887" fill="url(#paint10_linear_57_2761)"/>
<g filter="url(#filter5_f_57_2761)">
<mask id="mask4_57_2761" style="mask-type:alpha" maskUnits="userSpaceOnUse" x="480" y="73" width="26" height="26">
<path d="M505.182 85.9031C505.182 92.7452 499.636 98.2918 492.794 98.2918C485.952 98.2918 480.405 92.7452 480.405 85.9031C480.405 79.061 485.952 73.5144 492.794 73.5144C499.636 73.5144 505.182 79.061 505.182 85.9031Z" fill="url(#paint11_linear_57_2761)"/>
<path d="M505.182 85.9031C505.182 92.7452 499.636 98.2918 492.794 98.2918C485.952 98.2918 480.405 92.7452 480.405 85.9031C480.405 79.061 485.952 73.5144 492.794 73.5144C499.636 73.5144 505.182 79.061 505.182 85.9031Z" fill="url(#paint12_linear_57_2761)"/>
</mask>
<g mask="url(#mask4_57_2761)">
<path d="M502.267 81.5305C502.267 89.1776 496.068 95.3767 488.421 95.3767C480.774 95.3767 474.575 89.1776 474.575 81.5305C474.575 73.8835 480.774 67.6843 488.421 67.6843C496.068 67.6843 502.267 73.8835 502.267 81.5305Z" fill="url(#paint13_linear_57_2761)"/>
<path d="M502.267 81.5305C502.267 89.1776 496.068 95.3767 488.421 95.3767C480.774 95.3767 474.575 89.1776 474.575 81.5305C474.575 73.8835 480.774 67.6843 488.421 67.6843C496.068 67.6843 502.267 73.8835 502.267 81.5305Z" fill="url(#paint14_linear_57_2761)"/>
</g>
</g>
</g>
<g filter="url(#filter6_b_57_2761)">
<circle cx="409.825" cy="210.003" r="16.1412" fill="#8FFF68"/>
<circle cx="409.825" cy="210.003" r="16.1412" fill="url(#paint15_linear_57_2761)"/>
<g filter="url(#filter7_f_57_2761)">
<mask id="mask5_57_2761" style="mask-type:alpha" maskUnits="userSpaceOnUse" x="393" y="193" width="33" height="34">
<path d="M425.966 210.003C425.966 218.918 418.74 226.144 409.825 226.144C400.911 226.144 393.684 218.918 393.684 210.003C393.684 201.088 400.911 193.862 409.825 193.862C418.74 193.862 425.966 201.088 425.966 210.003Z" fill="#8FFF68"/>
<path d="M425.966 210.003C425.966 218.918 418.74 226.144 409.825 226.144C400.911 226.144 393.684 218.918 393.684 210.003C393.684 201.088 400.911 193.862 409.825 193.862C418.74 193.862 425.966 201.088 425.966 210.003Z" fill="url(#paint16_linear_57_2761)"/>
</mask>
<g mask="url(#mask5_57_2761)">
<path d="M422.168 204.306C422.168 214.269 414.091 222.346 404.128 222.346C394.165 222.346 386.088 214.269 386.088 204.306C386.088 194.343 394.165 186.266 404.128 186.266C414.091 186.266 422.168 194.343 422.168 204.306Z" fill="#8FFF68"/>
<path d="M422.168 204.306C422.168 214.269 414.091 222.346 404.128 222.346C394.165 222.346 386.088 214.269 386.088 204.306C386.088 194.343 394.165 186.266 404.128 186.266C414.091 186.266 422.168 194.343 422.168 204.306Z" fill="url(#paint17_linear_57_2761)"/>
</g>
</g>
</g>
<circle cx="545.283" cy="372.199" r="16.1412" fill="#FFDE68"/>
<circle cx="545.283" cy="372.199" r="16.1412" fill="url(#paint18_linear_57_2761)"/>
<mask id="mask6_57_2761" style="mask-type:alpha" maskUnits="userSpaceOnUse" x="529" y="356" width="33" height="33">
<path d="M561.424 372.199C561.424 381.114 554.197 388.34 545.283 388.34C536.368 388.34 529.142 381.114 529.142 372.199C529.142 363.285 536.368 356.058 545.283 356.058C554.197 356.058 561.424 363.285 561.424 372.199Z" fill="#FFDE68"/>
<path d="M561.424 372.199C561.424 381.114 554.197 388.34 545.283 388.34C536.368 388.34 529.142 381.114 529.142 372.199C529.142 363.285 536.368 356.058 545.283 356.058C554.197 356.058 561.424 363.285 561.424 372.199Z" fill="url(#paint19_linear_57_2761)"/>
</mask>
<g mask="url(#mask6_57_2761)">
<path d="M557.625 366.502C557.625 376.465 549.549 384.542 539.585 384.542C529.622 384.542 521.545 376.465 521.545 366.502C521.545 356.539 529.622 348.462 539.585 348.462C549.549 348.462 557.625 356.539 557.625 366.502Z" fill="#FFDE68"/>
<path d="M557.625 366.502C557.625 376.465 549.549 384.542 539.585 384.542C529.622 384.542 521.545 376.465 521.545 366.502C521.545 356.539 529.622 348.462 539.585 348.462C549.549 348.462 557.625 356.539 557.625 366.502Z" fill="url(#paint20_linear_57_2761)"/>
</g>
<defs>
<filter id="filter0_b_57_2761" x="426.85" y="383.197" width="43.3962" height="43.3964" filterUnits="userSpaceOnUse" color-interpolation-filters="sRGB">
<feFlood flood-opacity="0" result="BackgroundImageFix"/>
<feGaussianBlur in="BackgroundImageFix" stdDeviation="2"/>
<feComposite in2="SourceAlpha" operator="in" result="effect1_backgroundBlur_57_2761"/>
<feBlend mode="normal" in="SourceGraphic" in2="effect1_backgroundBlur_57_2761" result="shape"/>
</filter>
<filter id="filter1_f_57_2761" x="413.85" y="370.197" width="65.2318" height="65.2321" filterUnits="userSpaceOnUse" color-interpolation-filters="sRGB">
<feFlood flood-opacity="0" result="BackgroundImageFix"/>
<feBlend mode="normal" in="SourceGraphic" in2="BackgroundImageFix" result="shape"/>
<feGaussianBlur stdDeviation="8.5" result="effect1_foregroundBlur_57_2761"/>
</filter>
<filter id="filter2_b_57_2761" x="469.326" y="235.877" width="43.3962" height="43.3962" filterUnits="userSpaceOnUse" color-interpolation-filters="sRGB">
<feFlood flood-opacity="0" result="BackgroundImageFix"/>
<feGaussianBlur in="BackgroundImageFix" stdDeviation="2"/>
<feComposite in2="SourceAlpha" operator="in" result="effect1_backgroundBlur_57_2761"/>
<feBlend mode="normal" in="SourceGraphic" in2="effect1_backgroundBlur_57_2761" result="shape"/>
</filter>
<filter id="filter3_f_57_2761" x="456.326" y="222.877" width="65.2317" height="65.2319" filterUnits="userSpaceOnUse" color-interpolation-filters="sRGB">
<feFlood flood-opacity="0" result="BackgroundImageFix"/>
<feBlend mode="normal" in="SourceGraphic" in2="BackgroundImageFix" result="shape"/>
<feGaussianBlur stdDeviation="8.5" result="effect1_foregroundBlur_57_2761"/>
</filter>
<filter id="filter4_b_57_2761" x="476.405" y="69.5144" width="32.7775" height="32.7775" filterUnits="userSpaceOnUse" color-interpolation-filters="sRGB">
<feFlood flood-opacity="0" result="BackgroundImageFix"/>
<feGaussianBlur in="BackgroundImageFix" stdDeviation="2"/>
<feComposite in2="SourceAlpha" operator="in" result="effect1_backgroundBlur_57_2761"/>
<feBlend mode="normal" in="SourceGraphic" in2="effect1_backgroundBlur_57_2761" result="shape"/>
</filter>
<filter id="filter5_f_57_2761" x="463.405" y="56.5144" width="55.8622" height="55.8623" filterUnits="userSpaceOnUse" color-interpolation-filters="sRGB">
<feFlood flood-opacity="0" result="BackgroundImageFix"/>
<feBlend mode="normal" in="SourceGraphic" in2="BackgroundImageFix" result="shape"/>
<feGaussianBlur stdDeviation="8.5" result="effect1_foregroundBlur_57_2761"/>
</filter>
<filter id="filter6_b_57_2761" x="389.684" y="189.862" width="40.2823" height="40.2823" filterUnits="userSpaceOnUse" color-interpolation-filters="sRGB">
<feFlood flood-opacity="0" result="BackgroundImageFix"/>
<feGaussianBlur in="BackgroundImageFix" stdDeviation="2"/>
<feComposite in2="SourceAlpha" operator="in" result="effect1_backgroundBlur_57_2761"/>
<feBlend mode="normal" in="SourceGraphic" in2="effect1_backgroundBlur_57_2761" result="shape"/>
</filter>
<filter id="filter7_f_57_2761" x="376.684" y="176.862" width="62.4843" height="62.4844" filterUnits="userSpaceOnUse" color-interpolation-filters="sRGB">
<feFlood flood-opacity="0" result="BackgroundImageFix"/>
<feBlend mode="normal" in="SourceGraphic" in2="BackgroundImageFix" result="shape"/>
<feGaussianBlur stdDeviation="8.5" result="effect1_foregroundBlur_57_2761"/>
</filter>
<linearGradient id="paint0_linear_57_2761" x1="423.589" y1="367.684" x2="466.246" y2="432.123" gradientUnits="userSpaceOnUse">
<stop stop-color="white"/>
<stop offset="1" stop-color="white" stop-opacity="0"/>
</linearGradient>
<linearGradient id="paint1_linear_57_2761" x1="423.589" y1="367.684" x2="466.246" y2="432.123" gradientUnits="userSpaceOnUse">
<stop stop-color="white"/>
<stop offset="1" stop-color="white" stop-opacity="0"/>
</linearGradient>
<linearGradient id="paint2_linear_57_2761" x1="414.406" y1="357.06" x2="462.082" y2="429.08" gradientUnits="userSpaceOnUse">
<stop stop-color="white"/>
<stop offset="1" stop-color="white" stop-opacity="0"/>
</linearGradient>
<linearGradient id="paint3_linear_57_2761" x1="491.024" y1="239.877" x2="491.024" y2="275.273" gradientUnits="userSpaceOnUse">
<stop stop-color="#FF9C9C"/>
<stop offset="1" stop-color="#FE1616"/>
</linearGradient>
<linearGradient id="paint4_linear_57_2761" x1="466.065" y1="220.364" x2="508.722" y2="284.803" gradientUnits="userSpaceOnUse">
<stop stop-color="white"/>
<stop offset="1" stop-color="white" stop-opacity="0"/>
</linearGradient>
<linearGradient id="paint5_linear_57_2761" x1="491.024" y1="239.877" x2="491.024" y2="275.273" gradientUnits="userSpaceOnUse">
<stop stop-color="#FF9C9C"/>
<stop offset="1" stop-color="#FE1616"/>
</linearGradient>
<linearGradient id="paint6_linear_57_2761" x1="466.065" y1="220.364" x2="508.722" y2="284.803" gradientUnits="userSpaceOnUse">
<stop stop-color="white"/>
<stop offset="1" stop-color="white" stop-opacity="0"/>
</linearGradient>
<linearGradient id="paint7_linear_57_2761" x1="484.777" y1="231.548" x2="484.777" y2="271.109" gradientUnits="userSpaceOnUse">
<stop stop-color="#FF9C9C"/>
<stop offset="1" stop-color="#FE1616"/>
</linearGradient>
<linearGradient id="paint8_linear_57_2761" x1="456.882" y1="209.739" x2="504.557" y2="281.76" gradientUnits="userSpaceOnUse">
<stop stop-color="white"/>
<stop offset="1" stop-color="white" stop-opacity="0"/>
</linearGradient>
<linearGradient id="paint9_linear_57_2761" x1="492.794" y1="73.5144" x2="492.794" y2="98.2918" gradientUnits="userSpaceOnUse">
<stop stop-color="#9FD0FF"/>
<stop offset="1" stop-color="#0A88FF"/>
</linearGradient>
<linearGradient id="paint10_linear_57_2761" x1="475.322" y1="59.8551" x2="505.182" y2="104.963" gradientUnits="userSpaceOnUse">
<stop stop-color="white"/>
<stop offset="1" stop-color="white" stop-opacity="0"/>
</linearGradient>
<linearGradient id="paint11_linear_57_2761" x1="492.794" y1="73.5144" x2="492.794" y2="98.2918" gradientUnits="userSpaceOnUse">
<stop stop-color="#FF9C9C"/>
<stop offset="1" stop-color="#FE1616"/>
</linearGradient>
<linearGradient id="paint12_linear_57_2761" x1="475.322" y1="59.8551" x2="505.182" y2="104.963" gradientUnits="userSpaceOnUse">
<stop stop-color="white"/>
<stop offset="1" stop-color="white" stop-opacity="0"/>
</linearGradient>
<linearGradient id="paint13_linear_57_2761" x1="488.421" y1="67.6843" x2="488.421" y2="95.3767" gradientUnits="userSpaceOnUse">
<stop stop-color="#9FD0FF"/>
<stop offset="1" stop-color="#0A88FF"/>
</linearGradient>
<linearGradient id="paint14_linear_57_2761" x1="468.894" y1="52.418" x2="502.267" y2="102.832" gradientUnits="userSpaceOnUse">
<stop stop-color="white"/>
<stop offset="1" stop-color="white" stop-opacity="0"/>
</linearGradient>
<linearGradient id="paint15_linear_57_2761" x1="387.062" y1="176.065" x2="425.966" y2="234.836" gradientUnits="userSpaceOnUse">
<stop stop-color="white"/>
<stop offset="1" stop-color="white" stop-opacity="0"/>
</linearGradient>
<linearGradient id="paint16_linear_57_2761" x1="387.062" y1="176.065" x2="425.966" y2="234.836" gradientUnits="userSpaceOnUse">
<stop stop-color="white"/>
<stop offset="1" stop-color="white" stop-opacity="0"/>
</linearGradient>
<linearGradient id="paint17_linear_57_2761" x1="378.687" y1="166.375" x2="422.168" y2="232.06" gradientUnits="userSpaceOnUse">
<stop stop-color="white"/>
<stop offset="1" stop-color="white" stop-opacity="0"/>
</linearGradient>
<linearGradient id="paint18_linear_57_2761" x1="522.52" y1="338.261" x2="561.424" y2="397.032" gradientUnits="userSpaceOnUse">
<stop stop-color="white"/>
<stop offset="1" stop-color="white" stop-opacity="0"/>
</linearGradient>
<linearGradient id="paint19_linear_57_2761" x1="522.52" y1="338.261" x2="561.424" y2="397.032" gradientUnits="userSpaceOnUse">
<stop stop-color="white"/>
<stop offset="1" stop-color="white" stop-opacity="0"/>
</linearGradient>
<linearGradient id="paint20_linear_57_2761" x1="514.144" y1="328.572" x2="557.625" y2="394.256" gradientUnits="userSpaceOnUse">
<stop stop-color="white"/>
<stop offset="1" stop-color="white" stop-opacity="0"/>
</linearGradient>
</defs>
</svg>
