<svg width="320" height="568" viewBox="0 0 320 568" fill="none" xmlns="http://www.w3.org/2000/svg">
<path d="M0 0H320V568H0V0Z" fill="#6D81BD"/>
<g filter="url(#filter0_d_17_1791)">
<path d="M19.9463 102.75H28.2588V106.776L27.0713 107.008V112.742L28.2588 112.974V117H19.9463V112.974L21.1338 112.742V107.008L19.9463 106.776V102.75ZM34.5674 110.144V113.085L35.6899 113.289V117H30.105V113.298L31.2183 113.085V107.806L30.105 107.593V103.938H36.8032L41.2656 110.979V107.825L40.1523 107.593V103.938H45.728V107.593L44.6147 107.806V113.085L45.728 113.298V117H39.0298L34.5674 110.144ZM57.6587 103.938C58.4998 104.117 59.2575 104.37 59.9316 104.698C60.6058 105.026 61.1779 105.447 61.6479 105.96C62.1242 106.467 62.4891 107.079 62.7427 107.797C62.9963 108.508 63.123 109.34 63.123 110.292C63.123 111.127 63.0241 111.876 62.8262 112.538C62.6344 113.193 62.3561 113.771 61.9912 114.272C61.6325 114.767 61.1903 115.188 60.6646 115.534C60.1388 115.881 59.5451 116.162 58.8833 116.378C58.2277 116.595 57.5041 116.753 56.7124 116.852C55.9269 116.951 55.0889 117 54.1982 117H47.5V113.298L48.6133 113.085V107.491L47.5 107.277V103.938H57.6587ZM55.0518 113.085C55.4661 113.085 55.8156 113.054 56.1001 112.992C56.3846 112.93 56.6165 112.844 56.7959 112.732C56.9814 112.621 57.1237 112.482 57.2227 112.315C57.3278 112.148 57.402 111.962 57.4453 111.758C57.4948 111.554 57.5226 111.328 57.5288 111.081C57.535 110.834 57.5381 110.571 57.5381 110.292C57.5381 110.014 57.535 109.751 57.5288 109.504C57.5226 109.257 57.4948 109.031 57.4453 108.827C57.402 108.616 57.3278 108.431 57.2227 108.27C57.1237 108.103 56.9814 107.964 56.7959 107.853C56.6165 107.735 56.3846 107.645 56.1001 107.583C55.8156 107.522 55.4661 107.491 55.0518 107.491H54.1982V113.085H55.0518ZM64.4683 103.938H72.2798V107.593L71.1665 107.806V113.085L72.2798 113.298V117H64.4683V113.298L65.5815 113.085V107.806L64.4683 107.593V103.938ZM81.7241 120.776C81.4829 120.578 81.2293 120.352 80.9634 120.099C80.6974 119.845 80.4346 119.564 80.1748 119.254C79.9212 118.951 79.6831 118.617 79.4604 118.252C79.2378 117.894 79.0522 117.504 78.9038 117.083C78.1307 116.91 77.4194 116.647 76.77 116.295C76.1268 115.942 75.5701 115.488 75.1001 114.931C74.6362 114.375 74.2744 113.713 74.0146 112.946C73.7549 112.179 73.625 111.294 73.625 110.292C73.625 109.086 73.826 108.06 74.228 107.212C74.6362 106.359 75.1929 105.666 75.8979 105.134C76.603 104.596 77.4287 104.203 78.375 103.956C79.3213 103.709 80.3387 103.585 81.4272 103.585C82.5096 103.585 83.5239 103.709 84.4702 103.956C85.4227 104.203 86.2515 104.596 86.9565 105.134C87.6678 105.666 88.2275 106.359 88.6357 107.212C89.0439 108.06 89.248 109.086 89.248 110.292C89.248 111.22 89.1336 112.049 88.9048 112.779C88.6821 113.502 88.3667 114.136 87.9585 114.681C87.5565 115.219 87.071 115.673 86.502 116.044C85.9391 116.409 85.3175 116.697 84.6372 116.907C84.897 117.229 85.1598 117.541 85.4258 117.844C85.6917 118.153 85.9206 118.416 86.1123 118.633V120.776H81.7241ZM81.4272 107.537H81.3345C80.9819 107.537 80.6851 107.583 80.4438 107.676C80.2088 107.769 80.0109 107.893 79.8501 108.047C79.6955 108.202 79.5749 108.378 79.4883 108.576C79.4017 108.768 79.3368 108.963 79.2935 109.161C79.2563 109.359 79.2316 109.553 79.2192 109.745C79.2131 109.937 79.21 110.104 79.21 110.246C79.21 110.388 79.2131 110.558 79.2192 110.756C79.2254 110.948 79.2471 111.152 79.2842 111.369C79.3213 111.579 79.3831 111.789 79.4697 112C79.5563 112.21 79.68 112.398 79.8408 112.565C80.0078 112.732 80.2181 112.868 80.4717 112.974C80.7314 113.073 81.05 113.122 81.4272 113.122C81.7983 113.122 82.1107 113.073 82.3643 112.974C82.624 112.875 82.8343 112.745 82.9951 112.584C83.1621 112.417 83.292 112.231 83.3848 112.027C83.4775 111.823 83.5425 111.619 83.5796 111.415C83.6229 111.205 83.6476 111.001 83.6538 110.803C83.6662 110.605 83.6724 110.435 83.6724 110.292C83.6724 110.15 83.6693 109.983 83.6631 109.792C83.6569 109.6 83.6322 109.402 83.5889 109.198C83.5456 108.994 83.4806 108.793 83.394 108.595C83.3075 108.397 83.1838 108.221 83.0229 108.066C82.8683 107.905 82.6673 107.778 82.4199 107.686C82.1725 107.587 81.8726 107.537 81.52 107.537H81.4272ZM104.982 107.806C104.976 107.992 104.973 108.174 104.973 108.354C104.973 108.527 104.973 108.694 104.973 108.854V110.292C104.973 111.529 104.803 112.59 104.463 113.475C104.123 114.353 103.662 115.073 103.081 115.636C102.499 116.199 101.816 116.595 101.03 116.824C100.251 117.053 99.4222 117.167 98.5439 117.167C97.5296 117.167 96.5802 117.053 95.6958 116.824C94.8175 116.595 94.0506 116.199 93.395 115.636C92.7456 115.067 92.2323 114.344 91.855 113.465C91.4839 112.587 91.2983 111.529 91.2983 110.292V107.806L90.1851 107.593V103.938H97.4307V107.593L96.3174 107.806V108.91C96.3174 109.059 96.3174 109.21 96.3174 109.365C96.3174 109.513 96.3174 109.652 96.3174 109.782C96.3236 109.912 96.3267 110.027 96.3267 110.125C96.3267 110.218 96.3267 110.28 96.3267 110.311C96.3267 110.453 96.3298 110.62 96.3359 110.812C96.3421 110.998 96.3669 111.192 96.4102 111.396C96.4535 111.594 96.5184 111.792 96.605 111.99C96.6978 112.182 96.8245 112.355 96.9854 112.51C97.1523 112.664 97.3595 112.791 97.6069 112.89C97.8605 112.983 98.1729 113.029 98.5439 113.029C98.915 113.029 99.2274 112.983 99.481 112.89C99.7407 112.791 99.951 112.664 100.112 112.51C100.279 112.349 100.409 112.17 100.501 111.972C100.594 111.774 100.659 111.576 100.696 111.378C100.74 111.174 100.764 110.979 100.771 110.793C100.783 110.602 100.789 110.435 100.789 110.292C100.789 110.249 100.789 110.181 100.789 110.088C100.789 109.989 100.786 109.878 100.78 109.754C100.78 109.625 100.78 109.488 100.78 109.346C100.78 109.198 100.78 109.052 100.78 108.91V107.806L99.6665 107.593V103.938H106.105V107.593L104.982 107.806ZM114.241 109.68L116.811 109.133V111.777L114.241 111.22V113.271C114.612 113.271 114.971 113.246 115.317 113.196C115.664 113.141 115.985 113.066 116.282 112.974C116.579 112.881 116.851 112.773 117.099 112.649C117.346 112.525 117.559 112.392 117.739 112.25H119.01V117H107.543V113.298L108.656 113.085V107.825L107.543 107.611V103.938H119.01V108.688H117.739C117.559 108.551 117.346 108.422 117.099 108.298C116.851 108.174 116.579 108.066 116.282 107.973C115.985 107.88 115.664 107.806 115.317 107.75C114.971 107.695 114.612 107.667 114.241 107.667V109.68ZM119.882 117V113.734L124.678 107.212C124.35 107.212 124.044 107.246 123.76 107.314C123.475 107.376 123.212 107.46 122.971 107.565C122.73 107.67 122.51 107.788 122.312 107.917C122.121 108.041 121.951 108.168 121.802 108.298H120.374V103.938H130.486V107.463L126.209 113.586C126.345 113.604 126.481 113.614 126.617 113.614C126.883 113.614 127.137 113.586 127.378 113.53C127.619 113.468 127.842 113.391 128.046 113.298C128.25 113.206 128.436 113.104 128.603 112.992C128.776 112.875 128.927 112.76 129.057 112.649H130.486V117H119.882ZM144.522 113.438C144.782 113.438 145.03 113.403 145.265 113.335C145.5 113.261 145.716 113.168 145.914 113.057C146.118 112.94 146.301 112.813 146.461 112.677C146.628 112.535 146.774 112.392 146.897 112.25H148.447V117H137.833V113.298L138.947 113.085V107.806L137.833 107.593V103.938H145.645V107.593L144.522 107.806V113.438ZM156.397 109.68L158.967 109.133V111.777L156.397 111.22V113.271C156.769 113.271 157.127 113.246 157.474 113.196C157.82 113.141 158.142 113.066 158.438 112.974C158.735 112.881 159.007 112.773 159.255 112.649C159.502 112.525 159.716 112.392 159.895 112.25H161.166V117H149.699V113.298L150.812 113.085V107.825L149.699 107.611V103.938H161.166V108.688H159.895C159.716 108.551 159.502 108.422 159.255 108.298C159.007 108.174 158.735 108.066 158.438 107.973C158.142 107.88 157.82 107.806 157.474 107.75C157.127 107.695 156.769 107.667 156.397 107.667V109.68ZM174.024 112.89C174.024 113.465 173.941 113.976 173.774 114.421C173.613 114.86 173.39 115.243 173.106 115.571C172.828 115.893 172.494 116.162 172.104 116.378C171.721 116.595 171.306 116.771 170.861 116.907C170.416 117.037 169.949 117.111 169.46 117.13C168.978 117.155 168.495 117.167 168.013 117.167C167.345 117.167 166.742 117.152 166.204 117.121C165.666 117.09 165.183 117.022 164.756 116.917C164.336 116.811 163.962 116.697 163.634 116.573C163.312 116.443 163.028 116.317 162.78 116.193V112.974H165.406C165.666 113.382 165.962 113.682 166.296 113.874C166.63 114.065 166.974 114.161 167.326 114.161C167.431 114.161 167.549 114.152 167.679 114.133C167.809 114.115 167.929 114.056 168.041 113.957C168.152 113.858 168.245 113.707 168.319 113.502C168.399 113.292 168.439 112.998 168.439 112.621C167.938 112.578 167.441 112.516 166.946 112.436C166.457 112.349 165.987 112.235 165.536 112.092C165.09 111.95 164.676 111.771 164.292 111.554C163.909 111.332 163.575 111.066 163.291 110.756C163.012 110.441 162.793 110.073 162.632 109.652C162.471 109.226 162.391 108.737 162.391 108.187C162.391 107.556 162.471 107.005 162.632 106.535C162.793 106.059 163.012 105.651 163.291 105.311C163.569 104.97 163.897 104.689 164.274 104.466C164.657 104.244 165.069 104.067 165.508 103.938C165.947 103.808 166.405 103.718 166.881 103.668C167.357 103.613 167.833 103.585 168.31 103.585C168.984 103.585 169.587 103.619 170.119 103.687C170.657 103.755 171.136 103.842 171.557 103.947C171.983 104.052 172.358 104.169 172.679 104.299C173.007 104.423 173.298 104.544 173.551 104.661V107.908H170.74C170.505 107.463 170.236 107.138 169.933 106.934C169.63 106.73 169.321 106.628 169.005 106.628C168.9 106.628 168.78 106.646 168.644 106.684C168.507 106.715 168.381 106.789 168.263 106.906C168.146 107.024 168.047 107.197 167.966 107.426C167.886 107.655 167.846 107.964 167.846 108.354C168.866 108.391 169.76 108.499 170.527 108.678C171.3 108.858 171.946 109.127 172.466 109.485C172.985 109.838 173.375 110.296 173.635 110.858C173.895 111.415 174.024 112.092 174.024 112.89ZM191.874 111.536C191.874 112.525 191.729 113.382 191.438 114.105C191.147 114.823 190.733 115.417 190.195 115.887C189.657 116.357 189.007 116.688 188.247 116.879C187.492 117.071 186.648 117.167 185.714 117.167C185.064 117.167 184.483 117.148 183.97 117.111C183.456 117.08 182.999 117.012 182.597 116.907C182.195 116.802 181.839 116.688 181.53 116.564C181.221 116.434 180.951 116.31 180.723 116.193V112.194H183.348C183.571 112.603 183.831 112.906 184.127 113.104C184.424 113.295 184.721 113.391 185.018 113.391C185.173 113.391 185.327 113.351 185.482 113.271C185.637 113.19 185.773 113.073 185.89 112.918C186.014 112.757 186.113 112.562 186.187 112.333C186.261 112.105 186.298 111.839 186.298 111.536V107.806L185.176 107.593V103.938H192.997V107.593L191.874 107.806V111.536ZM201.754 117.167C200.666 117.167 199.645 117.053 198.693 116.824C197.747 116.589 196.921 116.19 196.216 115.627C195.517 115.058 194.963 114.334 194.555 113.456C194.153 112.578 193.952 111.523 193.952 110.292C193.952 109.086 194.153 108.06 194.555 107.212C194.963 106.359 195.52 105.666 196.225 105.134C196.93 104.596 197.756 104.203 198.702 103.956C199.648 103.709 200.666 103.585 201.754 103.585C202.837 103.585 203.851 103.709 204.797 103.956C205.75 104.203 206.579 104.596 207.284 105.134C207.995 105.666 208.555 106.359 208.963 107.212C209.371 108.06 209.575 109.086 209.575 110.292C209.575 111.109 209.482 111.851 209.297 112.519C209.111 113.181 208.848 113.771 208.508 114.291C208.174 114.804 207.769 115.25 207.293 115.627C206.823 115.998 206.297 116.307 205.716 116.555C205.134 116.796 204.51 116.957 203.842 117.037C203.174 117.124 202.478 117.167 201.754 117.167ZM201.754 107.537C201.389 107.537 201.08 107.583 200.827 107.676C200.579 107.769 200.372 107.89 200.205 108.038C200.044 108.187 199.917 108.357 199.825 108.548C199.732 108.74 199.664 108.938 199.621 109.142C199.583 109.34 199.559 109.538 199.546 109.736C199.54 109.928 199.537 110.098 199.537 110.246C199.537 110.388 199.54 110.558 199.546 110.756C199.553 110.948 199.574 111.152 199.611 111.369C199.648 111.579 199.71 111.789 199.797 112C199.883 112.21 200.007 112.398 200.168 112.565C200.335 112.732 200.545 112.868 200.799 112.974C201.059 113.073 201.377 113.122 201.754 113.122C202.125 113.122 202.438 113.073 202.691 112.974C202.951 112.875 203.161 112.745 203.322 112.584C203.489 112.417 203.619 112.231 203.712 112.027C203.805 111.823 203.87 111.619 203.907 111.415C203.95 111.205 203.975 111.001 203.981 110.803C203.993 110.605 204 110.435 204 110.292C204 110.144 203.993 109.974 203.981 109.782C203.975 109.584 203.95 109.383 203.907 109.179C203.87 108.975 203.805 108.777 203.712 108.585C203.619 108.388 203.489 108.211 203.322 108.057C203.161 107.902 202.951 107.778 202.691 107.686C202.438 107.587 202.125 107.537 201.754 107.537ZM225.291 107.806C225.285 107.992 225.282 108.174 225.282 108.354C225.282 108.527 225.282 108.694 225.282 108.854V110.292C225.282 111.529 225.112 112.59 224.771 113.475C224.431 114.353 223.971 115.073 223.389 115.636C222.808 116.199 222.124 116.595 221.339 116.824C220.56 117.053 219.731 117.167 218.853 117.167C217.838 117.167 216.889 117.053 216.004 116.824C215.126 116.595 214.359 116.199 213.704 115.636C213.054 115.067 212.541 114.344 212.164 113.465C211.792 112.587 211.607 111.529 211.607 110.292V107.806L210.494 107.593V103.938H217.739V107.593L216.626 107.806V108.91C216.626 109.059 216.626 109.21 216.626 109.365C216.626 109.513 216.626 109.652 216.626 109.782C216.632 109.912 216.635 110.027 216.635 110.125C216.635 110.218 216.635 110.28 216.635 110.311C216.635 110.453 216.638 110.62 216.645 110.812C216.651 110.998 216.675 111.192 216.719 111.396C216.762 111.594 216.827 111.792 216.914 111.99C217.006 112.182 217.133 112.355 217.294 112.51C217.461 112.664 217.668 112.791 217.916 112.89C218.169 112.983 218.481 113.029 218.853 113.029C219.224 113.029 219.536 112.983 219.79 112.89C220.049 112.791 220.26 112.664 220.42 112.51C220.587 112.349 220.717 112.17 220.81 111.972C220.903 111.774 220.968 111.576 221.005 111.378C221.048 111.174 221.073 110.979 221.079 110.793C221.091 110.602 221.098 110.435 221.098 110.292C221.098 110.249 221.098 110.181 221.098 110.088C221.098 109.989 221.095 109.878 221.088 109.754C221.088 109.625 221.088 109.488 221.088 109.346C221.088 109.198 221.088 109.052 221.088 108.91V107.806L219.975 107.593V103.938H226.414V107.593L225.291 107.806ZM234.55 109.68L237.12 109.133V111.777L234.55 111.22V113.271C234.921 113.271 235.28 113.246 235.626 113.196C235.972 113.141 236.294 113.066 236.591 112.974C236.888 112.881 237.16 112.773 237.407 112.649C237.655 112.525 237.868 112.392 238.047 112.25H239.318V117H227.852V113.298L228.965 113.085V107.825L227.852 107.611V103.938H239.318V108.688H238.047C237.868 108.551 237.655 108.422 237.407 108.298C237.16 108.174 236.888 108.066 236.591 107.973C236.294 107.88 235.972 107.806 235.626 107.75C235.28 107.695 234.921 107.667 234.55 107.667V109.68ZM255.22 107.806C255.214 107.992 255.21 108.174 255.21 108.354C255.21 108.527 255.21 108.694 255.21 108.854V110.292C255.21 111.529 255.04 112.59 254.7 113.475C254.36 114.353 253.899 115.073 253.318 115.636C252.736 116.199 252.053 116.595 251.268 116.824C250.488 117.053 249.66 117.167 248.781 117.167C247.767 117.167 246.818 117.053 245.933 116.824C245.055 116.595 244.288 116.199 243.632 115.636C242.983 115.067 242.47 114.344 242.092 113.465C241.721 112.587 241.536 111.529 241.536 110.292V107.806L240.422 107.593V103.938H247.668V107.593L246.555 107.806V108.91C246.555 109.059 246.555 109.21 246.555 109.365C246.555 109.513 246.555 109.652 246.555 109.782C246.561 109.912 246.564 110.027 246.564 110.125C246.564 110.218 246.564 110.28 246.564 110.311C246.564 110.453 246.567 110.62 246.573 110.812C246.579 110.998 246.604 111.192 246.647 111.396C246.691 111.594 246.756 111.792 246.842 111.99C246.935 112.182 247.062 112.355 247.223 112.51C247.39 112.664 247.597 112.791 247.844 112.89C248.098 112.983 248.41 113.029 248.781 113.029C249.152 113.029 249.465 112.983 249.718 112.89C249.978 112.791 250.188 112.664 250.349 112.51C250.516 112.349 250.646 112.17 250.739 111.972C250.832 111.774 250.896 111.576 250.934 111.378C250.977 111.174 251.002 110.979 251.008 110.793C251.02 110.602 251.026 110.435 251.026 110.292C251.026 110.249 251.026 110.181 251.026 110.088C251.026 109.989 251.023 109.878 251.017 109.754C251.017 109.625 251.017 109.488 251.017 109.346C251.017 109.198 251.017 109.052 251.017 108.91V107.806L249.904 107.593V103.938H256.342V107.593L255.22 107.806ZM272.29 117H266.742C266.569 116.678 266.39 116.338 266.204 115.979C266.019 115.615 265.839 115.234 265.666 114.838C265.493 114.443 265.329 114.034 265.174 113.614C265.026 113.193 264.899 112.76 264.794 112.315H264.488V117H257.79V113.298L258.903 113.085V107.806L257.79 107.593V103.938H265.388C266.396 103.938 267.265 103.981 267.995 104.067C268.731 104.154 269.352 104.281 269.859 104.448C270.373 104.615 270.787 104.819 271.103 105.06C271.418 105.295 271.662 105.564 271.835 105.867C272.015 106.164 272.135 106.492 272.197 106.851C272.259 107.209 272.29 107.59 272.29 107.992C272.29 108.4 272.25 108.771 272.169 109.105C272.095 109.439 271.959 109.745 271.761 110.023C271.563 110.302 271.291 110.558 270.945 110.793C270.605 111.022 270.169 111.239 269.637 111.443C269.748 111.666 269.912 111.931 270.128 112.241C270.351 112.544 270.592 112.856 270.852 113.178C271.112 113.493 271.368 113.799 271.622 114.096C271.882 114.393 272.104 114.647 272.29 114.857V117ZM264.488 109.801C264.828 109.801 265.134 109.785 265.406 109.754C265.685 109.717 265.92 109.643 266.111 109.532C266.309 109.414 266.461 109.244 266.566 109.021C266.671 108.799 266.724 108.499 266.724 108.122C266.724 107.75 266.671 107.454 266.566 107.231C266.461 107.008 266.309 106.838 266.111 106.721C265.92 106.597 265.685 106.517 265.406 106.479C265.134 106.442 264.828 106.424 264.488 106.424V109.801ZM285.223 112.89C285.223 113.465 285.139 113.976 284.972 114.421C284.811 114.86 284.589 115.243 284.304 115.571C284.026 115.893 283.692 116.162 283.302 116.378C282.919 116.595 282.504 116.771 282.059 116.907C281.614 117.037 281.147 117.111 280.658 117.13C280.176 117.155 279.693 117.167 279.211 117.167C278.543 117.167 277.94 117.152 277.402 117.121C276.864 117.09 276.381 117.022 275.955 116.917C275.534 116.811 275.16 116.697 274.832 116.573C274.51 116.443 274.226 116.317 273.979 116.193V112.974H276.604C276.864 113.382 277.161 113.682 277.495 113.874C277.829 114.065 278.172 114.161 278.524 114.161C278.63 114.161 278.747 114.152 278.877 114.133C279.007 114.115 279.127 114.056 279.239 113.957C279.35 113.858 279.443 113.707 279.517 113.502C279.597 113.292 279.638 112.998 279.638 112.621C279.137 112.578 278.639 112.516 278.144 112.436C277.655 112.349 277.185 112.235 276.734 112.092C276.289 111.95 275.874 111.771 275.491 111.554C275.107 111.332 274.773 111.066 274.489 110.756C274.21 110.441 273.991 110.073 273.83 109.652C273.669 109.226 273.589 108.737 273.589 108.187C273.589 107.556 273.669 107.005 273.83 106.535C273.991 106.059 274.21 105.651 274.489 105.311C274.767 104.97 275.095 104.689 275.472 104.466C275.856 104.244 276.267 104.067 276.706 103.938C277.145 103.808 277.603 103.718 278.079 103.668C278.555 103.613 279.032 103.585 279.508 103.585C280.182 103.585 280.785 103.619 281.317 103.687C281.855 103.755 282.334 103.842 282.755 103.947C283.182 104.052 283.556 104.169 283.877 104.299C284.205 104.423 284.496 104.544 284.75 104.661V107.908H281.938C281.703 107.463 281.434 107.138 281.131 106.934C280.828 106.73 280.519 106.628 280.204 106.628C280.098 106.628 279.978 106.646 279.842 106.684C279.706 106.715 279.579 106.789 279.461 106.906C279.344 107.024 279.245 107.197 279.165 107.426C279.084 107.655 279.044 107.964 279.044 108.354C280.064 108.391 280.958 108.499 281.725 108.678C282.498 108.858 283.145 109.127 283.664 109.485C284.184 109.838 284.573 110.296 284.833 110.858C285.093 111.415 285.223 112.092 285.223 112.89Z" fill="white"/>
</g>
<path fill-rule="evenodd" clip-rule="evenodd" d="M192.548 441.326C191.787 441.44 191.187 440.687 191.467 439.971L198.551 421.881C198.867 421.073 199.992 421.025 200.378 421.803L209.028 439.223C209.371 439.912 208.839 440.713 208.071 440.664L207.944 440.656C207.138 440.605 206.608 441.481 207.027 442.171L211.538 449.613C211.952 450.296 211.439 451.163 210.641 451.129L209.978 451.1C209.177 451.066 208.664 451.942 209.087 452.625L215.18 462.466C215.598 463.142 215.1 464.011 214.306 463.991L205.569 463.77C204.99 463.756 204.52 464.234 204.546 464.813L205.086 477.061C205.111 477.612 204.683 478.079 204.131 478.102L199.77 478.288C199.219 478.312 198.752 477.884 198.727 477.332L198.187 465.084C198.161 464.505 197.651 464.069 197.076 464.132L188.391 465.096C187.601 465.183 187.029 464.36 187.386 463.651L192.589 453.328C192.95 452.612 192.363 451.783 191.567 451.885L190.909 451.97C190.118 452.072 189.53 451.252 189.882 450.536L193.721 442.739C194.077 442.015 193.472 441.188 192.674 441.307L192.548 441.326Z" fill="#BBC2FF"/>
<path d="M192.313 453.872L186.555 465.3L191.988 464.697L195.349 453.513L192.313 453.872Z" fill="#E2DBFF"/>
<path d="M193.349 443.358L189.059 452.209L193.438 451.644L195.889 442.982L193.349 443.358Z" fill="#E2DBFF"/>
<path d="M199.373 419.78L190.837 441.582L194.02 441.106L199.373 419.78Z" fill="#E2DBFF"/>
<path fill-rule="evenodd" clip-rule="evenodd" d="M145.534 470.479C144.91 470.592 144.397 469.986 144.61 469.39L149.648 455.298C149.94 454.481 151.062 454.4 151.472 455.165L158.533 468.379C158.832 468.938 158.414 469.611 157.78 469.59V469.59C157.115 469.568 156.7 470.302 157.062 470.861L160.658 476.412C161.065 477.04 160.608 477.867 159.86 477.857V477.857C159.108 477.848 158.653 478.683 159.068 479.31L163.798 486.464C164.237 487.127 163.765 488.01 162.97 488.014L156.604 488.044C156.025 488.046 155.57 488.539 155.612 489.116L156.303 498.433C156.344 498.984 155.93 499.463 155.38 499.503L152.319 499.725C151.768 499.765 151.288 499.351 151.247 498.8L150.557 489.483C150.514 488.906 149.991 488.484 149.418 488.565L143.115 489.456C142.329 489.567 141.732 488.761 142.068 488.042L145.693 480.282C146.011 479.601 145.437 478.84 144.695 478.959V478.959C143.956 479.076 143.383 478.324 143.693 477.644L146.432 471.633C146.707 471.028 146.189 470.361 145.534 470.479V470.479Z" fill="#C4C3FE"/>
<path fill-rule="evenodd" clip-rule="evenodd" d="M144.13 470.732L150.407 453.174L149.175 469.823L144.13 470.732ZM146.173 472.087L142.968 479.234L149.914 478.127L150.199 471.367L146.173 472.087ZM145.598 480.48L141.286 489.714L149.908 488.497L150.415 479.764L145.598 480.48Z" fill="#E9DBFF"/>
<path d="M145.598 480.48L141.286 489.714L145.597 489.106L148.007 480.122L145.598 480.48Z" fill="#E9DBFF"/>
<path d="M146.173 472.087L142.968 479.234L146.441 478.68L148.186 471.727L146.173 472.087Z" fill="#E9DBFF"/>
<path d="M150.407 453.174L144.13 470.732L146.653 470.278L150.407 453.174Z" fill="#E9DBFF"/>
<path fill-rule="evenodd" clip-rule="evenodd" d="M52.529 460.757C52.8467 460.878 53.1758 460.61 53.1217 460.274L52.0114 453.39C51.8732 452.533 50.7847 452.247 50.2431 452.924L45.8903 458.37C45.6782 458.635 45.8327 459.031 46.1686 459.082V459.082C46.5209 459.136 46.6676 459.564 46.4225 459.823L43.9877 462.392C43.7122 462.683 43.8717 463.164 44.2664 463.232V463.232C44.6633 463.301 44.8216 463.786 44.5418 464.076L41.9492 466.761C41.3975 467.332 41.7002 468.288 42.4804 468.438L44.499 468.825C45.0675 468.934 45.4251 469.502 45.2778 470.062L44.2496 473.972C44.1091 474.506 44.4282 475.053 44.9623 475.193L45.6541 475.376C46.1882 475.516 46.735 475.197 46.8755 474.663L47.9037 470.753C48.051 470.193 48.6415 469.875 49.1901 470.06L51.1377 470.717C51.8905 470.971 52.6242 470.288 52.425 469.519L51.4889 465.905C51.3878 465.515 51.7641 465.171 52.1435 465.306V465.306C52.5208 465.441 52.8961 465.101 52.7993 464.712L51.9439 461.277C51.8577 460.931 52.1958 460.63 52.529 460.757V460.757Z" fill="#CCCDFF"/>
<path d="M51.5194 466.019L52.8884 471.308L50.6782 470.562L50.2863 465.593L51.5194 466.019Z" fill="#E9E6FF"/>
<path d="M52.0358 461.541L53.0257 465.621L51.2512 464.988L51.0111 461.153L52.0358 461.541Z" fill="#E9E6FF"/>
<path d="M51.652 451.161L53.2434 461.028L51.9596 460.541L51.652 451.161Z" fill="#E9E6FF"/>
<path fill-rule="evenodd" clip-rule="evenodd" d="M33.3519 449.321C33.7697 449.417 34.135 449.024 34.0098 448.615L31.2677 439.643C31.0142 438.814 29.8965 438.68 29.4521 439.425L24.6435 447.493C24.4239 447.861 24.685 448.329 25.1137 448.334V448.334C25.5634 448.34 25.8202 448.849 25.5582 449.215L22.9557 452.849C22.6612 453.26 22.9431 453.833 23.4484 453.85V453.85C23.9563 453.867 24.2375 454.445 23.9375 454.855L20.8722 459.051C20.4033 459.693 20.8334 460.597 21.6268 460.638L24.9787 460.811C25.5569 460.84 25.9885 461.353 25.9188 461.928L25.2395 467.529C25.173 468.077 25.5636 468.575 26.112 468.641L27.5273 468.81C28.0757 468.876 28.5741 468.485 28.6406 467.936L29.3199 462.335C29.3896 461.761 29.9314 461.364 30.5003 461.472L33.7973 462.096C34.5778 462.244 35.2119 461.466 34.9098 460.732L32.9354 455.933C32.7421 455.463 33.1534 454.968 33.6509 455.071V455.071C34.1458 455.174 34.5566 454.684 34.3688 454.215L32.7096 450.072C32.5425 449.654 32.9136 449.221 33.3519 449.321V449.321Z" fill="#CCCDFF"/>
<path d="M32.9931 456.07L35.6123 462.44L32.7216 461.893L31.3785 455.752L32.9931 456.07Z" fill="#E9E6FF"/>
<path d="M32.8699 450.386L34.8078 455.312L32.4809 454.829L31.5224 450.08L32.8699 450.386Z" fill="#E9E6FF"/>
<path d="M30.6083 437.486L34.2914 449.536L32.603 449.15L30.6083 437.486Z" fill="#E9E6FF"/>
<g filter="url(#filter1_i_17_1791)">
<path d="M35.9207 466.207L-2.20755 469.372V568.063H165.475L161.754 528.233L145.012 524.385L133.423 516.591L114.654 515.052L97.2531 500.459L73.8629 492.384L35.9207 466.207Z" fill="url(#paint0_linear_17_1791)"/>
</g>
<g filter="url(#filter2_i_17_1791)">
<path d="M260.229 433L331 439.184V632L0 627.254V588.811L44.8848 573.825L80.5679 540.646L132.531 502.825L207.16 471.985L260.229 433Z" fill="url(#paint1_linear_17_1791)"/>
</g>
<path d="M283.857 -13C283.857 11.7537 229.48 31.8205 162.402 31.8205C95.3247 31.8205 40.9477 11.7537 40.9477 -13" stroke="#0F2672"/>
<rect width="10.9872" height="16.3162" rx="5.4936" transform="matrix(0.990262 0.139218 -0.139128 0.990274 133.294 27.3154)" fill="#0F2672"/>
<ellipse rx="10.6105" ry="10.6139" transform="matrix(0.990262 0.139218 -0.139128 0.990274 136.204 47.3765)" fill="#3868AE"/>
<rect width="10.9875" height="16.3158" rx="5.49374" transform="matrix(0.951027 0.309109 -0.308925 0.951086 87.9963 17.925)" fill="#0F2672"/>
<g filter="url(#filter3_di_17_1791)">
<ellipse rx="10.6108" ry="10.6136" transform="matrix(0.951027 0.309109 -0.308925 0.951086 87.3796 38.1868)" fill="#FFF55A"/>
</g>
<rect width="10.9879" height="16.3152" rx="5.49394" transform="matrix(0.890946 0.454109 -0.453872 0.891067 51.4567 -0.0281982)" fill="#0F2672"/>
<ellipse rx="10.6112" ry="10.6132" transform="matrix(0.890946 0.454109 -0.453872 0.891067 47.6789 19.8877)" fill="#3868AE"/>
<rect width="10.9872" height="16.3162" rx="5.4936" transform="matrix(-0.990262 0.139218 0.139128 0.990274 191.508 27.3154)" fill="#0F2672"/>
<g filter="url(#filter4_di_17_1791)">
<ellipse rx="10.6105" ry="10.6139" transform="matrix(-0.990262 0.139218 0.139128 0.990274 188.598 47.3765)" fill="#FFF55A"/>
</g>
<rect width="10.9875" height="16.3158" rx="5.49374" transform="matrix(-0.951027 0.309109 0.308925 0.951086 236.805 17.925)" fill="#0F2672"/>
<ellipse rx="10.6108" ry="10.6136" transform="matrix(-0.951027 0.309109 0.308925 0.951086 237.422 38.1868)" fill="#3868AE"/>
<rect width="10.9879" height="16.3152" rx="5.49394" transform="matrix(-0.890946 0.454109 0.453872 0.891067 273.345 -0.0281982)" fill="#0F2672"/>
<g filter="url(#filter5_di_17_1791)">
<ellipse rx="10.6112" ry="10.6132" transform="matrix(-0.890946 0.454109 0.453872 0.891067 277.123 19.8877)" fill="#FFF55A"/>
</g>
<defs>
<filter id="filter0_d_17_1791" x="15.9463" y="102.75" width="273.276" height="26.0259" filterUnits="userSpaceOnUse" color-interpolation-filters="sRGB">
<feFlood flood-opacity="0" result="BackgroundImageFix"/>
<feColorMatrix in="SourceAlpha" type="matrix" values="0 0 0 0 0 0 0 0 0 0 0 0 0 0 0 0 0 0 127 0" result="hardAlpha"/>
<feOffset dy="4"/>
<feGaussianBlur stdDeviation="2"/>
<feComposite in2="hardAlpha" operator="out"/>
<feColorMatrix type="matrix" values="0 0 0 0 0 0 0 0 0 0 0 0 0 0 0 0 0 0 0.25 0"/>
<feBlend mode="normal" in2="BackgroundImageFix" result="effect1_dropShadow_17_1791"/>
<feBlend mode="normal" in="SourceGraphic" in2="effect1_dropShadow_17_1791" result="shape"/>
</filter>
<filter id="filter1_i_17_1791" x="-2.20755" y="466.207" width="171.683" height="105.857" filterUnits="userSpaceOnUse" color-interpolation-filters="sRGB">
<feFlood flood-opacity="0" result="BackgroundImageFix"/>
<feBlend mode="normal" in="SourceGraphic" in2="BackgroundImageFix" result="shape"/>
<feColorMatrix in="SourceAlpha" type="matrix" values="0 0 0 0 0 0 0 0 0 0 0 0 0 0 0 0 0 0 127 0" result="hardAlpha"/>
<feOffset dx="5" dy="8"/>
<feGaussianBlur stdDeviation="2"/>
<feComposite in2="hardAlpha" operator="arithmetic" k2="-1" k3="1"/>
<feColorMatrix type="matrix" values="0 0 0 0 1 0 0 0 0 0.941667 0 0 0 0 0.941667 0 0 0 0.25 0"/>
<feBlend mode="normal" in2="shape" result="effect1_innerShadow_17_1791"/>
</filter>
<filter id="filter2_i_17_1791" x="0" y="433" width="331" height="203" filterUnits="userSpaceOnUse" color-interpolation-filters="sRGB">
<feFlood flood-opacity="0" result="BackgroundImageFix"/>
<feBlend mode="normal" in="SourceGraphic" in2="BackgroundImageFix" result="shape"/>
<feColorMatrix in="SourceAlpha" type="matrix" values="0 0 0 0 0 0 0 0 0 0 0 0 0 0 0 0 0 0 127 0" result="hardAlpha"/>
<feOffset dy="9"/>
<feGaussianBlur stdDeviation="2"/>
<feComposite in2="hardAlpha" operator="arithmetic" k2="-1" k3="1"/>
<feColorMatrix type="matrix" values="0 0 0 0 0.825 0 0 0 0 0.8635 0 0 0 0 1 0 0 0 0.67 0"/>
<feBlend mode="normal" in2="shape" result="effect1_innerShadow_17_1791"/>
</filter>
<filter id="filter3_di_17_1791" x="51.7663" y="2.57007" width="71.2266" height="71.2336" filterUnits="userSpaceOnUse" color-interpolation-filters="sRGB">
<feFlood flood-opacity="0" result="BackgroundImageFix"/>
<feColorMatrix in="SourceAlpha" type="matrix" values="0 0 0 0 0 0 0 0 0 0 0 0 0 0 0 0 0 0 127 0" result="hardAlpha"/>
<feOffset/>
<feGaussianBlur stdDeviation="12.5"/>
<feComposite in2="hardAlpha" operator="out"/>
<feColorMatrix type="matrix" values="0 0 0 0 1 0 0 0 0 0.818824 0 0 0 0 0.352941 0 0 0 1 0"/>
<feBlend mode="normal" in2="BackgroundImageFix" result="effect1_dropShadow_17_1791"/>
<feBlend mode="normal" in="SourceGraphic" in2="effect1_dropShadow_17_1791" result="shape"/>
<feColorMatrix in="SourceAlpha" type="matrix" values="0 0 0 0 0 0 0 0 0 0 0 0 0 0 0 0 0 0 127 0" result="hardAlpha"/>
<feOffset/>
<feGaussianBlur stdDeviation="2"/>
<feComposite in2="hardAlpha" operator="arithmetic" k2="-1" k3="1"/>
<feColorMatrix type="matrix" values="0 0 0 0 0.956863 0 0 0 0 0.784314 0 0 0 0 0.172549 0 0 0 1 0"/>
<feBlend mode="normal" in2="shape" result="effect2_innerShadow_17_1791"/>
</filter>
<filter id="filter4_di_17_1791" x="152.986" y="11.7612" width="71.2235" height="71.2305" filterUnits="userSpaceOnUse" color-interpolation-filters="sRGB">
<feFlood flood-opacity="0" result="BackgroundImageFix"/>
<feColorMatrix in="SourceAlpha" type="matrix" values="0 0 0 0 0 0 0 0 0 0 0 0 0 0 0 0 0 0 127 0" result="hardAlpha"/>
<feOffset/>
<feGaussianBlur stdDeviation="12.5"/>
<feComposite in2="hardAlpha" operator="out"/>
<feColorMatrix type="matrix" values="0 0 0 0 1 0 0 0 0 0.818824 0 0 0 0 0.352941 0 0 0 1 0"/>
<feBlend mode="normal" in2="BackgroundImageFix" result="effect1_dropShadow_17_1791"/>
<feBlend mode="normal" in="SourceGraphic" in2="effect1_dropShadow_17_1791" result="shape"/>
<feColorMatrix in="SourceAlpha" type="matrix" values="0 0 0 0 0 0 0 0 0 0 0 0 0 0 0 0 0 0 127 0" result="hardAlpha"/>
<feOffset/>
<feGaussianBlur stdDeviation="2"/>
<feComposite in2="hardAlpha" operator="arithmetic" k2="-1" k3="1"/>
<feColorMatrix type="matrix" values="0 0 0 0 0.956863 0 0 0 0 0.784314 0 0 0 0 0.172549 0 0 0 1 0"/>
<feBlend mode="normal" in2="shape" result="effect2_innerShadow_17_1791"/>
</filter>
<filter id="filter5_di_17_1791" x="241.51" y="-15.7285" width="71.2254" height="71.2324" filterUnits="userSpaceOnUse" color-interpolation-filters="sRGB">
<feFlood flood-opacity="0" result="BackgroundImageFix"/>
<feColorMatrix in="SourceAlpha" type="matrix" values="0 0 0 0 0 0 0 0 0 0 0 0 0 0 0 0 0 0 127 0" result="hardAlpha"/>
<feOffset/>
<feGaussianBlur stdDeviation="12.5"/>
<feComposite in2="hardAlpha" operator="out"/>
<feColorMatrix type="matrix" values="0 0 0 0 1 0 0 0 0 0.818824 0 0 0 0 0.352941 0 0 0 1 0"/>
<feBlend mode="normal" in2="BackgroundImageFix" result="effect1_dropShadow_17_1791"/>
<feBlend mode="normal" in="SourceGraphic" in2="effect1_dropShadow_17_1791" result="shape"/>
<feColorMatrix in="SourceAlpha" type="matrix" values="0 0 0 0 0 0 0 0 0 0 0 0 0 0 0 0 0 0 127 0" result="hardAlpha"/>
<feOffset/>
<feGaussianBlur stdDeviation="2"/>
<feComposite in2="hardAlpha" operator="arithmetic" k2="-1" k3="1"/>
<feColorMatrix type="matrix" values="0 0 0 0 0.956863 0 0 0 0 0.784314 0 0 0 0 0.172549 0 0 0 1 0"/>
<feBlend mode="normal" in2="shape" result="effect2_innerShadow_17_1791"/>
</filter>
<linearGradient id="paint0_linear_17_1791" x1="60.7394" y1="475.068" x2="52.5906" y2="511.591" gradientUnits="userSpaceOnUse">
<stop stop-color="#D1CAFF"/>
<stop offset="1" stop-color="#849FEE"/>
</linearGradient>
<linearGradient id="paint1_linear_17_1791" x1="122.923" y1="500.582" x2="-33.151" y2="561.76" gradientUnits="userSpaceOnUse">
<stop stop-color="#D1CAFF"/>
<stop offset="1" stop-color="#849FEE"/>
</linearGradient>
</defs>
</svg>
