<svg width="320" height="568" viewBox="0 0 320 568" fill="none" xmlns="http://www.w3.org/2000/svg">
<path d="M0 0H320V568H0V0Z" fill="#6D81BD"/>
<g filter="url(#filter0_di_3_4037)">
<path fill-rule="evenodd" clip-rule="evenodd" d="M102.948 347.08C103.794 347.47 103.423 348.747 102.495 348.828V348.828C91.7921 349.758 83.8692 359.189 84.7993 369.892C85.7293 380.595 95.1601 388.518 105.863 387.588V387.588C107.906 387.411 109.679 389.903 108.062 391.164C104.242 394.144 99.5449 396.09 94.3587 396.541C80.0745 397.782 67.4886 387.208 66.2474 372.924C65.0062 358.64 75.5797 346.054 89.8639 344.813C94.5166 344.409 98.9891 345.258 102.948 347.08Z" fill="#EEE9FF"/>
</g>
<g filter="url(#filter1_di_3_4037)">
<circle cx="92.1113" cy="370.677" r="25.9614" transform="rotate(-4.96612 92.1113 370.677)" fill="#EEE9FF"/>
</g>
<ellipse cx="80.9307" cy="360.729" rx="4.64603" ry="6.2505" transform="rotate(35.2774 80.9307 360.729)" fill="#EBE3FB"/>
<ellipse cx="81.3563" cy="374.372" rx="3.56377" ry="4.4779" transform="rotate(16.0576 81.3563 374.372)" fill="#EBE3FB"/>
<ellipse cx="74.0817" cy="372.101" rx="1.52997" ry="1.92242" transform="rotate(16.0576 74.0817 372.101)" fill="#EBE3FB"/>
<path fill-rule="evenodd" clip-rule="evenodd" d="M149.219 425.019C148.459 425.133 147.852 424.382 148.132 423.666L154.953 406.216C155.269 405.408 156.395 405.36 156.781 406.138L165.111 422.941C165.453 423.63 164.915 424.43 164.147 424.381V424.381C163.341 424.33 162.804 425.205 163.223 425.896L167.537 433.026C167.951 433.709 167.438 434.576 166.64 434.542L166.111 434.519C165.309 434.484 164.797 435.36 165.219 436.043L171.067 445.504C171.485 446.18 170.987 447.049 170.193 447.029L161.814 446.817C161.235 446.802 160.765 447.28 160.791 447.859L161.312 459.689C161.336 460.24 160.908 460.707 160.357 460.73L156.192 460.908C155.64 460.932 155.173 460.503 155.149 459.952L154.628 448.122C154.602 447.544 154.092 447.107 153.517 447.171L145.188 448.096C144.399 448.184 143.826 447.361 144.182 446.652L149.177 436.728C149.537 436.012 148.95 435.183 148.154 435.286L147.629 435.353C146.838 435.456 146.25 434.635 146.602 433.92L150.273 426.449C150.629 425.725 150.017 424.899 149.219 425.019V425.019Z" fill="#BBC2FF"/>
<path d="M148.934 437.206L143.353 448.3L148.619 447.716L151.876 436.858L148.934 437.206Z" fill="#E2DBFF"/>
<path d="M149.938 427.001L145.78 435.592L150.024 435.044L152.4 426.635L149.938 427.001Z" fill="#E2DBFF"/>
<path d="M155.776 404.111L147.503 425.276L150.588 424.814L155.776 404.111Z" fill="#E2DBFF"/>
<ellipse cx="146.738" cy="90.1993" rx="2.38255" ry="3.6679" fill="white"/>
<ellipse cx="252.762" cy="183.731" rx="2.38255" ry="3.6679" fill="white"/>
<ellipse cx="151.503" cy="381.797" rx="2.38255" ry="3.6679" fill="white"/>
<ellipse cx="227.745" cy="370.793" rx="2.38255" ry="3.6679" fill="white"/>
<ellipse cx="181.285" cy="161.723" rx="2.38255" ry="3.6679" fill="white"/>
<ellipse cx="88.3658" cy="150.72" rx="2.38255" ry="3.6679" fill="white"/>
<ellipse cx="202.728" cy="244.251" rx="2.38255" ry="3.6679" fill="white"/>
<ellipse cx="93.1308" cy="436.815" rx="2.38255" ry="3.6679" fill="white"/>
<ellipse cx="171.755" cy="431.314" rx="2.38255" ry="3.6679" fill="white"/>
<ellipse cx="119.339" cy="233.247" rx="2.38255" ry="3.6679" fill="white"/>
<ellipse cx="258.718" cy="57.1882" rx="2.38255" ry="3.6679" fill="white"/>
<ellipse cx="303.987" cy="112.207" rx="2.38255" ry="3.6679" fill="white"/>
<ellipse cx="2.59398" cy="282.764" rx="2.38255" ry="3.6679" fill="white"/>
<ellipse cx="100.278" cy="13.1734" rx="2.38255" ry="3.6679" fill="white"/>
<ellipse cx="212.258" cy="321.277" rx="2.38255" ry="3.6679" fill="white"/>
<ellipse cx="127.678" cy="337.782" rx="2.38255" ry="3.6679" fill="white"/>
<ellipse cx="282.544" cy="293.768" rx="2.38255" ry="3.6679" fill="white"/>
<ellipse cx="28.8019" cy="425.812" rx="2.38255" ry="3.6679" fill="white"/>
<ellipse cx="158.651" cy="249.753" rx="2.38255" ry="3.6679" fill="white"/>
<ellipse cx="320.665" cy="447.819" rx="2.38255" ry="3.6679" fill="white"/>
<ellipse cx="108.617" cy="398.303" rx="2.38255" ry="3.6679" fill="white"/>
<ellipse cx="50.245" cy="458.823" rx="2.38255" ry="3.6679" fill="white"/>
<ellipse cx="66.9228" cy="475.328" rx="2.38255" ry="3.6679" fill="white"/>
<ellipse cx="219.406" cy="469.827" rx="2.38255" ry="3.6679" fill="white"/>
<ellipse cx="270.631" cy="35.1808" rx="2.38255" ry="3.6679" fill="white"/>
<ellipse cx="44.2886" cy="73.6938" rx="2.38255" ry="3.6679" fill="white"/>
<ellipse cx="22.8457" cy="271.76" rx="2.38255" ry="3.6679" fill="white"/>
<ellipse cx="13.3154" cy="178.229" rx="2.38255" ry="3.6679" fill="white"/>
<ellipse cx="176.52" cy="222.244" rx="2.38255" ry="3.6679" fill="white"/>
<ellipse cx="195.581" cy="365.292" rx="2.38255" ry="3.6679" fill="white"/>
<ellipse cx="276.587" cy="62.69" rx="2.38255" ry="3.6679" fill="white"/>
<ellipse cx="232.51" cy="106.705" rx="2.38255" ry="3.6679" fill="white"/>
<ellipse cx="136.017" cy="189.232" rx="2.38255" ry="3.6679" fill="white"/>
<ellipse cx="289.691" cy="79.1955" rx="2.38255" ry="3.6679" fill="white"/>
<ellipse cx="294.456" cy="359.79" rx="2.38255" ry="3.6679" fill="white"/>
<ellipse cx="113.383" cy="123.21" rx="2.38255" ry="3.6679" fill="white"/>
<ellipse cx="311.134" cy="145.218" rx="2.38255" ry="3.6679" fill="white"/>
<ellipse cx="33.5671" cy="315.775" rx="2.38255" ry="3.6679" fill="white"/>
<ellipse cx="187.241" cy="24.1772" rx="2.38255" ry="3.6679" fill="white"/>
<ellipse cx="235.488" cy="109.456" rx="0.595638" ry="0.916974" fill="white"/>
<ellipse cx="141.377" cy="202.987" rx="0.595638" ry="0.916974" fill="white"/>
<ellipse cx="298.626" cy="109.456" rx="0.595638" ry="0.916974" fill="white"/>
<ellipse cx="40.1191" cy="329.53" rx="0.595638" ry="0.916974" fill="white"/>
<ellipse cx="191.411" cy="26.9281" rx="0.595638" ry="0.916974" fill="white"/>
<ellipse cx="245.019" cy="142.467" rx="0.595638" ry="0.916974" fill="white"/>
<ellipse cx="222.384" cy="241.5" rx="0.595638" ry="0.916974" fill="white"/>
<ellipse cx="315.304" cy="131.463" rx="0.595638" ry="0.916974" fill="white"/>
<ellipse cx="19.8674" cy="48.9355" rx="0.595638" ry="0.916974" fill="white"/>
<ellipse cx="104.448" cy="32.4299" rx="0.595638" ry="0.916974" fill="white"/>
<ellipse cx="56.7969" cy="241.5" rx="0.595638" ry="0.916974" fill="white"/>
<ellipse cx="71.0923" cy="335.031" rx="0.595638" ry="0.916974" fill="white"/>
<ellipse cx="237.871" cy="48.9355" rx="0.595638" ry="0.916974" fill="white"/>
<ellipse cx="123.508" cy="109.456" rx="0.595638" ry="0.916974" fill="white"/>
<ellipse cx="85.3875" cy="10.4225" rx="0.595638" ry="0.916974" fill="white"/>
<ellipse cx="308.156" cy="169.976" rx="0.595638" ry="0.916974" fill="white"/>
<ellipse cx="47.2667" cy="213.991" rx="0.595638" ry="0.916974" fill="white"/>
<ellipse cx="142.569" cy="65.441" rx="0.595638" ry="0.916974" fill="white"/>
<ellipse cx="190.22" cy="131.463" rx="0.595638" ry="0.916974" fill="white"/>
<ellipse cx="239.062" cy="340.533" rx="0.595638" ry="0.916974" fill="white"/>
<ellipse cx="279.566" cy="291.017" rx="0.595638" ry="0.916974" fill="white"/>
<ellipse cx="265.27" cy="202.987" rx="0.595638" ry="0.916974" fill="white"/>
<ellipse cx="242.636" cy="252.504" rx="0.595638" ry="0.916974" fill="white"/>
<ellipse cx="57.9883" cy="186.482" rx="0.595638" ry="0.916974" fill="white"/>
<ellipse cx="154.482" cy="32.4299" rx="0.595638" ry="0.916974" fill="white"/>
<ellipse cx="198.559" cy="109.456" rx="0.595638" ry="0.916974" fill="white"/>
<ellipse cx="246.21" cy="324.028" rx="0.595638" ry="0.916974" fill="white"/>
<ellipse cx="55.6055" cy="81.9465" rx="0.595638" ry="0.916974" fill="white"/>
<ellipse cx="131.847" cy="202.987" rx="0.595638" ry="0.916974" fill="white"/>
<ellipse cx="273.609" cy="252.504" rx="0.595638" ry="0.916974" fill="white"/>
<ellipse cx="168.777" cy="15.9244" rx="0.595638" ry="0.916974" fill="white"/>
<ellipse cx="224.767" cy="291.017" rx="0.595638" ry="0.916974" fill="white"/>
<ellipse cx="96.109" cy="324.028" rx="0.595638" ry="0.916974" fill="white"/>
<ellipse cx="54.4144" cy="401.054" rx="0.595638" ry="0.916974" fill="white"/>
<ellipse cx="105.639" cy="335.031" rx="0.595638" ry="0.916974" fill="white"/>
<ellipse cx="6.76348" cy="456.072" rx="0.595638" ry="0.916974" fill="white"/>
<ellipse cx="116.361" cy="48.9355" rx="0.595638" ry="0.916974" fill="white"/>
<ellipse cx="16.2935" cy="109.456" rx="0.595638" ry="0.916974" fill="white"/>
<ellipse cx="199.75" cy="169.976" rx="0.595638" ry="0.916974" fill="white"/>
<ellipse cx="286.713" cy="263.507" rx="0.595638" ry="0.916974" fill="white"/>
<ellipse cx="162.82" cy="291.017" rx="0.595638" ry="0.916974" fill="white"/>
<ellipse cx="62.7534" cy="252.504" rx="0.595638" ry="0.916974" fill="white"/>
<ellipse cx="78.2398" cy="346.035" rx="0.595638" ry="0.916974" fill="white"/>
<ellipse cx="248.592" cy="48.9355" rx="0.595638" ry="0.916974" fill="white"/>
<ellipse cx="301.008" cy="241.5" rx="0.595638" ry="0.916974" fill="white"/>
<ellipse cx="262.888" cy="263.507" rx="0.595638" ry="0.916974" fill="white"/>
<ellipse cx="53.2231" cy="175.478" rx="0.595638" ry="0.916974" fill="white"/>
<ellipse cx="143.76" cy="26.9281" rx="0.595638" ry="0.916974" fill="white"/>
<ellipse cx="192.602" cy="103.954" rx="0.595638" ry="0.916974" fill="white"/>
<ellipse cx="241.445" cy="324.028" rx="0.595638" ry="0.916974" fill="white"/>
<ellipse cx="297.435" cy="280.013" rx="0.595638" ry="0.916974" fill="white"/>
<ellipse cx="266.461" cy="175.478" rx="0.595638" ry="0.916974" fill="white"/>
<ellipse cx="7.95459" cy="329.53" rx="0.595638" ry="0.916974" fill="white"/>
<ellipse cx="63.9447" cy="202.987" rx="0.595638" ry="0.916974" fill="white"/>
<ellipse cx="164.012" cy="48.9355" rx="0.595638" ry="0.916974" fill="white"/>
<ellipse cx="208.089" cy="114.958" rx="0.595638" ry="0.916974" fill="white"/>
<ellipse cx="255.74" cy="335.031" rx="0.595638" ry="0.916974" fill="white"/>
<ellipse cx="75.8573" cy="109.456" rx="0.595638" ry="0.916974" fill="white"/>
<ellipse cx="5.57208" cy="213.991" rx="0.595638" ry="0.916974" fill="white"/>
<ellipse cx="138.995" cy="263.507" rx="0.595638" ry="0.916974" fill="white"/>
<ellipse cx="209.28" cy="202.987" rx="0.595638" ry="0.916974" fill="white"/>
<ellipse cx="36.5452" cy="26.9281" rx="0.595638" ry="0.916974" fill="white"/>
<ellipse cx="80.6226" cy="313.024" rx="0.595638" ry="0.916974" fill="white"/>
<ellipse cx="124.7" cy="65.441" rx="0.595638" ry="0.916974" fill="white"/>
<ellipse cx="247.401" cy="109.456" rx="0.595638" ry="0.916974" fill="white"/>
<ellipse cx="223.575" cy="10.4225" rx="0.595638" ry="0.916974" fill="white"/>
<ellipse cx="72.2834" cy="263.507" rx="0.595638" ry="0.916974" fill="white"/>
<ellipse cx="84.1962" cy="395.552" rx="0.595638" ry="0.916974" fill="white"/>
<ellipse cx="267.653" cy="81.9465" rx="0.595638" ry="0.916974" fill="white"/>
<ellipse cx="299.817" cy="263.507" rx="0.595638" ry="0.916974" fill="white"/>
<ellipse cx="60.3709" cy="191.983" rx="0.595638" ry="0.916974" fill="white"/>
<ellipse cx="161.629" cy="43.4336" rx="0.595638" ry="0.916974" fill="white"/>
<ellipse cx="205.706" cy="109.456" rx="0.595638" ry="0.916974" fill="white"/>
<ellipse cx="249.784" cy="329.53" rx="0.595638" ry="0.916974" fill="white"/>
<ellipse cx="81.8137" cy="142.467" rx="0.595638" ry="0.916974" fill="white"/>
<ellipse cx="17.4849" cy="131.463" rx="0.595638" ry="0.916974" fill="white"/>
<ellipse cx="140.186" cy="81.9465" rx="0.595638" ry="0.916974" fill="white"/>
<ellipse cx="79.4312" cy="274.511" rx="0.595638" ry="0.916974" fill="white"/>
<ellipse cx="-0.384343" cy="445.068" rx="0.595638" ry="0.916974" fill="white"/>
<ellipse cx="61.5619" cy="368.042" rx="0.595638" ry="0.916974" fill="white"/>
<ellipse cx="18.6763" cy="280.013" rx="0.595638" ry="0.916974" fill="white"/>
<ellipse cx="25.8238" cy="406.555" rx="0.595638" ry="0.916974" fill="white"/>
<ellipse cx="133.039" cy="395.552" rx="0.595638" ry="0.916974" fill="white"/>
<ellipse cx="314.112" cy="109.456" rx="0.595638" ry="0.916974" fill="white"/>
<ellipse cx="316.495" cy="280.013" rx="0.595638" ry="0.916974" fill="white"/>
<ellipse cx="9.14599" cy="335.031" rx="0.595638" ry="0.916974" fill="white"/>
<ellipse cx="69.9009" cy="202.987" rx="0.595638" ry="0.916974" fill="white"/>
<ellipse cx="167.586" cy="48.9355" rx="0.595638" ry="0.916974" fill="white"/>
<ellipse cx="215.237" cy="131.463" rx="0.595638" ry="0.916974" fill="white"/>
<ellipse cx="261.696" cy="335.031" rx="0.595638" ry="0.916974" fill="white"/>
<ellipse cx="306.965" cy="318.526" rx="0.595638" ry="0.916974" fill="white"/>
<ellipse cx="285.522" cy="202.987" rx="0.595638" ry="0.916974" fill="white"/>
<ellipse cx="97.3003" cy="202.987" rx="0.595638" ry="0.916974" fill="white"/>
<ellipse cx="38.9278" cy="241.5" rx="0.595638" ry="0.916974" fill="white"/>
<ellipse cx="184.263" cy="280.013" rx="0.595638" ry="0.916974" fill="white"/>
<ellipse cx="243.827" cy="213.991" rx="0.595638" ry="0.916974" fill="white"/>
<ellipse cx="73.4747" cy="32.4299" rx="0.595638" ry="0.916974" fill="white"/>
<ellipse cx="130.656" cy="324.028" rx="0.595638" ry="0.916974" fill="white"/>
<ellipse cx="10.3371" cy="346.035" rx="0.595638" ry="0.916974" fill="white"/>
<ellipse cx="37.7366" cy="136.965" rx="0.595638" ry="0.916974" fill="white"/>
<ellipse cx="165.203" cy="81.9465" rx="0.595638" ry="0.916974" fill="white"/>
<ellipse cx="103.257" cy="280.013" rx="0.595638" ry="0.916974" fill="white"/>
<ellipse cx="41.3105" cy="324.028" rx="0.595638" ry="0.916974" fill="white"/>
<ellipse cx="122.317" cy="423.061" rx="0.595638" ry="0.916974" fill="white"/>
<ellipse cx="264.079" cy="478.079" rx="0.595638" ry="0.916974" fill="white"/>
<ellipse cx="317.686" cy="401.054" rx="0.595638" ry="0.916974" fill="white"/>
<ellipse cx="155.673" cy="252.504" rx="0.595638" ry="0.916974" fill="white"/>
<ellipse cx="216.428" cy="489.083" rx="0.595638" ry="0.916974" fill="white"/>
<ellipse cx="83.0051" cy="489.083" rx="0.595638" ry="0.916974" fill="white"/>
<ellipse cx="59.1795" cy="423.061" rx="0.595638" ry="0.916974" fill="white"/>
<ellipse cx="206.898" cy="401.054" rx="0.595638" ry="0.916974" fill="white"/>
<ellipse cx="166.394" cy="235.998" rx="0.595638" ry="0.916974" fill="white"/>
<ellipse cx="74.6661" cy="335.031" rx="0.595638" ry="0.916974" fill="white"/>
<ellipse cx="77.0486" cy="445.068" rx="0.595638" ry="0.916974" fill="white"/>
<ellipse cx="240.253" cy="401.054" rx="0.595638" ry="0.916974" fill="white"/>
<path d="M298.5 67C296.5 66.3333 239.8 64.8 29 64V149.5L294 147L298.5 67Z" fill="#6D81BD"/>
<path d="M259 213.123C257.56 212.429 216.745 210.833 65 210V299L255.761 296.398L259 213.123Z" fill="#6D81BD"/>
<path fill-rule="evenodd" clip-rule="evenodd" d="M71.9882 479.106C72.2012 479.163 72.3979 478.97 72.3446 478.756L71.415 475.025C71.2008 474.166 70.055 473.992 69.5912 474.75L67.5785 478.036C67.4631 478.224 67.5926 478.466 67.8131 478.475V478.475C68.0442 478.484 68.1712 478.746 68.0347 478.933L66.6025 480.895C66.4487 481.106 66.5881 481.402 66.8482 481.418V481.418C67.1097 481.433 67.2487 481.733 67.0921 481.943L65.9188 483.519C65.4491 484.15 65.8563 485.049 66.6397 485.111L66.9544 485.136C67.5333 485.181 67.9504 485.708 67.8619 486.282L67.5255 488.461C67.452 488.937 67.7785 489.381 68.2547 489.453V489.453C68.731 489.525 69.1766 489.197 69.2501 488.721L69.5864 486.542C69.675 485.969 70.232 485.589 70.7982 485.717L71.106 485.786C71.8722 485.959 72.532 485.222 72.2741 484.481L71.63 482.629C71.544 482.382 71.7669 482.138 72.0212 482.2V482.2C72.2741 482.262 72.4966 482.02 72.4134 481.774L71.6383 479.478C71.5645 479.26 71.7649 479.046 71.9882 479.106V479.106Z" fill="#8066B7"/>
<path fill-rule="evenodd" clip-rule="evenodd" d="M72.4635 479.233L70.8388 472.713L70.7589 478.777L72.4635 479.233ZM71.7213 479.673L72.6057 482.343L70.2546 481.767L70.3609 479.31L71.7213 479.673ZM71.6652 482.729L72.8666 486.183L69.9436 485.524L70.0331 482.347L71.6652 482.729Z" fill="#B292DF"/>
<path d="M71.6652 482.729L72.8666 486.183L71.4051 485.854L70.8491 482.538L71.6652 482.729Z" fill="#B292DF"/>
<path d="M71.7214 479.673L72.6058 482.344L71.4302 482.055L71.0411 479.491L71.7214 479.673Z" fill="#B292DF"/>
<path d="M70.8388 472.713L72.4635 479.233L71.6112 479.005L70.8388 472.713Z" fill="#B292DF"/>
<path fill-rule="evenodd" clip-rule="evenodd" d="M14.6002 448.917C14.9014 448.98 15.1543 448.685 15.0449 448.398L13.063 443.19C12.7771 442.438 11.7649 442.317 11.3061 442.979L8.12521 447.568C7.94962 447.821 8.12403 448.168 8.43187 448.177V448.177C8.75616 448.187 8.9255 448.566 8.71669 448.815L6.95587 450.912C6.72299 451.189 6.90771 451.612 7.26912 451.629V451.629C7.6326 451.647 7.81652 452.074 7.57947 452.35L5.93074 454.274C5.39346 454.901 5.80198 455.87 6.62511 455.921L8.2465 456.022C8.82019 456.058 9.24459 456.568 9.17478 457.139L8.83596 459.907C8.76887 460.456 9.15902 460.953 9.70737 461.019L10.2638 461.086C10.8122 461.152 11.3111 460.76 11.3782 460.212L11.717 457.444C11.7868 456.873 12.3221 456.478 12.8878 456.579L14.4867 456.864C15.2984 457.008 15.9289 456.164 15.5583 455.428L14.4212 453.171C14.2577 452.846 14.5394 452.475 14.8965 452.544V452.544C15.2516 452.613 15.5331 452.245 15.3738 451.921L14.1698 449.468C14.027 449.178 14.2829 448.849 14.6002 448.917V448.917Z" fill="#8066B7"/>
<path d="M14.4187 453.164L16.4584 457.215L14.2951 456.83L13.2102 452.941L14.4187 453.164Z" fill="#B292DF"/>
<path d="M14.2499 449.58L15.7619 452.712L14.0199 452.374L13.2407 449.368L14.2499 449.58Z" fill="#B292DF"/>
<path d="M12.3885 441.417L15.2987 449.064L14.0341 448.797L12.3885 441.417Z" fill="#B292DF"/>
<path fill-rule="evenodd" clip-rule="evenodd" d="M185.679 461.835C185.372 461.833 185.188 461.49 185.356 461.233L188.41 456.572C188.851 455.9 189.866 455.998 190.172 456.743L192.293 461.908C192.41 462.193 192.165 462.494 191.863 462.437V462.437C191.544 462.377 191.297 462.711 191.448 462.999L192.717 465.425C192.885 465.746 192.614 466.12 192.257 466.059V466.059C191.898 465.998 191.627 466.375 191.799 466.696L192.996 468.929C193.386 469.656 192.779 470.515 191.964 470.389L190.359 470.139C189.791 470.051 189.267 470.458 189.213 471.031L188.949 473.807C188.897 474.357 188.409 474.759 187.859 474.706L187.302 474.652C186.752 474.598 186.349 474.109 186.401 473.559L186.664 470.782C186.719 470.21 186.281 469.709 185.707 469.686L184.084 469.621C183.26 469.588 182.826 468.628 183.345 467.989L184.941 466.029C185.17 465.747 184.975 465.323 184.611 465.314V465.314C184.249 465.305 184.053 464.886 184.279 464.603L185.981 462.467C186.183 462.213 186.004 461.838 185.679 461.835V461.835Z" fill="#8154A4"/>
<path d="M184.945 466.022L182.083 469.541L184.278 469.629L186.173 466.064L184.945 466.022Z" fill="#B292DF"/>
<path d="M185.879 462.558L183.73 465.292L185.504 465.337L186.91 462.568L185.879 462.558Z" fill="#B292DF"/>
<path d="M189.45 454.986L184.966 461.829L186.258 461.84L189.45 454.986Z" fill="#B292DF"/>
<path fill-rule="evenodd" clip-rule="evenodd" d="M63.8945 477.486C64.2023 477.494 64.396 477.157 64.235 476.895L61.3181 472.137C60.8974 471.451 59.8802 471.516 59.5523 472.25L57.2793 477.34C57.1538 477.621 57.3897 477.93 57.694 477.883V477.883C58.0146 477.834 58.2515 478.176 58.0925 478.458L56.752 480.84C56.5747 481.155 56.8349 481.538 57.1933 481.489V481.489C57.5538 481.439 57.814 481.826 57.6324 482.141L56.3699 484.331C55.9583 485.046 56.5401 485.924 57.3586 485.824L58.9712 485.628C59.5417 485.559 60.0537 485.983 60.0912 486.557L60.2732 489.339C60.3092 489.891 60.7852 490.309 61.3364 490.273L61.8959 490.238C62.4471 490.202 62.8647 489.727 62.8287 489.176L62.6467 486.393C62.6092 485.819 63.0617 485.333 63.6365 485.329L65.2611 485.318C66.0858 485.312 66.5484 484.367 66.0473 483.711L64.51 481.7C64.2889 481.411 64.4966 480.994 64.8605 480.997V480.997C65.2223 481 65.4305 480.588 65.2137 480.298L63.5742 478.107C63.3797 477.847 63.5702 477.478 63.8945 477.486V477.486Z" fill="#8066B7"/>
<path d="M64.5061 481.694L67.2646 485.304L65.0665 485.319L63.2768 481.695L64.5061 481.694Z" fill="#B292DF"/>
<path d="M63.6735 478.202L65.7422 481.005L63.9672 480.99L62.6421 478.177L63.6735 478.202Z" fill="#B292DF"/>
<path d="M60.3257 470.518L64.6084 477.504L63.3158 477.472L60.3257 470.518Z" fill="#B292DF"/>
<g filter="url(#filter2_i_3_4037)">
<path d="M3.61502 456.686L-11.0145 453.745C-14.1098 453.122 -17 455.489 -17 458.646V492.876C-17 547.479 28.4809 591.086 83.0353 588.791L184.264 584.532C203.093 583.74 220.279 573.584 230.055 557.473L233.171 552.337C250.211 524.254 236.953 487.612 205.889 476.934C193.29 472.603 179.503 473.324 167.425 478.945L138.765 492.284C126.923 497.795 113.173 497.385 101.681 491.177C96.1993 488.216 90.1191 486.533 83.8951 486.253L76.6862 485.929C62.3003 485.281 48.429 480.385 36.825 471.857L35.1313 470.612C25.7659 463.73 15.0095 458.977 3.61502 456.686Z" fill="url(#paint0_linear_3_4037)"/>
</g>
<path fill-rule="evenodd" clip-rule="evenodd" d="M92.9656 462.67C92.3605 462.779 91.8631 462.193 92.0697 461.614L96.9289 447.999C97.2206 447.181 98.3443 447.1 98.7532 447.866L105.564 460.632C105.854 461.175 105.448 461.827 104.834 461.807V461.807C104.189 461.785 103.786 462.497 104.137 463.039L107.624 468.431C108.018 469.04 107.575 469.842 106.85 469.833V469.833C106.121 469.823 105.679 470.633 106.081 471.241L110.637 478.143C111.075 478.806 110.603 479.689 109.808 479.693L103.727 479.721C103.148 479.724 102.693 480.216 102.736 480.793L103.4 489.778C103.441 490.328 103.027 490.807 102.477 490.847L99.5717 491.059C99.0208 491.099 98.5413 490.685 98.5005 490.134L97.8358 481.15C97.793 480.572 97.2703 480.151 96.697 480.232L90.6765 481.084C89.8903 481.196 89.2932 480.39 89.6287 479.671L93.1204 472.184C93.4284 471.524 92.8719 470.787 92.152 470.902V470.902C91.436 471.016 90.8799 470.287 91.1801 469.627L93.8363 463.788C94.1033 463.201 93.6004 462.555 92.9656 462.67V462.67Z" fill="#C4C3FE"/>
<path fill-rule="evenodd" clip-rule="evenodd" d="M91.6052 462.915L97.6885 445.87L96.4946 462.033L91.6052 462.915ZM93.5847 464.23L90.4787 471.169L97.2104 470.094L97.4867 463.532L93.5847 464.23ZM93.0275 472.379L88.8488 481.343L97.2043 480.161L97.6962 471.684L93.0275 472.379Z" fill="#E9DBFF"/>
<path d="M93.0276 472.379L88.8488 481.343L93.0266 480.752L95.3619 472.031L93.0276 472.379Z" fill="#E9DBFF"/>
<path d="M93.5847 464.23L90.4787 471.169L93.8445 470.631L95.5357 463.881L93.5847 464.23Z" fill="#E9DBFF"/>
<path d="M97.6885 445.87L91.6052 462.915L94.0499 462.474L97.6885 445.87Z" fill="#E9DBFF"/>
<g filter="url(#filter3_i_3_4037)">
<path d="M250.992 389.132L319.58 395.126V582L-1.21133 577.4V540.142L42.2891 525.617L76.8717 493.461L127.233 456.805L199.559 426.916L250.992 389.132Z" fill="url(#paint1_linear_3_4037)"/>
</g>
<rect x="264.026" y="386.194" width="35.1883" height="41.8965" fill="#D39D8C"/>
<path d="M271.016 388.409C265.634 388.271 264.242 380.892 269.204 378.802L279.493 374.47C280.773 373.931 282.219 373.949 283.485 374.518L294.317 379.393C299.294 381.633 297.593 389.09 292.137 388.95L271.016 388.409Z" fill="#C2CAFF"/>
<path d="M262.3 388.285L281.5 376.206L300.7 388.285H262.3Z" fill="#444B89" fill-opacity="0.43"/>
<path d="M264.025 388.284L281.5 377.384L298.974 388.284V389.017H264.025V388.284Z" fill="#D39D8C"/>
<circle cx="282" cy="395" r="5" fill="#783582"/>
<path d="M278.396 417.965C278.396 416.006 279.984 414.417 281.943 414.417V414.417C283.902 414.417 285.491 416.006 285.491 417.965V425.059H278.396V417.965Z" fill="#0C1648"/>
<rect x="224.308" y="384.654" width="42.385" height="47.9707" fill="#CF5F95"/>
<path d="M263.211 365.711H257.313V370.572L263.211 374.967V365.711Z" fill="#9DADE5"/>
<rect width="7.45106" height="2.45518" rx="1" transform="matrix(-1 0 0 1 264.044 364.779)" fill="#C2CAFF"/>
<path d="M230.028 384.654C225.446 384.654 223.277 379.004 226.683 375.938L242.155 362.011C244.056 360.299 246.944 360.299 248.845 362.011L264.317 375.938C267.723 379.004 265.554 384.654 260.972 384.654H230.028Z" fill="#C2CAFF"/>
<path d="M222.215 384.654L245.5 363.517L268.785 384.654H222.215Z" fill="#444B89" fill-opacity="0.43"/>
<path d="M224.308 384.654L245.5 365.577L266.692 384.654V385.937H224.308V384.654Z" fill="#CF5F95"/>
<path d="M240.75 418.511C240.75 415.812 242.937 413.625 245.636 413.625C248.334 413.625 250.521 415.812 250.521 418.511V428.107H240.75V418.511Z" fill="#0C1648"/>
<path d="M247.907 382.25C247.907 383.493 246.89 384.5 245.636 384.5C244.382 384.5 243.365 383.493 243.365 382.25C243.365 381.007 244.382 380 245.636 380C246.89 380 247.907 381.007 247.907 382.25Z" fill="white"/>
<g filter="url(#filter4_di_3_4037)">
<path d="M233.125 398.375C233.125 396.511 234.636 395 236.5 395V395C238.364 395 239.875 396.511 239.875 398.375V403.14H233.125V398.375Z" fill="#FFF55A"/>
</g>
<path d="M232 404.07C232 403.556 232.416 403.14 232.93 403.14H240.07C240.584 403.14 241 403.556 241 404.07V404.07C241 404.584 240.584 405 240.07 405H232.93C232.416 405 232 404.584 232 404.07V404.07Z" fill="#CAE6FF"/>
<path d="M252.125 398.375C252.125 396.511 253.636 395 255.5 395V395C257.364 395 258.875 396.511 258.875 398.375V403.14H252.125V398.375Z" fill="#0C1648"/>
<path d="M251 404.07C251 403.556 251.416 403.14 251.93 403.14H259.07C259.584 403.14 260 403.556 260 404.07V404.07C260 404.584 259.584 405 259.07 405H251.93C251.416 405 251 404.584 251 404.07V404.07Z" fill="#783582"/>
<path d="M294.106 375.098H287.772V380.823L294.106 386V375.098Z" fill="#9DADE5"/>
<rect width="8" height="2.89175" rx="1" transform="matrix(-1 0 0 1 295 374)" fill="#C2CAFF"/>
<path d="M261.492 434C260.165 434 261.745 431.632 263.593 430.593C265.44 429.553 265.594 427.446 268.366 428.136C270.111 428.57 275.274 431.88 273.708 432.819C271.501 434.142 268.674 432.53 266.57 432.53C265.059 432.53 262.21 434 261.492 434Z" fill="url(#paint2_linear_3_4037)"/>
<g filter="url(#filter5_d_3_4037)">
<path d="M55.627 73.25V79.5H53.5762C53.4378 79.321 53.2791 79.1379 53.1001 78.9507C52.9211 78.7635 52.7217 78.5967 52.502 78.4502C52.2822 78.2956 52.0422 78.1735 51.7817 78.084C51.5213 77.9863 51.2406 77.9375 50.9395 77.9375V86.397L52.502 86.7021V92H41.5645V86.7021L43.127 86.397V77.9375C42.8258 77.9375 42.5451 77.9863 42.2847 78.084C42.0243 78.1735 41.7842 78.2956 41.5645 78.4502C41.3447 78.5967 41.1453 78.7635 40.9663 78.9507C40.7873 79.1379 40.6286 79.321 40.4902 79.5H38.4395V73.25H55.627ZM56.9087 73.25H64.7212V79.4878C64.7212 80.5213 64.5422 81.3921 64.1841 82.1001C63.826 82.8 63.354 83.3696 62.7681 83.8091C62.1821 84.2404 61.5148 84.5496 60.7661 84.7368C60.0174 84.924 59.2524 85.0176 58.4712 85.0176V81.0625C58.6258 81.0544 58.7926 81.0259 58.9717 80.9771C59.1507 80.9282 59.3175 80.8468 59.4722 80.7329C59.6268 80.619 59.757 80.4644 59.8628 80.269C59.9686 80.0656 60.0215 79.8092 60.0215 79.5H56.9087V73.25ZM78.1367 92L77.5264 89.1069H72.729L72.1187 92H65.5879V86.3359L67.0039 86.0552L70.3853 74.8125H79.8579L83.2637 86.0552L84.6675 86.3359V92H78.1367ZM73.4736 85.2495H76.7817L75.1216 78.499L73.4736 85.2495ZM101.33 86.5923C101.33 87.3491 101.22 88.0205 101 88.6064C100.789 89.1842 100.496 89.6888 100.122 90.1201C99.7554 90.5433 99.3159 90.8973 98.8032 91.1821C98.2987 91.467 97.7534 91.6989 97.1675 91.8779C96.5815 92.0488 95.9671 92.1465 95.3242 92.1709C94.6895 92.2035 94.0547 92.2197 93.4199 92.2197C92.541 92.2197 91.7476 92.1994 91.0396 92.1587C90.3315 92.118 89.6968 92.0285 89.1353 91.8901C88.5819 91.7518 88.0895 91.6012 87.6582 91.4385C87.235 91.2676 86.8607 91.1007 86.5352 90.938V86.7021H89.9897C90.3315 87.2393 90.7222 87.634 91.1616 87.8862C91.6011 88.1385 92.0527 88.2646 92.5166 88.2646C92.6549 88.2646 92.8096 88.2524 92.9805 88.228C93.1514 88.2036 93.3101 88.1263 93.4565 87.9961C93.603 87.8659 93.7251 87.6665 93.8228 87.3979C93.9285 87.1213 93.9814 86.7347 93.9814 86.2383C93.3223 86.1813 92.6672 86.0999 92.0161 85.9941C91.3732 85.8802 90.7547 85.7297 90.1606 85.5425C89.5747 85.3553 89.0295 85.1193 88.5249 84.8345C88.0203 84.5415 87.5809 84.1916 87.2065 83.7847C86.8403 83.3696 86.5514 82.8854 86.3398 82.332C86.1283 81.7705 86.0225 81.1276 86.0225 80.4033C86.0225 79.5732 86.1283 78.849 86.3398 78.2305C86.5514 77.6038 86.8403 77.0667 87.2065 76.6191C87.5728 76.1715 88.0041 75.8013 88.5005 75.5083C89.005 75.2153 89.5462 74.9834 90.124 74.8125C90.7018 74.6416 91.304 74.5236 91.9307 74.4585C92.5573 74.3853 93.1839 74.3486 93.8105 74.3486C94.6976 74.3486 95.491 74.3934 96.1909 74.4829C96.8989 74.5724 97.5296 74.6864 98.083 74.8247C98.6445 74.9631 99.1369 75.1177 99.5601 75.2886C99.9914 75.4513 100.374 75.61 100.708 75.7646V80.0371H97.0088C96.6995 79.4512 96.3455 79.0239 95.9468 78.7554C95.548 78.4868 95.1411 78.3525 94.7261 78.3525C94.5877 78.3525 94.429 78.377 94.25 78.4258C94.071 78.4665 93.9041 78.5641 93.7495 78.7188C93.5949 78.8734 93.4647 79.1012 93.3589 79.4023C93.2531 79.7035 93.2002 80.1104 93.2002 80.623C94.543 80.6719 95.7189 80.8143 96.728 81.0503C97.7453 81.2863 98.5957 81.6403 99.2793 82.1123C99.9629 82.5762 100.476 83.1784 100.817 83.9189C101.159 84.6514 101.33 85.5425 101.33 86.5923ZM119.763 87.3125C120.104 87.3125 120.43 87.2677 120.739 87.1782C121.049 87.0806 121.333 86.9585 121.594 86.812C121.862 86.6574 122.102 86.4906 122.314 86.3115C122.534 86.1243 122.725 85.9372 122.888 85.75H124.926V92H110.961V87.1294L112.426 86.8486V79.9028L110.961 79.6221V74.8125H121.24V79.6221L119.763 79.9028V87.3125ZM135.388 82.3687L138.769 81.6484V85.1274L135.388 84.395V87.0928C135.876 87.0928 136.348 87.0602 136.804 86.9951C137.259 86.9219 137.683 86.8242 138.073 86.7021C138.464 86.5801 138.822 86.4377 139.147 86.2749C139.473 86.1121 139.754 85.9372 139.99 85.75H141.662V92H126.574V87.1294L128.039 86.8486V79.9272L126.574 79.6465V74.8125H141.662V81.0625H139.99C139.754 80.8835 139.473 80.7126 139.147 80.5498C138.822 80.387 138.464 80.2446 138.073 80.1226C137.683 80.0005 137.259 79.9028 136.804 79.8296C136.348 79.7563 135.876 79.7197 135.388 79.7197V82.3687ZM158.581 86.5923C158.581 87.3491 158.471 88.0205 158.251 88.6064C158.04 89.1842 157.747 89.6888 157.373 90.1201C157.006 90.5433 156.567 90.8973 156.054 91.1821C155.55 91.467 155.004 91.6989 154.418 91.8779C153.833 92.0488 153.218 92.1465 152.575 92.1709C151.94 92.2035 151.306 92.2197 150.671 92.2197C149.792 92.2197 148.999 92.1994 148.291 92.1587C147.583 92.118 146.948 92.0285 146.386 91.8901C145.833 91.7518 145.34 91.6012 144.909 91.4385C144.486 91.2676 144.112 91.1007 143.786 90.938V86.7021H147.241C147.583 87.2393 147.973 87.634 148.413 87.8862C148.852 88.1385 149.304 88.2646 149.768 88.2646C149.906 88.2646 150.061 88.2524 150.231 88.228C150.402 88.2036 150.561 88.1263 150.708 87.9961C150.854 87.8659 150.976 87.6665 151.074 87.3979C151.18 87.1213 151.232 86.7347 151.232 86.2383C150.573 86.1813 149.918 86.0999 149.267 85.9941C148.624 85.8802 148.006 85.7297 147.412 85.5425C146.826 85.3553 146.28 85.1193 145.776 84.8345C145.271 84.5415 144.832 84.1916 144.458 83.7847C144.091 83.3696 143.802 82.8854 143.591 82.332C143.379 81.7705 143.273 81.1276 143.273 80.4033C143.273 79.5732 143.379 78.849 143.591 78.2305C143.802 77.6038 144.091 77.0667 144.458 76.6191C144.824 76.1715 145.255 75.8013 145.751 75.5083C146.256 75.2153 146.797 74.9834 147.375 74.8125C147.953 74.6416 148.555 74.5236 149.182 74.4585C149.808 74.3853 150.435 74.3486 151.062 74.3486C151.949 74.3486 152.742 74.3934 153.442 74.4829C154.15 74.5724 154.781 74.6864 155.334 74.8247C155.896 74.9631 156.388 75.1177 156.811 75.2886C157.242 75.4513 157.625 75.61 157.958 75.7646V80.0371H154.26C153.951 79.4512 153.597 79.0239 153.198 78.7554C152.799 78.4868 152.392 78.3525 151.977 78.3525C151.839 78.3525 151.68 78.377 151.501 78.4258C151.322 78.4665 151.155 78.5641 151 78.7188C150.846 78.8734 150.716 79.1012 150.61 79.4023C150.504 79.7035 150.451 80.1104 150.451 80.623C151.794 80.6719 152.97 80.8143 153.979 81.0503C154.996 81.2863 155.847 81.6403 156.53 82.1123C157.214 82.5762 157.727 83.1784 158.068 83.9189C158.41 84.6514 158.581 85.5425 158.581 86.5923ZM182.995 74.8125C184.2 75.0973 185.099 75.5571 185.693 76.1919C186.295 76.8267 186.596 77.6893 186.596 78.7798C186.596 79.5122 186.515 80.1307 186.352 80.6353C186.189 81.1398 185.982 81.5549 185.729 81.8804C185.485 82.2059 185.217 82.4582 184.924 82.6372C184.639 82.8081 184.37 82.9342 184.118 83.0156C183.874 83.097 183.667 83.1458 183.496 83.1621C183.333 83.1702 183.251 83.1743 183.251 83.1743C183.544 83.1906 183.862 83.2272 184.204 83.2842C184.545 83.333 184.883 83.4144 185.217 83.5283C185.55 83.6341 185.872 83.7765 186.181 83.9556C186.49 84.1265 186.759 84.3462 186.987 84.6147C187.223 84.8833 187.41 85.2007 187.548 85.5669C187.695 85.9331 187.768 86.3604 187.768 86.8486C187.768 87.5811 187.674 88.2646 187.487 88.8994C187.3 89.526 186.966 90.0713 186.486 90.5352C186.014 90.9909 185.375 91.349 184.57 91.6094C183.764 91.8698 182.739 92 181.494 92H168.176V87.1294L169.641 86.8486V79.4878L168.176 79.207V74.8125H182.995ZM180.419 80.1592C180.419 79.7441 180.35 79.4268 180.212 79.207C180.082 78.9792 179.903 78.8123 179.675 78.7065C179.455 78.6007 179.203 78.5397 178.918 78.5234C178.641 78.5072 178.356 78.499 178.063 78.499H176.989V81.9658H178.063C178.356 81.9658 178.641 81.9577 178.918 81.9414C179.203 81.917 179.455 81.8519 179.675 81.7461C179.903 81.6322 180.082 81.4531 180.212 81.209C180.35 80.9648 180.419 80.6149 180.419 80.1592ZM180.419 86.0063C180.419 85.5913 180.35 85.2739 180.212 85.0542C180.082 84.8345 179.903 84.6717 179.675 84.5659C179.455 84.4601 179.203 84.3991 178.918 84.3828C178.641 84.3665 178.356 84.3584 178.063 84.3584H176.989V87.8252H178.063C178.356 87.8252 178.641 87.8171 178.918 87.8008C179.203 87.7764 179.455 87.7072 179.675 87.5933C179.903 87.4793 180.082 87.3003 180.212 87.0562C180.35 86.812 180.419 86.4621 180.419 86.0063ZM199.292 92.2197C197.859 92.2197 196.516 92.0692 195.263 91.7681C194.018 91.4588 192.932 90.9339 192.004 90.1934C191.084 89.4447 190.356 88.4925 189.819 87.3369C189.29 86.1813 189.025 84.7938 189.025 83.1743C189.025 81.5874 189.29 80.2365 189.819 79.1216C190.356 77.9985 191.088 77.0871 192.016 76.3872C192.944 75.6792 194.03 75.1624 195.275 74.8369C196.521 74.5114 197.859 74.3486 199.292 74.3486C200.716 74.3486 202.05 74.5114 203.295 74.8369C204.549 75.1624 205.639 75.6792 206.567 76.3872C207.503 77.0871 208.239 77.9985 208.776 79.1216C209.313 80.2365 209.582 81.5874 209.582 83.1743C209.582 84.2485 209.46 85.2251 209.216 86.104C208.972 86.9748 208.626 87.752 208.178 88.4355C207.739 89.111 207.206 89.6969 206.579 90.1934C205.961 90.6816 205.269 91.0885 204.504 91.4141C203.739 91.7314 202.917 91.943 202.038 92.0488C201.159 92.1628 200.244 92.2197 199.292 92.2197ZM199.292 79.5488C198.811 79.5488 198.404 79.6099 198.071 79.7319C197.745 79.854 197.473 80.0127 197.253 80.208C197.041 80.4033 196.875 80.6271 196.752 80.8794C196.63 81.1317 196.541 81.3921 196.484 81.6606C196.435 81.9211 196.403 82.1815 196.386 82.4419C196.378 82.6942 196.374 82.918 196.374 83.1133C196.374 83.3005 196.378 83.5243 196.386 83.7847C196.394 84.0369 196.423 84.3055 196.472 84.5903C196.521 84.867 196.602 85.1437 196.716 85.4204C196.83 85.6971 196.993 85.9453 197.204 86.165C197.424 86.3848 197.701 86.5638 198.034 86.7021C198.376 86.8324 198.795 86.8975 199.292 86.8975C199.78 86.8975 200.191 86.8324 200.524 86.7021C200.866 86.5719 201.143 86.401 201.354 86.1895C201.574 85.9697 201.745 85.7256 201.867 85.457C201.989 85.1885 202.075 84.9199 202.124 84.6514C202.181 84.3747 202.213 84.1061 202.221 83.8457C202.237 83.5853 202.246 83.3615 202.246 83.1743C202.246 82.979 202.237 82.7552 202.221 82.5029C202.213 82.2425 202.181 81.978 202.124 81.7095C202.075 81.4409 201.989 81.1805 201.867 80.9282C201.745 80.6678 201.574 80.4359 201.354 80.2324C201.143 80.029 200.866 79.8662 200.524 79.7441C200.191 79.6139 199.78 79.5488 199.292 79.5488ZM230.261 79.9028C230.253 80.147 230.249 80.387 230.249 80.623C230.249 80.8509 230.249 81.0706 230.249 81.2822V83.1743C230.249 84.8019 230.025 86.1976 229.577 87.3613C229.13 88.5169 228.523 89.465 227.758 90.2056C226.993 90.9461 226.094 91.467 225.061 91.7681C224.035 92.0692 222.945 92.2197 221.789 92.2197C220.454 92.2197 219.205 92.0692 218.042 91.7681C216.886 91.467 215.877 90.9461 215.014 90.2056C214.16 89.4569 213.484 88.5047 212.988 87.3491C212.5 86.1935 212.255 84.8019 212.255 83.1743V79.9028L210.791 79.6221V74.8125H220.324V79.6221L218.859 79.9028V81.3555C218.859 81.5508 218.859 81.7502 218.859 81.9536C218.859 82.1489 218.859 82.332 218.859 82.5029C218.868 82.6738 218.872 82.8244 218.872 82.9546C218.872 83.0767 218.872 83.158 218.872 83.1987C218.872 83.3859 218.876 83.6056 218.884 83.8579C218.892 84.1021 218.924 84.3584 218.981 84.627C219.038 84.8874 219.124 85.1478 219.238 85.4082C219.36 85.6605 219.527 85.8883 219.738 86.0918C219.958 86.2952 220.231 86.4621 220.556 86.5923C220.89 86.7144 221.301 86.7754 221.789 86.7754C222.277 86.7754 222.688 86.7144 223.022 86.5923C223.364 86.4621 223.64 86.2952 223.852 86.0918C224.072 85.8802 224.243 85.6442 224.365 85.3838C224.487 85.1234 224.572 84.863 224.621 84.6025C224.678 84.334 224.711 84.0776 224.719 83.8335C224.735 83.5812 224.743 83.3615 224.743 83.1743C224.743 83.1174 224.743 83.0278 224.743 82.9058C224.743 82.7756 224.739 82.6291 224.731 82.4663C224.731 82.2954 224.731 82.1164 224.731 81.9292C224.731 81.7339 224.731 81.5426 224.731 81.3555V79.9028L223.266 79.6221V74.8125H231.738V79.6221L230.261 79.9028ZM242.443 87.3125C242.785 87.3125 243.111 87.2677 243.42 87.1782C243.729 87.0806 244.014 86.9585 244.274 86.812C244.543 86.6574 244.783 86.4906 244.995 86.3115C245.214 86.1243 245.406 85.9372 245.568 85.75H247.607V92H233.642V87.1294L235.107 86.8486V79.9028L233.642 79.6221V74.8125H243.92V79.6221L242.443 79.9028V87.3125ZM258.068 82.3687L261.45 81.6484V85.1274L258.068 84.395V87.0928C258.557 87.0928 259.029 87.0602 259.484 86.9951C259.94 86.9219 260.363 86.8242 260.754 86.7021C261.145 86.5801 261.503 86.4377 261.828 86.2749C262.154 86.1121 262.434 85.9372 262.67 85.75H264.343V92H249.255V87.1294L250.72 86.8486V79.9272L249.255 79.6465V74.8125H264.343V81.0625H262.67C262.434 80.8835 262.154 80.7126 261.828 80.5498C261.503 80.387 261.145 80.2446 260.754 80.1226C260.363 80.0005 259.94 79.9028 259.484 79.8296C259.029 79.7563 258.557 79.7197 258.068 79.7197V82.3687ZM281.262 86.5923C281.262 87.3491 281.152 88.0205 280.932 88.6064C280.721 89.1842 280.428 89.6888 280.053 90.1201C279.687 90.5433 279.248 90.8973 278.735 91.1821C278.23 91.467 277.685 91.6989 277.099 91.8779C276.513 92.0488 275.899 92.1465 275.256 92.1709C274.621 92.2035 273.986 92.2197 273.352 92.2197C272.473 92.2197 271.679 92.1994 270.971 92.1587C270.263 92.118 269.628 92.0285 269.067 91.8901C268.514 91.7518 268.021 91.6012 267.59 91.4385C267.167 91.2676 266.792 91.1007 266.467 90.938V86.7021H269.921C270.263 87.2393 270.654 87.634 271.093 87.8862C271.533 88.1385 271.984 88.2646 272.448 88.2646C272.587 88.2646 272.741 88.2524 272.912 88.228C273.083 88.2036 273.242 88.1263 273.388 87.9961C273.535 87.8659 273.657 87.6665 273.754 87.3979C273.86 87.1213 273.913 86.7347 273.913 86.2383C273.254 86.1813 272.599 86.0999 271.948 85.9941C271.305 85.8802 270.686 85.7297 270.092 85.5425C269.506 85.3553 268.961 85.1193 268.457 84.8345C267.952 84.5415 267.513 84.1916 267.138 83.7847C266.772 83.3696 266.483 82.8854 266.271 82.332C266.06 81.7705 265.954 81.1276 265.954 80.4033C265.954 79.5732 266.06 78.849 266.271 78.2305C266.483 77.6038 266.772 77.0667 267.138 76.6191C267.504 76.1715 267.936 75.8013 268.432 75.5083C268.937 75.2153 269.478 74.9834 270.056 74.8125C270.633 74.6416 271.236 74.5236 271.862 74.4585C272.489 74.3853 273.116 74.3486 273.742 74.3486C274.629 74.3486 275.423 74.3934 276.123 74.4829C276.831 74.5724 277.461 74.6864 278.015 74.8247C278.576 74.9631 279.069 75.1177 279.492 75.2886C279.923 75.4513 280.306 75.61 280.639 75.7646V80.0371H276.94C276.631 79.4512 276.277 79.0239 275.878 78.7554C275.48 78.4868 275.073 78.3525 274.658 78.3525C274.519 78.3525 274.361 78.377 274.182 78.4258C274.003 78.4665 273.836 78.5641 273.681 78.7188C273.527 78.8734 273.396 79.1012 273.291 79.4023C273.185 79.7035 273.132 80.1104 273.132 80.623C274.475 80.6719 275.651 80.8143 276.66 81.0503C277.677 81.2863 278.527 81.6403 279.211 82.1123C279.895 82.5762 280.407 83.1784 280.749 83.9189C281.091 84.6514 281.262 85.5425 281.262 86.5923Z" fill="white"/>
</g>
<path d="M215.53 434C214.101 434 215.802 431.632 217.792 430.593C219.782 429.553 219.948 427.446 222.933 428.136C224.812 428.57 230.372 431.88 228.686 432.819C226.309 434.142 223.264 432.53 220.998 432.53C219.371 432.53 216.304 434 215.53 434Z" fill="url(#paint3_linear_3_4037)"/>
<defs>
<filter id="filter0_di_3_4037" x="25.1484" y="303.714" width="124.543" height="133.926" filterUnits="userSpaceOnUse" color-interpolation-filters="sRGB">
<feFlood flood-opacity="0" result="BackgroundImageFix"/>
<feColorMatrix in="SourceAlpha" type="matrix" values="0 0 0 0 0 0 0 0 0 0 0 0 0 0 0 0 0 0 127 0" result="hardAlpha"/>
<feOffset/>
<feGaussianBlur stdDeviation="20.5"/>
<feComposite in2="hardAlpha" operator="out"/>
<feColorMatrix type="matrix" values="0 0 0 0 0.933333 0 0 0 0 0.913725 0 0 0 0 1 0 0 0 1 0"/>
<feBlend mode="normal" in2="BackgroundImageFix" result="effect1_dropShadow_3_4037"/>
<feBlend mode="normal" in="SourceGraphic" in2="effect1_dropShadow_3_4037" result="shape"/>
<feColorMatrix in="SourceAlpha" type="matrix" values="0 0 0 0 0 0 0 0 0 0 0 0 0 0 0 0 0 0 127 0" result="hardAlpha"/>
<feOffset dx="6" dy="-2"/>
<feGaussianBlur stdDeviation="8"/>
<feComposite in2="hardAlpha" operator="arithmetic" k2="-1" k3="1"/>
<feColorMatrix type="matrix" values="0 0 0 0 0.878431 0 0 0 0 0.815686 0 0 0 0 0.992157 0 0 0 1 0"/>
<feBlend mode="normal" in2="shape" result="effect2_innerShadow_3_4037"/>
</filter>
<filter id="filter1_di_3_4037" x="25.1484" y="303.714" width="133.926" height="133.926" filterUnits="userSpaceOnUse" color-interpolation-filters="sRGB">
<feFlood flood-opacity="0" result="BackgroundImageFix"/>
<feColorMatrix in="SourceAlpha" type="matrix" values="0 0 0 0 0 0 0 0 0 0 0 0 0 0 0 0 0 0 127 0" result="hardAlpha"/>
<feOffset/>
<feGaussianBlur stdDeviation="20.5"/>
<feComposite in2="hardAlpha" operator="out"/>
<feColorMatrix type="matrix" values="0 0 0 0 0.933333 0 0 0 0 0.913725 0 0 0 0 1 0 0 0 1 0"/>
<feBlend mode="normal" in2="BackgroundImageFix" result="effect1_dropShadow_3_4037"/>
<feBlend mode="normal" in="SourceGraphic" in2="effect1_dropShadow_3_4037" result="shape"/>
<feColorMatrix in="SourceAlpha" type="matrix" values="0 0 0 0 0 0 0 0 0 0 0 0 0 0 0 0 0 0 127 0" result="hardAlpha"/>
<feOffset dx="6" dy="-2"/>
<feGaussianBlur stdDeviation="8"/>
<feComposite in2="hardAlpha" operator="arithmetic" k2="-1" k3="1"/>
<feColorMatrix type="matrix" values="0 0 0 0 0.878431 0 0 0 0 0.815686 0 0 0 0 0.992157 0 0 0 1 0"/>
<feBlend mode="normal" in2="shape" result="effect2_innerShadow_3_4037"/>
</filter>
<filter id="filter2_i_3_4037" x="-21" y="453.645" width="261.664" height="137.233" filterUnits="userSpaceOnUse" color-interpolation-filters="sRGB">
<feFlood flood-opacity="0" result="BackgroundImageFix"/>
<feBlend mode="normal" in="SourceGraphic" in2="BackgroundImageFix" result="shape"/>
<feColorMatrix in="SourceAlpha" type="matrix" values="0 0 0 0 0 0 0 0 0 0 0 0 0 0 0 0 0 0 127 0" result="hardAlpha"/>
<feOffset dx="-12" dy="2"/>
<feGaussianBlur stdDeviation="2"/>
<feComposite in2="hardAlpha" operator="arithmetic" k2="-1" k3="1"/>
<feColorMatrix type="matrix" values="0 0 0 0 0.769272 0 0 0 0 0.676667 0 0 0 0 0.966667 0 0 0 0.4 0"/>
<feBlend mode="normal" in2="shape" result="effect1_innerShadow_3_4037"/>
</filter>
<filter id="filter3_i_3_4037" x="-1.2113" y="389.132" width="320.791" height="196.868" filterUnits="userSpaceOnUse" color-interpolation-filters="sRGB">
<feFlood flood-opacity="0" result="BackgroundImageFix"/>
<feBlend mode="normal" in="SourceGraphic" in2="BackgroundImageFix" result="shape"/>
<feColorMatrix in="SourceAlpha" type="matrix" values="0 0 0 0 0 0 0 0 0 0 0 0 0 0 0 0 0 0 127 0" result="hardAlpha"/>
<feOffset dy="9"/>
<feGaussianBlur stdDeviation="2"/>
<feComposite in2="hardAlpha" operator="arithmetic" k2="-1" k3="1"/>
<feColorMatrix type="matrix" values="0 0 0 0 0.825 0 0 0 0 0.8635 0 0 0 0 1 0 0 0 0.67 0"/>
<feBlend mode="normal" in2="shape" result="effect1_innerShadow_3_4037"/>
</filter>
<filter id="filter4_di_3_4037" x="193.125" y="359" width="86.75" height="88.1395" filterUnits="userSpaceOnUse" color-interpolation-filters="sRGB">
<feFlood flood-opacity="0" result="BackgroundImageFix"/>
<feColorMatrix in="SourceAlpha" type="matrix" values="0 0 0 0 0 0 0 0 0 0 0 0 0 0 0 0 0 0 127 0" result="hardAlpha"/>
<feOffset dy="4"/>
<feGaussianBlur stdDeviation="20"/>
<feComposite in2="hardAlpha" operator="out"/>
<feColorMatrix type="matrix" values="0 0 0 0 1 0 0 0 0 0.818824 0 0 0 0 0.352941 0 0 0 1 0"/>
<feBlend mode="normal" in2="BackgroundImageFix" result="effect1_dropShadow_3_4037"/>
<feBlend mode="normal" in="SourceGraphic" in2="effect1_dropShadow_3_4037" result="shape"/>
<feColorMatrix in="SourceAlpha" type="matrix" values="0 0 0 0 0 0 0 0 0 0 0 0 0 0 0 0 0 0 127 0" result="hardAlpha"/>
<feOffset/>
<feGaussianBlur stdDeviation="4"/>
<feComposite in2="hardAlpha" operator="arithmetic" k2="-1" k3="1"/>
<feColorMatrix type="matrix" values="0 0 0 0 0.956863 0 0 0 0 0.784314 0 0 0 0 0.172549 0 0 0 1 0"/>
<feBlend mode="normal" in2="shape" result="effect2_innerShadow_3_4037"/>
</filter>
<filter id="filter5_d_3_4037" x="34.4395" y="73.25" width="250.822" height="26.9697" filterUnits="userSpaceOnUse" color-interpolation-filters="sRGB">
<feFlood flood-opacity="0" result="BackgroundImageFix"/>
<feColorMatrix in="SourceAlpha" type="matrix" values="0 0 0 0 0 0 0 0 0 0 0 0 0 0 0 0 0 0 127 0" result="hardAlpha"/>
<feOffset dy="4"/>
<feGaussianBlur stdDeviation="2"/>
<feComposite in2="hardAlpha" operator="out"/>
<feColorMatrix type="matrix" values="0 0 0 0 0 0 0 0 0 0 0 0 0 0 0 0 0 0 0.25 0"/>
<feBlend mode="normal" in2="BackgroundImageFix" result="effect1_dropShadow_3_4037"/>
<feBlend mode="normal" in="SourceGraphic" in2="effect1_dropShadow_3_4037" result="shape"/>
</filter>
<linearGradient id="paint0_linear_3_4037" x1="128.922" y1="420.868" x2="91.7947" y2="564.31" gradientUnits="userSpaceOnUse">
<stop stop-color="#76418E"/>
<stop offset="1" stop-color="#8D8BDD"/>
</linearGradient>
<linearGradient id="paint1_linear_3_4037" x1="117.92" y1="454.631" x2="-33.341" y2="513.921" gradientUnits="userSpaceOnUse">
<stop stop-color="#D1CAFF"/>
<stop offset="1" stop-color="#849FEE"/>
</linearGradient>
<linearGradient id="paint2_linear_3_4037" x1="268.168" y1="429.087" x2="266.398" y2="440.661" gradientUnits="userSpaceOnUse">
<stop offset="0.9999" stop-color="#D8DCFF"/>
<stop offset="1" stop-color="#849FEE"/>
</linearGradient>
<linearGradient id="paint3_linear_3_4037" x1="222.72" y1="429.087" x2="221.07" y2="440.698" gradientUnits="userSpaceOnUse">
<stop offset="0.9999" stop-color="#D8DCFF"/>
<stop offset="1" stop-color="#849FEE"/>
</linearGradient>
</defs>
</svg>
