<svg width="182" height="66" viewBox="0 0 182 66" fill="none" xmlns="http://www.w3.org/2000/svg">
<rect y="5.78943" width="181.789" height="60.2105" rx="15" fill="#AFB7F7"/>
<path d="M10.9723 6.7131C11.5634 6.4564 12.2103 6.29615 12.8766 6.2413L29.8542 4.84375C30.3076 4.80643 30.7651 4.81833 31.2147 4.87914L44.8653 6.72552C45.3689 6.79362 45.882 6.80034 46.3879 6.74544L62.5477 4.99202C63.7641 4.86004 64.9983 5.08644 66.0282 5.63046L68.455 6.91238C69.4618 7.44421 70.6647 7.67287 71.8562 7.55892L91.7129 5.65972C92.1708 5.61592 92.6338 5.62244 93.0895 5.6791L113.277 8.18872L135.918 8.7093C136.164 8.71496 136.41 8.70623 136.655 8.68319L156.335 6.82824H164.59C165.01 6.82824 165.428 6.87009 165.836 6.95286L172.743 8.35614C173.894 8.59005 174.911 9.14085 175.622 9.91547L180.638 15.3814C180.907 15.6747 180.619 16.0887 180.172 16.0508L175.863 15.6857C175.753 15.6764 175.643 15.6961 175.547 15.7419L172.813 17.0599C172.716 17.1071 172.64 17.1793 172.597 17.2653L169.72 23.1208C169.602 23.3622 169.245 23.4586 168.973 23.3229L156.078 16.8924C154.144 15.9277 151.663 16.1079 149.968 17.3363L149.173 17.9129C149.082 17.9785 148.966 18.016 148.845 18.0188L141.328 18.1948C140.728 18.2088 140.135 18.3082 139.578 18.4884L134.165 20.2373C133.609 20.4168 133.096 20.6739 132.648 20.9969L128.158 24.2374L125.412 25.8791C124.86 26.209 124.233 26.4459 123.568 26.5761L118.865 27.4959C118.728 27.5227 118.584 27.5026 118.466 27.4405L116.446 26.3789L108.166 20.844C108.085 20.7897 107.985 20.7569 107.881 20.7501L106.481 20.6587C105.019 20.5632 103.577 20.9802 102.515 21.8051L101.571 22.5391C101.479 22.6106 101.357 22.6518 101.23 22.6549L96.7774 22.7626C94.5735 22.8159 92.6555 24.0069 92.0067 25.7251L91.3556 27.4493C91.2391 27.7578 90.757 27.8483 90.4867 27.6123L83.4492 21.4671C81.961 20.1676 79.6305 19.7728 77.6306 20.4815L72.3184 22.364C72.1682 22.4172 71.9959 22.409 71.8543 22.342L68.8403 20.9147C67.4908 20.2757 65.8588 20.1699 64.4025 20.627L61.9011 21.4121C59.7819 22.0772 57.4194 21.1167 56.7958 19.3364C56.2445 17.7624 54.3072 16.7946 52.337 17.1089L49.345 17.5861L43.9259 18.2223C43.821 18.2346 43.7233 18.273 43.6461 18.3322L34.9326 25.024C34.8762 25.0673 34.7836 25.0463 34.7627 24.9855L31.7269 16.1574C31.0819 14.282 28.6318 13.2377 26.3751 13.8763C25.3349 14.1707 24.1939 14.1156 23.2036 13.7233L22.0378 13.2614C21.6432 13.1051 21.2258 12.9905 20.7957 12.9205L13.8654 11.7915L5.415 9.95044C4.96318 9.85201 4.89304 9.35316 5.30582 9.17391L10.9723 6.7131Z" fill="#98C4E7"/>
<path d="M10.9724 6.7131C11.5635 6.4564 12.2103 6.29615 12.8766 6.2413L29.8542 4.84375C30.3076 4.80643 30.7651 4.81833 31.2147 4.87914L44.8653 6.72552C45.3689 6.79362 45.882 6.80034 46.3879 6.74544L62.5477 4.99202C63.7641 4.86004 64.9983 5.08644 66.0282 5.63046L68.455 6.91238C69.4618 7.44422 70.6647 7.67287 71.8562 7.55892L91.7129 5.65972C92.1708 5.61592 92.6338 5.62244 93.0895 5.6791L113.277 8.18872L135.89 8.70867C136.154 8.71475 136.419 8.70421 136.682 8.67715L154.613 6.82824H163.553C163.93 6.82824 164.305 6.86194 164.673 6.92874L172.696 8.38602C173.876 8.60036 174.926 9.14624 175.662 9.92814L181.681 16.3214C181.962 16.6192 181.659 17.0444 181.203 16.9933L177.278 16.5532H174.273C172.652 16.5532 171.126 17.1752 170.153 18.2324L167.343 21.2855C167.141 21.5047 166.74 21.5102 166.529 21.2965L163.681 18.4077C163.423 18.1465 163.128 17.9113 162.802 17.7072L159.013 15.3358C157.797 14.5749 156.228 14.295 154.733 14.5723L149.898 15.4695C148.51 15.7269 147.315 16.4407 146.596 17.4415L139.308 27.5817C139.119 27.8448 138.66 27.8612 138.444 27.6126L132.665 20.9772C132.561 20.8583 132.389 20.7917 132.211 20.8013L124.254 21.2306C124.149 21.2362 124.049 21.2678 123.967 21.3212L123.318 21.743C121.435 22.9659 118.764 22.9624 116.886 21.7346L112.506 18.8714C112.384 18.7915 112.224 18.7613 112.071 18.7893L108.57 19.4294C108.128 19.5103 107.674 19.5432 107.221 19.5273L100.906 19.3052C100.798 19.3014 100.697 19.2651 100.62 19.2032C99.6935 18.4517 98.3985 18.0835 97.0995 18.2023L96.1746 18.2868C95.9751 18.3051 95.7808 18.2272 95.6767 18.0872L92.11 13.2905C91.89 12.9946 91.3501 13.0304 91.1916 13.3515L88.3448 19.119C88.2307 19.3502 87.8964 19.45 87.6262 19.3336L82.9004 17.2973C81.7877 16.8179 80.4982 16.6872 79.2753 16.9298L72.5323 18.2679C72.3771 18.2987 72.2132 18.2691 72.0885 18.1877L68.3491 15.7468C66.834 14.7578 64.7657 14.547 62.9987 15.2016L60.7761 16.025C60.6474 16.0727 60.5003 16.0751 60.3693 16.0318L53.405 13.7275C52.4217 13.4022 51.3392 13.3323 50.3054 13.5276L47.1014 14.1328C46.1838 14.3061 45.2216 14.0789 44.5595 13.5326C43.6247 12.7612 42.1418 12.6562 41.0579 13.2846L39.0655 14.4398C38.0254 15.0428 36.6127 14.9808 35.658 14.2903L35.343 14.0624C34.6529 13.5633 33.6495 13.478 32.848 13.8503C32.1125 14.192 31.1996 14.1506 30.5151 13.7445L29.5779 13.1886C28.903 12.7882 28.0899 12.5725 27.2552 12.5725H12.9967C12.2527 12.5725 11.5176 12.4411 10.8418 12.1874L5.09484 10.0294C4.70789 9.88408 4.69215 9.44041 5.06816 9.27712L10.9724 6.7131Z" fill="#D1E6F7"/>
<path d="M8.87949 7.62202C10.818 6.78017 13.457 6.19357 16.3931 5.95188L26.5578 5.11516C28.9929 4.91471 31.528 4.96017 33.8929 5.24495C34.2062 5.28268 34.5226 5.30247 34.8392 5.29733L45.5815 5.12289C45.8981 5.11775 46.21 5.13977 46.5258 5.1584C49.842 5.35389 59.1706 4.04897 61.8835 3.75461L83.6535 0.0762722C86.5057 -0.233203 93.6029 0.441439 95.2963 1.33598C96.9428 2.2057 114.061 4.02227 116.86 3.75461C114.304 3.43694 119.471 3.50486 116.86 3.75461L137.872 4.13252L151.16 6.67713C149.2 6.97831 153.281 6.7259 151.16 6.67713C149.326 6.67713 152.85 6.41729 151.16 6.67713L159.917 5.95188C163.836 5.95188 168.369 6.20405 170.983 7.27186L172.667 7.95967C173.892 8.46008 174.831 9.04498 175.429 9.68L180.616 15.1897C181.085 15.688 179.412 16.082 178.366 15.7196L170.841 13.1133C167.615 11.9959 162.852 11.711 158.821 12.3944C156.42 12.8014 153.695 12.8734 151.16 12.597L134.569 10.788C130.999 10.3988 127.151 10.5547 123.9 11.2204L104.441 15.2056C103.743 15.3484 102.861 15.2449 102.521 14.9803L100.066 13.0711C96.9342 10.6349 89.1189 9.5293 82.3191 10.5605L67.7741 12.7663C64.4401 13.2719 60.6968 13.2789 57.3489 12.7858L46.0575 11.1228C43.6589 10.7696 41.0369 10.6703 38.4912 10.8363L19.0599 12.1035C14.5616 12.3969 9.95819 11.8556 6.7702 10.6585L5.02237 10.0022C4.52814 9.81664 4.49923 9.52425 4.95551 9.32609L8.87949 7.62202Z" fill="white"/>
<path d="M60.5137 40.375C60.5137 41.3945 60.3643 42.2734 60.0654 43.0117C59.7666 43.7441 59.3447 44.3506 58.7998 44.8311C58.2549 45.3115 57.6016 45.6543 56.8398 45.8594C56.0781 46.0586 55.2314 46.1582 54.2998 46.1582C53.4912 46.1582 52.7822 46.1143 52.1729 46.0264C51.5693 45.9385 51.0479 45.8242 50.6084 45.6836C50.1045 45.5312 49.6592 45.3467 49.2725 45.1299V41.0518H51.918C52.1406 41.4736 52.4014 41.7842 52.7002 41.9834C53.0049 42.1826 53.3066 42.2822 53.6055 42.2822C53.7637 42.2822 53.9189 42.2412 54.0713 42.1592C54.2295 42.0771 54.3672 41.957 54.4844 41.7988C54.6074 41.6348 54.7041 41.4355 54.7744 41.2012C54.8506 40.9609 54.8887 40.6855 54.8887 40.375V36.5342L53.7637 36.3145V32.5H61.6387V36.3145L60.5137 36.5342V40.375ZM71.9089 46.1582C70.8776 46.1582 69.9108 46.0498 69.0085 45.833C68.112 45.6104 67.3298 45.2324 66.6618 44.6992C65.9997 44.1602 65.4753 43.4746 65.0886 42.6426C64.7077 41.8105 64.5173 40.8115 64.5173 39.6455C64.5173 38.5029 64.7077 37.5303 65.0886 36.7275C65.4753 35.9189 66.0026 35.2627 66.6706 34.7588C67.3386 34.249 68.1208 33.877 69.0173 33.6426C69.9137 33.4082 70.8776 33.291 71.9089 33.291C72.9343 33.291 73.8952 33.4082 74.7917 33.6426C75.694 33.877 76.4792 34.249 77.1471 34.7588C77.821 35.2627 78.3512 35.9189 78.738 36.7275C79.1247 37.5303 79.318 38.5029 79.318 39.6455C79.318 40.4189 79.2302 41.1221 79.0544 41.7549C78.8786 42.3818 78.6296 42.9414 78.3073 43.4336C77.9909 43.9199 77.6071 44.3418 77.1559 44.6992C76.7106 45.0508 76.2126 45.3438 75.6618 45.5781C75.111 45.8066 74.5192 45.959 73.8864 46.0352C73.2536 46.1172 72.5944 46.1582 71.9089 46.1582ZM71.9089 37.0352C71.5632 37.0352 71.2702 37.0791 71.03 37.167C70.7956 37.2549 70.5993 37.3691 70.4411 37.5098C70.2887 37.6504 70.1686 37.8115 70.0807 37.9932C69.9929 38.1748 69.9284 38.3623 69.8874 38.5557C69.8522 38.7432 69.8288 38.9307 69.8171 39.1182C69.8112 39.2998 69.8083 39.4609 69.8083 39.6016C69.8083 39.7363 69.8112 39.8975 69.8171 40.085C69.8229 40.2666 69.8434 40.46 69.8786 40.665C69.9137 40.8643 69.9723 41.0635 70.0544 41.2627C70.1364 41.4619 70.2536 41.6406 70.4059 41.7988C70.5641 41.957 70.7634 42.0859 71.0036 42.1855C71.2497 42.2793 71.5514 42.3262 71.9089 42.3262C72.2604 42.3262 72.5563 42.2793 72.7966 42.1855C73.0427 42.0918 73.2419 41.9688 73.3942 41.8164C73.5524 41.6582 73.6755 41.4824 73.7634 41.2891C73.8512 41.0957 73.9128 40.9023 73.9479 40.709C73.9889 40.5098 74.0124 40.3164 74.0182 40.1289C74.03 39.9414 74.0358 39.7803 74.0358 39.6455C74.0358 39.5049 74.03 39.3438 74.0182 39.1621C74.0124 38.9746 73.9889 38.7842 73.9479 38.5908C73.9128 38.3975 73.8512 38.21 73.7634 38.0283C73.6755 37.8408 73.5524 37.6738 73.3942 37.5273C73.2419 37.3809 73.0427 37.2637 72.7966 37.1758C72.5563 37.082 72.2604 37.0352 71.9089 37.0352ZM96.2767 37.29C96.2709 37.4658 96.2679 37.6387 96.2679 37.8086C96.2679 37.9727 96.2679 38.1309 96.2679 38.2832V39.6455C96.2679 40.8174 96.1068 41.8223 95.7845 42.6602C95.4623 43.4922 95.0257 44.1748 94.475 44.708C93.9242 45.2412 93.2767 45.6162 92.5326 45.833C91.7943 46.0498 91.0091 46.1582 90.1771 46.1582C89.2162 46.1582 88.3168 46.0498 87.4789 45.833C86.6468 45.6162 85.9203 45.2412 85.2992 44.708C84.6839 44.1689 84.1976 43.4834 83.8402 42.6514C83.4886 41.8193 83.3129 40.8174 83.3129 39.6455V37.29L82.2582 37.0879V33.625H89.1224V37.0879L88.0677 37.29V38.3359C88.0677 38.4766 88.0677 38.6201 88.0677 38.7666C88.0677 38.9072 88.0677 39.0391 88.0677 39.1621C88.0736 39.2852 88.0765 39.3936 88.0765 39.4873C88.0765 39.5752 88.0765 39.6338 88.0765 39.6631C88.0765 39.7979 88.0795 39.9561 88.0853 40.1377C88.0912 40.3135 88.1146 40.498 88.1556 40.6914C88.1966 40.8789 88.2582 41.0664 88.3402 41.2539C88.4281 41.4355 88.5482 41.5996 88.7005 41.7461C88.8587 41.8926 89.055 42.0127 89.2894 42.1064C89.5296 42.1943 89.8255 42.2383 90.1771 42.2383C90.5287 42.2383 90.8246 42.1943 91.0648 42.1064C91.3109 42.0127 91.5101 41.8926 91.6625 41.7461C91.8207 41.5938 91.9437 41.4238 92.0316 41.2363C92.1195 41.0488 92.181 40.8613 92.2162 40.6738C92.2572 40.4805 92.2806 40.2959 92.2865 40.1201C92.2982 39.9385 92.3041 39.7803 92.3041 39.6455C92.3041 39.6045 92.3041 39.54 92.3041 39.4521C92.3041 39.3584 92.3011 39.2529 92.2953 39.1357C92.2953 39.0127 92.2953 38.8838 92.2953 38.749C92.2953 38.6084 92.2953 38.4707 92.2953 38.3359V37.29L91.2406 37.0879V33.625H97.3402V37.0879L96.2767 37.29ZM107.118 39.0654L109.553 38.5469V41.0518L107.118 40.5244V42.4668C107.47 42.4668 107.81 42.4434 108.138 42.3965C108.466 42.3438 108.771 42.2734 109.052 42.1855C109.333 42.0977 109.591 41.9951 109.825 41.8779C110.06 41.7607 110.262 41.6348 110.432 41.5H111.636V46H100.772V42.4932L101.827 42.291V37.3076L100.772 37.1055V33.625H111.636V38.125H110.432C110.262 37.9961 110.06 37.873 109.825 37.7559C109.591 37.6387 109.333 37.5361 109.052 37.4482C108.771 37.3604 108.466 37.29 108.138 37.2373C107.81 37.1846 107.47 37.1582 107.118 37.1582V39.0654ZM128.858 46H123.602C123.438 45.6953 123.268 45.373 123.092 45.0332C122.917 44.6875 122.747 44.3271 122.583 43.9521C122.419 43.5771 122.263 43.1904 122.117 42.792C121.976 42.3936 121.856 41.9834 121.757 41.5615H121.467V46H115.121V42.4932L116.176 42.291V37.29L115.121 37.0879V33.625H122.319C123.274 33.625 124.097 33.666 124.789 33.748C125.486 33.8301 126.075 33.9502 126.555 34.1084C127.042 34.2666 127.434 34.46 127.733 34.6885C128.032 34.9111 128.263 35.166 128.427 35.4531C128.597 35.7344 128.712 36.0449 128.77 36.3848C128.829 36.7246 128.858 37.085 128.858 37.4658C128.858 37.8525 128.82 38.2041 128.744 38.5205C128.674 38.8369 128.545 39.127 128.357 39.3906C128.17 39.6543 127.912 39.8975 127.584 40.1201C127.261 40.3369 126.848 40.542 126.344 40.7354C126.45 40.9463 126.605 41.1982 126.81 41.4912C127.021 41.7783 127.25 42.0742 127.496 42.3789C127.742 42.6777 127.985 42.9678 128.225 43.249C128.471 43.5303 128.682 43.7705 128.858 43.9697V46ZM121.467 39.1797C121.789 39.1797 122.079 39.165 122.337 39.1357C122.6 39.1006 122.823 39.0303 123.005 38.9248C123.192 38.8135 123.336 38.6523 123.435 38.4414C123.535 38.2305 123.585 37.9463 123.585 37.5889C123.585 37.2373 123.535 36.9561 123.435 36.7451C123.336 36.5342 123.192 36.373 123.005 36.2617C122.823 36.1445 122.6 36.0684 122.337 36.0332C122.079 35.998 121.789 35.9805 121.467 35.9805V39.1797Z" fill="white"/>
</svg>
