<svg width="198" height="293" viewBox="0 0 198 293" fill="none" xmlns="http://www.w3.org/2000/svg">
<g filter="url(#filter0_bd_58_2765)">
<ellipse cx="99" cy="189.873" rx="95" ry="95.1268" fill="white" fill-opacity="0.1" shape-rendering="crispEdges"/>
<path d="M193.5 189.873C193.5 242.135 151.19 284.5 99 284.5C46.8097 284.5 4.5 242.135 4.5 189.873C4.5 137.612 46.8097 95.2463 99 95.2463C151.19 95.2463 193.5 137.612 193.5 189.873Z" stroke="white" shape-rendering="crispEdges"/>
</g>
<mask id="mask0_58_2765" style="mask-type:alpha" maskUnits="userSpaceOnUse" x="4" y="94" width="190" height="191">
<ellipse cx="99" cy="189.873" rx="95" ry="95.1268" fill="#C4C4C4"/>
</mask>
<g mask="url(#mask0_58_2765)">
<ellipse rx="1.27121" ry="1.27283" transform="matrix(0.999723 -0.0235389 0.0234166 0.999726 110.019 128.944)" fill="white"/>
<ellipse rx="1.27121" ry="1.27283" transform="matrix(0.999723 -0.0235389 0.0234166 0.999726 167.332 160.063)" fill="white"/>
<ellipse rx="1.27122" ry="1.27284" transform="matrix(0.999723 -0.023539 0.0234165 0.999726 114.934 230.05)" fill="white"/>
<ellipse rx="1.27122" ry="1.27283" transform="matrix(0.999723 -0.0235388 0.0234167 0.999726 155.51 225.275)" fill="white"/>
<ellipse rx="1.27121" ry="1.27283" transform="matrix(0.999723 -0.0235389 0.0234166 0.999726 21.4196 146.306)" fill="white"/>
<ellipse rx="1.27121" ry="1.27283" transform="matrix(0.999723 -0.0235389 0.0234166 0.999726 129.028 153.325)" fill="white"/>
<ellipse rx="1.27121" ry="1.27283" transform="matrix(0.999723 -0.0235389 0.0234166 0.999726 79.3764 150.672)" fill="white"/>
<ellipse rx="1.27121" ry="1.27283" transform="matrix(0.999723 -0.0235389 0.0234166 0.999726 141.137 181.687)" fill="white"/>
<ellipse rx="1.27121" ry="1.27282" transform="matrix(0.999723 -0.0235388 0.0234167 0.999726 84.2459 249.869)" fill="white"/>
<ellipse rx="1.27121" ry="1.27282" transform="matrix(0.999723 -0.0235388 0.0234167 0.999726 126.138 246.975)" fill="white"/>
<ellipse rx="1.27121" ry="1.27283" transform="matrix(0.999723 -0.0235389 0.0234166 0.999726 96.5687 178.916)" fill="white"/>
<ellipse rx="1.27121" ry="1.27283" transform="matrix(0.999723 -0.0235389 0.0234166 0.999726 169.479 116.086)" fill="white"/>
<ellipse rx="1.27122" ry="1.27283" transform="matrix(0.999723 -0.0235388 0.0234167 0.999726 194.073 134.606)" fill="white"/>
<ellipse rx="1.27122" ry="1.27283" transform="matrix(0.999723 -0.0235389 0.0234166 0.999726 7.86079 110.338)" fill="white"/>
<ellipse rx="1.27122" ry="1.27283" transform="matrix(0.999723 -0.0235389 0.0234166 0.999726 13.7772 199.961)" fill="white"/>
<ellipse rx="1.27122" ry="1.27283" transform="matrix(0.999723 -0.0235389 0.0234166 0.999726 34.7012 197.559)" fill="white"/>
<ellipse rx="1.27122" ry="1.27283" transform="matrix(0.999723 -0.0235388 0.0234166 0.999726 84.6115 102.804)" fill="white"/>
<ellipse rx="1.27121" ry="1.27283" transform="matrix(0.999723 -0.0235389 0.0234166 0.999726 146.847 208.291)" fill="white"/>
<ellipse rx="1.27121" ry="1.27283" transform="matrix(0.999723 -0.0235389 0.0234166 0.999726 101.867 215.078)" fill="white"/>
<ellipse rx="1.27122" ry="1.27283" transform="matrix(0.999723 -0.0235388 0.0234167 0.999726 184.113 197.865)" fill="white"/>
<ellipse rx="1.27122" ry="1.27283" transform="matrix(0.999723 -0.0235389 0.0234166 0.999726 19.2722 190.283)" fill="white"/>
<ellipse rx="1.27122" ry="1.27284" transform="matrix(0.999723 -0.023539 0.0234165 0.999726 49.8441 246.858)" fill="white"/>
<ellipse rx="1.27121" ry="1.27283" transform="matrix(0.999723 -0.0235389 0.0234166 0.999726 117.672 184.149)" fill="white"/>
<ellipse rx="1.27122" ry="1.27284" transform="matrix(0.999723 -0.023539 0.0234165 0.999726 92.1929 236.313)" fill="white"/>
<ellipse rx="1.27122" ry="1.27284" transform="matrix(0.999723 -0.023539 0.0234165 0.999726 61.5501 258.042)" fill="white"/>
<ellipse rx="1.27121" ry="1.27282" transform="matrix(0.999723 -0.0235388 0.0234167 0.999726 70.5802 263.56)" fill="white"/>
<ellipse rx="1.27121" ry="1.27284" transform="matrix(0.999723 -0.023539 0.0234164 0.999726 151.868 259.738)" fill="white"/>
<ellipse rx="1.27121" ry="1.27283" transform="matrix(0.999723 -0.0235389 0.0234166 0.999726 175.654 108.302)" fill="white"/>
<ellipse rx="1.27122" ry="1.27283" transform="matrix(0.999723 -0.0235389 0.0234166 0.999726 55.2395 124.502)" fill="white"/>
<ellipse rx="1.27122" ry="1.27283" transform="matrix(0.999723 -0.0235389 0.0234166 0.999726 6.69813 196.308)" fill="white"/>
<ellipse rx="1.27122" ry="1.27283" transform="matrix(0.999723 -0.0235389 0.0234166 0.999726 45.4135 193.487)" fill="white"/>
<ellipse rx="1.27122" ry="1.27283" transform="matrix(0.999723 -0.0235389 0.0234166 0.999726 15.0294 117.809)" fill="white"/>
<ellipse rx="1.27122" ry="1.27283" transform="matrix(0.999723 -0.0235389 0.0234166 0.999726 39.5692 161.158)" fill="white"/>
<ellipse rx="1.27121" ry="1.27283" transform="matrix(0.999723 -0.0235389 0.0234166 0.999726 126.979 174.381)" fill="white"/>
<ellipse rx="1.27121" ry="1.27283" transform="matrix(0.999723 -0.0235389 0.0234166 0.999726 138.31 223.77)" fill="white"/>
<ellipse rx="1.27121" ry="1.27283" transform="matrix(0.999723 -0.0235389 0.0234166 0.999726 179.055 117.771)" fill="white"/>
<ellipse rx="1.27121" ry="1.27283" transform="matrix(0.999723 -0.0235389 0.0234166 0.999726 155.903 133.594)" fill="white"/>
<ellipse rx="1.27121" ry="1.27282" transform="matrix(0.999723 -0.0235388 0.0234167 0.999726 105.106 163.436)" fill="white"/>
<ellipse rx="1.27121" ry="1.27282" transform="matrix(0.999723 -0.0235388 0.0234167 0.999726 186.179 123.333)" fill="white"/>
<ellipse rx="1.27121" ry="1.27283" transform="matrix(0.999723 -0.0235389 0.0234166 0.999726 191.004 220.621)" fill="white"/>
<ellipse rx="1.27121" ry="1.27283" transform="matrix(0.999723 -0.0235389 0.0234166 0.999726 92.4963 140.815)" fill="white"/>
<ellipse rx="1.27122" ry="1.27283" transform="matrix(0.999723 -0.0235389 0.0234166 0.999726 23.8804 115.69)" fill="white"/>
<ellipse rx="1.27122" ry="1.27283" transform="matrix(0.999723 -0.0235389 0.0234166 0.999726 51.4904 208.623)" fill="white"/>
<ellipse rx="1.27122" ry="1.27283" transform="matrix(0.999723 -0.0235387 0.0234167 0.999726 131.086 105.53)" fill="white"/>
<ellipse rx="0.317872" ry="0.318272" transform="matrix(0.999723 -0.0235385 0.0234169 0.999726 157.514 134.511)" fill="white"/>
<ellipse rx="0.317872" ry="0.318278" transform="matrix(0.999723 -0.023539 0.0234164 0.999726 108.078 168.141)" fill="white"/>
<ellipse rx="0.317872" ry="0.318278" transform="matrix(0.999723 -0.023539 0.0234164 0.999726 191.191 133.72)" fill="white"/>
<ellipse rx="0.317872" ry="0.318272" transform="matrix(0.999723 -0.0235386 0.0234169 0.999726 27.3976 116.563)" fill="white"/>
<ellipse rx="0.317872" ry="0.318278" transform="matrix(0.999723 -0.023539 0.0234164 0.999726 55.0971 213.313)" fill="white"/>
<ellipse rx="0.317872" ry="0.318275" transform="matrix(0.999723 -0.0235388 0.0234167 0.999726 133.333 106.432)" fill="white"/>
<ellipse rx="0.317872" ry="0.318278" transform="matrix(0.999723 -0.023539 0.0234164 0.999726 162.866 145.844)" fill="white"/>
<ellipse rx="0.317872" ry="0.318272" transform="matrix(0.999723 -0.0235385 0.0234169 0.999726 151.599 180.486)" fill="white"/>
<ellipse rx="0.317872" ry="0.318272" transform="matrix(0.999723 -0.0235385 0.0234169 0.999726 42.0121 116.219)" fill="white"/>
<ellipse rx="0.317872" ry="0.318272" transform="matrix(0.999723 -0.0235385 0.0234169 0.999726 25.8048 129.969)" fill="white"/>
<ellipse rx="0.317869" ry="0.318275" transform="matrix(0.999723 -0.023539 0.0234164 0.999726 86.9922 109.432)" fill="white"/>
<ellipse rx="0.317872" ry="0.318278" transform="matrix(0.999723 -0.023539 0.0234164 0.999726 63.2767 182.563)" fill="white"/>
<ellipse rx="0.317872" ry="0.318278" transform="matrix(0.999723 -0.023539 0.0234164 0.999726 71.6627 214.833)" fill="white"/>
<ellipse rx="0.317872" ry="0.318278" transform="matrix(0.999723 -0.023539 0.0234164 0.999726 158.293 113.485)" fill="white"/>
<ellipse rx="0.317872" ry="0.318278" transform="matrix(0.999723 -0.023539 0.0234164 0.999726 97.7854 135.916)" fill="white"/>
<ellipse rx="0.317872" ry="0.318275" transform="matrix(0.999723 -0.0235388 0.0234167 0.999726 76.6465 102.036)" fill="white"/>
<ellipse rx="0.317872" ry="0.318278" transform="matrix(0.999723 -0.023539 0.0234164 0.999726 28.4994 217.758)" fill="white"/>
<ellipse rx="0.317872" ry="0.318272" transform="matrix(0.999723 -0.0235385 0.0234169 0.999726 57.9696 173.139)" fill="white"/>
<ellipse rx="0.317872" ry="0.318272" transform="matrix(0.999723 -0.0235385 0.0234169 0.999726 107.594 120.407)" fill="white"/>
<ellipse rx="0.317872" ry="0.318278" transform="matrix(0.999723 -0.023539 0.0234164 0.999726 133.548 142.714)" fill="white"/>
<ellipse rx="0.317866" ry="0.318278" transform="matrix(0.999723 -0.0235395 0.023416 0.999726 161.301 214.635)" fill="white"/>
<ellipse rx="0.317872" ry="0.318278" transform="matrix(0.999723 -0.023539 0.0234164 0.999726 182.502 196.948)" fill="white"/>
<ellipse rx="0.317872" ry="0.318272" transform="matrix(0.999723 -0.0235385 0.0234169 0.999726 174.161 166.587)" fill="white"/>
<ellipse rx="0.317872" ry="0.318272" transform="matrix(0.999723 -0.0235385 0.0234169 0.999726 162.491 184.05)" fill="white"/>
<ellipse rx="0.317872" ry="0.318272" transform="matrix(0.999723 -0.0235385 0.0234169 0.999726 31.5422 211.957)" fill="white"/>
<ellipse rx="0.317872" ry="0.318278" transform="matrix(0.999723 -0.023539 0.0234164 0.999726 63.4646 163.461)" fill="white"/>
<ellipse rx="0.317872" ry="0.318275" transform="matrix(0.999723 -0.0235388 0.0234167 0.999726 113.68 108.804)" fill="white"/>
<ellipse rx="0.317872" ry="0.318272" transform="matrix(0.999723 -0.0235385 0.0234169 0.999726 137.817 134.975)" fill="white"/>
<ellipse rx="0.317872" ry="0.318278" transform="matrix(0.999723 -0.023539 0.0234164 0.999726 164.979 208.819)" fill="white"/>
<ellipse rx="0.317872" ry="0.318272" transform="matrix(0.999723 -0.0235385 0.0234169 0.999726 61.3432 127.224)" fill="white"/>
<ellipse rx="0.317872" ry="0.318278" transform="matrix(0.999723 -0.023539 0.0234164 0.999726 102.994 168.26)" fill="white"/>
<ellipse rx="0.317872" ry="0.318272" transform="matrix(0.999723 -0.0235385 0.0234169 0.999726 179.011 183.661)" fill="white"/>
<ellipse rx="0.317872" ry="0.318275" transform="matrix(0.999723 -0.0235388 0.0234167 0.999726 121.17 102.899)" fill="white"/>
<ellipse rx="0.317866" ry="0.318278" transform="matrix(0.999723 -0.0235395 0.023416 0.999726 153.273 197.636)" fill="white"/>
<ellipse rx="0.317872" ry="0.318272" transform="matrix(0.999723 -0.0235385 0.0234169 0.999726 84.9168 210.702)" fill="white"/>
<ellipse rx="0.317872" ry="0.318278" transform="matrix(0.999723 -0.023539 0.0234164 0.999726 63.3041 237.948)" fill="white"/>
<ellipse rx="0.317872" ry="0.318272" transform="matrix(0.999723 -0.0235385 0.0234169 0.999726 90.0898 214.4)" fill="white"/>
<ellipse rx="0.317872" ry="0.318278" transform="matrix(0.999723 -0.023539 0.0234164 0.999726 4.32646 162.941)" fill="white"/>
<ellipse rx="0.317872" ry="0.318265" transform="matrix(0.999723 -0.023538 0.0234174 0.999726 38.3352 257.633)" fill="white"/>
<ellipse rx="0.317872" ry="0.318278" transform="matrix(0.999723 -0.023539 0.0234164 0.999726 28.5254 137.544)" fill="white"/>
<ellipse rx="0.317872" ry="0.318278" transform="matrix(0.999723 -0.023539 0.0234164 0.999726 93.4806 115.009)" fill="white"/>
<ellipse rx="0.317872" ry="0.318278" transform="matrix(0.999723 -0.023539 0.0234164 0.999726 40.5983 137.261)" fill="white"/>
<ellipse rx="0.317872" ry="0.318278" transform="matrix(0.999723 -0.023539 0.0234164 0.999726 22.0011 103.321)" fill="white"/>
<ellipse rx="0.317872" ry="0.318278" transform="matrix(0.999723 -0.023539 0.0234164 0.999726 138.944 155.956)" fill="white"/>
<ellipse rx="0.317872" ry="0.318278" transform="matrix(0.999723 -0.023539 0.0234164 0.999726 186.09 187.315)" fill="white"/>
<ellipse rx="0.317866" ry="0.318278" transform="matrix(0.999723 -0.0235395 0.023416 0.999726 120.231 198.413)" fill="white"/>
<ellipse rx="0.317872" ry="0.318272" transform="matrix(0.999723 -0.0235385 0.0234169 0.999726 66.5434 186.306)" fill="white"/>
<ellipse rx="0.317872" ry="0.318272" transform="matrix(0.999723 -0.0235386 0.0234169 0.999726 8.17491 191.499)" fill="white"/>
<ellipse rx="0.317872" ry="0.318278" transform="matrix(0.999723 -0.023539 0.0234164 0.999726 13.1067 239.129)" fill="white"/>
<ellipse rx="0.317872" ry="0.318278" transform="matrix(0.999723 -0.023539 0.0234164 0.999726 75.5647 218.561)" fill="white"/>
<ellipse rx="0.317872" ry="0.318278" transform="matrix(0.999723 -0.023539 0.0234164 0.999726 164.011 113.35)" fill="white"/>
<ellipse rx="0.317872" ry="0.318278" transform="matrix(0.999723 -0.023539 0.0234164 0.999726 193.536 179.5)" fill="white"/>
<ellipse rx="0.317872" ry="0.318278" transform="matrix(0.999723 -0.023539 0.0234164 0.999726 173.382 187.613)" fill="white"/>
<ellipse rx="0.317872" ry="0.318278" transform="matrix(0.999723 -0.023539 0.0234164 0.999726 28.9558 210.108)" fill="white"/>
<ellipse rx="0.317872" ry="0.318278" transform="matrix(0.999723 -0.023539 0.0234164 0.999726 60.8334 159.703)" fill="white"/>
<ellipse rx="0.317872" ry="0.318275" transform="matrix(0.999723 -0.0235388 0.0234167 0.999726 107.916 107.03)" fill="white"/>
<ellipse rx="0.317872" ry="0.318278" transform="matrix(0.999723 -0.023539 0.0234164 0.999726 134.595 133.14)" fill="white"/>
<ellipse rx="0.317872" ry="0.318272" transform="matrix(0.999723 -0.0235385 0.0234169 0.999726 162.437 208.879)" fill="white"/>
<ellipse rx="0.317872" ry="0.318278" transform="matrix(0.999723 -0.023539 0.0234164 0.999726 191.943 192.907)" fill="white"/>
<ellipse rx="0.317872" ry="0.318278" transform="matrix(0.999723 -0.023539 0.0234164 0.999726 174.572 157.028)" fill="white"/>
<ellipse rx="0.317872" ry="0.318278" transform="matrix(0.999723 -0.023539 0.0234164 0.999726 37.9411 213.717)" fill="white"/>
<ellipse rx="0.317872" ry="0.318278" transform="matrix(0.999723 -0.023539 0.0234164 0.999726 66.7759 169.112)" fill="white"/>
<ellipse rx="0.317872" ry="0.318278" transform="matrix(0.999723 -0.023539 0.0234164 0.999726 118.897 114.411)" fill="white"/>
<ellipse rx="0.317872" ry="0.318272" transform="matrix(0.999723 -0.0235385 0.0234169 0.999726 142.945 136.764)" fill="white"/>
<ellipse rx="0.317872" ry="0.318272" transform="matrix(0.999723 -0.0235385 0.0234169 0.999726 170.152 212.518)" fill="white"/>
<ellipse rx="0.317872" ry="0.318278" transform="matrix(0.999723 -0.023539 0.0234164 0.999726 72.3691 136.514)" fill="white"/>
<ellipse rx="0.317872" ry="0.318278" transform="matrix(0.999723 -0.023539 0.0234164 0.999726 35.7301 173.662)" fill="white"/>
<ellipse rx="0.317872" ry="0.318278" transform="matrix(0.999723 -0.023539 0.0234164 0.999726 107.299 189.167)" fill="white"/>
<ellipse rx="0.317872" ry="0.318278" transform="matrix(0.999723 -0.023539 0.0234164 0.999726 144.296 167.289)" fill="white"/>
<ellipse rx="0.317872" ry="0.318275" transform="matrix(0.999723 -0.0235388 0.0234167 0.999726 50.7288 108.375)" fill="white"/>
<ellipse rx="0.317872" ry="0.318278" transform="matrix(0.999723 -0.023539 0.0234164 0.999726 76.5669 207.079)" fill="white"/>
<ellipse rx="0.317872" ry="0.318278" transform="matrix(0.999723 -0.023539 0.0234164 0.999726 15.7464 216.148)" fill="white"/>
<ellipse rx="0.317872" ry="0.318278" transform="matrix(0.999723 -0.023539 0.0234164 0.999726 30.4764 139.408)" fill="white"/>
<ellipse rx="0.317872" ry="0.318278" transform="matrix(0.999723 -0.023539 0.0234164 0.999726 98.0629 120.631)" fill="white"/>
<ellipse rx="0.317872" ry="0.318278" transform="matrix(0.999723 -0.023539 0.0234164 0.999726 163.868 134.362)" fill="white"/>
<ellipse rx="0.317872" ry="0.318278" transform="matrix(0.999723 -0.023539 0.0234164 0.999726 150.354 100.303)" fill="white"/>
<ellipse rx="0.317872" ry="0.318278" transform="matrix(0.999723 -0.023539 0.0234164 0.999726 71.7162 190.004)" fill="white"/>
<ellipse rx="0.317872" ry="0.318278" transform="matrix(0.999723 -0.023539 0.0234164 0.999726 20.8831 191.2)" fill="white"/>
<ellipse rx="0.317872" ry="0.318265" transform="matrix(0.999723 -0.0235381 0.0234173 0.999726 31.5335 238.695)" fill="white"/>
<ellipse rx="0.317872" ry="0.318278" transform="matrix(0.999723 -0.023539 0.0234164 0.999726 79.1446 235.665)" fill="white"/>
<ellipse rx="0.317872" ry="0.318278" transform="matrix(0.999723 -0.023539 0.0234164 0.999726 174.447 124.564)" fill="white"/>
<ellipse rx="0.317872" ry="0.318278" transform="matrix(0.999723 -0.023539 0.0234164 0.999726 193.08 187.15)" fill="white"/>
<ellipse rx="0.317872" ry="0.318278" transform="matrix(0.999723 -0.023539 0.0234164 0.999726 32.813 211.927)" fill="white"/>
<ellipse rx="0.317869" ry="0.318272" transform="matrix(0.999723 -0.0235388 0.0234167 0.999726 64.7803 165.34)" fill="white"/>
<ellipse rx="0.317872" ry="0.318275" transform="matrix(0.999723 -0.0235388 0.0234167 0.999726 117.581 112.532)" fill="white"/>
<ellipse rx="0.317872" ry="0.318278" transform="matrix(0.999723 -0.023539 0.0234164 0.999726 141.629 134.885)" fill="white"/>
<ellipse rx="0.317872" ry="0.318272" transform="matrix(0.999723 -0.0235385 0.0234169 0.999726 166.93 210.683)" fill="white"/>
<ellipse rx="0.317872" ry="0.318278" transform="matrix(0.999723 -0.023539 0.0234164 0.999726 75.8147 147.892)" fill="white"/>
<ellipse rx="0.317871" ry="0.318278" transform="matrix(0.999723 -0.0235391 0.0234163 0.999726 41.4128 144.881)" fill="white"/>
<ellipse rx="0.317872" ry="0.318278" transform="matrix(0.999723 -0.023539 0.0234164 0.999726 106.457 126.163)" fill="white"/>
<ellipse rx="0.317872" ry="0.318272" transform="matrix(0.999723 -0.0235385 0.0234169 0.999726 75.6181 193.732)" fill="white"/>
<ellipse rx="0.317871" ry="0.318278" transform="matrix(0.999723 -0.0235391 0.0234163 0.999726 34.4333 253.906)" fill="white"/>
<ellipse rx="0.317872" ry="0.318278" transform="matrix(0.999723 -0.023539 0.0234164 0.999726 66.8481 226.406)" fill="white"/>
<ellipse rx="0.317872" ry="0.318272" transform="matrix(0.999723 -0.0235385 0.0234169 0.999726 43.2569 196.403)" fill="white"/>
<ellipse rx="0.317872" ry="0.318278" transform="matrix(0.999723 -0.023539 0.0234164 0.999726 48.099 240.215)" fill="white"/>
<ellipse rx="0.317872" ry="0.318278" transform="matrix(0.999723 -0.023539 0.0234164 0.999726 105.197 235.053)" fill="white"/>
<ellipse rx="0.317872" ry="0.318272" transform="matrix(0.999723 -0.0235385 0.0234169 0.999726 38.6211 215.61)" fill="white"/>
<ellipse rx="0.317872" ry="0.318278" transform="matrix(0.999723 -0.023539 0.0234164 0.999726 69.9529 169.037)" fill="white"/>
<ellipse rx="0.317872" ry="0.318278" transform="matrix(0.999723 -0.023539 0.0234164 0.999726 120.803 114.367)" fill="white"/>
<ellipse rx="0.317872" ry="0.318278" transform="matrix(0.999723 -0.023539 0.0234164 0.999726 146.891 142.401)" fill="white"/>
<ellipse rx="0.317872" ry="0.318278" transform="matrix(0.999723 -0.023539 0.0234164 0.999726 173.329 212.443)" fill="white"/>
<ellipse rx="0.317872" ry="0.318278" transform="matrix(0.999723 -0.023539 0.0234164 0.999726 184.963 166.333)" fill="white"/>
<ellipse rx="0.317872" ry="0.318272" transform="matrix(0.999723 -0.0235385 0.0234169 0.999726 84.5675 168.694)" fill="white"/>
<ellipse rx="0.317872" ry="0.318278" transform="matrix(0.999723 -0.023539 0.0234164 0.999726 10.0986 137.978)" fill="white"/>
<ellipse rx="0.317872" ry="0.318278" transform="matrix(0.999723 -0.023539 0.0234164 0.999726 53.7456 182.787)" fill="white"/>
<ellipse rx="0.317872" ry="0.318278" transform="matrix(0.999723 -0.023539 0.0234164 0.999726 131.579 194.326)" fill="white"/>
<ellipse rx="0.317872" ry="0.318278" transform="matrix(0.999723 -0.023539 0.0234164 0.999726 162.813 170.673)" fill="white"/>
<ellipse rx="0.317872" ry="0.318278" transform="matrix(0.999723 -0.023539 0.0234164 0.999726 70.4714 109.82)" fill="white"/>
<ellipse rx="0.317872" ry="0.318278" transform="matrix(0.999723 -0.023539 0.0234164 0.999726 103.344 210.269)" fill="white"/>
<ellipse rx="0.317872" ry="0.318278" transform="matrix(0.999723 -0.023539 0.0234164 0.999726 39.3463 219.413)" fill="white"/>
<ellipse rx="0.317872" ry="0.318278" transform="matrix(0.999723 -0.023539 0.0234164 0.999726 52.2595 146.535)" fill="white"/>
<ellipse rx="0.317872" ry="0.318278" transform="matrix(0.999723 -0.023539 0.0234164 0.999726 119.801 125.849)" fill="white"/>
<ellipse rx="0.317872" ry="0.318278" transform="matrix(0.999723 -0.023539 0.0234164 0.999726 88.3712 195.342)" fill="white"/>
<ellipse rx="0.317872" ry="0.318272" transform="matrix(0.999723 -0.0235385 0.0234169 0.999726 55.6879 211.389)" fill="white"/>
<ellipse rx="0.317872" ry="0.318265" transform="matrix(0.999723 -0.023538 0.0234174 0.999726 99.7018 244.732)" fill="white"/>
<ellipse rx="0.317872" ry="0.318278" transform="matrix(0.999723 -0.023539 0.0234164 0.999726 175.763 262.041)" fill="white"/>
<ellipse rx="0.317872" ry="0.318278" transform="matrix(0.999723 -0.023539 0.0234164 0.999726 116.106 185.141)" fill="white"/>
<ellipse rx="0.317872" ry="0.318278" transform="matrix(0.999723 -0.023539 0.0234164 0.999726 150.437 266.457)" fill="white"/>
<ellipse rx="0.317872" ry="0.318278" transform="matrix(0.999723 -0.023539 0.0234164 0.999726 79.2704 268.13)" fill="white"/>
<ellipse rx="0.317872" ry="0.318265" transform="matrix(0.999723 -0.023538 0.0234174 0.999726 66.0249 245.523)" fill="white"/>
<ellipse rx="0.317872" ry="0.318278" transform="matrix(0.999723 -0.023539 0.0234164 0.999726 144.637 236.035)" fill="white"/>
<ellipse rx="0.317872" ry="0.318278" transform="matrix(0.999723 -0.023539 0.0234164 0.999726 121.69 179.28)" fill="white"/>
<ellipse rx="0.317872" ry="0.318278" transform="matrix(0.999723 -0.023539 0.0234164 0.999726 73.5689 214.788)" fill="white"/>
<ellipse rx="0.317872" ry="0.318278" transform="matrix(0.999723 -0.023539 0.0234164 0.999726 75.735 252.934)" fill="white"/>
<ellipse rx="0.317872" ry="0.318278" transform="matrix(0.999723 -0.023539 0.0234164 0.999726 162.429 235.617)" fill="white"/>
</g>
<mask id="mask1_58_2765" style="mask-type:alpha" maskUnits="userSpaceOnUse" x="4" y="94" width="190" height="191">
<ellipse cx="99" cy="189.873" rx="95" ry="95.1268" fill="#C4C4C4"/>
</mask>
<g mask="url(#mask1_58_2765)">
<path d="M6.17169 260.063L17.121 257.595C27.9749 255.149 39.2365 255.144 50.0927 257.579L52.6597 258.155C65.1275 260.953 78.1383 260.085 90.1237 255.655V255.655C99.5742 252.162 109.697 250.871 119.722 251.881L139.579 253.88V283.913H6.17169V260.063Z" fill="#F5F5F5"/>
<path d="M32.8393 262.645L53.4589 258.275C64.1636 256.006 75.2317 256.071 85.9089 258.467L88.7595 259.107C101.227 261.904 114.238 261.036 126.223 256.606V256.606C135.674 253.113 145.797 251.823 155.821 252.832L175.679 254.831V284.864H42.2714L32.8393 262.645Z" fill="white"/>
</g>
<path d="M91.4678 196.396C91.4678 218.974 102.549 238.511 111.023 253.45C122.267 273.272 128.919 285 99 285C46.5329 285 4 242.41 4 189.873C4 137.336 46.5329 94.7463 99 94.7463C130.033 93.6236 121.818 110.927 109.87 136.097C101.57 153.581 91.4678 174.861 91.4678 196.396Z" fill="white" fill-opacity="0.15"/>
<path d="M91.4678 196.396C91.4678 218.974 102.549 238.511 111.023 253.45C122.267 273.272 128.919 285 99 285C46.5329 285 4 242.41 4 189.873C4 137.336 46.5329 94.7463 99 94.7463C130.033 93.6236 121.818 110.927 109.87 136.097C101.57 153.581 91.4678 174.861 91.4678 196.396Z" stroke="white"/>
<path d="M90.0187 81.7H105.198L102.036 100.7H93.1812L90.0187 81.7Z" fill="white"/>
<path d="M144.741 225.185H53.2593V140.741H62.4074V215.802H71.5556V173.58H89.8519V215.802H99V154.815H117.296V215.802H126.444V192.346H144.741V225.185Z" fill="white"/>
<defs>
<filter id="filter0_bd_58_2765" x="-6" y="84.7463" width="210" height="210.254" filterUnits="userSpaceOnUse" color-interpolation-filters="sRGB">
<feFlood flood-opacity="0" result="BackgroundImageFix"/>
<feGaussianBlur in="BackgroundImageFix" stdDeviation="5"/>
<feComposite in2="SourceAlpha" operator="in" result="effect1_backgroundBlur_58_2765"/>
<feColorMatrix in="SourceAlpha" type="matrix" values="0 0 0 0 0 0 0 0 0 0 0 0 0 0 0 0 0 0 127 0" result="hardAlpha"/>
<feOffset dy="4"/>
<feGaussianBlur stdDeviation="2"/>
<feComposite in2="hardAlpha" operator="out"/>
<feColorMatrix type="matrix" values="0 0 0 0 0 0 0 0 0 0 0 0 0 0 0 0 0 0 0.25 0"/>
<feBlend mode="normal" in2="effect1_backgroundBlur_58_2765" result="effect2_dropShadow_58_2765"/>
<feBlend mode="normal" in="SourceGraphic" in2="effect2_dropShadow_58_2765" result="shape"/>
</filter>
</defs>
</svg>
