<svg width="62" height="89" viewBox="0 0 62 89" fill="none" xmlns="http://www.w3.org/2000/svg">
<g filter="url(#filter0_bd_10_4602)">
<ellipse cx="31" cy="53.9639" rx="27" ry="27.036" fill="white" fill-opacity="0.1" shape-rendering="crispEdges"/>
<path d="M57.5 53.9639C57.5 68.62 45.6349 80.4999 31 80.4999C16.3651 80.4999 4.5 68.62 4.5 53.9639C4.5 39.3078 16.3651 27.4279 31 27.4279C45.6349 27.4279 57.5 39.3078 57.5 53.9639Z" stroke="white" shape-rendering="crispEdges"/>
</g>
<mask id="mask0_10_4602" style="mask-type:alpha" maskUnits="userSpaceOnUse" x="4" y="26" width="54" height="55">
<ellipse cx="31" cy="53.9639" rx="27" ry="27.036" fill="#C4C4C4"/>
</mask>
<g mask="url(#mask0_10_4602)">
<ellipse rx="0.361292" ry="0.361752" transform="matrix(0.999723 -0.0235389 0.0234166 0.999726 34.1318 36.6471)" fill="white"/>
<ellipse rx="0.361292" ry="0.361752" transform="matrix(0.999723 -0.0235389 0.0234166 0.999726 50.4207 45.4916)" fill="white"/>
<ellipse rx="0.361293" ry="0.361754" transform="matrix(0.999723 -0.023539 0.0234165 0.999726 35.5285 65.3824)" fill="white"/>
<ellipse rx="0.361294" ry="0.361752" transform="matrix(0.999723 -0.0235388 0.0234167 0.999726 47.0609 64.0256)" fill="white"/>
<ellipse rx="0.361293" ry="0.361752" transform="matrix(0.999723 -0.0235389 0.0234166 0.999726 8.95084 41.5815)" fill="white"/>
<ellipse rx="0.361292" ry="0.361752" transform="matrix(0.999723 -0.0235389 0.0234166 0.999726 39.5344 43.5764)" fill="white"/>
<ellipse rx="0.361292" ry="0.361752" transform="matrix(0.999723 -0.0235389 0.0234166 0.999726 25.4228 42.8226)" fill="white"/>
<ellipse rx="0.361292" ry="0.361752" transform="matrix(0.999723 -0.0235389 0.0234166 0.999726 42.9758 51.6373)" fill="white"/>
<ellipse rx="0.361292" ry="0.36175" transform="matrix(0.999723 -0.0235388 0.0234167 0.999726 26.8067 71.0154)" fill="white"/>
<ellipse rx="0.361292" ry="0.36175" transform="matrix(0.999723 -0.0235388 0.0234167 0.999726 38.713 70.1927)" fill="white"/>
<ellipse rx="0.361292" ry="0.361752" transform="matrix(0.999723 -0.0235389 0.0234166 0.999726 30.309 50.8496)" fill="white"/>
<ellipse rx="0.361292" ry="0.361752" transform="matrix(0.999723 -0.0235389 0.0234166 0.999726 51.031 32.9929)" fill="white"/>
<ellipse rx="0.361294" ry="0.361752" transform="matrix(0.999723 -0.0235388 0.0234167 0.999726 58.0207 38.2565)" fill="white"/>
<ellipse rx="0.361293" ry="0.361752" transform="matrix(0.999723 -0.0235389 0.0234166 0.999726 5.09729 31.359)" fill="white"/>
<ellipse rx="0.361293" ry="0.361752" transform="matrix(0.999723 -0.0235389 0.0234166 0.999726 6.77881 56.8309)" fill="white"/>
<ellipse rx="0.361293" ry="0.361752" transform="matrix(0.999723 -0.0235389 0.0234166 0.999726 12.7256 56.1483)" fill="white"/>
<ellipse rx="0.361293" ry="0.361752" transform="matrix(0.999723 -0.0235388 0.0234166 0.999726 26.9107 29.2178)" fill="white"/>
<ellipse rx="0.361292" ry="0.361752" transform="matrix(0.999723 -0.0235389 0.0234166 0.999726 44.5987 59.1984)" fill="white"/>
<ellipse rx="0.361292" ry="0.361752" transform="matrix(0.999723 -0.0235389 0.0234166 0.999726 31.8149 61.1273)" fill="white"/>
<ellipse rx="0.361294" ry="0.361752" transform="matrix(0.999723 -0.0235388 0.0234167 0.999726 55.1899 56.2353)" fill="white"/>
<ellipse rx="0.361293" ry="0.361752" transform="matrix(0.999723 -0.0235389 0.0234166 0.999726 8.34055 54.0803)" fill="white"/>
<ellipse rx="0.361293" ry="0.361754" transform="matrix(0.999723 -0.023539 0.0234165 0.999726 17.0294 70.1597)" fill="white"/>
<ellipse rx="0.361292" ry="0.361752" transform="matrix(0.999723 -0.0235389 0.0234166 0.999726 36.3067 52.337)" fill="white"/>
<ellipse rx="0.361293" ry="0.361754" transform="matrix(0.999723 -0.023539 0.0234165 0.999726 29.0654 67.1627)" fill="white"/>
<ellipse rx="0.361293" ry="0.361754" transform="matrix(0.999723 -0.023539 0.0234165 0.999726 20.3564 73.3383)" fill="white"/>
<ellipse rx="0.361292" ry="0.36175" transform="matrix(0.999723 -0.0235388 0.0234167 0.999726 22.9228 74.9063)" fill="white"/>
<ellipse rx="0.361292" ry="0.361754" transform="matrix(0.999723 -0.023539 0.0234164 0.999726 46.0258 73.8203)" fill="white"/>
<ellipse rx="0.361292" ry="0.361752" transform="matrix(0.999723 -0.0235389 0.0234166 0.999726 52.786 30.7804)" fill="white"/>
<ellipse rx="0.361293" ry="0.361752" transform="matrix(0.999723 -0.0235389 0.0234166 0.999726 18.5628 35.3848)" fill="white"/>
<ellipse rx="0.361293" ry="0.361752" transform="matrix(0.999723 -0.0235389 0.0234166 0.999726 4.76685 55.7927)" fill="white"/>
<ellipse rx="0.361293" ry="0.361752" transform="matrix(0.999723 -0.0235389 0.0234166 0.999726 15.7702 54.991)" fill="white"/>
<ellipse rx="0.361293" ry="0.361752" transform="matrix(0.999723 -0.0235389 0.0234166 0.999726 7.13471 33.4824)" fill="white"/>
<ellipse rx="0.361293" ry="0.361752" transform="matrix(0.999723 -0.0235389 0.0234166 0.999726 14.1092 45.8026)" fill="white"/>
<ellipse rx="0.361292" ry="0.361752" transform="matrix(0.999723 -0.0235389 0.0234166 0.999726 38.952 49.5609)" fill="white"/>
<ellipse rx="0.361292" ry="0.361752" transform="matrix(0.999723 -0.0235389 0.0234166 0.999726 42.1722 63.5978)" fill="white"/>
<ellipse rx="0.361292" ry="0.361752" transform="matrix(0.999723 -0.0235389 0.0234166 0.999726 53.7526 33.4717)" fill="white"/>
<ellipse rx="0.361292" ry="0.361752" transform="matrix(0.999723 -0.0235389 0.0234166 0.999726 47.1726 37.9687)" fill="white"/>
<ellipse rx="0.361292" ry="0.36175" transform="matrix(0.999723 -0.0235388 0.0234167 0.999726 32.7355 46.4502)" fill="white"/>
<ellipse rx="0.361292" ry="0.36175" transform="matrix(0.999723 -0.0235388 0.0234167 0.999726 55.7773 35.0525)" fill="white"/>
<ellipse rx="0.361292" ry="0.361752" transform="matrix(0.999723 -0.0235389 0.0234166 0.999726 57.1485 62.7028)" fill="white"/>
<ellipse rx="0.361292" ry="0.361752" transform="matrix(0.999723 -0.0235389 0.0234166 0.999726 29.1516 40.021)" fill="white"/>
<ellipse rx="0.361293" ry="0.361752" transform="matrix(0.999723 -0.0235389 0.0234166 0.999726 9.65021 32.8804)" fill="white"/>
<ellipse rx="0.361293" ry="0.361752" transform="matrix(0.999723 -0.0235389 0.0234166 0.999726 17.4973 59.2928)" fill="white"/>
<ellipse rx="0.361294" ry="0.361751" transform="matrix(0.999723 -0.0235387 0.0234167 0.999726 40.1192 29.9927)" fill="white"/>
<ellipse rx="0.0903427" ry="0.0904562" transform="matrix(0.999723 -0.0235385 0.0234169 0.999726 47.6303 38.2294)" fill="white"/>
<ellipse rx="0.0903427" ry="0.090458" transform="matrix(0.999723 -0.023539 0.0234164 0.999726 33.58 47.7873)" fill="white"/>
<ellipse rx="0.0903427" ry="0.090458" transform="matrix(0.999723 -0.023539 0.0234164 0.999726 57.2017 38.0044)" fill="white"/>
<ellipse rx="0.0903424" ry="0.0904562" transform="matrix(0.999723 -0.0235386 0.0234169 0.999726 10.6498 33.1282)" fill="white"/>
<ellipse rx="0.0903427" ry="0.090458" transform="matrix(0.999723 -0.023539 0.0234164 0.999726 18.5224 60.6257)" fill="white"/>
<ellipse rx="0.0903427" ry="0.0904571" transform="matrix(0.999723 -0.0235388 0.0234167 0.999726 40.7577 30.2492)" fill="white"/>
<ellipse rx="0.0903427" ry="0.090458" transform="matrix(0.999723 -0.023539 0.0234164 0.999726 49.1515 41.4505)" fill="white"/>
<ellipse rx="0.0903427" ry="0.0904562" transform="matrix(0.999723 -0.0235385 0.0234169 0.999726 45.9492 51.2961)" fill="white"/>
<ellipse rx="0.0903427" ry="0.0904562" transform="matrix(0.999723 -0.0235385 0.0234169 0.999726 14.8035 33.0306)" fill="white"/>
<ellipse rx="0.0903427" ry="0.0904562" transform="matrix(0.999723 -0.0235385 0.0234169 0.999726 10.1972 36.9385)" fill="white"/>
<ellipse rx="0.0903417" ry="0.0904571" transform="matrix(0.999723 -0.023539 0.0234164 0.999726 27.5873 31.1016)" fill="white"/>
<ellipse rx="0.0903427" ry="0.090458" transform="matrix(0.999723 -0.023539 0.0234164 0.999726 20.8471 51.8863)" fill="white"/>
<ellipse rx="0.0903427" ry="0.090458" transform="matrix(0.999723 -0.023539 0.0234164 0.999726 23.2305 61.0578)" fill="white"/>
<ellipse rx="0.0903427" ry="0.090458" transform="matrix(0.999723 -0.023539 0.0234164 0.999726 47.8516 32.2535)" fill="white"/>
<ellipse rx="0.0903427" ry="0.090458" transform="matrix(0.999723 -0.023539 0.0234164 0.999726 30.6548 38.6286)" fill="white"/>
<ellipse rx="0.0903427" ry="0.0904571" transform="matrix(0.999723 -0.0235388 0.0234167 0.999726 24.6469 28.9996)" fill="white"/>
<ellipse rx="0.0903427" ry="0.090458" transform="matrix(0.999723 -0.023539 0.0234164 0.999726 10.963 61.889)" fill="white"/>
<ellipse rx="0.0903427" ry="0.0904562" transform="matrix(0.999723 -0.0235385 0.0234169 0.999726 19.3387 49.2078)" fill="white"/>
<ellipse rx="0.0903427" ry="0.0904562" transform="matrix(0.999723 -0.0235385 0.0234169 0.999726 33.4425 34.2208)" fill="white"/>
<ellipse rx="0.0903427" ry="0.090458" transform="matrix(0.999723 -0.023539 0.0234164 0.999726 40.8188 40.5607)" fill="white"/>
<ellipse rx="0.0903408" ry="0.090458" transform="matrix(0.999723 -0.0235395 0.023416 0.999726 48.7065 61.0015)" fill="white"/>
<ellipse rx="0.0903427" ry="0.090458" transform="matrix(0.999723 -0.023539 0.0234164 0.999726 54.7321 55.9747)" fill="white"/>
<ellipse rx="0.0903427" ry="0.0904562" transform="matrix(0.999723 -0.0235385 0.0234169 0.999726 52.3614 47.3457)" fill="white"/>
<ellipse rx="0.0903427" ry="0.0904562" transform="matrix(0.999723 -0.0235385 0.0234169 0.999726 49.0447 52.3089)" fill="white"/>
<ellipse rx="0.0903427" ry="0.0904562" transform="matrix(0.999723 -0.0235385 0.0234169 0.999726 11.8278 60.2404)" fill="white"/>
<ellipse rx="0.0903427" ry="0.090458" transform="matrix(0.999723 -0.023539 0.0234164 0.999726 20.9005 46.4572)" fill="white"/>
<ellipse rx="0.0903427" ry="0.0904571" transform="matrix(0.999723 -0.0235388 0.0234167 0.999726 35.1721 30.9233)" fill="white"/>
<ellipse rx="0.0903427" ry="0.0904562" transform="matrix(0.999723 -0.0235385 0.0234169 0.999726 42.0321 38.3611)" fill="white"/>
<ellipse rx="0.0903427" ry="0.090458" transform="matrix(0.999723 -0.023539 0.0234164 0.999726 49.7519 59.3486)" fill="white"/>
<ellipse rx="0.0903427" ry="0.0904562" transform="matrix(0.999723 -0.0235385 0.0234169 0.999726 20.2975 36.1583)" fill="white"/>
<ellipse rx="0.0903427" ry="0.090458" transform="matrix(0.999723 -0.023539 0.0234164 0.999726 32.1352 47.8213)" fill="white"/>
<ellipse rx="0.0903427" ry="0.0904562" transform="matrix(0.999723 -0.0235385 0.0234169 0.999726 53.74 52.1984)" fill="white"/>
<ellipse rx="0.0903427" ry="0.0904571" transform="matrix(0.999723 -0.0235388 0.0234167 0.999726 37.301 29.2448)" fill="white"/>
<ellipse rx="0.0903408" ry="0.090458" transform="matrix(0.999723 -0.0235395 0.023416 0.999726 46.4249 56.17)" fill="white"/>
<ellipse rx="0.0903427" ry="0.0904562" transform="matrix(0.999723 -0.0235385 0.0234169 0.999726 26.9974 59.8837)" fill="white"/>
<ellipse rx="0.0903427" ry="0.090458" transform="matrix(0.999723 -0.023539 0.0234164 0.999726 20.8549 67.6272)" fill="white"/>
<ellipse rx="0.0903427" ry="0.0904562" transform="matrix(0.999723 -0.0235385 0.0234169 0.999726 28.4676 60.9347)" fill="white"/>
<ellipse rx="0.0903426" ry="0.090458" transform="matrix(0.999723 -0.023539 0.0234164 0.999726 4.0928 46.3096)" fill="white"/>
<ellipse rx="0.0903427" ry="0.0904543" transform="matrix(0.999723 -0.023538 0.0234174 0.999726 13.7585 73.2221)" fill="white"/>
<ellipse rx="0.0903427" ry="0.090458" transform="matrix(0.999723 -0.023539 0.0234164 0.999726 10.9704 39.0915)" fill="white"/>
<ellipse rx="0.0903427" ry="0.090458" transform="matrix(0.999723 -0.023539 0.0234164 0.999726 29.4314 32.6867)" fill="white"/>
<ellipse rx="0.0903427" ry="0.090458" transform="matrix(0.999723 -0.023539 0.0234164 0.999726 14.4016 39.0108)" fill="white"/>
<ellipse rx="0.0903427" ry="0.090458" transform="matrix(0.999723 -0.023539 0.0234164 0.999726 9.11612 29.3648)" fill="white"/>
<ellipse rx="0.0903427" ry="0.090458" transform="matrix(0.999723 -0.023539 0.0234164 0.999726 42.3526 44.3244)" fill="white"/>
<ellipse rx="0.0903427" ry="0.090458" transform="matrix(0.999723 -0.023539 0.0234164 0.999726 55.7521 53.2368)" fill="white"/>
<ellipse rx="0.0903408" ry="0.090458" transform="matrix(0.999723 -0.0235395 0.023416 0.999726 37.0342 56.3909)" fill="white"/>
<ellipse rx="0.0903427" ry="0.0904562" transform="matrix(0.999723 -0.0235385 0.0234169 0.999726 21.7755 52.9501)" fill="white"/>
<ellipse rx="0.0903425" ry="0.0904562" transform="matrix(0.999723 -0.0235386 0.0234169 0.999726 5.18658 54.4258)" fill="white"/>
<ellipse rx="0.0903427" ry="0.090458" transform="matrix(0.999723 -0.023539 0.0234164 0.999726 6.58822 67.9628)" fill="white"/>
<ellipse rx="0.0903427" ry="0.090458" transform="matrix(0.999723 -0.023539 0.0234164 0.999726 24.3395 62.1174)" fill="white"/>
<ellipse rx="0.0903427" ry="0.090458" transform="matrix(0.999723 -0.023539 0.0234164 0.999726 49.4769 32.2153)" fill="white"/>
<ellipse rx="0.0903427" ry="0.090458" transform="matrix(0.999723 -0.023539 0.0234164 0.999726 57.8683 51.0158)" fill="white"/>
<ellipse rx="0.0903427" ry="0.090458" transform="matrix(0.999723 -0.023539 0.0234164 0.999726 52.1402 53.3216)" fill="white"/>
<ellipse rx="0.0903427" ry="0.090458" transform="matrix(0.999723 -0.023539 0.0234164 0.999726 11.0927 59.7149)" fill="white"/>
<ellipse rx="0.0903427" ry="0.090458" transform="matrix(0.999723 -0.023539 0.0234164 0.999726 20.1527 45.3892)" fill="white"/>
<ellipse rx="0.0903427" ry="0.0904571" transform="matrix(0.999723 -0.0235388 0.0234167 0.999726 33.5341 30.4191)" fill="white"/>
<ellipse rx="0.0903427" ry="0.090458" transform="matrix(0.999723 -0.023539 0.0234164 0.999726 41.1164 37.8398)" fill="white"/>
<ellipse rx="0.0903427" ry="0.0904562" transform="matrix(0.999723 -0.0235385 0.0234169 0.999726 49.0295 59.3656)" fill="white"/>
<ellipse rx="0.0903427" ry="0.090458" transform="matrix(0.999723 -0.023539 0.0234164 0.999726 57.4155 54.826)" fill="white"/>
<ellipse rx="0.0903427" ry="0.090458" transform="matrix(0.999723 -0.023539 0.0234164 0.999726 52.4784 44.629)" fill="white"/>
<ellipse rx="0.0903427" ry="0.090458" transform="matrix(0.999723 -0.023539 0.0234164 0.999726 13.6464 60.7405)" fill="white"/>
<ellipse rx="0.0903427" ry="0.090458" transform="matrix(0.999723 -0.023539 0.0234164 0.999726 21.8416 48.0634)" fill="white"/>
<ellipse rx="0.0903427" ry="0.090458" transform="matrix(0.999723 -0.023539 0.0234164 0.999726 36.655 32.5168)" fill="white"/>
<ellipse rx="0.0903427" ry="0.0904562" transform="matrix(0.999723 -0.0235385 0.0234169 0.999726 43.4895 38.8697)" fill="white"/>
<ellipse rx="0.0903427" ry="0.0904562" transform="matrix(0.999723 -0.0235385 0.0234169 0.999726 51.222 60.3996)" fill="white"/>
<ellipse rx="0.0903427" ry="0.090458" transform="matrix(0.999723 -0.023539 0.0234164 0.999726 23.4312 38.7985)" fill="white"/>
<ellipse rx="0.0903427" ry="0.090458" transform="matrix(0.999723 -0.023539 0.0234164 0.999726 13.0181 49.3566)" fill="white"/>
<ellipse rx="0.0903427" ry="0.090458" transform="matrix(0.999723 -0.023539 0.0234164 0.999726 33.3588 53.7633)" fill="white"/>
<ellipse rx="0.0903427" ry="0.090458" transform="matrix(0.999723 -0.023539 0.0234164 0.999726 43.8737 47.5453)" fill="white"/>
<ellipse rx="0.0903427" ry="0.0904571" transform="matrix(0.999723 -0.0235388 0.0234167 0.999726 17.2809 30.8012)" fill="white"/>
<ellipse rx="0.0903427" ry="0.090458" transform="matrix(0.999723 -0.023539 0.0234164 0.999726 24.6243 58.8539)" fill="white"/>
<ellipse rx="0.0903426" ry="0.090458" transform="matrix(0.999723 -0.023539 0.0234164 0.999726 7.3385 61.4316)" fill="white"/>
<ellipse rx="0.0903427" ry="0.090458" transform="matrix(0.999723 -0.023539 0.0234164 0.999726 11.5249 39.6213)" fill="white"/>
<ellipse rx="0.0903427" ry="0.090458" transform="matrix(0.999723 -0.023539 0.0234164 0.999726 30.7337 34.2845)" fill="white"/>
<ellipse rx="0.0903427" ry="0.090458" transform="matrix(0.999723 -0.023539 0.0234164 0.999726 49.4363 38.1871)" fill="white"/>
<ellipse rx="0.0903427" ry="0.090458" transform="matrix(0.999723 -0.023539 0.0234164 0.999726 45.5955 28.507)" fill="white"/>
<ellipse rx="0.0903427" ry="0.090458" transform="matrix(0.999723 -0.023539 0.0234164 0.999726 23.2457 54.0011)" fill="white"/>
<ellipse rx="0.0903427" ry="0.090458" transform="matrix(0.999723 -0.023539 0.0234164 0.999726 8.79837 54.3409)" fill="white"/>
<ellipse rx="0.0903424" ry="0.0904543" transform="matrix(0.999723 -0.0235381 0.0234173 0.999726 11.8253 67.8396)" fill="white"/>
<ellipse rx="0.0903427" ry="0.090458" transform="matrix(0.999723 -0.023539 0.0234164 0.999726 25.3569 66.9785)" fill="white"/>
<ellipse rx="0.0903427" ry="0.090458" transform="matrix(0.999723 -0.023539 0.0234164 0.999726 52.4427 35.4024)" fill="white"/>
<ellipse rx="0.0903427" ry="0.090458" transform="matrix(0.999723 -0.023539 0.0234164 0.999726 57.7386 53.1901)" fill="white"/>
<ellipse rx="0.0903427" ry="0.090458" transform="matrix(0.999723 -0.023539 0.0234164 0.999726 12.189 60.2318)" fill="white"/>
<ellipse rx="0.0903417" ry="0.0904562" transform="matrix(0.999723 -0.0235388 0.0234167 0.999726 21.2744 46.9913)" fill="white"/>
<ellipse rx="0.0903427" ry="0.0904571" transform="matrix(0.999723 -0.0235388 0.0234167 0.999726 36.2811 31.9828)" fill="white"/>
<ellipse rx="0.0903427" ry="0.090458" transform="matrix(0.999723 -0.023539 0.0234164 0.999726 43.1156 38.3356)" fill="white"/>
<ellipse rx="0.0903427" ry="0.0904562" transform="matrix(0.999723 -0.0235385 0.0234169 0.999726 50.3064 59.8783)" fill="white"/>
<ellipse rx="0.0903427" ry="0.090458" transform="matrix(0.999723 -0.023539 0.0234164 0.999726 24.4105 42.0323)" fill="white"/>
<ellipse rx="0.0903422" ry="0.090458" transform="matrix(0.999723 -0.0235391 0.0234163 0.999726 14.6331 41.1766)" fill="white"/>
<ellipse rx="0.0903427" ry="0.090458" transform="matrix(0.999723 -0.023539 0.0234164 0.999726 33.1195 35.8567)" fill="white"/>
<ellipse rx="0.0903427" ry="0.0904562" transform="matrix(0.999723 -0.0235385 0.0234169 0.999726 24.3546 55.0606)" fill="white"/>
<ellipse rx="0.0903422" ry="0.090458" transform="matrix(0.999723 -0.0235391 0.0234163 0.999726 12.6495 72.1626)" fill="white"/>
<ellipse rx="0.0903427" ry="0.090458" transform="matrix(0.999723 -0.023539 0.0234164 0.999726 21.8621 64.3468)" fill="white"/>
<ellipse rx="0.0903427" ry="0.0904562" transform="matrix(0.999723 -0.0235385 0.0234169 0.999726 15.1573 55.8197)" fill="white"/>
<ellipse rx="0.0903427" ry="0.090458" transform="matrix(0.999723 -0.023539 0.0234164 0.999726 16.5334 68.2717)" fill="white"/>
<ellipse rx="0.0903427" ry="0.090458" transform="matrix(0.999723 -0.023539 0.0234164 0.999726 32.7612 66.8044)" fill="white"/>
<ellipse rx="0.0903427" ry="0.0904562" transform="matrix(0.999723 -0.0235385 0.0234169 0.999726 13.8397 61.2786)" fill="white"/>
<ellipse rx="0.0903427" ry="0.090458" transform="matrix(0.999723 -0.023539 0.0234164 0.999726 22.7445 48.0422)" fill="white"/>
<ellipse rx="0.0903427" ry="0.090458" transform="matrix(0.999723 -0.023539 0.0234164 0.999726 37.1967 32.5041)" fill="white"/>
<ellipse rx="0.0903427" ry="0.090458" transform="matrix(0.999723 -0.023539 0.0234164 0.999726 44.6113 40.4717)" fill="white"/>
<ellipse rx="0.0903427" ry="0.090458" transform="matrix(0.999723 -0.023539 0.0234164 0.999726 52.1251 60.3784)" fill="white"/>
<ellipse rx="0.0903427" ry="0.090458" transform="matrix(0.999723 -0.023539 0.0234164 0.999726 55.4315 47.2735)" fill="white"/>
<ellipse rx="0.0903427" ry="0.0904562" transform="matrix(0.999723 -0.0235385 0.0234169 0.999726 26.8981 47.9445)" fill="white"/>
<ellipse rx="0.0903426" ry="0.090458" transform="matrix(0.999723 -0.023539 0.0234164 0.999726 5.7333 39.2146)" fill="white"/>
<ellipse rx="0.0903427" ry="0.090458" transform="matrix(0.999723 -0.023539 0.0234164 0.999726 18.1382 51.9501)" fill="white"/>
<ellipse rx="0.0903427" ry="0.090458" transform="matrix(0.999723 -0.023539 0.0234164 0.999726 40.2594 55.2295)" fill="white"/>
<ellipse rx="0.0903427" ry="0.090458" transform="matrix(0.999723 -0.023539 0.0234164 0.999726 49.1362 48.5071)" fill="white"/>
<ellipse rx="0.0903427" ry="0.090458" transform="matrix(0.999723 -0.023539 0.0234164 0.999726 22.8919 31.212)" fill="white"/>
<ellipse rx="0.0903427" ry="0.090458" transform="matrix(0.999723 -0.023539 0.0234164 0.999726 32.2346 59.7605)" fill="white"/>
<ellipse rx="0.0903427" ry="0.090458" transform="matrix(0.999723 -0.023539 0.0234164 0.999726 14.0458 62.3595)" fill="white"/>
<ellipse rx="0.0903427" ry="0.090458" transform="matrix(0.999723 -0.023539 0.0234164 0.999726 17.7159 41.6468)" fill="white"/>
<ellipse rx="0.0903427" ry="0.090458" transform="matrix(0.999723 -0.023539 0.0234164 0.999726 36.9119 35.7675)" fill="white"/>
<ellipse rx="0.0903427" ry="0.090458" transform="matrix(0.999723 -0.023539 0.0234164 0.999726 27.9792 55.5182)" fill="white"/>
<ellipse rx="0.0903427" ry="0.0904562" transform="matrix(0.999723 -0.0235385 0.0234169 0.999726 18.6903 60.079)" fill="white"/>
<ellipse rx="0.0903427" ry="0.0904543" transform="matrix(0.999723 -0.023538 0.0234174 0.999726 31.1995 69.5552)" fill="white"/>
<ellipse rx="0.0903427" ry="0.090458" transform="matrix(0.999723 -0.023539 0.0234164 0.999726 52.817 74.4748)" fill="white"/>
<ellipse rx="0.0903427" ry="0.090458" transform="matrix(0.999723 -0.023539 0.0234164 0.999726 35.8616 52.6189)" fill="white"/>
<ellipse rx="0.0903427" ry="0.090458" transform="matrix(0.999723 -0.023539 0.0234164 0.999726 45.6188 75.7297)" fill="white"/>
<ellipse rx="0.0903427" ry="0.090458" transform="matrix(0.999723 -0.023539 0.0234164 0.999726 25.3927 76.2053)" fill="white"/>
<ellipse rx="0.0903427" ry="0.0904543" transform="matrix(0.999723 -0.023538 0.0234174 0.999726 21.6281 69.7802)" fill="white"/>
<ellipse rx="0.0903427" ry="0.090458" transform="matrix(0.999723 -0.023539 0.0234164 0.999726 43.9705 67.0837)" fill="white"/>
<ellipse rx="0.0903427" ry="0.090458" transform="matrix(0.999723 -0.023539 0.0234164 0.999726 37.4488 50.9532)" fill="white"/>
<ellipse rx="0.0903427" ry="0.090458" transform="matrix(0.999723 -0.023539 0.0234164 0.999726 23.7722 61.0451)" fill="white"/>
<ellipse rx="0.0903427" ry="0.090458" transform="matrix(0.999723 -0.023539 0.0234164 0.999726 24.3879 71.8865)" fill="white"/>
<ellipse rx="0.0903427" ry="0.090458" transform="matrix(0.999723 -0.023539 0.0234164 0.999726 49.0271 66.9648)" fill="white"/>
</g>
<mask id="mask1_10_4602" style="mask-type:alpha" maskUnits="userSpaceOnUse" x="4" y="26" width="54" height="55">
<ellipse cx="31" cy="53.9639" rx="27" ry="27.036" fill="#C4C4C4"/>
</mask>
<g mask="url(#mask1_10_4602)">
<path d="M4.61722 73.9127L7.72914 73.2113C10.8139 72.516 14.0146 72.5144 17.1 73.2067L17.8296 73.3704C21.3731 74.1655 25.0709 73.9187 28.4773 72.6598V72.6598C31.1632 71.6671 34.0402 71.3002 36.8893 71.5871L42.5329 72.1553V80.691H4.61722V73.9127Z" fill="#F5F5F5"/>
<path d="M12.1964 74.6465L18.0567 73.4043C21.0991 72.7595 24.2448 72.7781 27.2794 73.459L28.0895 73.6408C31.633 74.4358 35.3308 74.189 38.7372 72.9301V72.9301C41.4231 71.9374 44.3001 71.5706 47.1492 71.8574L52.7929 72.4256V80.9613H14.8772L12.1964 74.6465Z" fill="white"/>
</g>
<path d="M28.8593 55.8178C28.8593 62.2348 32.0087 67.7872 34.417 72.033C37.6126 77.6667 39.5033 81 31 81C16.0883 81 4 68.8955 4 53.9639C4 39.0323 16.0883 26.9279 31 26.9279C39.8198 26.6088 37.4852 31.5267 34.0893 38.6802C31.7303 43.6494 28.8593 49.6973 28.8593 55.8178Z" fill="white" fill-opacity="0.15"/>
<path d="M28.8593 55.8178C28.8593 62.2348 32.0087 67.7872 34.417 72.033C37.6126 77.6667 39.5033 81 31 81C16.0883 81 4 68.8955 4 53.9639C4 39.0323 16.0883 26.9279 31 26.9279C39.8198 26.6088 37.4852 31.5267 34.0893 38.6802C31.7303 43.6494 28.8593 49.6973 28.8593 55.8178Z" stroke="white"/>
<path d="M28.4474 23.22H32.7617L31.8629 28.62H29.3462L28.4474 23.22Z" fill="white"/>
<path d="M36.5 44.8333C35.675 44.8333 34.6667 45.75 34.6667 46.6666H27.3333C27.3333 45.75 26.325 44.8333 25.5 44.8333H21.8333V53.0833C21.8333 54 22.75 54.9166 23.6667 54.9166H25.6833C26.05 56.75 27.2417 58.3083 30.0833 58.5833V60.49C27.3333 60.9116 27.3333 63.1666 27.3333 63.1666H34.6667C34.6667 63.1666 34.6667 60.9116 31.9167 60.49V58.5833C34.7583 58.3083 35.95 56.75 36.3167 54.9166H38.3333C39.25 54.9166 40.1667 54 40.1667 53.0833V44.8333H36.5ZM25.5 53.0833H23.6667V46.6666H25.5V53.0833ZM38.3333 53.0833H36.5V46.6666H38.3333V53.0833Z" fill="white"/>
<defs>
<filter id="filter0_bd_10_4602" x="-6" y="16.9279" width="74" height="74.0721" filterUnits="userSpaceOnUse" color-interpolation-filters="sRGB">
<feFlood flood-opacity="0" result="BackgroundImageFix"/>
<feGaussianBlur in="BackgroundImageFix" stdDeviation="5"/>
<feComposite in2="SourceAlpha" operator="in" result="effect1_backgroundBlur_10_4602"/>
<feColorMatrix in="SourceAlpha" type="matrix" values="0 0 0 0 0 0 0 0 0 0 0 0 0 0 0 0 0 0 127 0" result="hardAlpha"/>
<feOffset dy="4"/>
<feGaussianBlur stdDeviation="2"/>
<feComposite in2="hardAlpha" operator="out"/>
<feColorMatrix type="matrix" values="0 0 0 0 0 0 0 0 0 0 0 0 0 0 0 0 0 0 0.25 0"/>
<feBlend mode="normal" in2="effect1_backgroundBlur_10_4602" result="effect2_dropShadow_10_4602"/>
<feBlend mode="normal" in="SourceGraphic" in2="effect2_dropShadow_10_4602" result="shape"/>
</filter>
</defs>
</svg>
