<svg width="765" height="1358" viewBox="0 0 765 1358" fill="none" xmlns="http://www.w3.org/2000/svg">
<g clip-path="url(#clip0_44_2181)">
<rect width="764.983" height="1357.48" fill="#6D81BD"/>
<rect x="67.2616" y="1239.76" width="167.636" height="119.475" fill="#FF4E4E"/>
<path fill-rule="evenodd" clip-rule="evenodd" d="M156.871 1191.32C158.384 1185.93 161.073 1179.92 165.416 1174.9C165.859 1174.39 166.316 1173.9 166.785 1173.43C176.755 1163.42 187.671 1176.6 178.452 1187.26C175.041 1191.21 171.669 1194.76 168.609 1197.7C168.041 1198.25 167.484 1198.77 166.939 1199.28C161.5 1204.29 157.304 1207.03 156.093 1206.06C155.067 1205.23 154.824 1200.15 156.252 1193.78C156.432 1192.98 156.638 1192.16 156.871 1191.32ZM152.679 1194.6C152.688 1194.6 152.697 1194.6 152.707 1194.59C152.642 1194.62 152.631 1194.63 152.679 1194.6ZM157.5 1164.79C156.824 1165.47 156.163 1166.18 155.52 1166.93C148.553 1174.98 145.03 1184.5 143.459 1191.95C142.665 1195.72 142.287 1199.35 142.33 1202.44C142.351 1203.95 142.476 1205.69 142.853 1207.41C143.04 1208.27 143.354 1209.42 143.915 1210.65C144.407 1211.74 145.512 1213.84 147.778 1215.67C152.493 1219.47 157.773 1218.84 159.831 1218.41C162.157 1217.93 164.064 1217 165.255 1216.36C167.767 1214.99 170.302 1213.07 172.579 1211.16C177.289 1207.2 182.865 1201.58 188.347 1195.24C196.444 1185.88 197.031 1173.26 189.888 1164.71C186.33 1160.45 180.789 1157.36 174.161 1157.38C167.542 1157.39 161.803 1160.48 157.5 1164.79Z" fill="white"/>
<path fill-rule="evenodd" clip-rule="evenodd" d="M139.025 1191.32C137.512 1185.93 134.823 1179.92 130.481 1174.9C130.037 1174.39 129.58 1173.9 129.112 1173.43C119.141 1163.42 108.225 1176.6 117.445 1187.26C120.855 1191.21 124.227 1194.76 127.288 1197.7C127.856 1198.25 128.413 1198.77 128.957 1199.28C134.397 1204.29 138.592 1207.03 139.804 1206.06C140.829 1205.23 141.073 1200.15 139.644 1193.78C139.465 1192.98 139.259 1192.16 139.025 1191.32ZM143.217 1194.6C143.209 1194.6 143.199 1194.6 143.189 1194.59C143.254 1194.62 143.265 1194.63 143.217 1194.6ZM138.396 1164.79C139.072 1165.47 139.733 1166.18 140.376 1166.93C147.343 1174.98 150.867 1184.5 152.437 1191.95C153.232 1195.72 153.609 1199.35 153.566 1202.44C153.545 1203.95 153.42 1205.69 153.044 1207.41C152.856 1208.27 152.542 1209.42 151.982 1210.65C151.489 1211.74 150.384 1213.84 148.118 1215.67C143.403 1219.47 138.123 1218.84 136.065 1218.41C133.739 1217.93 131.832 1217 130.641 1216.36C128.129 1214.99 125.594 1213.07 123.318 1211.16C118.607 1207.2 113.032 1201.58 107.549 1195.24C99.4525 1185.88 98.8649 1173.26 106.008 1164.71C109.566 1160.45 115.107 1157.36 121.735 1157.38C128.355 1157.39 134.093 1160.48 138.396 1164.79Z" fill="white"/>
<rect x="58" y="1210.13" width="150.965" height="29.6373" rx="5" fill="#CF1717"/>
<rect x="137.65" y="1210.13" width="104.657" height="29.6373" rx="5" fill="#FF4E4E"/>
<rect x="67.2616" y="1239.76" width="70.3886" height="119.475" fill="#EE2424"/>
<path d="M220.699 1239.46L234.681 1239.46L234.681 1255.98L220.699 1239.46Z" fill="#EE2424"/>
<path d="M152.469 1239.76L137.65 1239.76L137.65 1256.44L152.469 1239.76Z" fill="#EE2424"/>
<rect x="91.3419" y="1239.76" width="21.3018" height="119.475" fill="white"/>
<rect x="177.475" y="1239.76" width="21.3018" height="119.475" fill="white"/>
<rect x="211.041" y="1285.56" width="181.788" height="81.3525" fill="#00CCF1"/>
<path fill-rule="evenodd" clip-rule="evenodd" d="M308.204 1233.03C309.844 1227.18 312.76 1220.67 317.469 1215.22C317.95 1214.67 318.445 1214.13 318.954 1213.62C329.766 1202.77 341.603 1217.07 331.606 1228.63C327.907 1232.9 324.251 1236.76 320.932 1239.95C320.316 1240.54 319.712 1241.11 319.121 1241.65C313.222 1247.09 308.673 1250.06 307.359 1249.01C306.247 1248.11 305.983 1242.6 307.532 1235.69C307.727 1234.83 307.95 1233.94 308.204 1233.03ZM303.657 1236.59C303.667 1236.58 303.677 1236.58 303.688 1236.57C303.617 1236.61 303.605 1236.62 303.657 1236.59ZM308.885 1204.26C308.152 1205 307.435 1205.77 306.738 1206.57C299.183 1215.31 295.362 1225.63 293.659 1233.71C292.797 1237.8 292.388 1241.73 292.435 1245.09C292.458 1246.73 292.593 1248.61 293.001 1250.47C293.205 1251.4 293.545 1252.65 294.153 1253.99C294.687 1255.17 295.885 1257.45 298.343 1259.43C303.456 1263.55 309.181 1262.87 311.413 1262.41C313.936 1261.88 316.004 1260.88 317.295 1260.18C320.019 1258.69 322.768 1256.61 325.237 1254.54C330.345 1250.24 336.391 1244.15 342.337 1237.28C351.117 1227.12 351.754 1213.44 344.008 1204.17C340.149 1199.55 334.141 1196.2 326.953 1196.22C319.775 1196.23 313.551 1199.58 308.885 1204.26Z" fill="white"/>
<path fill-rule="evenodd" clip-rule="evenodd" d="M288.851 1233.03C287.21 1227.18 284.294 1220.67 279.585 1215.22C279.105 1214.67 278.609 1214.13 278.101 1213.62C267.289 1202.77 255.451 1217.07 265.449 1228.63C269.147 1232.9 272.804 1236.76 276.123 1239.95C276.738 1240.54 277.343 1241.11 277.933 1241.65C283.832 1247.09 288.381 1250.06 289.695 1249.01C290.807 1248.11 291.071 1242.6 289.522 1235.69C289.328 1234.83 289.104 1233.94 288.851 1233.03ZM293.397 1236.59C293.388 1236.58 293.377 1236.58 293.366 1236.57C293.437 1236.61 293.449 1236.62 293.397 1236.59ZM288.169 1204.26C288.902 1205 289.619 1205.77 290.316 1206.57C297.871 1215.31 301.692 1225.63 303.395 1233.71C304.257 1237.8 304.666 1241.73 304.619 1245.09C304.596 1246.73 304.461 1248.61 304.053 1250.47C303.849 1251.4 303.509 1252.65 302.901 1253.99C302.367 1255.17 301.169 1257.45 298.712 1259.43C293.598 1263.55 287.873 1262.87 285.641 1262.41C283.119 1261.88 281.05 1260.88 279.759 1260.18C277.035 1258.69 274.286 1256.61 271.817 1254.54C266.709 1250.24 260.663 1244.15 254.718 1237.28C245.938 1227.12 245.3 1213.44 253.047 1204.17C256.905 1199.55 262.914 1196.2 270.101 1196.22C277.28 1196.23 283.503 1199.58 288.169 1204.26Z" fill="white"/>
<rect x="200.997" y="1253.42" width="165.718" height="32.1393" rx="5" fill="#018BD4"/>
<rect x="287.371" y="1253.42" width="113.492" height="32.1393" rx="5" fill="#00CCF1"/>
<rect x="211.041" y="1285.56" width="76.3307" height="89.3873" fill="#01A9D2"/>
<path d="M375.754 1285.56L392.828 1285.56L392.828 1303.64L375.754 1285.56Z" fill="#01A9D2"/>
<path d="M303.441 1285.56L287.372 1285.56L287.372 1303.64L303.441 1285.56Z" fill="#01A9D2"/>
<rect x="237.154" y="1285.56" width="23.1001" height="92.4004" fill="white"/>
<rect x="330.558" y="1285.56" width="23.1001" height="95.4134" fill="white"/>
</g>
<defs>
<clipPath id="clip0_44_2181">
<rect width="764.983" height="1357.48" fill="white"/>
</clipPath>
</defs>
</svg>
