<svg width="1073" height="1082" viewBox="0 0 1073 1082" fill="none" xmlns="http://www.w3.org/2000/svg">
<g filter="url(#filter0_d_48_2253)">
<path d="M40.4709 20.8895C40.8706 9.33678 50.5318 0.279328 62.0862 0.624952L1048.47 30.1303C1060.21 30.4814 1069.38 40.3858 1068.82 52.1134L1024.23 994.628C1023.72 1005.34 1015.22 1013.95 1004.52 1014.6L27.0515 1073.61C14.69 1074.35 4.37031 1064.3 4.79853 1051.92L40.4709 20.8895Z" fill="#5962B2"/>
</g>
<path d="M343.158 99.2755V111.776H339.056C338.779 111.417 338.462 111.051 338.104 110.677C337.746 110.303 337.347 109.969 336.908 109.676C336.468 109.367 335.988 109.123 335.467 108.943C334.946 108.748 334.385 108.651 333.783 108.651V125.569L336.908 126.18V136.776H315.033V126.18L318.158 125.569V108.651C317.555 108.651 316.994 108.748 316.473 108.943C315.952 109.123 315.472 109.367 315.033 109.676C314.593 109.969 314.194 110.303 313.836 110.677C313.478 111.051 313.161 111.417 312.884 111.776H308.783V99.2755H343.158ZM384.32 112.581C384.303 113.069 384.295 113.55 384.295 114.022C384.295 114.477 384.295 114.917 384.295 115.34V119.124C384.295 122.379 383.848 125.171 382.952 127.498C382.057 129.809 380.845 131.706 379.315 133.187C377.785 134.668 375.986 135.709 373.919 136.312C371.868 136.914 369.687 137.215 367.376 137.215C364.707 137.215 362.209 136.914 359.881 136.312C357.57 135.709 355.552 134.668 353.826 133.187C352.117 131.689 350.767 129.785 349.774 127.474C348.797 125.163 348.309 122.379 348.309 119.124V112.581L345.379 112.02V102.401H364.447V112.02L361.517 112.581V115.486C361.517 115.877 361.517 116.276 361.517 116.683C361.517 117.073 361.517 117.44 361.517 117.781C361.533 118.123 361.541 118.424 361.541 118.685C361.541 118.929 361.541 119.092 361.541 119.173C361.541 119.547 361.549 119.987 361.566 120.491C361.582 120.98 361.647 121.492 361.761 122.029C361.875 122.55 362.046 123.071 362.274 123.592C362.518 124.096 362.852 124.552 363.275 124.959C363.714 125.366 364.259 125.7 364.91 125.96C365.578 126.204 366.4 126.326 367.376 126.326C368.353 126.326 369.175 126.204 369.842 125.96C370.526 125.7 371.079 125.366 371.502 124.959C371.942 124.536 372.284 124.064 372.528 123.543C372.772 123.022 372.943 122.501 373.04 121.981C373.154 121.443 373.219 120.931 373.236 120.443C373.268 119.938 373.284 119.498 373.284 119.124C373.284 119.01 373.284 118.831 373.284 118.587C373.284 118.327 373.276 118.034 373.26 117.708C373.26 117.366 373.26 117.008 373.26 116.634C373.26 116.243 373.26 115.861 373.26 115.486V112.581L370.33 112.02V102.401H387.274V112.02L384.32 112.581ZM406.366 102.401H426.361C428.965 102.401 431.219 102.514 433.123 102.742C435.044 102.97 436.672 103.296 438.006 103.719C439.357 104.142 440.456 104.663 441.302 105.281C442.165 105.9 442.832 106.6 443.304 107.381C443.792 108.146 444.118 108.992 444.281 109.92C444.46 110.832 444.549 111.808 444.549 112.85C444.549 113.924 444.443 114.933 444.232 115.877C444.036 116.821 443.662 117.692 443.109 118.489C442.555 119.271 441.79 119.979 440.814 120.613C439.853 121.232 438.608 121.761 437.078 122.2C435.565 122.623 433.734 122.949 431.585 123.177C429.437 123.405 426.906 123.519 423.992 123.519V126.473L426.922 127.034V136.776H406.366V127.034L409.295 126.473V112.581L406.366 112.02V102.401ZM423.992 117.342C424.888 117.342 425.693 117.293 426.409 117.195C427.142 117.098 427.76 116.886 428.265 116.561C428.786 116.235 429.185 115.763 429.461 115.145C429.738 114.526 429.876 113.688 429.876 112.63C429.876 111.653 429.738 110.88 429.461 110.311C429.185 109.741 428.786 109.302 428.265 108.992C427.76 108.683 427.142 108.488 426.409 108.406C425.693 108.309 424.888 108.26 423.992 108.26V117.342ZM485.784 136.776H471.185C470.729 135.929 470.257 135.034 469.769 134.09C469.281 133.13 468.809 132.129 468.353 131.087C467.897 130.045 467.466 128.971 467.059 127.864C466.668 126.758 466.335 125.618 466.058 124.446H465.252V136.776H447.625V127.034L450.555 126.473V112.581L447.625 112.02V102.401H467.62C470.273 102.401 472.56 102.514 474.481 102.742C476.418 102.97 478.053 103.304 479.388 103.743C480.739 104.183 481.829 104.72 482.659 105.355C483.49 105.973 484.132 106.681 484.588 107.479C485.06 108.26 485.378 109.123 485.54 110.067C485.703 111.011 485.784 112.012 485.784 113.069C485.784 114.144 485.679 115.12 485.467 115.999C485.272 116.878 484.914 117.684 484.393 118.416C483.872 119.149 483.156 119.824 482.244 120.443C481.349 121.045 480.202 121.614 478.802 122.151C479.095 122.737 479.526 123.437 480.096 124.251C480.682 125.049 481.317 125.871 482 126.717C482.684 127.547 483.359 128.353 484.027 129.134C484.71 129.915 485.296 130.582 485.784 131.136V136.776ZM465.252 117.83C466.147 117.83 466.953 117.79 467.669 117.708C468.402 117.61 469.02 117.415 469.525 117.122C470.046 116.813 470.444 116.365 470.721 115.779C470.998 115.193 471.136 114.404 471.136 113.411C471.136 112.435 470.998 111.653 470.721 111.068C470.444 110.482 470.046 110.034 469.525 109.725C469.02 109.399 468.402 109.188 467.669 109.09C466.953 108.992 466.147 108.943 465.252 108.943V117.83ZM510.174 98.4943H499.798L508.075 82.8693H520.037L510.174 98.4943ZM507.513 117.513L514.276 116.072V123.03L507.513 121.566V126.961C508.49 126.961 509.434 126.896 510.345 126.766C511.256 126.619 512.103 126.424 512.884 126.18C513.665 125.936 514.381 125.651 515.033 125.325C515.684 125 516.245 124.65 516.717 124.276H520.062V136.776H489.886V127.034L492.816 126.473V112.63L489.886 112.068V102.401H520.062V114.901H516.717C516.245 114.542 515.684 114.201 515.033 113.875C514.381 113.55 513.665 113.265 512.884 113.021C512.103 112.776 511.256 112.581 510.345 112.435C509.434 112.288 508.49 112.215 507.513 112.215V117.513ZM541.595 118.245L547.845 116.805V124.251L541.595 122.786V126.473L544.525 127.108V136.776H523.968V127.034L526.898 126.473V112.63L523.968 112.068V102.401H552.362V114.901H548.284C547.585 114.168 546.665 113.541 545.526 113.021C544.386 112.484 543.076 112.215 541.595 112.215V118.245ZM555.731 82.8693H567.694L575.97 98.4943H565.594L555.731 82.8693ZM573.333 117.513L580.096 116.072V123.03L573.333 121.566V126.961C574.31 126.961 575.254 126.896 576.165 126.766C577.077 126.619 577.923 126.424 578.704 126.18C579.486 125.936 580.202 125.651 580.853 125.325C581.504 125 582.065 124.65 582.537 124.276H585.882V136.776H555.706V127.034L558.636 126.473V112.63L555.706 112.068V102.401H585.882V114.901H582.537C582.065 114.542 581.504 114.201 580.853 113.875C580.202 113.55 579.486 113.265 578.704 113.021C577.923 112.776 577.077 112.581 576.165 112.435C575.254 112.288 574.31 112.215 573.333 112.215V117.513ZM627.972 136.776H613.372C612.917 135.929 612.445 135.034 611.956 134.09C611.468 133.13 610.996 132.129 610.54 131.087C610.085 130.045 609.653 128.971 609.246 127.864C608.856 126.758 608.522 125.618 608.245 124.446H607.44V136.776H589.813V127.034L592.742 126.473V112.581L589.813 112.02V102.401H609.808C612.461 102.401 614.748 102.514 616.668 102.742C618.605 102.97 620.241 103.304 621.576 103.743C622.926 104.183 624.017 104.72 624.847 105.355C625.677 105.973 626.32 106.681 626.776 107.479C627.248 108.26 627.565 109.123 627.728 110.067C627.891 111.011 627.972 112.012 627.972 113.069C627.972 114.144 627.866 115.12 627.655 115.999C627.459 116.878 627.101 117.684 626.58 118.416C626.06 119.149 625.343 119.824 624.432 120.443C623.537 121.045 622.389 121.614 620.99 122.151C621.283 122.737 621.714 123.437 622.284 124.251C622.869 125.049 623.504 125.871 624.188 126.717C624.871 127.547 625.547 128.353 626.214 129.134C626.898 129.915 627.484 130.582 627.972 131.136V136.776ZM607.44 117.83C608.335 117.83 609.141 117.79 609.857 117.708C610.589 117.61 611.208 117.415 611.712 117.122C612.233 116.813 612.632 116.365 612.909 115.779C613.185 115.193 613.324 114.404 613.324 113.411C613.324 112.435 613.185 111.653 612.909 111.068C612.632 110.482 612.233 110.034 611.712 109.725C611.208 109.399 610.589 109.188 609.857 109.09C609.141 108.992 608.335 108.943 607.44 108.943V117.83ZM649.701 117.513L656.463 116.072V123.03L649.701 121.566V126.961C650.677 126.961 651.621 126.896 652.533 126.766C653.444 126.619 654.29 126.424 655.072 126.18C655.853 125.936 656.569 125.651 657.22 125.325C657.871 125 658.433 124.65 658.905 124.276H662.249V136.776H632.074V127.034L635.003 126.473V112.63L632.074 112.068V102.401H662.249V114.901H658.905C658.433 114.542 657.871 114.201 657.22 113.875C656.569 113.55 655.853 113.265 655.072 113.021C654.29 112.776 653.444 112.581 652.533 112.435C651.621 112.288 650.677 112.215 649.701 112.215V117.513ZM696.087 125.96C696.087 127.474 695.867 128.817 695.428 129.988C695.005 131.144 694.419 132.153 693.67 133.016C692.938 133.862 692.059 134.57 691.034 135.14C690.024 135.709 688.934 136.173 687.762 136.531C686.59 136.873 685.361 137.068 684.076 137.117C682.806 137.182 681.536 137.215 680.267 137.215C678.509 137.215 676.922 137.174 675.506 137.093C674.09 137.012 672.821 136.832 671.698 136.556C670.591 136.279 669.606 135.978 668.743 135.652C667.897 135.311 667.148 134.977 666.497 134.651V126.18H673.407C674.09 127.254 674.871 128.043 675.75 128.548C676.629 129.053 677.533 129.305 678.46 129.305C678.737 129.305 679.046 129.28 679.388 129.232C679.73 129.183 680.047 129.028 680.34 128.768C680.633 128.507 680.877 128.109 681.073 127.571C681.284 127.018 681.39 126.245 681.39 125.252C680.072 125.138 678.761 124.975 677.459 124.764C676.173 124.536 674.937 124.235 673.748 123.86C672.576 123.486 671.486 123.014 670.477 122.444C669.468 121.859 668.589 121.159 667.84 120.345C667.108 119.515 666.53 118.546 666.107 117.44C665.684 116.317 665.472 115.031 665.472 113.582C665.472 111.922 665.684 110.473 666.107 109.236C666.53 107.983 667.108 106.909 667.84 106.014C668.573 105.119 669.435 104.378 670.428 103.792C671.437 103.206 672.52 102.742 673.675 102.401C674.831 102.059 676.035 101.823 677.288 101.693C678.542 101.546 679.795 101.473 681.048 101.473C682.822 101.473 684.409 101.562 685.809 101.741C687.225 101.92 688.486 102.148 689.593 102.425C690.716 102.702 691.701 103.011 692.547 103.353C693.41 103.678 694.175 103.996 694.842 104.305V112.85H687.445C686.826 111.678 686.118 110.823 685.321 110.286C684.523 109.749 683.709 109.481 682.879 109.481C682.603 109.481 682.285 109.529 681.927 109.627C681.569 109.708 681.235 109.904 680.926 110.213C680.617 110.522 680.356 110.978 680.145 111.58C679.933 112.182 679.827 112.996 679.827 114.022C682.513 114.119 684.865 114.404 686.883 114.876C688.918 115.348 690.618 116.056 691.986 117C693.353 117.928 694.378 119.132 695.062 120.613C695.745 122.078 696.087 123.86 696.087 125.96ZM730.218 110.237C730.218 109.733 730.129 109.293 729.95 108.919C729.787 108.528 729.559 108.203 729.266 107.943C728.989 107.682 728.656 107.487 728.265 107.357C727.891 107.21 727.5 107.137 727.093 107.137C726.165 107.137 725.246 107.357 724.334 107.796C723.423 108.219 722.617 108.895 721.917 109.822H714.569V101.375C715.122 101.098 715.716 100.83 716.351 100.569C716.986 100.309 717.669 100.065 718.402 99.837C719.671 99.4464 721.177 99.0965 722.918 98.7872C724.676 98.4617 726.711 98.299 729.022 98.299C731.577 98.299 733.888 98.535 735.955 99.007C738.039 99.4627 739.813 100.179 741.278 101.155C742.742 102.132 743.874 103.377 744.671 104.891C745.469 106.388 745.867 108.17 745.867 110.237C745.867 112.028 745.575 113.558 744.989 114.827C744.419 116.081 743.63 117.138 742.62 118.001C741.628 118.864 740.464 119.564 739.129 120.101C737.795 120.638 736.362 121.077 734.832 121.419V124.276H719.281C719.264 124.292 719.24 124.3 719.207 124.3V115.877C719.468 115.763 719.915 115.625 720.55 115.462C721.201 115.283 721.934 115.08 722.747 114.852C723.561 114.624 724.408 114.363 725.286 114.07C726.182 113.761 726.987 113.419 727.703 113.045C728.436 112.671 729.038 112.256 729.51 111.8C729.982 111.328 730.218 110.807 730.218 110.237ZM719.207 127.425H734.832V136.8H719.207V127.425Z" fill="white"/>
<defs>
<filter id="filter0_d_48_2253" x="0.785645" y="0.615356" width="1072.06" height="1081.03" filterUnits="userSpaceOnUse" color-interpolation-filters="sRGB">
<feFlood flood-opacity="0" result="BackgroundImageFix"/>
<feColorMatrix in="SourceAlpha" type="matrix" values="0 0 0 0 0 0 0 0 0 0 0 0 0 0 0 0 0 0 127 0" result="hardAlpha"/>
<feOffset dy="4"/>
<feGaussianBlur stdDeviation="2"/>
<feComposite in2="hardAlpha" operator="out"/>
<feColorMatrix type="matrix" values="0 0 0 0 0 0 0 0 0 0 0 0 0 0 0 0 0 0 0.25 0"/>
<feBlend mode="normal" in2="BackgroundImageFix" result="effect1_dropShadow_48_2253"/>
<feBlend mode="normal" in="SourceGraphic" in2="effect1_dropShadow_48_2253" result="shape"/>
</filter>
</defs>
</svg>
