<svg width="766" height="553" viewBox="0 0 766 553" fill="none" xmlns="http://www.w3.org/2000/svg">
<g filter="url(#filter0_d_44_2241)">
<path d="M27.7929 102.093C27.8574 90.7813 36.8698 81.5534 48.1765 81.2216L701.02 62.0614C713.065 61.7079 722.937 71.5418 722.629 83.5885L712.816 467.864C712.543 478.546 704.292 487.32 693.646 488.248L48.2133 544.517C35.8946 545.591 25.3192 535.842 25.3897 523.477L27.7929 102.093Z" fill="#AFB7F7"/>
<path d="M87.3415 210.026C87.3604 207.577 87.7279 205.507 88.4441 203.814C89.172 202.122 90.1963 200.733 91.5171 199.646C92.7789 198.606 94.2558 197.8 95.9476 197.226C97.6394 196.652 99.581 196.358 101.772 196.343C103.284 196.333 104.625 196.389 105.796 196.51C106.967 196.631 108.009 196.794 108.921 196.999C109.845 197.204 110.664 197.438 111.376 197.703C112.101 197.968 112.772 198.245 113.391 198.533L113.329 206.566L108.038 206.602C107.447 205.762 106.784 205.145 106.049 204.752C105.325 204.358 104.577 204.164 103.803 204.169C103.147 204.173 102.508 204.307 101.885 204.569C101.273 204.83 100.725 205.209 100.241 205.704C99.7568 206.2 99.3655 206.806 99.067 207.523C98.7686 208.228 98.6159 209.037 98.6088 209.951C98.5931 211.979 99.0387 213.458 99.9455 214.389C100.864 215.321 102.173 215.781 103.872 215.769C104.294 215.766 104.716 215.74 105.138 215.69C105.572 215.641 106.006 215.568 106.441 215.471L106.457 213.344L103.082 213.367L103.119 208.55L114.053 208.477L113.953 221.309C113.025 221.702 112.038 222.078 110.992 222.436C109.958 222.783 108.919 223.089 107.874 223.353C106.841 223.606 105.826 223.783 104.829 223.883C103.832 223.995 102.912 224.054 102.068 224.06C100.685 224.069 99.3617 223.978 98.0976 223.788C96.8336 223.597 95.6527 223.247 94.5552 222.739C93.4694 222.231 92.4783 221.593 91.5819 220.825C90.6857 220.046 89.9194 219.132 89.283 218.081C88.6584 217.019 88.1755 215.821 87.8343 214.488C87.4932 213.142 87.3289 211.655 87.3415 210.026ZM133.904 223.531L133.057 219.371L126.149 219.417L125.238 223.589L115.834 223.652L115.897 215.496L117.939 215.078L122.933 198.856L136.573 198.765L141.352 214.922L143.371 215.313L143.308 223.469L133.904 223.531ZM127.264 213.856L132.028 213.824L129.712 204.119L127.264 213.856ZM145.093 210.749C145.11 208.546 145.459 206.645 146.139 205.047C146.82 203.437 147.779 202.112 149.017 201.073C150.256 200.022 151.744 199.244 153.482 198.741C155.232 198.225 157.18 197.96 159.324 197.946C160.625 197.937 161.796 197.994 162.838 198.116C163.892 198.238 164.834 198.395 165.664 198.589C166.507 198.783 167.243 199 167.874 199.242C168.517 199.472 169.083 199.697 169.574 199.916L169.515 207.563L164.54 207.596C164.274 207.211 164.007 206.879 163.739 206.599C163.484 206.308 163.204 206.076 162.901 205.902C162.598 205.716 162.259 205.578 161.885 205.487C161.51 205.396 161.071 205.352 160.567 205.355C159.958 205.359 159.36 205.457 158.772 205.648C158.197 205.828 157.679 206.13 157.219 206.555C156.77 206.968 156.403 207.515 156.116 208.197C155.841 208.867 155.7 209.694 155.693 210.678C155.684 211.826 155.788 212.769 156.005 213.506C156.222 214.231 156.54 214.809 156.958 215.24C157.377 215.659 157.89 215.948 158.498 216.108C159.118 216.268 159.826 216.345 160.623 216.34C161.045 216.337 161.479 216.305 161.925 216.243C162.382 216.182 162.875 216.067 163.404 215.9L163.419 213.896L159.886 213.919L159.92 209.595L170.203 209.527L170.112 221.198C169.242 221.567 168.32 221.913 167.345 222.236C166.37 222.559 165.389 222.841 164.403 223.082C163.428 223.323 162.472 223.481 161.534 223.558C160.596 223.635 159.729 223.675 158.932 223.681C156.975 223.694 155.149 223.472 153.453 223.014C151.757 222.557 150.287 221.787 149.041 220.706C147.796 219.624 146.822 218.26 146.12 216.612C145.418 214.953 145.076 212.999 145.093 210.749ZM185.478 209.319L190.355 208.25L190.317 213.259L185.456 212.237L185.426 216.122C186.129 216.117 186.809 216.066 187.466 215.968C188.123 215.858 188.733 215.713 189.297 215.534C189.861 215.354 190.378 215.146 190.849 214.908C191.319 214.671 191.726 214.416 192.068 214.144L194.476 214.128L194.406 223.128L172.68 223.273L172.734 216.259L174.847 215.841L174.924 205.874L172.818 205.484L172.871 198.523L194.597 198.379L194.528 207.378L192.12 207.394C191.782 207.139 191.379 206.895 190.913 206.664C190.446 206.433 189.932 206.231 189.37 206.059C188.809 205.887 188.201 205.751 187.546 205.65C186.89 205.549 186.211 205.5 185.508 205.505L185.478 209.319ZM209.275 198.281L220.525 198.206L220.455 207.205L209.205 207.28L209.275 198.281ZM209.153 214.03L220.403 213.955L220.333 222.955L209.084 223.03L209.153 214.03Z" fill="white"/>
<path d="M43.7631 71.6144C46.1504 70.1491 48.7775 69.2008 51.4972 68.8228L120.795 59.19C122.646 58.9327 124.519 58.9423 126.366 59.2185L182.446 67.6056C184.514 67.915 186.615 67.8898 188.678 67.5307L254.586 56.0633C259.547 55.2001 264.625 56.2814 268.905 59.1125L278.991 65.7835C283.176 68.5512 288.125 69.6485 292.987 68.8862L374.004 56.1823C375.872 55.8894 377.767 55.8691 379.639 56.122L462.548 67.3254L555.25 67.4301C556.258 67.4312 557.264 67.3542 558.262 67.1996L638.563 54.7573L672.34 53.7645C674.058 53.714 675.775 53.891 677.452 54.2916L705.884 61.083C710.624 62.215 714.852 65.0845 717.855 69.2064L739.045 98.2921C740.182 99.8526 739.054 102.136 737.221 101.984L719.545 100.519C719.095 100.482 718.645 100.602 718.262 100.862L707.235 108.35C706.841 108.618 706.539 109.019 706.376 109.492L695.318 141.643C694.862 142.968 693.415 143.534 692.286 142.83L638.739 109.453C630.706 104.446 620.577 105.723 613.792 112.599L610.607 115.826C610.245 116.194 609.775 116.411 609.28 116.441L578.542 118.301C576.089 118.449 573.678 119.06 571.417 120.107L549.483 130.257C547.231 131.299 545.163 132.756 543.37 134.565L525.392 152.706L514.355 161.954C512.137 163.812 509.601 165.174 506.894 165.961L487.765 171.523C487.208 171.685 486.615 171.593 486.124 171.27L477.732 165.747L443.177 136.679C442.838 136.394 442.426 136.228 441.997 136.203L436.258 135.875C430.265 135.532 424.415 137.971 420.172 142.579L416.396 146.679C416.029 147.079 415.538 147.317 415.019 147.349L396.811 148.47C387.8 149.024 380.097 155.724 377.652 165.135L375.198 174.578C374.759 176.268 372.797 176.818 371.662 175.568L342.118 143.036C335.87 136.156 326.286 134.293 318.189 138.382L296.683 149.246C296.074 149.553 295.369 149.53 294.781 149.182L282.274 141.793C276.675 138.484 269.984 138.105 264.081 140.763L253.942 145.329C245.352 149.196 235.568 144.263 232.799 134.668C230.352 126.186 222.307 121.162 214.284 123.106L202.099 126.058L180.003 130.165C179.576 130.244 179.18 130.465 178.872 130.796L144.034 168.191C143.809 168.433 143.427 168.33 143.334 168.002L129.836 120.417C126.969 110.307 116.816 104.93 107.66 108.67C103.44 110.394 98.7644 110.232 94.6645 108.22L89.8381 105.852C88.2047 105.05 86.4828 104.478 84.7143 104.149L56.2196 98.8504L21.4185 89.8669C19.5578 89.3865 19.21 86.6855 20.8771 85.6622L43.7631 71.6144Z" fill="#98C4E7"/>
<path d="M43.7631 71.6144C46.1504 70.1491 48.7774 69.2008 51.4971 68.8228L120.795 59.1899C122.646 58.9327 124.519 58.9423 126.366 59.2185L182.446 67.6056C184.514 67.915 186.615 67.8898 188.678 67.5307L254.586 56.0633C259.547 55.2001 264.625 56.2814 268.905 59.1124L278.991 65.7835C283.176 68.5512 288.125 69.6485 292.987 68.8862L374.004 56.1823C375.872 55.8894 377.767 55.8691 379.639 56.122L462.547 67.3254L555.137 67.43C556.219 67.4312 557.301 67.3421 558.371 67.1636L631.516 54.9645L668.097 53.8892C669.639 53.8439 671.18 53.9818 672.693 54.3004L705.698 61.2509C710.552 62.2731 714.915 65.1119 718.022 69.2703L743.431 103.272C744.614 104.856 743.426 107.202 741.554 106.979L726.177 105.148C725.688 105.09 725.195 105.068 724.703 105.082L713.145 105.422C706.513 105.617 700.343 109.18 696.491 115.038L685.365 131.96C684.566 133.175 682.925 133.253 682.037 132.118L670.032 116.769C668.946 115.381 667.71 114.139 666.351 113.07L650.556 100.645C645.487 96.6583 639.035 95.3269 632.953 97.0131L613.276 102.468C607.631 104.033 602.829 108.053 600.007 113.576L571.423 169.53C570.682 170.982 568.806 171.126 567.89 169.802L543.436 134.456C542.997 133.822 542.286 133.481 541.556 133.555L509.052 136.844C508.624 136.887 508.218 137.071 507.889 137.37L505.282 139.74C497.727 146.609 486.798 146.911 478.964 140.468L460.694 125.443C460.184 125.024 459.526 124.879 458.904 125.049L444.658 128.947C442.857 129.439 441.005 129.673 439.149 129.641L413.282 129.194C412.842 129.186 412.421 129.001 412.101 128.674C408.217 124.704 402.874 122.86 397.573 123.661L393.799 124.232C392.985 124.355 392.18 123.955 391.737 123.207L376.559 97.5824C375.622 96.0015 373.417 96.261 372.808 98.0238L361.863 129.693C361.424 130.963 360.068 131.545 358.949 130.945L339.364 120.453C334.752 117.983 329.46 117.428 324.486 118.893L297.058 126.972C296.427 127.158 295.753 127.017 295.233 126.59L279.635 113.781C273.315 108.592 264.826 107.696 257.676 111.464L248.682 116.203C248.161 116.478 247.559 116.509 247.018 116.289L218.241 104.611C214.178 102.962 209.74 102.713 205.534 103.898L192.498 107.57C188.764 108.622 184.8 107.504 182.024 104.616C178.105 100.539 172.025 100.146 167.666 103.69L159.654 110.204C155.472 113.604 149.684 113.438 145.694 109.802L144.377 108.602C141.492 105.974 137.377 105.632 134.142 107.75C131.174 109.695 127.434 109.58 124.584 107.456L120.682 104.549C117.871 102.456 114.518 101.382 111.103 101.482L52.7604 103.197C49.7163 103.287 46.6922 102.661 43.8963 101.364L20.118 90.3341C18.517 89.5915 18.3986 87.1835 19.9172 86.2514L43.7631 71.6144Z" fill="#D1E6F7"/>
<path d="M35.3103 76.8027C43.1398 71.9969 53.8662 68.4934 65.8504 66.8275L107.34 61.0602C117.279 59.6786 127.658 59.6206 137.369 60.883C138.655 61.0503 139.952 61.1197 141.247 61.0537L185.181 58.8142C186.476 58.7482 187.754 58.8304 189.049 58.8935C202.641 59.5566 240.653 51.3467 251.717 49.4217L340.346 26.824C351.979 24.8 381.101 27.6109 388.139 32.266C394.982 36.792 465.247 44.6001 476.665 42.8097C466.17 41.3916 487.319 41.1392 476.665 42.8097L562.688 42.3353L617.368 54.5586C609.388 56.4301 626.053 54.5684 617.368 54.5586C609.866 54.7791 624.253 52.9439 617.368 54.5586L653.114 49.566C669.149 49.0947 687.728 49.9192 698.553 55.4048L705.526 58.9382C710.599 61.5089 714.512 64.573 717.036 67.9503L738.933 97.2533C740.914 99.9034 734.115 102.245 729.79 100.402L698.684 87.1503C685.348 81.469 665.823 80.4946 649.412 84.6915C639.638 87.1908 628.499 87.9097 618.09 86.7129L549.986 78.8827C535.331 77.1978 519.602 78.5079 506.383 82.5143L427.246 106.501C424.41 107.36 420.786 106.904 419.362 105.508L409.086 95.4333C395.974 82.5774 363.861 77.5121 336.164 83.931L276.918 97.6612C263.338 100.808 248.023 101.297 234.264 99.0211L187.86 91.3464C178.002 89.7161 167.261 89.4921 156.866 90.7L77.5121 99.92C59.142 102.054 40.2401 99.6683 27.0498 93.5495L19.8181 90.195C17.7732 89.2464 17.6193 87.6617 19.4621 86.5305L35.3103 76.8027Z" fill="white"/>
</g>
<defs>
<filter id="filter0_d_44_2241" x="13" y="14.6072" width="736.271" height="537.991" filterUnits="userSpaceOnUse" color-interpolation-filters="sRGB">
<feFlood flood-opacity="0" result="BackgroundImageFix"/>
<feColorMatrix in="SourceAlpha" type="matrix" values="0 0 0 0 0 0 0 0 0 0 0 0 0 0 0 0 0 0 127 0" result="hardAlpha"/>
<feOffset dy="4"/>
<feGaussianBlur stdDeviation="2"/>
<feComposite in2="hardAlpha" operator="out"/>
<feColorMatrix type="matrix" values="0 0 0 0 0 0 0 0 0 0 0 0 0 0 0 0 0 0 0.25 0"/>
<feBlend mode="normal" in2="BackgroundImageFix" result="effect1_dropShadow_44_2241"/>
<feBlend mode="normal" in="SourceGraphic" in2="effect1_dropShadow_44_2241" result="shape"/>
</filter>
</defs>
</svg>
