<svg width="744" height="434" viewBox="0 0 744 434" fill="none" xmlns="http://www.w3.org/2000/svg">
<path d="M25.502 87.7105C25.73 76.5542 34.6433 67.5243 45.7957 67.1513L698.341 45.3266C710.586 44.9171 720.58 55.0334 720.021 67.2723L706.641 360.434C706.159 371.014 697.873 379.579 687.314 380.411L41.563 431.343C29.1818 432.319 18.6625 422.396 18.9162 409.979L25.502 87.7105Z" fill="#AFB7F7"/>
<path d="M41.7631 57.6144C44.1504 56.1491 46.7775 55.2008 49.4972 54.8228L118.795 45.19C120.646 44.9327 122.519 44.9423 124.366 45.2185L180.446 53.6056C182.514 53.915 184.615 53.8898 186.678 53.5307L252.586 42.0633C257.547 41.2001 262.625 42.2814 266.905 45.1125L276.991 51.7835C281.176 54.5512 286.125 55.6485 290.987 54.8862L372.004 42.1823C373.872 41.8894 375.767 41.8691 377.639 42.122L460.548 53.3254L553.25 53.4301C554.258 53.4312 555.264 53.3542 556.262 53.1996L636.563 40.7573L670.34 39.7645C672.058 39.714 673.775 39.891 675.452 40.2916L703.884 47.083C708.624 48.215 712.852 51.0845 715.855 55.2064L737.045 84.2921C738.182 85.8526 737.054 88.1361 735.221 87.9842L717.545 86.5192C717.095 86.4819 716.645 86.6022 716.262 86.8625L705.235 94.3502C704.841 94.618 704.539 95.0193 704.376 95.4916L693.318 127.643C692.862 128.968 691.415 129.534 690.286 128.83L636.739 95.453C628.706 90.4456 618.577 91.7228 611.792 98.5989L608.607 101.826C608.245 102.194 607.775 102.411 607.28 102.441L576.542 104.301C574.089 104.449 571.678 105.06 569.417 106.107L547.483 116.257C545.231 117.299 543.163 118.756 541.37 120.565L523.392 138.706L512.355 147.954C510.137 149.812 507.601 151.174 504.894 151.961L485.765 157.523C485.208 157.685 484.615 157.593 484.124 157.27L475.732 151.747L441.177 122.679C440.838 122.394 440.426 122.228 439.997 122.203L434.258 121.875C428.265 121.532 422.415 123.971 418.172 128.579L414.396 132.679C414.029 133.079 413.538 133.317 413.019 133.349L394.811 134.47C385.8 135.024 378.097 141.724 375.652 151.135L373.198 160.578C372.759 162.268 370.797 162.818 369.662 161.568L340.118 129.036C333.87 122.156 324.286 120.293 316.189 124.382L294.683 135.246C294.074 135.553 293.369 135.53 292.781 135.182L280.274 127.793C274.675 124.484 267.984 124.105 262.081 126.763L251.942 131.329C243.352 135.196 233.568 130.263 230.799 120.668C228.352 112.186 220.307 107.162 212.284 109.106L200.099 112.058L178.003 116.165C177.576 116.244 177.18 116.465 176.872 116.796L142.034 154.191C141.809 154.433 141.427 154.33 141.334 154.002L127.836 106.417C124.969 96.3074 114.816 90.9298 105.66 94.67C101.44 96.3939 96.7644 96.232 92.6645 94.2201L87.8381 91.8517C86.2047 91.0501 84.4828 90.478 82.7143 90.1491L54.2196 84.8504L19.4185 75.8669C17.5578 75.3865 17.21 72.6855 18.8771 71.6622L41.7631 57.6144Z" fill="#98C4E7"/>
<path d="M41.7631 57.6144C44.1504 56.1491 46.7774 55.2008 49.4971 54.8228L118.795 45.1899C120.646 44.9327 122.519 44.9423 124.366 45.2185L180.446 53.6056C182.514 53.915 184.615 53.8898 186.678 53.5307L252.586 42.0633C257.547 41.2001 262.625 42.2814 266.905 45.1124L276.991 51.7835C281.176 54.5512 286.125 55.6485 290.987 54.8862L372.004 42.1823C373.872 41.8894 375.767 41.8691 377.639 42.122L460.547 53.3254L553.137 53.43C554.219 53.4312 555.301 53.3421 556.371 53.1636L629.516 40.9645L666.097 39.8892C667.639 39.8439 669.18 39.9818 670.693 40.3004L703.698 47.2509C708.552 48.2731 712.915 51.1119 716.022 55.2703L741.431 89.2722C742.614 90.856 741.426 93.2023 739.554 92.9792L724.177 91.1482C723.688 91.0899 723.195 91.068 722.703 91.0825L711.145 91.4222C704.513 91.6171 698.343 95.1796 694.491 101.038L683.365 117.96C682.566 119.175 680.925 119.253 680.037 118.118L668.032 102.769C666.946 101.381 665.71 100.139 664.351 99.0701L648.556 86.6454C643.487 82.6583 637.035 81.3269 630.953 83.0131L611.276 88.4678C605.631 90.0327 600.829 94.0532 598.007 99.576L569.423 155.53C568.682 156.982 566.806 157.126 565.89 155.802L541.436 120.456C540.997 119.822 540.286 119.481 539.556 119.555L507.052 122.844C506.624 122.887 506.218 123.071 505.889 123.37L503.282 125.74C495.727 132.609 484.798 132.911 476.964 126.468L458.694 111.443C458.184 111.024 457.526 110.879 456.904 111.049L442.658 114.947C440.857 115.439 439.005 115.673 437.149 115.641L411.282 115.194C410.842 115.186 410.421 115.001 410.101 114.674C406.217 110.704 400.874 108.86 395.573 109.661L391.799 110.232C390.985 110.355 390.18 109.955 389.737 109.207L374.559 83.5824C373.622 82.0015 371.417 82.261 370.808 84.0238L359.863 115.693C359.424 116.963 358.068 117.545 356.949 116.945L337.364 106.453C332.752 103.983 327.46 103.428 322.486 104.893L295.058 112.972C294.427 113.158 293.753 113.017 293.233 112.59L277.635 99.7815C271.315 94.5917 262.826 93.6958 255.676 97.4639L246.682 102.203C246.161 102.478 245.559 102.509 245.018 102.289L216.241 90.6108C212.178 88.9619 207.74 88.7129 203.534 89.8978L190.498 93.5703C186.764 94.622 182.8 93.5037 180.024 90.6161C176.105 86.5385 170.025 86.1465 165.666 89.6903L157.654 96.2042C153.472 99.6044 147.684 99.4377 143.694 95.802L142.377 94.6022C139.492 91.9742 135.377 91.6316 132.142 93.7504C129.174 95.6948 125.434 95.5797 122.584 93.4562L118.682 90.5491C115.871 88.4556 112.518 87.3819 109.103 87.4822L50.7604 89.1971C47.7163 89.2866 44.6922 88.6613 41.8963 87.3643L18.118 76.3341C16.517 75.5915 16.3986 73.1835 17.9172 72.2514L41.7631 57.6144Z" fill="#D1E6F7"/>
<path d="M33.3103 62.8027C41.1398 57.9969 51.8662 54.4934 63.8504 52.8275L105.34 47.0602C115.279 45.6786 125.658 45.6206 135.369 46.883C136.655 47.0503 137.952 47.1197 139.247 47.0537L183.181 44.8142C184.476 44.7482 185.754 44.8304 187.049 44.8935C200.641 45.5566 238.653 37.3467 249.717 35.4217L338.346 12.824C349.979 10.8 379.101 13.6109 386.139 18.266C392.982 22.792 463.247 30.6001 474.665 28.8097C464.17 27.3916 485.319 27.1392 474.665 28.8097L560.688 28.3353L615.368 40.5586C607.388 42.4301 624.053 40.5684 615.368 40.5586C607.866 40.7791 622.253 38.9439 615.368 40.5586L651.114 35.566C667.149 35.0947 685.728 35.9192 696.553 41.4048L703.526 44.9382C708.599 47.5089 712.512 50.573 715.036 53.9503L736.933 83.2533C738.914 85.9034 732.115 88.2446 727.79 86.402L696.684 73.1503C683.348 67.469 663.823 66.4946 647.412 70.6915C637.638 73.1908 626.499 73.9097 616.09 72.7129L547.986 64.8827C533.331 63.1978 517.602 64.5079 504.383 68.5143L425.246 92.5006C422.41 93.3604 418.786 92.9043 417.362 91.5081L407.086 81.4333C393.974 68.5774 361.861 63.5121 334.164 69.931L274.918 83.6612C261.338 86.8084 246.023 87.2967 232.264 85.0211L185.86 77.3464C176.002 75.7161 165.261 75.4921 154.866 76.7L75.5121 85.92C57.142 88.0545 38.2401 85.6683 25.0498 79.5495L17.8181 76.195C15.7732 75.2464 15.6193 73.6617 17.4621 72.5305L33.3103 62.8027Z" fill="white"/>
</svg>
