<svg width="436" height="813" viewBox="0 0 436 813" fill="none" xmlns="http://www.w3.org/2000/svg">
<path d="M10.2891 0.162247H421.853V730.687H10.2891V0.162247Z" fill="#6D81BD"/>
<path fill-rule="evenodd" clip-rule="evenodd" d="M257.442 567.841C256.681 567.954 256.081 567.202 256.361 566.486L265.888 542.157C266.204 541.35 267.329 541.302 267.715 542.079L279.348 565.506C279.691 566.195 279.159 566.996 278.391 566.947L277.187 566.871C276.381 566.82 275.852 567.696 276.27 568.387L282.632 578.882C283.046 579.565 282.533 580.433 281.736 580.398L279.81 580.316C279.008 580.281 278.496 581.157 278.919 581.84L287.318 595.406C287.737 596.082 287.239 596.951 286.444 596.931L274.372 596.626C273.793 596.611 273.324 597.09 273.349 597.668L274.071 614.013C274.095 614.565 273.667 615.031 273.116 615.055L266.935 615.318C266.383 615.342 265.916 614.913 265.892 614.362L265.171 598.017C265.145 597.439 264.635 597.002 264.06 597.066L252.06 598.397C251.271 598.485 250.698 597.661 251.055 596.952L258.228 582.722C258.589 582.006 258.001 581.177 257.206 581.279L255.295 581.526C254.503 581.628 253.916 580.807 254.268 580.091L259.682 569.094C260.038 568.37 259.433 567.543 258.635 567.662L257.442 567.841Z" fill="#BBC2FF"/>
<path d="M257.63 583.903L250.224 598.601L257.212 597.826L261.535 583.441L257.63 583.903Z" fill="#E2DBFF"/>
<path d="M258.963 570.381L253.444 581.764L259.077 581.038L262.23 569.898L258.963 570.381Z" fill="#E2DBFF"/>
<path d="M266.71 540.056L255.731 568.096L259.825 567.485L266.71 540.056Z" fill="#E2DBFF"/>
<path fill-rule="evenodd" clip-rule="evenodd" d="M197.363 605.281C196.606 605.417 195.984 604.683 196.242 603.959L202.974 585.129C203.266 584.313 204.388 584.231 204.798 584.997L214.233 602.653C214.596 603.332 214.089 604.148 213.319 604.122L213.1 604.115C212.293 604.088 211.79 604.979 212.229 605.657L217.125 613.214C217.559 613.885 217.072 614.767 216.274 614.757L215.504 614.747C214.701 614.736 214.215 615.627 214.658 616.297L221.248 626.262C221.686 626.925 221.214 627.809 220.42 627.812L211.396 627.854C210.817 627.857 210.362 628.349 210.405 628.926L211.337 641.5C211.378 642.051 210.964 642.53 210.414 642.57L205.906 642.897C205.355 642.937 204.876 642.523 204.835 641.972L203.903 629.399C203.86 628.821 203.337 628.4 202.764 628.481L193.831 629.743C193.045 629.854 192.448 629.048 192.784 628.329L197.834 617.519C198.173 616.792 197.561 615.981 196.769 616.107L196.008 616.229C195.22 616.354 194.608 615.551 194.939 614.825L198.668 606.642C199.002 605.908 198.373 605.099 197.579 605.242L197.363 605.281Z" fill="#C4C3FE"/>
<path fill-rule="evenodd" clip-rule="evenodd" d="M195.66 605.587L203.733 583.005L202.149 604.419L195.66 605.587ZM198.287 607.33L194.165 616.522L203.099 615.098L203.465 606.404L198.287 607.33ZM197.548 618.125L192.002 630.002L203.091 628.436L203.743 617.204L197.548 618.125Z" fill="#E9DBFF"/>
<path d="M197.548 618.125L192.002 630.002L197.547 629.219L200.646 617.665L197.548 618.125Z" fill="#E9DBFF"/>
<path d="M198.287 607.33L194.165 616.522L198.632 615.81L200.876 606.867L198.287 607.33Z" fill="#E9DBFF"/>
<path d="M203.733 583.005L195.66 605.587L198.905 605.003L203.733 583.005Z" fill="#E9DBFF"/>
<path fill-rule="evenodd" clip-rule="evenodd" d="M77.8486 592.758C78.2571 592.914 78.6804 592.569 78.6108 592.137L77.08 582.645C76.9418 581.789 75.8533 581.502 75.3117 582.18L69.3102 589.688C69.0374 590.029 69.2362 590.538 69.6681 590.604V590.604C70.1213 590.674 70.31 591.224 69.9947 591.556L66.8633 594.861C66.5089 595.235 66.714 595.854 67.2217 595.942V595.942C67.7322 596.03 67.9358 596.654 67.5759 597.027L63.8744 600.86C63.3226 601.431 63.6254 602.387 64.4055 602.537L67.8215 603.192C68.3901 603.302 68.7477 603.869 68.6004 604.429L67.1273 610.031C66.9869 610.565 67.306 611.112 67.84 611.252L69.2832 611.633C69.8173 611.773 70.3641 611.454 70.5046 610.92L71.9777 605.318C72.1249 604.759 72.7154 604.44 73.264 604.625L76.5601 605.737C77.3128 605.991 78.0466 605.308 77.8474 604.539L76.5108 599.379C76.3808 598.878 76.8648 598.435 77.3527 598.609V598.609C77.838 598.783 78.3207 598.346 78.1962 597.845L77.096 593.426C76.9852 592.981 77.42 592.595 77.8486 592.758V592.758Z" fill="#CCCDFF"/>
<path d="M76.55 599.526L78.3107 606.328L75.4682 605.369L74.964 598.978L76.55 599.526Z" fill="#E9E6FF"/>
<path d="M77.2142 593.766L78.4873 599.015L76.2051 598.199L75.8962 593.268L77.2142 593.766Z" fill="#E9E6FF"/>
<path d="M76.7206 580.417L78.7673 593.107L77.1162 592.48L76.7206 580.417Z" fill="#E9E6FF"/>
<path fill-rule="evenodd" clip-rule="evenodd" d="M53.1842 578.05C53.7215 578.173 54.1914 577.669 54.0303 577.142L50.3149 564.985C50.0614 564.156 48.9437 564.022 48.4993 564.768L41.9839 575.699C41.7015 576.173 42.0374 576.774 42.5887 576.781V576.781C43.1671 576.789 43.4974 577.443 43.1604 577.914L39.8133 582.587C39.4345 583.116 39.7971 583.853 40.4469 583.874V583.874C41.1002 583.896 41.4618 584.64 41.076 585.168L36.8215 590.991C36.3526 591.633 36.7827 592.538 37.5762 592.578L42.7209 592.843C43.2992 592.873 43.7307 593.386 43.661 593.96L42.7161 601.752C42.6496 602.3 43.0402 602.798 43.5886 602.864L45.9771 603.15C46.5255 603.215 47.0239 602.824 47.0904 602.276L48.0354 594.484C48.1051 593.909 48.6469 593.513 49.2157 593.621L54.2763 594.579C55.0568 594.726 55.6909 593.949 55.3889 593.215L52.6484 586.554C52.3999 585.95 52.9289 585.313 53.5688 585.446V585.446C54.2052 585.578 54.7335 584.948 54.492 584.345L52.358 579.015C52.1432 578.479 52.6205 577.921 53.1842 578.05V578.05Z" fill="#CCCDFF"/>
<path d="M52.7227 586.73L56.0913 594.922L52.3736 594.219L50.6461 586.322L52.7227 586.73Z" fill="#E9E6FF"/>
<path d="M52.5642 579.42L55.0566 585.755L52.0639 585.133L50.8311 579.026L52.5642 579.42Z" fill="#E9E6FF"/>
<path d="M49.6555 562.828L54.3925 578.327L52.2209 577.83L49.6555 562.828Z" fill="#E9E6FF"/>
<g filter="url(#filter0_i_35_1832)">
<path d="M56.488 599.767L7.44987 603.838V730.768H223.112L218.326 679.542L196.794 674.593L181.889 664.568L157.75 662.59L135.37 643.821L105.287 633.435L56.488 599.767Z" fill="url(#paint0_linear_35_1832)"/>
</g>
<g filter="url(#filter1_i_35_1832)">
<path d="M344.979 557.059L436 565.013V813L10.2891 806.896V757.453L68.017 738.179L113.91 695.507L180.742 646.863L276.725 607.2L344.979 557.059Z" fill="url(#paint1_linear_35_1832)"/>
</g>
<defs>
<filter id="filter0_i_35_1832" x="7.44987" y="599.767" width="219.663" height="135.001" filterUnits="userSpaceOnUse" color-interpolation-filters="sRGB">
<feFlood flood-opacity="0" result="BackgroundImageFix"/>
<feBlend mode="normal" in="SourceGraphic" in2="BackgroundImageFix" result="shape"/>
<feColorMatrix in="SourceAlpha" type="matrix" values="0 0 0 0 0 0 0 0 0 0 0 0 0 0 0 0 0 0 127 0" result="hardAlpha"/>
<feOffset dx="5" dy="8"/>
<feGaussianBlur stdDeviation="2"/>
<feComposite in2="hardAlpha" operator="arithmetic" k2="-1" k3="1"/>
<feColorMatrix type="matrix" values="0 0 0 0 1 0 0 0 0 0.941667 0 0 0 0 0.941667 0 0 0 0.25 0"/>
<feBlend mode="normal" in2="shape" result="effect1_innerShadow_35_1832"/>
</filter>
<filter id="filter1_i_35_1832" x="10.2891" y="557.059" width="425.711" height="259.941" filterUnits="userSpaceOnUse" color-interpolation-filters="sRGB">
<feFlood flood-opacity="0" result="BackgroundImageFix"/>
<feBlend mode="normal" in="SourceGraphic" in2="BackgroundImageFix" result="shape"/>
<feColorMatrix in="SourceAlpha" type="matrix" values="0 0 0 0 0 0 0 0 0 0 0 0 0 0 0 0 0 0 127 0" result="hardAlpha"/>
<feOffset dy="9"/>
<feGaussianBlur stdDeviation="2"/>
<feComposite in2="hardAlpha" operator="arithmetic" k2="-1" k3="1"/>
<feColorMatrix type="matrix" values="0 0 0 0 0.825 0 0 0 0 0.8635 0 0 0 0 1 0 0 0 0.67 0"/>
<feBlend mode="normal" in2="shape" result="effect1_innerShadow_35_1832"/>
</filter>
<linearGradient id="paint0_linear_35_1832" x1="88.4081" y1="611.164" x2="77.9277" y2="658.138" gradientUnits="userSpaceOnUse">
<stop stop-color="#D1CAFF"/>
<stop offset="1" stop-color="#849FEE"/>
</linearGradient>
<linearGradient id="paint1_linear_35_1832" x1="168.384" y1="643.978" x2="-32.3476" y2="722.661" gradientUnits="userSpaceOnUse">
<stop stop-color="#D1CAFF"/>
<stop offset="1" stop-color="#849FEE"/>
</linearGradient>
</defs>
</svg>
