<svg width="69" height="98" viewBox="0 0 69 98" fill="none" xmlns="http://www.w3.org/2000/svg">
<g filter="url(#filter0_bd_33_1155)">
<ellipse cx="34.1139" cy="59.927" rx="30.1139" ry="30.0235" fill="white" fill-opacity="0.1" shape-rendering="crispEdges"/>
<path d="M63.7277 59.927C63.7277 76.2309 50.4706 89.4505 34.1139 89.4505C17.7572 89.4505 4.5 76.2309 4.5 59.927C4.5 43.623 17.7572 30.4034 34.1139 30.4034C50.4706 30.4034 63.7277 43.623 63.7277 59.927Z" stroke="white" shape-rendering="crispEdges"/>
</g>
<mask id="mask0_33_1155" style="mask-type:alpha" maskUnits="userSpaceOnUse" x="4" y="29" width="61" height="61">
<ellipse cx="34.1139" cy="59.927" rx="30.1139" ry="30.0235" fill="#C4C4C4"/>
</mask>
<g mask="url(#mask0_33_1155)">
<ellipse rx="0.402918" ry="0.401767" transform="matrix(0.999728 -0.0233401 0.0236154 0.999721 37.6069 40.6966)" fill="white"/>
<ellipse rx="0.402918" ry="0.401767" transform="matrix(0.999728 -0.0233401 0.0236154 0.999721 55.7743 50.5185)" fill="white"/>
<ellipse rx="0.402918" ry="0.401767" transform="matrix(0.999728 -0.0233401 0.0236154 0.999721 39.1646 72.6073)" fill="white"/>
<ellipse rx="0.402918" ry="0.401767" transform="matrix(0.999728 -0.0233401 0.0236154 0.999721 52.027 71.1005)" fill="white"/>
<ellipse rx="0.402918" ry="0.401767" transform="matrix(0.999728 -0.0233401 0.0236154 0.999721 9.52182 46.1764)" fill="white"/>
<ellipse rx="0.402918" ry="0.401767" transform="matrix(0.999728 -0.0233401 0.0236154 0.999721 43.6325 48.3917)" fill="white"/>
<ellipse rx="0.402918" ry="0.401767" transform="matrix(0.999728 -0.0233401 0.0236154 0.999721 27.8935 47.5546)" fill="white"/>
<ellipse rx="0.402918" ry="0.401767" transform="matrix(0.999728 -0.0233401 0.0236154 0.999721 47.4708 57.3434)" fill="white"/>
<ellipse rx="0.402918" ry="0.401767" transform="matrix(0.999728 -0.0233401 0.0236154 0.999721 29.437 78.8627)" fill="white"/>
<ellipse rx="0.402918" ry="0.401767" transform="matrix(0.999728 -0.0233401 0.0236154 0.999721 42.7164 77.9491)" fill="white"/>
<ellipse rx="0.402918" ry="0.401767" transform="matrix(0.999728 -0.0233401 0.0236154 0.999721 33.3432 56.4686)" fill="white"/>
<ellipse rx="0.402918" ry="0.401767" transform="matrix(0.999728 -0.0233401 0.0236154 0.999721 56.455 36.6387)" fill="white"/>
<ellipse rx="0.402918" ry="0.401767" transform="matrix(0.999728 -0.0233401 0.0236154 0.999721 64.2508 42.4839)" fill="white"/>
<ellipse rx="0.402918" ry="0.401767" transform="matrix(0.999728 -0.0233401 0.0236154 0.999721 5.22385 34.8243)" fill="white"/>
<ellipse rx="0.402918" ry="0.401767" transform="matrix(0.999728 -0.0233401 0.0236154 0.999721 7.09929 63.1108)" fill="white"/>
<ellipse rx="0.402918" ry="0.401767" transform="matrix(0.999728 -0.0233401 0.0236154 0.999721 13.7319 62.3528)" fill="white"/>
<ellipse rx="0.402918" ry="0.401767" transform="matrix(0.999728 -0.0233401 0.0236154 0.999721 29.5529 32.4465)" fill="white"/>
<ellipse rx="0.402918" ry="0.401767" transform="matrix(0.999728 -0.0233401 0.0236154 0.999721 49.2809 65.7398)" fill="white"/>
<ellipse rx="0.402918" ry="0.401767" transform="matrix(0.999728 -0.0233401 0.0236154 0.999721 35.0227 67.8819)" fill="white"/>
<ellipse rx="0.402918" ry="0.401767" transform="matrix(0.999728 -0.0233401 0.0236154 0.999721 61.0935 62.4494)" fill="white"/>
<ellipse rx="0.402918" ry="0.401767" transform="matrix(0.999728 -0.0233401 0.0236154 0.999721 8.84114 60.0563)" fill="white"/>
<ellipse rx="0.402918" ry="0.401767" transform="matrix(0.999728 -0.0233401 0.0236154 0.999721 18.5321 77.9124)" fill="white"/>
<ellipse rx="0.402918" ry="0.401767" transform="matrix(0.999728 -0.0233401 0.0236154 0.999721 40.0326 58.1203)" fill="white"/>
<ellipse rx="0.402918" ry="0.401767" transform="matrix(0.999728 -0.0233401 0.0236154 0.999721 31.9561 74.5843)" fill="white"/>
<ellipse rx="0.402918" ry="0.401767" transform="matrix(0.999728 -0.0233401 0.0236154 0.999721 22.2427 81.4422)" fill="white"/>
<ellipse rx="0.402918" ry="0.401767" transform="matrix(0.999728 -0.0233401 0.0236154 0.999721 25.1052 83.1836)" fill="white"/>
<ellipse rx="0.402918" ry="0.401767" transform="matrix(0.999728 -0.0233401 0.0236154 0.999721 50.8725 81.9775)" fill="white"/>
<ellipse rx="0.402918" ry="0.401767" transform="matrix(0.999728 -0.0233401 0.0236154 0.999721 58.4124 34.1817)" fill="white"/>
<ellipse rx="0.402918" ry="0.401767" transform="matrix(0.999728 -0.0233401 0.0236154 0.999721 20.2423 39.2949)" fill="white"/>
<ellipse rx="0.402918" ry="0.401767" transform="matrix(0.999728 -0.0233401 0.0236154 0.999721 4.8553 61.9578)" fill="white"/>
<ellipse rx="0.402918" ry="0.401767" transform="matrix(0.999728 -0.0233401 0.0236154 0.999721 17.1276 61.0677)" fill="white"/>
<ellipse rx="0.402918" ry="0.401767" transform="matrix(0.999728 -0.0233401 0.0236154 0.999721 7.49623 37.1823)" fill="white"/>
<ellipse rx="0.402918" ry="0.401767" transform="matrix(0.999728 -0.0233401 0.0236154 0.999721 15.275 50.8639)" fill="white"/>
<ellipse rx="0.402918" ry="0.401767" transform="matrix(0.999728 -0.0233401 0.0236154 0.999721 42.9829 55.0375)" fill="white"/>
<ellipse rx="0.402918" ry="0.401767" transform="matrix(0.999728 -0.0233401 0.0236154 0.999721 46.5745 70.6254)" fill="white"/>
<ellipse rx="0.402918" ry="0.401767" transform="matrix(0.999728 -0.0233401 0.0236154 0.999721 59.4905 37.1704)" fill="white"/>
<ellipse rx="0.402918" ry="0.401767" transform="matrix(0.999728 -0.0233401 0.0236154 0.999721 52.1516 42.1645)" fill="white"/>
<ellipse rx="0.402918" ry="0.401767" transform="matrix(0.999728 -0.0233401 0.0236154 0.999721 36.0495 51.583)" fill="white"/>
<ellipse rx="0.402918" ry="0.401767" transform="matrix(0.999728 -0.0233401 0.0236154 0.999721 61.7486 38.9259)" fill="white"/>
<ellipse rx="0.402918" ry="0.401767" transform="matrix(0.999728 -0.0233401 0.0236154 0.999721 63.278 69.6315)" fill="white"/>
<ellipse rx="0.402918" ry="0.401767" transform="matrix(0.999728 -0.0233401 0.0236154 0.999721 32.0523 44.4433)" fill="white"/>
<ellipse rx="0.402918" ry="0.401767" transform="matrix(0.999728 -0.0233401 0.0236154 0.999721 10.3019 36.5138)" fill="white"/>
<ellipse rx="0.402918" ry="0.401767" transform="matrix(0.999728 -0.0233401 0.0236154 0.999721 19.0539 65.8448)" fill="white"/>
<ellipse rx="0.402918" ry="0.401767" transform="matrix(0.999728 -0.0233401 0.0236154 0.999721 44.2848 33.307)" fill="white"/>
<ellipse rx="0.100751" ry="0.100463" transform="matrix(0.999728 -0.0233401 0.0236154 0.999721 52.6622 42.4539)" fill="white"/>
<ellipse rx="0.100751" ry="0.100463" transform="matrix(0.999728 -0.0233401 0.0236154 0.999721 36.9914 53.068)" fill="white"/>
<ellipse rx="0.100751" ry="0.100463" transform="matrix(0.999728 -0.0233401 0.0236154 0.999721 63.3373 42.204)" fill="white"/>
<ellipse rx="0.100751" ry="0.100463" transform="matrix(0.999728 -0.0233401 0.0236154 0.999721 11.4168 36.7891)" fill="white"/>
<ellipse rx="0.100751" ry="0.100463" transform="matrix(0.999728 -0.0233401 0.0236154 0.999721 20.1972 67.325)" fill="white"/>
<ellipse rx="0.100751" ry="0.100463" transform="matrix(0.999728 -0.0233401 0.0236154 0.999721 44.9969 33.5918)" fill="white"/>
<ellipse rx="0.100751" ry="0.100463" transform="matrix(0.999728 -0.0233401 0.0236154 0.999721 54.3587 46.0308)" fill="white"/>
<ellipse rx="0.100751" ry="0.100463" transform="matrix(0.999728 -0.0233401 0.0236154 0.999721 50.7872 56.9644)" fill="white"/>
<ellipse rx="0.100751" ry="0.100463" transform="matrix(0.999728 -0.0233401 0.0236154 0.999721 16.0494 36.6806)" fill="white"/>
<ellipse rx="0.100751" ry="0.100463" transform="matrix(0.999728 -0.0233401 0.0236154 0.999721 10.9119 41.0203)" fill="white"/>
<ellipse rx="0.100751" ry="0.100463" transform="matrix(0.999728 -0.0233401 0.0236154 0.999721 30.3075 34.5385)" fill="white"/>
<ellipse rx="0.100751" ry="0.100463" transform="matrix(0.999728 -0.0233401 0.0236154 0.999721 22.79 57.6199)" fill="white"/>
<ellipse rx="0.100751" ry="0.100463" transform="matrix(0.999728 -0.0233401 0.0236154 0.999721 25.4483 67.8047)" fill="white"/>
<ellipse rx="0.100751" ry="0.100463" transform="matrix(0.999728 -0.0233401 0.0236154 0.999721 52.9089 35.8176)" fill="white"/>
<ellipse rx="0.100751" ry="0.100463" transform="matrix(0.999728 -0.0233401 0.0236154 0.999721 33.7289 42.8972)" fill="white"/>
<ellipse rx="0.100751" ry="0.100463" transform="matrix(0.999728 -0.0233401 0.0236154 0.999721 27.0281 32.2041)" fill="white"/>
<ellipse rx="0.100751" ry="0.100463" transform="matrix(0.999728 -0.0233401 0.0236154 0.999721 11.766 68.7278)" fill="white"/>
<ellipse rx="0.100751" ry="0.100463" transform="matrix(0.999728 -0.0233401 0.0236154 0.999721 21.1078 54.6454)" fill="white"/>
<ellipse rx="0.100751" ry="0.100463" transform="matrix(0.999728 -0.0233401 0.0236154 0.999721 36.8381 38.0023)" fill="white"/>
<ellipse rx="0.100751" ry="0.100463" transform="matrix(0.999728 -0.0233401 0.0236154 0.999721 45.065 45.0428)" fill="white"/>
<ellipse rx="0.100751" ry="0.100463" transform="matrix(0.999728 -0.0233401 0.0236154 0.999721 53.8625 67.7423)" fill="white"/>
<ellipse rx="0.100751" ry="0.100463" transform="matrix(0.999728 -0.0233401 0.0236154 0.999721 60.583 62.16)" fill="white"/>
<ellipse rx="0.100751" ry="0.100463" transform="matrix(0.999728 -0.0233401 0.0236154 0.999721 57.9389 52.5775)" fill="white"/>
<ellipse rx="0.100751" ry="0.100463" transform="matrix(0.999728 -0.0233401 0.0236154 0.999721 54.2397 58.0892)" fill="white"/>
<ellipse rx="0.100751" ry="0.100463" transform="matrix(0.999728 -0.0233401 0.0236154 0.999721 12.7306 66.897)" fill="white"/>
<ellipse rx="0.100751" ry="0.100463" transform="matrix(0.999728 -0.0233401 0.0236154 0.999721 22.8496 51.5908)" fill="white"/>
<ellipse rx="0.100751" ry="0.100463" transform="matrix(0.999728 -0.0233401 0.0236154 0.999721 38.7671 34.3405)" fill="white"/>
<ellipse rx="0.100751" ry="0.100463" transform="matrix(0.999728 -0.0233401 0.0236154 0.999721 46.4183 42.6002)" fill="white"/>
<ellipse rx="0.100751" ry="0.100463" transform="matrix(0.999728 -0.0233401 0.0236154 0.999721 55.0284 65.9067)" fill="white"/>
<ellipse rx="0.100751" ry="0.100463" transform="matrix(0.999728 -0.0233401 0.0236154 0.999721 22.1771 40.1539)" fill="white"/>
<ellipse rx="0.100751" ry="0.100463" transform="matrix(0.999728 -0.0233401 0.0236154 0.999721 35.38 53.1057)" fill="white"/>
<ellipse rx="0.100751" ry="0.100463" transform="matrix(0.999728 -0.0233401 0.0236154 0.999721 59.4765 57.9664)" fill="white"/>
<ellipse rx="0.100751" ry="0.100463" transform="matrix(0.999728 -0.0233401 0.0236154 0.999721 41.1415 32.4765)" fill="white"/>
<ellipse rx="0.100751" ry="0.100463" transform="matrix(0.999728 -0.0233401 0.0236154 0.999721 51.3177 62.377)" fill="white"/>
<ellipse rx="0.100751" ry="0.100463" transform="matrix(0.999728 -0.0233401 0.0236154 0.999721 29.6497 66.5009)" fill="white"/>
<ellipse rx="0.100751" ry="0.100463" transform="matrix(0.999728 -0.0233401 0.0236154 0.999721 22.7987 75.1001)" fill="white"/>
<ellipse rx="0.100751" ry="0.100463" transform="matrix(0.999728 -0.0233401 0.0236154 0.999721 31.2895 67.6681)" fill="white"/>
<ellipse rx="0.100751" ry="0.100463" transform="matrix(0.999728 -0.0233401 0.0236154 0.999721 4.10349 51.4269)" fill="white"/>
<ellipse rx="0.100751" ry="0.100463" transform="matrix(0.999728 -0.0233401 0.0236154 0.999721 14.8839 81.3132)" fill="white"/>
<ellipse rx="0.100751" ry="0.100463" transform="matrix(0.999728 -0.0233401 0.0236154 0.999721 11.7743 43.4113)" fill="white"/>
<ellipse rx="0.100751" ry="0.100463" transform="matrix(0.999728 -0.0233401 0.0236154 0.999721 32.3643 36.2987)" fill="white"/>
<ellipse rx="0.100751" ry="0.100463" transform="matrix(0.999728 -0.0233401 0.0236154 0.999721 15.6012 43.3217)" fill="white"/>
<ellipse rx="0.100751" ry="0.100463" transform="matrix(0.999728 -0.0233401 0.0236154 0.999721 9.70614 32.6097)" fill="white"/>
<ellipse rx="0.100751" ry="0.100463" transform="matrix(0.999728 -0.0233401 0.0236154 0.999721 46.7758 49.2224)" fill="white"/>
<ellipse rx="0.100751" ry="0.100463" transform="matrix(0.999728 -0.0233401 0.0236154 0.999721 61.7205 59.1196)" fill="white"/>
<ellipse rx="0.100751" ry="0.100463" transform="matrix(0.999728 -0.0233401 0.0236154 0.999721 40.844 62.6222)" fill="white"/>
<ellipse rx="0.100751" ry="0.100463" transform="matrix(0.999728 -0.0233401 0.0236154 0.999721 23.8255 58.8011)" fill="white"/>
<ellipse rx="0.100751" ry="0.100463" transform="matrix(0.999728 -0.0233401 0.0236154 0.999721 5.32343 60.44)" fill="white"/>
<ellipse rx="0.100751" ry="0.100463" transform="matrix(0.999728 -0.0233401 0.0236154 0.999721 6.88673 75.4728)" fill="white"/>
<ellipse rx="0.100751" ry="0.100463" transform="matrix(0.999728 -0.0233401 0.0236154 0.999721 26.6852 68.9814)" fill="white"/>
<ellipse rx="0.100751" ry="0.100463" transform="matrix(0.999728 -0.0233401 0.0236154 0.999721 54.7217 35.7751)" fill="white"/>
<ellipse rx="0.100751" ry="0.100463" transform="matrix(0.999728 -0.0233401 0.0236154 0.999721 64.0808 56.6531)" fill="white"/>
<ellipse rx="0.100751" ry="0.100463" transform="matrix(0.999728 -0.0233401 0.0236154 0.999721 57.6921 59.2137)" fill="white"/>
<ellipse rx="0.100751" ry="0.100463" transform="matrix(0.999728 -0.0233401 0.0236154 0.999721 11.9107 66.3135)" fill="white"/>
<ellipse rx="0.100751" ry="0.100463" transform="matrix(0.999728 -0.0233401 0.0236154 0.999721 22.0155 50.4048)" fill="white"/>
<ellipse rx="0.100751" ry="0.100463" transform="matrix(0.999728 -0.0233401 0.0236154 0.999721 36.9402 33.7805)" fill="white"/>
<ellipse rx="0.100751" ry="0.100463" transform="matrix(0.999728 -0.0233401 0.0236154 0.999721 45.397 42.0212)" fill="white"/>
<ellipse rx="0.100751" ry="0.100463" transform="matrix(0.999728 -0.0233401 0.0236154 0.999721 54.2227 65.9255)" fill="white"/>
<ellipse rx="0.100751" ry="0.100463" transform="matrix(0.999728 -0.0233401 0.0236154 0.999721 63.5758 60.8844)" fill="white"/>
<ellipse rx="0.100751" ry="0.100463" transform="matrix(0.999728 -0.0233401 0.0236154 0.999721 58.0693 49.5606)" fill="white"/>
<ellipse rx="0.100751" ry="0.100463" transform="matrix(0.999728 -0.0233401 0.0236154 0.999721 14.7589 67.4524)" fill="white"/>
<ellipse rx="0.100751" ry="0.100463" transform="matrix(0.999728 -0.0233401 0.0236154 0.999721 23.8992 53.3745)" fill="white"/>
<ellipse rx="0.100751" ry="0.100463" transform="matrix(0.999728 -0.0233401 0.0236154 0.999721 40.421 36.11)" fill="white"/>
<ellipse rx="0.100751" ry="0.100463" transform="matrix(0.999728 -0.0233401 0.0236154 0.999721 48.0438 43.1648)" fill="white"/>
<ellipse rx="0.100751" ry="0.100463" transform="matrix(0.999728 -0.0233401 0.0236154 0.999721 56.6681 67.0739)" fill="white"/>
<ellipse rx="0.100751" ry="0.100463" transform="matrix(0.999728 -0.0233401 0.0236154 0.999721 25.6722 43.0859)" fill="white"/>
<ellipse rx="0.100751" ry="0.100463" transform="matrix(0.999728 -0.0233401 0.0236154 0.999721 14.0581 54.8105)" fill="white"/>
<ellipse rx="0.100751" ry="0.100463" transform="matrix(0.999728 -0.0233401 0.0236154 0.999721 36.7447 59.7042)" fill="white"/>
<ellipse rx="0.100751" ry="0.100463" transform="matrix(0.999728 -0.0233401 0.0236154 0.999721 48.4723 52.7991)" fill="white"/>
<ellipse rx="0.100751" ry="0.100463" transform="matrix(0.999728 -0.0233401 0.0236154 0.999721 18.8125 34.2048)" fill="white"/>
<ellipse rx="0.100751" ry="0.100463" transform="matrix(0.999728 -0.0233401 0.0236154 0.999721 27.0029 65.3573)" fill="white"/>
<ellipse rx="0.100751" ry="0.100463" transform="matrix(0.999728 -0.0233401 0.0236154 0.999721 7.72352 68.2198)" fill="white"/>
<ellipse rx="0.100751" ry="0.100463" transform="matrix(0.999728 -0.0233401 0.0236154 0.999721 12.3927 43.9995)" fill="white"/>
<ellipse rx="0.100751" ry="0.100463" transform="matrix(0.999728 -0.0233401 0.0236154 0.999721 33.8168 38.0731)" fill="white"/>
<ellipse rx="0.100751" ry="0.100463" transform="matrix(0.999728 -0.0233401 0.0236154 0.999721 54.6764 42.4069)" fill="white"/>
<ellipse rx="0.100751" ry="0.100463" transform="matrix(0.999728 -0.0233401 0.0236154 0.999721 50.3926 31.6571)" fill="white"/>
<ellipse rx="0.100751" ry="0.100463" transform="matrix(0.999728 -0.0233401 0.0236154 0.999721 25.4652 59.9683)" fill="white"/>
<ellipse rx="0.100751" ry="0.100463" transform="matrix(0.999728 -0.0233401 0.0236154 0.999721 9.35175 60.3456)" fill="white"/>
<ellipse rx="0.100751" ry="0.100463" transform="matrix(0.999728 -0.0233401 0.0236154 0.999721 12.7278 75.3359)" fill="white"/>
<ellipse rx="0.100751" ry="0.100463" transform="matrix(0.999728 -0.0233401 0.0236154 0.999721 27.82 74.3798)" fill="white"/>
<ellipse rx="0.100751" ry="0.100463" transform="matrix(0.999728 -0.0233401 0.0236154 0.999721 58.0296 39.3145)" fill="white"/>
<ellipse rx="0.100751" ry="0.100463" transform="matrix(0.999728 -0.0233401 0.0236154 0.999721 63.9361 59.0676)" fill="white"/>
<ellipse rx="0.100751" ry="0.100463" transform="matrix(0.999728 -0.0233401 0.0236154 0.999721 13.1334 66.8875)" fill="white"/>
<ellipse rx="0.100751" ry="0.100463" transform="matrix(0.999728 -0.0233401 0.0236154 0.999721 23.2666 52.1838)" fill="white"/>
<ellipse rx="0.100751" ry="0.100463" transform="matrix(0.999728 -0.0233401 0.0236154 0.999721 40.004 35.517)" fill="white"/>
<ellipse rx="0.100751" ry="0.100463" transform="matrix(0.999728 -0.0233401 0.0236154 0.999721 47.6267 42.5718)" fill="white"/>
<ellipse rx="0.100751" ry="0.100463" transform="matrix(0.999728 -0.0233401 0.0236154 0.999721 55.6468 66.495)" fill="white"/>
<ellipse rx="0.100751" ry="0.100463" transform="matrix(0.999728 -0.0233401 0.0236154 0.999721 26.7644 46.6769)" fill="white"/>
<ellipse rx="0.100751" ry="0.100463" transform="matrix(0.999728 -0.0233401 0.0236154 0.999721 15.8594 45.7266)" fill="white"/>
<ellipse rx="0.100751" ry="0.100463" transform="matrix(0.999728 -0.0233401 0.0236154 0.999721 36.4778 39.819)" fill="white"/>
<ellipse rx="0.100751" ry="0.100463" transform="matrix(0.999728 -0.0233401 0.0236154 0.999721 26.7021 61.1449)" fill="white"/>
<ellipse rx="0.100751" ry="0.100463" transform="matrix(0.999728 -0.0233401 0.0236154 0.999721 13.647 80.1367)" fill="white"/>
<ellipse rx="0.100751" ry="0.100463" transform="matrix(0.999728 -0.0233401 0.0236154 0.999721 23.9221 71.4572)" fill="white"/>
<ellipse rx="0.100751" ry="0.100463" transform="matrix(0.999728 -0.0233401 0.0236154 0.999721 16.444 61.9879)" fill="white"/>
<ellipse rx="0.100751" ry="0.100463" transform="matrix(0.999728 -0.0233401 0.0236154 0.999721 17.9789 75.8158)" fill="white"/>
<ellipse rx="0.100751" ry="0.100463" transform="matrix(0.999728 -0.0233401 0.0236154 0.999721 36.0781 74.1865)" fill="white"/>
<ellipse rx="0.100751" ry="0.100463" transform="matrix(0.999728 -0.0233401 0.0236154 0.999721 14.9745 68.05)" fill="white"/>
<ellipse rx="0.100751" ry="0.100463" transform="matrix(0.999728 -0.0233401 0.0236154 0.999721 24.9063 53.3509)" fill="white"/>
<ellipse rx="0.100751" ry="0.100463" transform="matrix(0.999728 -0.0233401 0.0236154 0.999721 41.0253 36.0959)" fill="white"/>
<ellipse rx="0.100751" ry="0.100463" transform="matrix(0.999728 -0.0233401 0.0236154 0.999721 49.2949 44.9439)" fill="white"/>
<ellipse rx="0.100751" ry="0.100463" transform="matrix(0.999728 -0.0233401 0.0236154 0.999721 57.6752 67.0504)" fill="white"/>
<ellipse rx="0.100751" ry="0.100463" transform="matrix(0.999728 -0.0233401 0.0236154 0.999721 61.363 52.4974)" fill="white"/>
<ellipse rx="0.100751" ry="0.100463" transform="matrix(0.999728 -0.0233401 0.0236154 0.999721 29.5389 53.2424)" fill="white"/>
<ellipse rx="0.100751" ry="0.100463" transform="matrix(0.999728 -0.0233401 0.0236154 0.999721 5.93322 43.548)" fill="white"/>
<ellipse rx="0.100751" ry="0.100463" transform="matrix(0.999728 -0.0233401 0.0236154 0.999721 19.7688 57.6906)" fill="white"/>
<ellipse rx="0.100751" ry="0.100463" transform="matrix(0.999728 -0.0233401 0.0236154 0.999721 44.4411 61.3325)" fill="white"/>
<ellipse rx="0.100751" ry="0.100463" transform="matrix(0.999728 -0.0233401 0.0236154 0.999721 54.3417 53.8672)" fill="white"/>
<ellipse rx="0.100751" ry="0.100463" transform="matrix(0.999728 -0.0233401 0.0236154 0.999721 25.0707 34.6611)" fill="white"/>
<ellipse rx="0.100751" ry="0.100463" transform="matrix(0.999728 -0.0233401 0.0236154 0.999721 35.4908 66.3641)" fill="white"/>
<ellipse rx="0.100751" ry="0.100463" transform="matrix(0.999728 -0.0233401 0.0236154 0.999721 15.2044 69.2503)" fill="white"/>
<ellipse rx="0.100751" ry="0.100463" transform="matrix(0.999728 -0.0233401 0.0236154 0.999721 19.2977 46.2489)" fill="white"/>
<ellipse rx="0.100751" ry="0.100463" transform="matrix(0.999728 -0.0233401 0.0236154 0.999721 40.7076 39.7199)" fill="white"/>
<ellipse rx="0.100751" ry="0.100463" transform="matrix(0.999728 -0.0233401 0.0236154 0.999721 30.7447 61.653)" fill="white"/>
<ellipse rx="0.100751" ry="0.100463" transform="matrix(0.999728 -0.0233401 0.0236154 0.999721 20.3845 66.7178)" fill="white"/>
<ellipse rx="0.100751" ry="0.100463" transform="matrix(0.999728 -0.0233401 0.0236154 0.999721 34.3363 77.2412)" fill="white"/>
<ellipse rx="0.100751" ry="0.100463" transform="matrix(0.999728 -0.0233401 0.0236154 0.999721 58.447 82.7043)" fill="white"/>
<ellipse rx="0.100751" ry="0.100463" transform="matrix(0.999728 -0.0233401 0.0236154 0.999721 39.5362 58.4333)" fill="white"/>
<ellipse rx="0.100751" ry="0.100463" transform="matrix(0.999728 -0.0233401 0.0236154 0.999721 50.4187 84.0979)" fill="white"/>
<ellipse rx="0.100751" ry="0.100463" transform="matrix(0.999728 -0.0233401 0.0236154 0.999721 27.8598 84.6261)" fill="white"/>
<ellipse rx="0.100751" ry="0.100463" transform="matrix(0.999728 -0.0233401 0.0236154 0.999721 23.6612 77.491)" fill="white"/>
<ellipse rx="0.100751" ry="0.100463" transform="matrix(0.999728 -0.0233401 0.0236154 0.999721 48.5803 74.4965)" fill="white"/>
<ellipse rx="0.100751" ry="0.100463" transform="matrix(0.999728 -0.0233401 0.0236154 0.999721 41.3064 56.5837)" fill="white"/>
<ellipse rx="0.100751" ry="0.100463" transform="matrix(0.999728 -0.0233401 0.0236154 0.999721 26.0525 67.7906)" fill="white"/>
<ellipse rx="0.100751" ry="0.100463" transform="matrix(0.999728 -0.0233401 0.0236154 0.999721 26.7392 79.83)" fill="white"/>
<ellipse rx="0.100751" ry="0.100463" transform="matrix(0.999728 -0.0233401 0.0236154 0.999721 54.22 74.3645)" fill="white"/>
</g>
<mask id="mask1_33_1155" style="mask-type:alpha" maskUnits="userSpaceOnUse" x="4" y="29" width="61" height="61">
<ellipse cx="34.1139" cy="59.927" rx="30.1139" ry="30.0235" fill="#C4C4C4"/>
</mask>
<g mask="url(#mask1_33_1155)">
<path d="M4.68839 82.0801L8.1593 81.3011C11.6001 80.529 15.1691 80.5272 18.6107 81.2961L19.4267 81.4784C23.3781 82.3612 27.5002 82.0871 31.2999 80.6888V80.6888C34.2961 79.5863 37.5036 79.1788 40.6803 79.4973L46.9768 80.1285V89.6074H4.68839V82.0801Z" fill="#F5F5F5"/>
<path d="M13.1417 82.895L19.6781 81.5155C23.0716 80.7994 26.5792 80.8201 29.964 81.5763L30.8699 81.7786C34.8213 82.6614 38.9434 82.3873 42.7431 80.989V80.989C45.7393 79.8865 48.9468 79.4791 52.1235 79.7975L58.42 80.4288V89.9076H16.1316L13.1417 82.895Z" fill="white"/>
</g>
<path d="M31.7263 61.9857C31.7263 69.1118 35.2389 75.2777 37.925 79.9927C41.4891 86.2489 43.5978 89.9505 34.1139 89.9505C17.4824 89.9505 4 76.5085 4 59.927C4 43.3454 17.4824 29.9034 34.1139 29.9034C43.9508 29.5491 41.3469 35.0105 37.5594 42.9544C34.9284 48.4727 31.7263 55.1888 31.7263 61.9857Z" fill="white" fill-opacity="0.15"/>
<path d="M31.7263 61.9857C31.7263 69.1118 35.2389 75.2777 37.925 79.9927C41.4891 86.2489 43.5978 89.9505 34.1139 89.9505C17.4824 89.9505 4 76.5085 4 59.927C4 43.3454 17.4824 29.9034 34.1139 29.9034C43.9508 29.5491 41.3469 35.0105 37.5594 42.9544C34.9284 48.4727 31.7263 55.1888 31.7263 61.9857Z" stroke="white"/>
<path d="M31.2669 25.7858H36.0787L35.0762 31.7825H32.2694L31.2669 25.7858Z" fill="white"/>
<defs>
<filter id="filter0_bd_33_1155" x="-6" y="19.9034" width="80.2277" height="80.0471" filterUnits="userSpaceOnUse" color-interpolation-filters="sRGB">
<feFlood flood-opacity="0" result="BackgroundImageFix"/>
<feGaussianBlur in="BackgroundImageFix" stdDeviation="5"/>
<feComposite in2="SourceAlpha" operator="in" result="effect1_backgroundBlur_33_1155"/>
<feColorMatrix in="SourceAlpha" type="matrix" values="0 0 0 0 0 0 0 0 0 0 0 0 0 0 0 0 0 0 127 0" result="hardAlpha"/>
<feOffset dy="4"/>
<feGaussianBlur stdDeviation="2"/>
<feComposite in2="hardAlpha" operator="out"/>
<feColorMatrix type="matrix" values="0 0 0 0 0 0 0 0 0 0 0 0 0 0 0 0 0 0 0.25 0"/>
<feBlend mode="normal" in2="effect1_backgroundBlur_33_1155" result="effect2_dropShadow_33_1155"/>
<feBlend mode="normal" in="SourceGraphic" in2="effect2_dropShadow_33_1155" result="shape"/>
</filter>
</defs>
</svg>
