<svg width="486" height="398" viewBox="0 0 486 398" fill="none" xmlns="http://www.w3.org/2000/svg">
<g filter="url(#filter0_d_30_1143)">
<path d="M18.1974 124.567C18.8421 113.307 28.266 104.567 39.5426 104.771L449.283 112.177C461.374 112.396 470.783 122.756 469.839 134.813L452.601 354.987C451.769 365.623 443.093 373.945 432.431 374.334L26.0497 389.159C13.6842 389.61 3.61113 379.326 4.31843 366.973L18.1974 124.567Z" fill="#EFF3FE"/>
<path d="M166.639 168.341V172.841H165.163C165.063 172.712 164.949 172.58 164.82 172.445C164.691 172.31 164.548 172.19 164.389 172.085C164.231 171.973 164.058 171.885 163.871 171.821C163.683 171.751 163.481 171.716 163.264 171.716V177.806L164.389 178.026V181.841H156.514V178.026L157.639 177.806V171.716C157.423 171.716 157.221 171.751 157.033 171.821C156.846 171.885 156.673 171.973 156.514 172.085C156.356 172.19 156.213 172.31 156.084 172.445C155.955 172.58 155.841 172.712 155.741 172.841H154.264V168.341H166.639ZM181.458 173.131C181.452 173.306 181.449 173.479 181.449 173.649C181.449 173.813 181.449 173.971 181.449 174.124V175.486C181.449 176.658 181.288 177.663 180.966 178.501C180.643 179.333 180.207 180.015 179.656 180.549C179.105 181.082 178.458 181.457 177.714 181.674C176.975 181.89 176.19 181.999 175.358 181.999C174.397 181.999 173.498 181.89 172.66 181.674C171.828 181.457 171.101 181.082 170.48 180.549C169.865 180.01 169.379 179.324 169.021 178.492C168.67 177.66 168.494 176.658 168.494 175.486V173.131L167.439 172.928V169.466H174.304V172.928L173.249 173.131V174.177C173.249 174.317 173.249 174.461 173.249 174.607C173.249 174.748 173.249 174.88 173.249 175.003C173.255 175.126 173.258 175.234 173.258 175.328C173.258 175.416 173.258 175.474 173.258 175.504C173.258 175.638 173.261 175.797 173.266 175.978C173.272 176.154 173.296 176.339 173.337 176.532C173.378 176.719 173.439 176.907 173.521 177.094C173.609 177.276 173.729 177.44 173.882 177.587C174.04 177.733 174.236 177.853 174.471 177.947C174.711 178.035 175.007 178.079 175.358 178.079C175.71 178.079 176.006 178.035 176.246 177.947C176.492 177.853 176.691 177.733 176.844 177.587C177.002 177.434 177.125 177.264 177.213 177.077C177.301 176.889 177.362 176.702 177.397 176.514C177.438 176.321 177.462 176.136 177.468 175.961C177.479 175.779 177.485 175.621 177.485 175.486C177.485 175.445 177.485 175.381 177.485 175.293C177.485 175.199 177.482 175.094 177.476 174.976C177.476 174.853 177.476 174.724 177.476 174.59C177.476 174.449 177.476 174.311 177.476 174.177V173.131L176.422 172.928V169.466H182.521V172.928L181.458 173.131ZM189.394 169.466H196.593C197.53 169.466 198.342 169.507 199.027 169.589C199.719 169.671 200.305 169.788 200.785 169.94C201.271 170.093 201.667 170.28 201.972 170.503C202.282 170.725 202.522 170.977 202.692 171.259C202.868 171.534 202.985 171.839 203.044 172.173C203.108 172.501 203.14 172.852 203.14 173.227C203.14 173.614 203.102 173.977 203.026 174.317C202.956 174.657 202.821 174.97 202.622 175.258C202.423 175.539 202.147 175.794 201.796 176.022C201.45 176.245 201.002 176.435 200.451 176.594C199.906 176.746 199.247 176.863 198.473 176.945C197.7 177.027 196.789 177.068 195.74 177.068V178.132L196.795 178.334V181.841H189.394V178.334L190.449 178.132V173.131L189.394 172.928V169.466ZM195.74 174.844C196.062 174.844 196.352 174.827 196.61 174.792C196.874 174.757 197.097 174.68 197.278 174.563C197.466 174.446 197.609 174.276 197.709 174.053C197.808 173.831 197.858 173.529 197.858 173.148C197.858 172.797 197.808 172.518 197.709 172.313C197.609 172.108 197.466 171.95 197.278 171.839C197.097 171.727 196.874 171.657 196.61 171.628C196.352 171.593 196.062 171.575 195.74 171.575V174.844ZM217.985 181.841H212.729C212.565 181.536 212.395 181.214 212.22 180.874C212.044 180.528 211.874 180.168 211.71 179.793C211.546 179.418 211.39 179.031 211.244 178.633C211.103 178.234 210.983 177.824 210.884 177.402H210.594V181.841H204.248V178.334L205.303 178.132V173.131L204.248 172.928V169.466H211.446C212.401 169.466 213.224 169.507 213.916 169.589C214.613 169.671 215.202 169.791 215.682 169.949C216.169 170.107 216.561 170.301 216.86 170.529C217.159 170.752 217.39 171.007 217.555 171.294C217.724 171.575 217.839 171.885 217.897 172.225C217.956 172.565 217.985 172.926 217.985 173.306C217.985 173.693 217.947 174.045 217.871 174.361C217.801 174.677 217.672 174.968 217.484 175.231C217.297 175.495 217.039 175.738 216.711 175.961C216.389 176.177 215.975 176.383 215.472 176.576C215.577 176.787 215.732 177.039 215.937 177.332C216.148 177.619 216.377 177.915 216.623 178.219C216.869 178.518 217.112 178.808 217.352 179.09C217.598 179.371 217.809 179.611 217.985 179.81V181.841ZM210.594 175.02C210.916 175.02 211.206 175.006 211.464 174.976C211.727 174.941 211.95 174.871 212.132 174.765C212.319 174.654 212.463 174.493 212.562 174.282C212.662 174.071 212.712 173.787 212.712 173.429C212.712 173.078 212.662 172.797 212.562 172.586C212.463 172.375 212.319 172.214 212.132 172.102C211.95 171.985 211.727 171.909 211.464 171.874C211.206 171.839 210.916 171.821 210.594 171.821V175.02ZM226.765 168.059H223.03L226.01 162.434H230.316L226.765 168.059ZM225.807 174.906L228.242 174.387V176.892L225.807 176.365V178.307C226.159 178.307 226.499 178.284 226.827 178.237C227.155 178.184 227.46 178.114 227.741 178.026C228.022 177.938 228.28 177.836 228.514 177.719C228.749 177.601 228.951 177.475 229.121 177.341H230.325V181.841H219.462V178.334L220.516 178.132V173.148L219.462 172.946V169.466H230.325V173.966H229.121C228.951 173.837 228.749 173.714 228.514 173.596C228.28 173.479 228.022 173.377 227.741 173.289C227.46 173.201 227.155 173.131 226.827 173.078C226.499 173.025 226.159 172.999 225.807 172.999V174.906ZM238.077 175.17L240.327 174.651V177.332L238.077 176.804V178.132L239.132 178.36V181.841H231.731V178.334L232.786 178.132V173.148L231.731 172.946V169.466H241.953V173.966H240.485C240.233 173.702 239.902 173.476 239.492 173.289C239.082 173.095 238.61 172.999 238.077 172.999V175.17ZM243.166 162.434H247.472L250.452 168.059H246.717L243.166 162.434ZM249.503 174.906L251.937 174.387V176.892L249.503 176.365V178.307C249.854 178.307 250.194 178.284 250.522 178.237C250.85 178.184 251.155 178.114 251.436 178.026C251.718 177.938 251.975 177.836 252.21 177.719C252.444 177.601 252.646 177.475 252.816 177.341H254.02V181.841H243.157V178.334L244.212 178.132V173.148L243.157 172.946V169.466H254.02V173.966H252.816C252.646 173.837 252.444 173.714 252.21 173.596C251.975 173.479 251.718 173.377 251.436 173.289C251.155 173.201 250.85 173.131 250.522 173.078C250.194 173.025 249.854 172.999 249.503 172.999V174.906ZM269.173 181.841H263.917C263.753 181.536 263.583 181.214 263.407 180.874C263.231 180.528 263.061 180.168 262.897 179.793C262.733 179.418 262.578 179.031 262.431 178.633C262.291 178.234 262.171 177.824 262.071 177.402H261.781V181.841H255.435V178.334L256.49 178.132V173.131L255.435 172.928V169.466H262.634C263.589 169.466 264.412 169.507 265.103 169.589C265.801 169.671 266.389 169.791 266.87 169.949C267.356 170.107 267.749 170.301 268.048 170.529C268.347 170.752 268.578 171.007 268.742 171.294C268.912 171.575 269.026 171.885 269.085 172.225C269.143 172.565 269.173 172.926 269.173 173.306C269.173 173.693 269.135 174.045 269.058 174.361C268.988 174.677 268.859 174.968 268.672 175.231C268.484 175.495 268.226 175.738 267.898 175.961C267.576 176.177 267.163 176.383 266.659 176.576C266.764 176.787 266.92 177.039 267.125 177.332C267.336 177.619 267.564 177.915 267.81 178.219C268.056 178.518 268.3 178.808 268.54 179.09C268.786 179.371 268.997 179.611 269.173 179.81V181.841ZM261.781 175.02C262.103 175.02 262.393 175.006 262.651 174.976C262.915 174.941 263.138 174.871 263.319 174.765C263.507 174.654 263.65 174.493 263.75 174.282C263.849 174.071 263.899 173.787 263.899 173.429C263.899 173.078 263.849 172.797 263.75 172.586C263.65 172.375 263.507 172.214 263.319 172.102C263.138 171.985 262.915 171.909 262.651 171.874C262.393 171.839 262.103 171.821 261.781 171.821V175.02ZM276.995 174.906L279.43 174.387V176.892L276.995 176.365V178.307C277.347 178.307 277.686 178.284 278.014 178.237C278.343 178.184 278.647 178.114 278.929 178.026C279.21 177.938 279.468 177.836 279.702 177.719C279.936 177.601 280.139 177.475 280.308 177.341H281.513V181.841H270.649V178.334L271.704 178.132V173.148L270.649 172.946V169.466H281.513V173.966H280.308C280.139 173.837 279.936 173.714 279.702 173.596C279.468 173.479 279.21 173.377 278.929 173.289C278.647 173.201 278.343 173.131 278.014 173.078C277.686 173.025 277.347 172.999 276.995 172.999V174.906ZM293.694 177.947C293.694 178.492 293.615 178.975 293.457 179.397C293.305 179.813 293.094 180.177 292.824 180.487C292.56 180.792 292.244 181.047 291.875 181.252C291.512 181.457 291.119 181.624 290.697 181.753C290.275 181.876 289.833 181.946 289.37 181.964C288.913 181.987 288.456 181.999 287.999 181.999C287.366 181.999 286.795 181.984 286.285 181.955C285.775 181.926 285.318 181.861 284.914 181.761C284.515 181.662 284.161 181.553 283.85 181.436C283.546 181.313 283.276 181.193 283.042 181.076V178.026H285.529C285.775 178.413 286.056 178.697 286.373 178.879C286.689 179.06 287.014 179.151 287.348 179.151C287.448 179.151 287.559 179.142 287.682 179.125C287.806 179.107 287.92 179.052 288.025 178.958C288.131 178.864 288.219 178.72 288.289 178.527C288.365 178.328 288.403 178.05 288.403 177.692C287.929 177.651 287.457 177.593 286.988 177.516C286.525 177.434 286.08 177.326 285.652 177.191C285.23 177.056 284.838 176.886 284.474 176.681C284.111 176.47 283.795 176.219 283.525 175.926C283.262 175.627 283.054 175.278 282.901 174.88C282.749 174.475 282.673 174.012 282.673 173.491C282.673 172.893 282.749 172.372 282.901 171.927C283.054 171.475 283.262 171.089 283.525 170.766C283.789 170.444 284.099 170.177 284.457 169.967C284.82 169.756 285.21 169.589 285.626 169.466C286.042 169.343 286.475 169.258 286.927 169.211C287.378 169.158 287.829 169.132 288.28 169.132C288.919 169.132 289.49 169.164 289.994 169.228C290.504 169.293 290.958 169.375 291.356 169.474C291.761 169.574 292.115 169.685 292.42 169.808C292.73 169.926 293.006 170.04 293.246 170.151V173.227H290.583C290.36 172.805 290.105 172.498 289.818 172.304C289.531 172.111 289.238 172.014 288.939 172.014C288.84 172.014 288.725 172.032 288.597 172.067C288.468 172.096 288.348 172.167 288.236 172.278C288.125 172.389 288.031 172.553 287.955 172.77C287.879 172.987 287.841 173.28 287.841 173.649C288.807 173.684 289.654 173.787 290.381 173.957C291.113 174.127 291.725 174.382 292.218 174.721C292.71 175.055 293.079 175.489 293.325 176.022C293.571 176.55 293.694 177.191 293.694 177.947ZM305.981 172.287C305.981 172.105 305.949 171.947 305.885 171.812C305.826 171.672 305.744 171.554 305.639 171.461C305.539 171.367 305.419 171.297 305.278 171.25C305.143 171.197 305.003 171.171 304.856 171.171C304.522 171.171 304.191 171.25 303.863 171.408C303.535 171.56 303.245 171.803 302.993 172.137H300.348V169.096C300.547 168.997 300.761 168.9 300.989 168.806C301.218 168.713 301.464 168.625 301.727 168.543C302.184 168.402 302.726 168.276 303.353 168.165C303.986 168.048 304.719 167.989 305.551 167.989C306.471 167.989 307.303 168.074 308.047 168.244C308.797 168.408 309.435 168.666 309.963 169.017C310.49 169.369 310.897 169.817 311.184 170.362C311.472 170.901 311.615 171.543 311.615 172.287C311.615 172.931 311.51 173.482 311.299 173.939C311.094 174.39 310.809 174.771 310.446 175.082C310.089 175.392 309.67 175.644 309.189 175.838C308.709 176.031 308.193 176.189 307.642 176.312V177.341H302.044C302.038 177.346 302.029 177.349 302.017 177.349V174.317C302.111 174.276 302.272 174.226 302.501 174.168C302.735 174.103 302.999 174.03 303.292 173.948C303.585 173.866 303.889 173.772 304.206 173.667C304.528 173.555 304.818 173.432 305.076 173.298C305.34 173.163 305.556 173.013 305.726 172.849C305.896 172.679 305.981 172.492 305.981 172.287ZM302.017 178.474H307.642V181.849H302.017V178.474Z" fill="#AFB7F7"/>
<g filter="url(#filter1_di_30_1143)">
<ellipse cx="238.133" cy="76.1698" rx="40.4126" ry="40.1698" fill="#FFF55A"/>
</g>
<g filter="url(#filter2_d_30_1143)">
<path d="M205.905 54.0511C199.293 54.0511 207.165 41.3076 216.373 35.7143C225.581 30.1209 226.349 18.7834 240.16 22.4939C248.857 24.8301 274.585 42.6429 266.78 47.6951C255.781 54.8138 241.695 46.1381 231.208 46.1381C223.681 46.1381 209.486 54.0511 205.905 54.0511Z" fill="url(#paint0_linear_30_1143)"/>
</g>
<g filter="url(#filter3_d_30_1143)">
<path d="M23.5367 97.7801C13.0478 101.835 9.00925 124.984 9.98052 131.34C13.0498 151.425 57.688 136.073 69.8321 131.34C108.966 116.085 155.834 116.892 187.745 120.153C215.113 122.95 285.451 137.187 322.283 139.475C359.115 141.763 391.854 133.374 411.037 133.374C435.08 133.374 461.169 151.933 477.028 143.035C484.701 140.746 483.934 111.509 469.354 102.356C456.054 92.1868 390.064 115.577 350.163 104.899C330.928 99.7514 279.057 94.2207 268.314 103.119C257.572 112.017 203.859 100.831 201.045 92.1868C198.743 83.7969 172.398 91.9326 160.633 97.7801C148.867 103.628 41.9525 90.6614 23.5367 97.7801Z" fill="url(#paint1_linear_30_1143)"/>
</g>
</g>
<defs>
<filter id="filter0_d_30_1143" x="0.283321" y="21.7627" width="485.557" height="375.411" filterUnits="userSpaceOnUse" color-interpolation-filters="sRGB">
<feFlood flood-opacity="0" result="BackgroundImageFix"/>
<feColorMatrix in="SourceAlpha" type="matrix" values="0 0 0 0 0 0 0 0 0 0 0 0 0 0 0 0 0 0 127 0" result="hardAlpha"/>
<feOffset dy="4"/>
<feGaussianBlur stdDeviation="2"/>
<feComposite in2="hardAlpha" operator="out"/>
<feColorMatrix type="matrix" values="0 0 0 0 0 0 0 0 0 0 0 0 0 0 0 0 0 0 0.25 0"/>
<feBlend mode="normal" in2="BackgroundImageFix" result="effect1_dropShadow_30_1143"/>
<feBlend mode="normal" in="SourceGraphic" in2="effect1_dropShadow_30_1143" result="shape"/>
</filter>
<filter id="filter1_di_30_1143" x="157.72" y="0" width="160.825" height="160.34" filterUnits="userSpaceOnUse" color-interpolation-filters="sRGB">
<feFlood flood-opacity="0" result="BackgroundImageFix"/>
<feColorMatrix in="SourceAlpha" type="matrix" values="0 0 0 0 0 0 0 0 0 0 0 0 0 0 0 0 0 0 127 0" result="hardAlpha"/>
<feOffset dy="4"/>
<feGaussianBlur stdDeviation="20"/>
<feComposite in2="hardAlpha" operator="out"/>
<feColorMatrix type="matrix" values="0 0 0 0 1 0 0 0 0 0.818824 0 0 0 0 0.352941 0 0 0 1 0"/>
<feBlend mode="normal" in2="BackgroundImageFix" result="effect1_dropShadow_30_1143"/>
<feBlend mode="normal" in="SourceGraphic" in2="effect1_dropShadow_30_1143" result="shape"/>
<feColorMatrix in="SourceAlpha" type="matrix" values="0 0 0 0 0 0 0 0 0 0 0 0 0 0 0 0 0 0 127 0" result="hardAlpha"/>
<feOffset/>
<feGaussianBlur stdDeviation="4"/>
<feComposite in2="hardAlpha" operator="arithmetic" k2="-1" k3="1"/>
<feColorMatrix type="matrix" values="0 0 0 0 0.956863 0 0 0 0 0.784314 0 0 0 0 0.172549 0 0 0 1 0"/>
<feBlend mode="normal" in2="shape" result="effect2_innerShadow_30_1143"/>
</filter>
<filter id="filter2_d_30_1143" x="201.454" y="21.7627" width="68.7808" height="38.2883" filterUnits="userSpaceOnUse" color-interpolation-filters="sRGB">
<feFlood flood-opacity="0" result="BackgroundImageFix"/>
<feColorMatrix in="SourceAlpha" type="matrix" values="0 0 0 0 0 0 0 0 0 0 0 0 0 0 0 0 0 0 127 0" result="hardAlpha"/>
<feOffset dy="4"/>
<feGaussianBlur stdDeviation="1"/>
<feComposite in2="hardAlpha" operator="out"/>
<feColorMatrix type="matrix" values="0 0 0 0 0.0403125 0 0 0 0 0.0791917 0 0 0 0 0.179167 0 0 0 0.09 0"/>
<feBlend mode="normal" in2="BackgroundImageFix" result="effect1_dropShadow_30_1143"/>
<feBlend mode="normal" in="SourceGraphic" in2="effect1_dropShadow_30_1143" result="shape"/>
</filter>
<filter id="filter3_d_30_1143" x="7.84058" y="88.5879" width="476" height="62.8613" filterUnits="userSpaceOnUse" color-interpolation-filters="sRGB">
<feFlood flood-opacity="0" result="BackgroundImageFix"/>
<feColorMatrix in="SourceAlpha" type="matrix" values="0 0 0 0 0 0 0 0 0 0 0 0 0 0 0 0 0 0 127 0" result="hardAlpha"/>
<feOffset dy="4"/>
<feGaussianBlur stdDeviation="1"/>
<feComposite in2="hardAlpha" operator="out"/>
<feColorMatrix type="matrix" values="0 0 0 0 0.0403125 0 0 0 0 0.0791917 0 0 0 0 0.179167 0 0 0 0.09 0"/>
<feBlend mode="normal" in2="BackgroundImageFix" result="effect1_dropShadow_30_1143"/>
<feBlend mode="normal" in="SourceGraphic" in2="effect1_dropShadow_30_1143" result="shape"/>
</filter>
<linearGradient id="paint0_linear_30_1143" x1="239.174" y1="27.6122" x2="228.924" y2="89.6606" gradientUnits="userSpaceOnUse">
<stop stop-color="#D8DCFF"/>
<stop offset="1" stop-color="#849FEE"/>
</linearGradient>
<linearGradient id="paint1_linear_30_1143" x1="245.227" y1="79.6022" x2="237.99" y2="218.081" gradientUnits="userSpaceOnUse">
<stop stop-color="#D8DCFF"/>
<stop offset="1" stop-color="#849FEE"/>
</linearGradient>
</defs>
</svg>
