<svg width="339" height="648" viewBox="0 0 339 648" fill="none" xmlns="http://www.w3.org/2000/svg">
<path d="M8 16H328V584H8V16Z" fill="#6D81BD"/>
<g filter="url(#filter0_d_38_2029)">
<path d="M27.9463 118.75H36.2588V122.776L35.0713 123.008V128.742L36.2588 128.974V133H27.9463V128.974L29.1338 128.742V123.008L27.9463 122.776V118.75ZM42.5674 126.144V129.085L43.6899 129.289V133H38.105V129.298L39.2183 129.085V123.806L38.105 123.593V119.938H44.8032L49.2656 126.979V123.825L48.1523 123.593V119.938H53.728V123.593L52.6147 123.806V129.085L53.728 129.298V133H47.0298L42.5674 126.144ZM65.6587 119.938C66.4998 120.117 67.2575 120.37 67.9316 120.698C68.6058 121.026 69.1779 121.447 69.6479 121.96C70.1242 122.467 70.4891 123.079 70.7427 123.797C70.9963 124.508 71.123 125.34 71.123 126.292C71.123 127.127 71.0241 127.876 70.8262 128.538C70.6344 129.193 70.3561 129.771 69.9912 130.272C69.6325 130.767 69.1903 131.188 68.6646 131.534C68.1388 131.881 67.5451 132.162 66.8833 132.378C66.2277 132.595 65.5041 132.753 64.7124 132.852C63.9269 132.951 63.0889 133 62.1982 133H55.5V129.298L56.6133 129.085V123.491L55.5 123.277V119.938H65.6587ZM63.0518 129.085C63.4661 129.085 63.8156 129.054 64.1001 128.992C64.3846 128.93 64.6165 128.844 64.7959 128.732C64.9814 128.621 65.1237 128.482 65.2227 128.315C65.3278 128.148 65.402 127.962 65.4453 127.758C65.4948 127.554 65.5226 127.328 65.5288 127.081C65.535 126.834 65.5381 126.571 65.5381 126.292C65.5381 126.014 65.535 125.751 65.5288 125.504C65.5226 125.257 65.4948 125.031 65.4453 124.827C65.402 124.616 65.3278 124.431 65.2227 124.27C65.1237 124.103 64.9814 123.964 64.7959 123.853C64.6165 123.735 64.3846 123.645 64.1001 123.583C63.8156 123.522 63.4661 123.491 63.0518 123.491H62.1982V129.085H63.0518ZM72.4683 119.938H80.2798V123.593L79.1665 123.806V129.085L80.2798 129.298V133H72.4683V129.298L73.5815 129.085V123.806L72.4683 123.593V119.938ZM89.7241 136.776C89.4829 136.578 89.2293 136.352 88.9634 136.099C88.6974 135.845 88.4346 135.564 88.1748 135.254C87.9212 134.951 87.6831 134.617 87.4604 134.252C87.2378 133.894 87.0522 133.504 86.9038 133.083C86.1307 132.91 85.4194 132.647 84.77 132.295C84.1268 131.942 83.5701 131.488 83.1001 130.931C82.6362 130.375 82.2744 129.713 82.0146 128.946C81.7549 128.179 81.625 127.294 81.625 126.292C81.625 125.086 81.826 124.06 82.228 123.212C82.6362 122.359 83.1929 121.666 83.8979 121.134C84.603 120.596 85.4287 120.203 86.375 119.956C87.3213 119.709 88.3387 119.585 89.4272 119.585C90.5096 119.585 91.5239 119.709 92.4702 119.956C93.4227 120.203 94.2515 120.596 94.9565 121.134C95.6678 121.666 96.2275 122.359 96.6357 123.212C97.0439 124.06 97.248 125.086 97.248 126.292C97.248 127.22 97.1336 128.049 96.9048 128.779C96.6821 129.502 96.3667 130.136 95.9585 130.681C95.5565 131.219 95.071 131.673 94.502 132.044C93.9391 132.409 93.3175 132.697 92.6372 132.907C92.897 133.229 93.1598 133.541 93.4258 133.844C93.6917 134.153 93.9206 134.416 94.1123 134.633V136.776H89.7241ZM89.4272 123.537H89.3345C88.9819 123.537 88.6851 123.583 88.4438 123.676C88.2088 123.769 88.0109 123.893 87.8501 124.047C87.6955 124.202 87.5749 124.378 87.4883 124.576C87.4017 124.768 87.3368 124.963 87.2935 125.161C87.2563 125.359 87.2316 125.553 87.2192 125.745C87.2131 125.937 87.21 126.104 87.21 126.246C87.21 126.388 87.2131 126.558 87.2192 126.756C87.2254 126.948 87.2471 127.152 87.2842 127.369C87.3213 127.579 87.3831 127.789 87.4697 128C87.5563 128.21 87.68 128.398 87.8408 128.565C88.0078 128.732 88.2181 128.868 88.4717 128.974C88.7314 129.073 89.05 129.122 89.4272 129.122C89.7983 129.122 90.1107 129.073 90.3643 128.974C90.624 128.875 90.8343 128.745 90.9951 128.584C91.1621 128.417 91.292 128.231 91.3848 128.027C91.4775 127.823 91.5425 127.619 91.5796 127.415C91.6229 127.205 91.6476 127.001 91.6538 126.803C91.6662 126.605 91.6724 126.435 91.6724 126.292C91.6724 126.15 91.6693 125.983 91.6631 125.792C91.6569 125.6 91.6322 125.402 91.5889 125.198C91.5456 124.994 91.4806 124.793 91.394 124.595C91.3075 124.397 91.1838 124.221 91.0229 124.066C90.8683 123.905 90.6673 123.778 90.4199 123.686C90.1725 123.587 89.8726 123.537 89.52 123.537H89.4272ZM112.982 123.806C112.976 123.992 112.973 124.174 112.973 124.354C112.973 124.527 112.973 124.694 112.973 124.854V126.292C112.973 127.529 112.803 128.59 112.463 129.475C112.123 130.353 111.662 131.073 111.081 131.636C110.499 132.199 109.816 132.595 109.03 132.824C108.251 133.053 107.422 133.167 106.544 133.167C105.53 133.167 104.58 133.053 103.696 132.824C102.818 132.595 102.051 132.199 101.395 131.636C100.746 131.067 100.232 130.344 99.855 129.465C99.4839 128.587 99.2983 127.529 99.2983 126.292V123.806L98.1851 123.593V119.938H105.431V123.593L104.317 123.806V124.91C104.317 125.059 104.317 125.21 104.317 125.365C104.317 125.513 104.317 125.652 104.317 125.782C104.324 125.912 104.327 126.027 104.327 126.125C104.327 126.218 104.327 126.28 104.327 126.311C104.327 126.453 104.33 126.62 104.336 126.812C104.342 126.998 104.367 127.192 104.41 127.396C104.453 127.594 104.518 127.792 104.605 127.99C104.698 128.182 104.825 128.355 104.985 128.51C105.152 128.664 105.36 128.791 105.607 128.89C105.861 128.983 106.173 129.029 106.544 129.029C106.915 129.029 107.227 128.983 107.481 128.89C107.741 128.791 107.951 128.664 108.112 128.51C108.279 128.349 108.409 128.17 108.501 127.972C108.594 127.774 108.659 127.576 108.696 127.378C108.74 127.174 108.764 126.979 108.771 126.793C108.783 126.602 108.789 126.435 108.789 126.292C108.789 126.249 108.789 126.181 108.789 126.088C108.789 125.989 108.786 125.878 108.78 125.754C108.78 125.625 108.78 125.488 108.78 125.346C108.78 125.198 108.78 125.052 108.78 124.91V123.806L107.667 123.593V119.938H114.105V123.593L112.982 123.806ZM122.241 125.68L124.811 125.133V127.777L122.241 127.22V129.271C122.612 129.271 122.971 129.246 123.317 129.196C123.664 129.141 123.985 129.066 124.282 128.974C124.579 128.881 124.851 128.773 125.099 128.649C125.346 128.525 125.559 128.392 125.739 128.25H127.01V133H115.543V129.298L116.656 129.085V123.825L115.543 123.611V119.938H127.01V124.688H125.739C125.559 124.551 125.346 124.422 125.099 124.298C124.851 124.174 124.579 124.066 124.282 123.973C123.985 123.88 123.664 123.806 123.317 123.75C122.971 123.695 122.612 123.667 122.241 123.667V125.68ZM127.882 133V129.734L132.678 123.212C132.35 123.212 132.044 123.246 131.76 123.314C131.475 123.376 131.212 123.46 130.971 123.565C130.73 123.67 130.51 123.788 130.312 123.917C130.121 124.041 129.951 124.168 129.802 124.298H128.374V119.938H138.486V123.463L134.209 129.586C134.345 129.604 134.481 129.614 134.617 129.614C134.883 129.614 135.137 129.586 135.378 129.53C135.619 129.468 135.842 129.391 136.046 129.298C136.25 129.206 136.436 129.104 136.603 128.992C136.776 128.875 136.927 128.76 137.057 128.649H138.486V133H127.882ZM152.522 129.438C152.782 129.438 153.03 129.403 153.265 129.335C153.5 129.261 153.716 129.168 153.914 129.057C154.118 128.94 154.301 128.813 154.461 128.677C154.628 128.535 154.774 128.392 154.897 128.25H156.447V133H145.833V129.298L146.947 129.085V123.806L145.833 123.593V119.938H153.645V123.593L152.522 123.806V129.438ZM164.397 125.68L166.967 125.133V127.777L164.397 127.22V129.271C164.769 129.271 165.127 129.246 165.474 129.196C165.82 129.141 166.142 129.066 166.438 128.974C166.735 128.881 167.007 128.773 167.255 128.649C167.502 128.525 167.716 128.392 167.895 128.25H169.166V133H157.699V129.298L158.812 129.085V123.825L157.699 123.611V119.938H169.166V124.688H167.895C167.716 124.551 167.502 124.422 167.255 124.298C167.007 124.174 166.735 124.066 166.438 123.973C166.142 123.88 165.82 123.806 165.474 123.75C165.127 123.695 164.769 123.667 164.397 123.667V125.68ZM182.024 128.89C182.024 129.465 181.941 129.976 181.774 130.421C181.613 130.86 181.39 131.243 181.106 131.571C180.828 131.893 180.494 132.162 180.104 132.378C179.721 132.595 179.306 132.771 178.861 132.907C178.416 133.037 177.949 133.111 177.46 133.13C176.978 133.155 176.495 133.167 176.013 133.167C175.345 133.167 174.742 133.152 174.204 133.121C173.666 133.09 173.183 133.022 172.756 132.917C172.336 132.811 171.962 132.697 171.634 132.573C171.312 132.443 171.028 132.317 170.78 132.193V128.974H173.406C173.666 129.382 173.962 129.682 174.296 129.874C174.63 130.065 174.974 130.161 175.326 130.161C175.431 130.161 175.549 130.152 175.679 130.133C175.809 130.115 175.929 130.056 176.041 129.957C176.152 129.858 176.245 129.707 176.319 129.502C176.399 129.292 176.439 128.998 176.439 128.621C175.938 128.578 175.441 128.516 174.946 128.436C174.457 128.349 173.987 128.235 173.536 128.092C173.09 127.95 172.676 127.771 172.292 127.554C171.909 127.332 171.575 127.066 171.291 126.756C171.012 126.441 170.793 126.073 170.632 125.652C170.471 125.226 170.391 124.737 170.391 124.187C170.391 123.556 170.471 123.005 170.632 122.535C170.793 122.059 171.012 121.651 171.291 121.311C171.569 120.97 171.897 120.689 172.274 120.466C172.657 120.244 173.069 120.067 173.508 119.938C173.947 119.808 174.405 119.718 174.881 119.668C175.357 119.613 175.833 119.585 176.31 119.585C176.984 119.585 177.587 119.619 178.119 119.687C178.657 119.755 179.136 119.842 179.557 119.947C179.983 120.052 180.358 120.169 180.679 120.299C181.007 120.423 181.298 120.544 181.551 120.661V123.908H178.74C178.505 123.463 178.236 123.138 177.933 122.934C177.63 122.73 177.321 122.628 177.005 122.628C176.9 122.628 176.78 122.646 176.644 122.684C176.507 122.715 176.381 122.789 176.263 122.906C176.146 123.024 176.047 123.197 175.966 123.426C175.886 123.655 175.846 123.964 175.846 124.354C176.866 124.391 177.76 124.499 178.527 124.678C179.3 124.858 179.946 125.127 180.466 125.485C180.985 125.838 181.375 126.296 181.635 126.858C181.895 127.415 182.024 128.092 182.024 128.89ZM199.874 127.536C199.874 128.525 199.729 129.382 199.438 130.105C199.147 130.823 198.733 131.417 198.195 131.887C197.657 132.357 197.007 132.688 196.247 132.879C195.492 133.071 194.648 133.167 193.714 133.167C193.064 133.167 192.483 133.148 191.97 133.111C191.456 133.08 190.999 133.012 190.597 132.907C190.195 132.802 189.839 132.688 189.53 132.564C189.221 132.434 188.951 132.31 188.723 132.193V128.194H191.348C191.571 128.603 191.831 128.906 192.127 129.104C192.424 129.295 192.721 129.391 193.018 129.391C193.173 129.391 193.327 129.351 193.482 129.271C193.637 129.19 193.773 129.073 193.89 128.918C194.014 128.757 194.113 128.562 194.187 128.333C194.261 128.105 194.298 127.839 194.298 127.536V123.806L193.176 123.593V119.938H200.997V123.593L199.874 123.806V127.536ZM209.754 133.167C208.666 133.167 207.645 133.053 206.693 132.824C205.747 132.589 204.921 132.19 204.216 131.627C203.517 131.058 202.963 130.334 202.555 129.456C202.153 128.578 201.952 127.523 201.952 126.292C201.952 125.086 202.153 124.06 202.555 123.212C202.963 122.359 203.52 121.666 204.225 121.134C204.93 120.596 205.756 120.203 206.702 119.956C207.648 119.709 208.666 119.585 209.754 119.585C210.837 119.585 211.851 119.709 212.797 119.956C213.75 120.203 214.579 120.596 215.284 121.134C215.995 121.666 216.555 122.359 216.963 123.212C217.371 124.06 217.575 125.086 217.575 126.292C217.575 127.109 217.482 127.851 217.297 128.519C217.111 129.181 216.848 129.771 216.508 130.291C216.174 130.804 215.769 131.25 215.293 131.627C214.823 131.998 214.297 132.307 213.716 132.555C213.134 132.796 212.51 132.957 211.842 133.037C211.174 133.124 210.478 133.167 209.754 133.167ZM209.754 123.537C209.389 123.537 209.08 123.583 208.827 123.676C208.579 123.769 208.372 123.89 208.205 124.038C208.044 124.187 207.917 124.357 207.825 124.548C207.732 124.74 207.664 124.938 207.621 125.142C207.583 125.34 207.559 125.538 207.546 125.736C207.54 125.928 207.537 126.098 207.537 126.246C207.537 126.388 207.54 126.558 207.546 126.756C207.553 126.948 207.574 127.152 207.611 127.369C207.648 127.579 207.71 127.789 207.797 128C207.883 128.21 208.007 128.398 208.168 128.565C208.335 128.732 208.545 128.868 208.799 128.974C209.059 129.073 209.377 129.122 209.754 129.122C210.125 129.122 210.438 129.073 210.691 128.974C210.951 128.875 211.161 128.745 211.322 128.584C211.489 128.417 211.619 128.231 211.712 128.027C211.805 127.823 211.87 127.619 211.907 127.415C211.95 127.205 211.975 127.001 211.981 126.803C211.993 126.605 212 126.435 212 126.292C212 126.144 211.993 125.974 211.981 125.782C211.975 125.584 211.95 125.383 211.907 125.179C211.87 124.975 211.805 124.777 211.712 124.585C211.619 124.388 211.489 124.211 211.322 124.057C211.161 123.902 210.951 123.778 210.691 123.686C210.438 123.587 210.125 123.537 209.754 123.537ZM233.291 123.806C233.285 123.992 233.282 124.174 233.282 124.354C233.282 124.527 233.282 124.694 233.282 124.854V126.292C233.282 127.529 233.112 128.59 232.771 129.475C232.431 130.353 231.971 131.073 231.389 131.636C230.808 132.199 230.124 132.595 229.339 132.824C228.56 133.053 227.731 133.167 226.853 133.167C225.838 133.167 224.889 133.053 224.004 132.824C223.126 132.595 222.359 132.199 221.704 131.636C221.054 131.067 220.541 130.344 220.164 129.465C219.792 128.587 219.607 127.529 219.607 126.292V123.806L218.494 123.593V119.938H225.739V123.593L224.626 123.806V124.91C224.626 125.059 224.626 125.21 224.626 125.365C224.626 125.513 224.626 125.652 224.626 125.782C224.632 125.912 224.635 126.027 224.635 126.125C224.635 126.218 224.635 126.28 224.635 126.311C224.635 126.453 224.638 126.62 224.645 126.812C224.651 126.998 224.675 127.192 224.719 127.396C224.762 127.594 224.827 127.792 224.914 127.99C225.006 128.182 225.133 128.355 225.294 128.51C225.461 128.664 225.668 128.791 225.916 128.89C226.169 128.983 226.481 129.029 226.853 129.029C227.224 129.029 227.536 128.983 227.79 128.89C228.049 128.791 228.26 128.664 228.42 128.51C228.587 128.349 228.717 128.17 228.81 127.972C228.903 127.774 228.968 127.576 229.005 127.378C229.048 127.174 229.073 126.979 229.079 126.793C229.091 126.602 229.098 126.435 229.098 126.292C229.098 126.249 229.098 126.181 229.098 126.088C229.098 125.989 229.095 125.878 229.088 125.754C229.088 125.625 229.088 125.488 229.088 125.346C229.088 125.198 229.088 125.052 229.088 124.91V123.806L227.975 123.593V119.938H234.414V123.593L233.291 123.806ZM242.55 125.68L245.12 125.133V127.777L242.55 127.22V129.271C242.921 129.271 243.28 129.246 243.626 129.196C243.972 129.141 244.294 129.066 244.591 128.974C244.888 128.881 245.16 128.773 245.407 128.649C245.655 128.525 245.868 128.392 246.047 128.25H247.318V133H235.852V129.298L236.965 129.085V123.825L235.852 123.611V119.938H247.318V124.688H246.047C245.868 124.551 245.655 124.422 245.407 124.298C245.16 124.174 244.888 124.066 244.591 123.973C244.294 123.88 243.972 123.806 243.626 123.75C243.28 123.695 242.921 123.667 242.55 123.667V125.68ZM263.22 123.806C263.214 123.992 263.21 124.174 263.21 124.354C263.21 124.527 263.21 124.694 263.21 124.854V126.292C263.21 127.529 263.04 128.59 262.7 129.475C262.36 130.353 261.899 131.073 261.318 131.636C260.736 132.199 260.053 132.595 259.268 132.824C258.488 133.053 257.66 133.167 256.781 133.167C255.767 133.167 254.818 133.053 253.933 132.824C253.055 132.595 252.288 132.199 251.632 131.636C250.983 131.067 250.47 130.344 250.092 129.465C249.721 128.587 249.536 127.529 249.536 126.292V123.806L248.422 123.593V119.938H255.668V123.593L254.555 123.806V124.91C254.555 125.059 254.555 125.21 254.555 125.365C254.555 125.513 254.555 125.652 254.555 125.782C254.561 125.912 254.564 126.027 254.564 126.125C254.564 126.218 254.564 126.28 254.564 126.311C254.564 126.453 254.567 126.62 254.573 126.812C254.579 126.998 254.604 127.192 254.647 127.396C254.691 127.594 254.756 127.792 254.842 127.99C254.935 128.182 255.062 128.355 255.223 128.51C255.39 128.664 255.597 128.791 255.844 128.89C256.098 128.983 256.41 129.029 256.781 129.029C257.152 129.029 257.465 128.983 257.718 128.89C257.978 128.791 258.188 128.664 258.349 128.51C258.516 128.349 258.646 128.17 258.739 127.972C258.832 127.774 258.896 127.576 258.934 127.378C258.977 127.174 259.002 126.979 259.008 126.793C259.02 126.602 259.026 126.435 259.026 126.292C259.026 126.249 259.026 126.181 259.026 126.088C259.026 125.989 259.023 125.878 259.017 125.754C259.017 125.625 259.017 125.488 259.017 125.346C259.017 125.198 259.017 125.052 259.017 124.91V123.806L257.904 123.593V119.938H264.342V123.593L263.22 123.806ZM280.29 133H274.742C274.569 132.678 274.39 132.338 274.204 131.979C274.019 131.615 273.839 131.234 273.666 130.838C273.493 130.443 273.329 130.034 273.174 129.614C273.026 129.193 272.899 128.76 272.794 128.315H272.488V133H265.79V129.298L266.903 129.085V123.806L265.79 123.593V119.938H273.388C274.396 119.938 275.265 119.981 275.995 120.067C276.731 120.154 277.352 120.281 277.859 120.448C278.373 120.615 278.787 120.819 279.103 121.06C279.418 121.295 279.662 121.564 279.835 121.867C280.015 122.164 280.135 122.492 280.197 122.851C280.259 123.209 280.29 123.59 280.29 123.992C280.29 124.4 280.25 124.771 280.169 125.105C280.095 125.439 279.959 125.745 279.761 126.023C279.563 126.302 279.291 126.558 278.945 126.793C278.605 127.022 278.169 127.239 277.637 127.443C277.748 127.666 277.912 127.931 278.128 128.241C278.351 128.544 278.592 128.856 278.852 129.178C279.112 129.493 279.368 129.799 279.622 130.096C279.882 130.393 280.104 130.647 280.29 130.857V133ZM272.488 125.801C272.828 125.801 273.134 125.785 273.406 125.754C273.685 125.717 273.92 125.643 274.111 125.532C274.309 125.414 274.461 125.244 274.566 125.021C274.671 124.799 274.724 124.499 274.724 124.122C274.724 123.75 274.671 123.454 274.566 123.231C274.461 123.008 274.309 122.838 274.111 122.721C273.92 122.597 273.685 122.517 273.406 122.479C273.134 122.442 272.828 122.424 272.488 122.424V125.801ZM293.223 128.89C293.223 129.465 293.139 129.976 292.972 130.421C292.811 130.86 292.589 131.243 292.304 131.571C292.026 131.893 291.692 132.162 291.302 132.378C290.919 132.595 290.504 132.771 290.059 132.907C289.614 133.037 289.147 133.111 288.658 133.13C288.176 133.155 287.693 133.167 287.211 133.167C286.543 133.167 285.94 133.152 285.402 133.121C284.864 133.09 284.381 133.022 283.955 132.917C283.534 132.811 283.16 132.697 282.832 132.573C282.51 132.443 282.226 132.317 281.979 132.193V128.974H284.604C284.864 129.382 285.161 129.682 285.495 129.874C285.829 130.065 286.172 130.161 286.524 130.161C286.63 130.161 286.747 130.152 286.877 130.133C287.007 130.115 287.127 130.056 287.239 129.957C287.35 129.858 287.443 129.707 287.517 129.502C287.597 129.292 287.638 128.998 287.638 128.621C287.137 128.578 286.639 128.516 286.144 128.436C285.655 128.349 285.185 128.235 284.734 128.092C284.289 127.95 283.874 127.771 283.491 127.554C283.107 127.332 282.773 127.066 282.489 126.756C282.21 126.441 281.991 126.073 281.83 125.652C281.669 125.226 281.589 124.737 281.589 124.187C281.589 123.556 281.669 123.005 281.83 122.535C281.991 122.059 282.21 121.651 282.489 121.311C282.767 120.97 283.095 120.689 283.472 120.466C283.856 120.244 284.267 120.067 284.706 119.938C285.145 119.808 285.603 119.718 286.079 119.668C286.555 119.613 287.032 119.585 287.508 119.585C288.182 119.585 288.785 119.619 289.317 119.687C289.855 119.755 290.334 119.842 290.755 119.947C291.182 120.052 291.556 120.169 291.877 120.299C292.205 120.423 292.496 120.544 292.75 120.661V123.908H289.938C289.703 123.463 289.434 123.138 289.131 122.934C288.828 122.73 288.519 122.628 288.204 122.628C288.098 122.628 287.978 122.646 287.842 122.684C287.706 122.715 287.579 122.789 287.461 122.906C287.344 123.024 287.245 123.197 287.165 123.426C287.084 123.655 287.044 123.964 287.044 124.354C288.064 124.391 288.958 124.499 289.725 124.678C290.498 124.858 291.145 125.127 291.664 125.485C292.184 125.838 292.573 126.296 292.833 126.858C293.093 127.415 293.223 128.092 293.223 128.89Z" fill="white"/>
</g>
<path fill-rule="evenodd" clip-rule="evenodd" d="M200.548 457.326C199.787 457.44 199.187 456.687 199.467 455.971L206.551 437.881C206.867 437.073 207.992 437.025 208.378 437.803L217.028 455.223C217.371 455.912 216.839 456.713 216.071 456.664L215.944 456.656C215.138 456.605 214.608 457.481 215.027 458.171L219.538 465.613C219.952 466.296 219.439 467.163 218.641 467.129L217.978 467.1C217.177 467.066 216.664 467.942 217.087 468.625L223.18 478.466C223.598 479.142 223.1 480.011 222.306 479.991L213.569 479.77C212.99 479.756 212.52 480.234 212.546 480.813L213.086 493.061C213.111 493.612 212.683 494.079 212.131 494.102L207.77 494.288C207.219 494.312 206.752 493.884 206.727 493.332L206.187 481.084C206.161 480.505 205.651 480.069 205.076 480.132L196.391 481.096C195.601 481.183 195.029 480.36 195.386 479.651L200.589 469.328C200.95 468.612 200.363 467.783 199.567 467.885L198.909 467.97C198.118 468.072 197.53 467.252 197.882 466.536L201.721 458.739C202.077 458.015 201.472 457.188 200.674 457.307L200.548 457.326Z" fill="#BBC2FF"/>
<path d="M200.313 469.872L194.555 481.3L199.988 480.697L203.349 469.513L200.313 469.872Z" fill="#E2DBFF"/>
<path d="M201.349 459.358L197.059 468.209L201.438 467.644L203.889 458.982L201.349 459.358Z" fill="#E2DBFF"/>
<path d="M207.373 435.78L198.837 457.582L202.02 457.106L207.373 435.78Z" fill="#E2DBFF"/>
<path fill-rule="evenodd" clip-rule="evenodd" d="M153.534 486.479C152.91 486.592 152.397 485.986 152.61 485.39L157.648 471.298C157.94 470.481 159.062 470.4 159.472 471.165L166.533 484.379C166.832 484.938 166.414 485.611 165.78 485.59V485.59C165.115 485.568 164.7 486.302 165.062 486.861L168.658 492.412C169.065 493.04 168.608 493.867 167.86 493.857V493.857C167.108 493.848 166.653 494.683 167.068 495.31L171.798 502.464C172.237 503.127 171.765 504.01 170.97 504.014L164.604 504.044C164.025 504.046 163.57 504.539 163.612 505.116L164.303 514.433C164.344 514.984 163.93 515.463 163.38 515.503L160.319 515.725C159.768 515.765 159.288 515.351 159.247 514.8L158.557 505.483C158.514 504.906 157.991 504.484 157.418 504.565L151.115 505.456C150.329 505.567 149.732 504.761 150.068 504.042L153.693 496.282C154.011 495.601 153.437 494.84 152.695 494.959V494.959C151.956 495.076 151.383 494.324 151.693 493.644L154.432 487.633C154.707 487.028 154.189 486.361 153.534 486.479V486.479Z" fill="#C4C3FE"/>
<path fill-rule="evenodd" clip-rule="evenodd" d="M152.13 486.732L158.407 469.174L157.175 485.823L152.13 486.732ZM154.173 488.087L150.968 495.234L157.914 494.127L158.199 487.367L154.173 488.087ZM153.598 496.48L149.286 505.714L157.908 504.497L158.415 495.764L153.598 496.48Z" fill="#E9DBFF"/>
<path d="M153.598 496.48L149.286 505.714L153.597 505.106L156.007 496.122L153.598 496.48Z" fill="#E9DBFF"/>
<path d="M154.173 488.087L150.968 495.234L154.441 494.68L156.186 487.727L154.173 488.087Z" fill="#E9DBFF"/>
<path d="M158.407 469.174L152.13 486.732L154.653 486.278L158.407 469.174Z" fill="#E9DBFF"/>
<path fill-rule="evenodd" clip-rule="evenodd" d="M60.529 476.757C60.8467 476.878 61.1758 476.61 61.1217 476.274L60.0114 469.39C59.8732 468.533 58.7847 468.247 58.2431 468.924L53.8903 474.37C53.6782 474.635 53.8327 475.031 54.1686 475.082V475.082C54.5209 475.136 54.6676 475.564 54.4225 475.823L51.9877 478.392C51.7122 478.683 51.8717 479.164 52.2664 479.232V479.232C52.6633 479.301 52.8216 479.786 52.5418 480.076L49.9492 482.761C49.3975 483.332 49.7002 484.288 50.4804 484.438L52.499 484.825C53.0675 484.934 53.4251 485.502 53.2778 486.062L52.2496 489.972C52.1091 490.506 52.4282 491.053 52.9623 491.193L53.6541 491.376C54.1882 491.516 54.735 491.197 54.8755 490.663L55.9037 486.753C56.051 486.193 56.6415 485.875 57.1901 486.06L59.1377 486.717C59.8905 486.971 60.6242 486.288 60.425 485.519L59.4889 481.905C59.3878 481.515 59.7641 481.171 60.1435 481.306V481.306C60.5208 481.441 60.8961 481.101 60.7993 480.712L59.9439 477.277C59.8577 476.931 60.1958 476.63 60.529 476.757V476.757Z" fill="#CCCDFF"/>
<path d="M59.5194 482.019L60.8884 487.308L58.6782 486.562L58.2863 481.593L59.5194 482.019Z" fill="#E9E6FF"/>
<path d="M60.0358 477.541L61.0256 481.621L59.2512 480.988L59.0111 477.153L60.0358 477.541Z" fill="#E9E6FF"/>
<path d="M59.652 467.161L61.2434 477.028L59.9596 476.541L59.652 467.161Z" fill="#E9E6FF"/>
<path fill-rule="evenodd" clip-rule="evenodd" d="M41.3519 465.321C41.7697 465.417 42.135 465.024 42.0098 464.615L39.2677 455.643C39.0142 454.814 37.8965 454.68 37.4521 455.425L32.6435 463.493C32.4239 463.861 32.685 464.329 33.1137 464.334V464.334C33.5634 464.34 33.8202 464.849 33.5582 465.215L30.9557 468.849C30.6612 469.26 30.9431 469.833 31.4484 469.85V469.85C31.9563 469.867 32.2375 470.445 31.9375 470.855L28.8722 475.051C28.4033 475.693 28.8334 476.597 29.6268 476.638L32.9787 476.811C33.5569 476.84 33.9885 477.353 33.9188 477.928L33.2395 483.529C33.173 484.077 33.5636 484.575 34.112 484.641L35.5273 484.81C36.0757 484.876 36.5741 484.485 36.6406 483.936L37.3199 478.335C37.3896 477.761 37.9314 477.364 38.5003 477.472L41.7973 478.096C42.5778 478.244 43.2119 477.466 42.9098 476.732L40.9354 471.933C40.7421 471.463 41.1534 470.968 41.6509 471.071V471.071C42.1458 471.174 42.5566 470.684 42.3688 470.215L40.7096 466.072C40.5425 465.654 40.9136 465.221 41.3519 465.321V465.321Z" fill="#CCCDFF"/>
<path d="M40.9931 472.07L43.6123 478.44L40.7216 477.893L39.3785 471.752L40.9931 472.07Z" fill="#E9E6FF"/>
<path d="M40.8699 466.386L42.8078 471.312L40.4809 470.829L39.5224 466.08L40.8699 466.386Z" fill="#E9E6FF"/>
<path d="M38.6083 453.486L42.2914 465.536L40.603 465.15L38.6083 453.486Z" fill="#E9E6FF"/>
<g filter="url(#filter1_i_38_2029)">
<path d="M43.9207 482.207L5.79245 485.372V584.063H173.475L169.754 544.233L153.012 540.385L141.423 532.591L122.654 531.052L105.253 516.459L81.8629 508.384L43.9207 482.207Z" fill="url(#paint0_linear_38_2029)"/>
</g>
<g filter="url(#filter2_i_38_2029)">
<path d="M268.229 449L339 455.184V648L8 643.254V604.811L52.8848 589.825L88.5679 556.646L140.531 518.825L215.16 487.985L268.229 449Z" fill="url(#paint1_linear_38_2029)"/>
</g>
<path d="M291.857 3C291.857 27.7537 237.48 47.8205 170.402 47.8205C103.325 47.8205 48.9477 27.7537 48.9477 3" stroke="#0F2672"/>
<rect width="10.9872" height="16.3162" rx="5.4936" transform="matrix(0.990262 0.139218 -0.139128 0.990274 141.294 43.3154)" fill="#0F2672"/>
<ellipse rx="10.6105" ry="10.6139" transform="matrix(0.990262 0.139218 -0.139128 0.990274 144.204 63.3765)" fill="#3868AE"/>
<rect width="10.9875" height="16.3158" rx="5.49374" transform="matrix(0.951027 0.309109 -0.308925 0.951086 95.9963 33.925)" fill="#0F2672"/>
<g filter="url(#filter3_di_38_2029)">
<ellipse rx="10.6108" ry="10.6136" transform="matrix(0.951027 0.309109 -0.308925 0.951086 95.3796 54.1868)" fill="#FFF55A"/>
</g>
<rect width="10.9879" height="16.3152" rx="5.49394" transform="matrix(0.890946 0.454109 -0.453872 0.891067 59.4567 15.9719)" fill="#0F2672"/>
<ellipse rx="10.6112" ry="10.6132" transform="matrix(0.890946 0.454109 -0.453872 0.891067 55.6789 35.8878)" fill="#3868AE"/>
<rect width="10.9872" height="16.3162" rx="5.4936" transform="matrix(-0.990262 0.139218 0.139128 0.990274 199.508 43.3154)" fill="#0F2672"/>
<g filter="url(#filter4_di_38_2029)">
<ellipse rx="10.6105" ry="10.6139" transform="matrix(-0.990262 0.139218 0.139128 0.990274 196.598 63.3765)" fill="#FFF55A"/>
</g>
<rect width="10.9875" height="16.3158" rx="5.49374" transform="matrix(-0.951027 0.309109 0.308925 0.951086 244.805 33.925)" fill="#0F2672"/>
<ellipse rx="10.6108" ry="10.6136" transform="matrix(-0.951027 0.309109 0.308925 0.951086 245.422 54.1868)" fill="#3868AE"/>
<rect width="10.9879" height="16.3152" rx="5.49394" transform="matrix(-0.890946 0.454109 0.453872 0.891067 281.345 15.9719)" fill="#0F2672"/>
<g filter="url(#filter5_di_38_2029)">
<ellipse rx="10.6112" ry="10.6132" transform="matrix(-0.890946 0.454109 0.453872 0.891067 285.123 35.8878)" fill="#FFF55A"/>
</g>
<defs>
<filter id="filter0_d_38_2029" x="23.9463" y="118.75" width="273.276" height="26.0259" filterUnits="userSpaceOnUse" color-interpolation-filters="sRGB">
<feFlood flood-opacity="0" result="BackgroundImageFix"/>
<feColorMatrix in="SourceAlpha" type="matrix" values="0 0 0 0 0 0 0 0 0 0 0 0 0 0 0 0 0 0 127 0" result="hardAlpha"/>
<feOffset dy="4"/>
<feGaussianBlur stdDeviation="2"/>
<feComposite in2="hardAlpha" operator="out"/>
<feColorMatrix type="matrix" values="0 0 0 0 0 0 0 0 0 0 0 0 0 0 0 0 0 0 0.25 0"/>
<feBlend mode="normal" in2="BackgroundImageFix" result="effect1_dropShadow_38_2029"/>
<feBlend mode="normal" in="SourceGraphic" in2="effect1_dropShadow_38_2029" result="shape"/>
</filter>
<filter id="filter1_i_38_2029" x="5.79245" y="482.207" width="171.683" height="105.856" filterUnits="userSpaceOnUse" color-interpolation-filters="sRGB">
<feFlood flood-opacity="0" result="BackgroundImageFix"/>
<feBlend mode="normal" in="SourceGraphic" in2="BackgroundImageFix" result="shape"/>
<feColorMatrix in="SourceAlpha" type="matrix" values="0 0 0 0 0 0 0 0 0 0 0 0 0 0 0 0 0 0 127 0" result="hardAlpha"/>
<feOffset dx="5" dy="8"/>
<feGaussianBlur stdDeviation="2"/>
<feComposite in2="hardAlpha" operator="arithmetic" k2="-1" k3="1"/>
<feColorMatrix type="matrix" values="0 0 0 0 1 0 0 0 0 0.941667 0 0 0 0 0.941667 0 0 0 0.25 0"/>
<feBlend mode="normal" in2="shape" result="effect1_innerShadow_38_2029"/>
</filter>
<filter id="filter2_i_38_2029" x="8" y="449" width="331" height="203" filterUnits="userSpaceOnUse" color-interpolation-filters="sRGB">
<feFlood flood-opacity="0" result="BackgroundImageFix"/>
<feBlend mode="normal" in="SourceGraphic" in2="BackgroundImageFix" result="shape"/>
<feColorMatrix in="SourceAlpha" type="matrix" values="0 0 0 0 0 0 0 0 0 0 0 0 0 0 0 0 0 0 127 0" result="hardAlpha"/>
<feOffset dy="9"/>
<feGaussianBlur stdDeviation="2"/>
<feComposite in2="hardAlpha" operator="arithmetic" k2="-1" k3="1"/>
<feColorMatrix type="matrix" values="0 0 0 0 0.825 0 0 0 0 0.8635 0 0 0 0 1 0 0 0 0.67 0"/>
<feBlend mode="normal" in2="shape" result="effect1_innerShadow_38_2029"/>
</filter>
<filter id="filter3_di_38_2029" x="59.7663" y="18.5701" width="71.2266" height="71.2336" filterUnits="userSpaceOnUse" color-interpolation-filters="sRGB">
<feFlood flood-opacity="0" result="BackgroundImageFix"/>
<feColorMatrix in="SourceAlpha" type="matrix" values="0 0 0 0 0 0 0 0 0 0 0 0 0 0 0 0 0 0 127 0" result="hardAlpha"/>
<feOffset/>
<feGaussianBlur stdDeviation="12.5"/>
<feComposite in2="hardAlpha" operator="out"/>
<feColorMatrix type="matrix" values="0 0 0 0 1 0 0 0 0 0.818824 0 0 0 0 0.352941 0 0 0 1 0"/>
<feBlend mode="normal" in2="BackgroundImageFix" result="effect1_dropShadow_38_2029"/>
<feBlend mode="normal" in="SourceGraphic" in2="effect1_dropShadow_38_2029" result="shape"/>
<feColorMatrix in="SourceAlpha" type="matrix" values="0 0 0 0 0 0 0 0 0 0 0 0 0 0 0 0 0 0 127 0" result="hardAlpha"/>
<feOffset/>
<feGaussianBlur stdDeviation="2"/>
<feComposite in2="hardAlpha" operator="arithmetic" k2="-1" k3="1"/>
<feColorMatrix type="matrix" values="0 0 0 0 0.956863 0 0 0 0 0.784314 0 0 0 0 0.172549 0 0 0 1 0"/>
<feBlend mode="normal" in2="shape" result="effect2_innerShadow_38_2029"/>
</filter>
<filter id="filter4_di_38_2029" x="160.986" y="27.7612" width="71.2235" height="71.2305" filterUnits="userSpaceOnUse" color-interpolation-filters="sRGB">
<feFlood flood-opacity="0" result="BackgroundImageFix"/>
<feColorMatrix in="SourceAlpha" type="matrix" values="0 0 0 0 0 0 0 0 0 0 0 0 0 0 0 0 0 0 127 0" result="hardAlpha"/>
<feOffset/>
<feGaussianBlur stdDeviation="12.5"/>
<feComposite in2="hardAlpha" operator="out"/>
<feColorMatrix type="matrix" values="0 0 0 0 1 0 0 0 0 0.818824 0 0 0 0 0.352941 0 0 0 1 0"/>
<feBlend mode="normal" in2="BackgroundImageFix" result="effect1_dropShadow_38_2029"/>
<feBlend mode="normal" in="SourceGraphic" in2="effect1_dropShadow_38_2029" result="shape"/>
<feColorMatrix in="SourceAlpha" type="matrix" values="0 0 0 0 0 0 0 0 0 0 0 0 0 0 0 0 0 0 127 0" result="hardAlpha"/>
<feOffset/>
<feGaussianBlur stdDeviation="2"/>
<feComposite in2="hardAlpha" operator="arithmetic" k2="-1" k3="1"/>
<feColorMatrix type="matrix" values="0 0 0 0 0.956863 0 0 0 0 0.784314 0 0 0 0 0.172549 0 0 0 1 0"/>
<feBlend mode="normal" in2="shape" result="effect2_innerShadow_38_2029"/>
</filter>
<filter id="filter5_di_38_2029" x="249.51" y="0.271484" width="71.2254" height="71.2324" filterUnits="userSpaceOnUse" color-interpolation-filters="sRGB">
<feFlood flood-opacity="0" result="BackgroundImageFix"/>
<feColorMatrix in="SourceAlpha" type="matrix" values="0 0 0 0 0 0 0 0 0 0 0 0 0 0 0 0 0 0 127 0" result="hardAlpha"/>
<feOffset/>
<feGaussianBlur stdDeviation="12.5"/>
<feComposite in2="hardAlpha" operator="out"/>
<feColorMatrix type="matrix" values="0 0 0 0 1 0 0 0 0 0.818824 0 0 0 0 0.352941 0 0 0 1 0"/>
<feBlend mode="normal" in2="BackgroundImageFix" result="effect1_dropShadow_38_2029"/>
<feBlend mode="normal" in="SourceGraphic" in2="effect1_dropShadow_38_2029" result="shape"/>
<feColorMatrix in="SourceAlpha" type="matrix" values="0 0 0 0 0 0 0 0 0 0 0 0 0 0 0 0 0 0 127 0" result="hardAlpha"/>
<feOffset/>
<feGaussianBlur stdDeviation="2"/>
<feComposite in2="hardAlpha" operator="arithmetic" k2="-1" k3="1"/>
<feColorMatrix type="matrix" values="0 0 0 0 0.956863 0 0 0 0 0.784314 0 0 0 0 0.172549 0 0 0 1 0"/>
<feBlend mode="normal" in2="shape" result="effect2_innerShadow_38_2029"/>
</filter>
<linearGradient id="paint0_linear_38_2029" x1="68.7394" y1="491.068" x2="60.5906" y2="527.591" gradientUnits="userSpaceOnUse">
<stop stop-color="#D1CAFF"/>
<stop offset="1" stop-color="#849FEE"/>
</linearGradient>
<linearGradient id="paint1_linear_38_2029" x1="130.923" y1="516.582" x2="-25.151" y2="577.76" gradientUnits="userSpaceOnUse">
<stop stop-color="#D1CAFF"/>
<stop offset="1" stop-color="#849FEE"/>
</linearGradient>
</defs>
</svg>
