<svg width="728" height="1358" viewBox="0 0 728 1358" fill="none" xmlns="http://www.w3.org/2000/svg">
<path d="M17.18 0.784668H704.378V1220.56H17.18V0.784668Z" fill="#6D81BD"/>
<g filter="url(#filter0_d_38_2029)">
<path d="M93.8035 221H111.304V229.477L108.804 229.965V242.035L111.304 242.523V251H93.8035V242.523L96.3035 242.035V229.965L93.8035 229.477V221ZM124.585 236.566V242.758L126.948 243.188V251H115.19V243.207L117.534 242.758V231.645L115.19 231.195V223.5H129.292L138.686 238.324V231.684L136.343 231.195V223.5H148.081V231.195L145.737 231.645V242.758L148.081 243.207V251H133.979L124.585 236.566ZM173.198 223.5C174.969 223.878 176.564 224.411 177.983 225.102C179.402 225.792 180.607 226.677 181.596 227.758C182.599 228.826 183.367 230.115 183.901 231.625C184.435 233.122 184.702 234.874 184.702 236.879C184.702 238.637 184.494 240.212 184.077 241.605C183.673 242.986 183.087 244.203 182.319 245.258C181.564 246.299 180.633 247.185 179.526 247.914C178.419 248.643 177.169 249.236 175.776 249.691C174.396 250.147 172.873 250.479 171.206 250.688C169.552 250.896 167.788 251 165.913 251H151.811V243.207L154.155 242.758V230.98L151.811 230.531V223.5H173.198ZM167.71 242.758C168.582 242.758 169.318 242.693 169.917 242.562C170.516 242.432 171.004 242.25 171.382 242.016C171.772 241.781 172.072 241.488 172.28 241.137C172.501 240.785 172.658 240.395 172.749 239.965C172.853 239.535 172.912 239.06 172.925 238.539C172.938 238.018 172.944 237.465 172.944 236.879C172.944 236.293 172.938 235.74 172.925 235.219C172.912 234.698 172.853 234.223 172.749 233.793C172.658 233.35 172.501 232.96 172.28 232.621C172.072 232.27 171.772 231.977 171.382 231.742C171.004 231.495 170.516 231.306 169.917 231.176C169.318 231.046 168.582 230.98 167.71 230.98H165.913V242.758H167.71ZM187.534 223.5H203.979V231.195L201.636 231.645V242.758L203.979 243.207V251H187.534V243.207L189.878 242.758V231.645L187.534 231.195V223.5ZM223.862 258.949C223.354 258.533 222.82 258.057 222.261 257.523C221.701 256.99 221.147 256.397 220.6 255.746C220.067 255.108 219.565 254.405 219.096 253.637C218.628 252.882 218.237 252.061 217.925 251.176C216.297 250.811 214.8 250.258 213.432 249.516C212.078 248.773 210.906 247.816 209.917 246.645C208.94 245.473 208.179 244.079 207.632 242.465C207.085 240.85 206.811 238.988 206.811 236.879C206.811 234.34 207.235 232.178 208.081 230.395C208.94 228.598 210.112 227.139 211.596 226.02C213.081 224.887 214.819 224.06 216.811 223.539C218.804 223.018 220.945 222.758 223.237 222.758C225.516 222.758 227.651 223.018 229.643 223.539C231.649 224.06 233.393 224.887 234.878 226.02C236.375 227.139 237.554 228.598 238.413 230.395C239.272 232.178 239.702 234.34 239.702 236.879C239.702 238.832 239.461 240.577 238.979 242.113C238.511 243.637 237.846 244.971 236.987 246.117C236.141 247.25 235.119 248.207 233.921 248.988C232.736 249.757 231.427 250.362 229.995 250.805C230.542 251.482 231.095 252.139 231.655 252.777C232.215 253.428 232.697 253.982 233.1 254.438V258.949H223.862ZM223.237 231.078H223.042C222.3 231.078 221.675 231.176 221.167 231.371C220.672 231.566 220.255 231.827 219.917 232.152C219.591 232.478 219.337 232.849 219.155 233.266C218.973 233.669 218.836 234.079 218.745 234.496C218.667 234.913 218.615 235.323 218.589 235.727C218.576 236.13 218.569 236.482 218.569 236.781C218.569 237.081 218.576 237.439 218.589 237.855C218.602 238.259 218.647 238.689 218.725 239.145C218.804 239.587 218.934 240.03 219.116 240.473C219.298 240.915 219.559 241.312 219.897 241.664C220.249 242.016 220.692 242.302 221.225 242.523C221.772 242.732 222.443 242.836 223.237 242.836C224.018 242.836 224.676 242.732 225.21 242.523C225.757 242.315 226.199 242.042 226.538 241.703C226.889 241.352 227.163 240.961 227.358 240.531C227.554 240.102 227.69 239.672 227.768 239.242C227.86 238.799 227.912 238.37 227.925 237.953C227.951 237.536 227.964 237.178 227.964 236.879C227.964 236.579 227.957 236.228 227.944 235.824C227.931 235.421 227.879 235.004 227.788 234.574C227.697 234.145 227.56 233.721 227.378 233.305C227.195 232.888 226.935 232.517 226.596 232.191C226.271 231.853 225.848 231.586 225.327 231.391C224.806 231.182 224.175 231.078 223.432 231.078H223.237ZM272.827 231.645C272.814 232.035 272.807 232.419 272.807 232.797C272.807 233.161 272.807 233.513 272.807 233.852V236.879C272.807 239.483 272.449 241.716 271.733 243.578C271.017 245.427 270.047 246.944 268.823 248.129C267.599 249.314 266.16 250.147 264.507 250.629C262.866 251.111 261.121 251.352 259.272 251.352C257.137 251.352 255.138 251.111 253.276 250.629C251.427 250.147 249.813 249.314 248.432 248.129C247.065 246.931 245.985 245.408 245.19 243.559C244.409 241.71 244.018 239.483 244.018 236.879V231.645L241.675 231.195V223.5H256.929V231.195L254.585 231.645V233.969C254.585 234.281 254.585 234.6 254.585 234.926C254.585 235.238 254.585 235.531 254.585 235.805C254.598 236.078 254.604 236.319 254.604 236.527C254.604 236.723 254.604 236.853 254.604 236.918C254.604 237.217 254.611 237.569 254.624 237.973C254.637 238.363 254.689 238.773 254.78 239.203C254.871 239.62 255.008 240.036 255.19 240.453C255.386 240.857 255.652 241.221 255.991 241.547C256.343 241.872 256.779 242.139 257.3 242.348C257.833 242.543 258.491 242.641 259.272 242.641C260.054 242.641 260.711 242.543 261.245 242.348C261.792 242.139 262.235 241.872 262.573 241.547C262.925 241.208 263.198 240.831 263.393 240.414C263.589 239.997 263.725 239.581 263.804 239.164C263.895 238.734 263.947 238.324 263.96 237.934C263.986 237.53 263.999 237.178 263.999 236.879C263.999 236.788 263.999 236.645 263.999 236.449C263.999 236.241 263.992 236.007 263.979 235.746C263.979 235.473 263.979 235.186 263.979 234.887C263.979 234.574 263.979 234.268 263.979 233.969V231.645L261.636 231.195V223.5H275.19V231.195L272.827 231.645ZM292.319 235.59L297.729 234.438V240.004L292.319 238.832V243.148C293.1 243.148 293.856 243.096 294.585 242.992C295.314 242.875 295.991 242.719 296.616 242.523C297.241 242.328 297.814 242.1 298.335 241.84C298.856 241.579 299.305 241.299 299.682 241H302.358V251H278.218V243.207L280.561 242.758V231.684L278.218 231.234V223.5H302.358V233.5H299.682C299.305 233.214 298.856 232.94 298.335 232.68C297.814 232.419 297.241 232.191 296.616 231.996C295.991 231.801 295.314 231.645 294.585 231.527C293.856 231.41 293.1 231.352 292.319 231.352V235.59ZM304.194 251V244.125L314.292 230.395C313.602 230.395 312.957 230.466 312.358 230.609C311.759 230.74 311.206 230.915 310.698 231.137C310.19 231.358 309.728 231.605 309.311 231.879C308.908 232.139 308.55 232.406 308.237 232.68H305.229V223.5H326.518V230.922L317.514 243.812C317.801 243.852 318.087 243.871 318.374 243.871C318.934 243.871 319.468 243.812 319.975 243.695C320.483 243.565 320.952 243.402 321.382 243.207C321.811 243.012 322.202 242.797 322.554 242.562C322.918 242.315 323.237 242.074 323.511 241.84H326.518V251H304.194ZM356.069 243.5C356.616 243.5 357.137 243.428 357.632 243.285C358.126 243.129 358.582 242.934 358.999 242.699C359.429 242.452 359.813 242.185 360.151 241.898C360.503 241.599 360.809 241.299 361.069 241H364.331V251H341.987V243.207L344.331 242.758V231.645L341.987 231.195V223.5H358.432V231.195L356.069 231.645V243.5ZM381.069 235.59L386.479 234.438V240.004L381.069 238.832V243.148C381.85 243.148 382.606 243.096 383.335 242.992C384.064 242.875 384.741 242.719 385.366 242.523C385.991 242.328 386.564 242.1 387.085 241.84C387.606 241.579 388.055 241.299 388.432 241H391.108V251H366.968V243.207L369.311 242.758V231.684L366.968 231.234V223.5H391.108V233.5H388.432C388.055 233.214 387.606 232.94 387.085 232.68C386.564 232.419 385.991 232.191 385.366 231.996C384.741 231.801 384.064 231.645 383.335 231.527C382.606 231.41 381.85 231.352 381.069 231.352V235.59ZM418.179 242.348C418.179 243.559 418.003 244.633 417.651 245.57C417.313 246.495 416.844 247.302 416.245 247.992C415.659 248.669 414.956 249.236 414.136 249.691C413.328 250.147 412.456 250.518 411.518 250.805C410.581 251.078 409.598 251.234 408.569 251.273C407.554 251.326 406.538 251.352 405.522 251.352C404.116 251.352 402.846 251.319 401.714 251.254C400.581 251.189 399.565 251.046 398.667 250.824C397.781 250.603 396.994 250.362 396.304 250.102C395.626 249.828 395.027 249.561 394.507 249.301V242.523H400.034C400.581 243.383 401.206 244.014 401.909 244.418C402.612 244.822 403.335 245.023 404.077 245.023C404.298 245.023 404.546 245.004 404.819 244.965C405.093 244.926 405.346 244.802 405.581 244.594C405.815 244.385 406.011 244.066 406.167 243.637C406.336 243.194 406.421 242.576 406.421 241.781C405.366 241.69 404.318 241.56 403.276 241.391C402.248 241.208 401.258 240.967 400.307 240.668C399.37 240.368 398.498 239.991 397.69 239.535C396.883 239.066 396.18 238.507 395.581 237.855C394.995 237.191 394.533 236.417 394.194 235.531C393.856 234.633 393.686 233.604 393.686 232.445C393.686 231.117 393.856 229.958 394.194 228.969C394.533 227.966 394.995 227.107 395.581 226.391C396.167 225.674 396.857 225.082 397.651 224.613C398.458 224.145 399.324 223.773 400.249 223.5C401.173 223.227 402.137 223.038 403.139 222.934C404.142 222.816 405.145 222.758 406.147 222.758C407.567 222.758 408.836 222.829 409.956 222.973C411.089 223.116 412.098 223.298 412.983 223.52C413.882 223.741 414.669 223.988 415.346 224.262C416.037 224.522 416.649 224.776 417.182 225.023V231.859H411.264C410.77 230.922 410.203 230.238 409.565 229.809C408.927 229.379 408.276 229.164 407.612 229.164C407.391 229.164 407.137 229.203 406.85 229.281C406.564 229.346 406.297 229.503 406.05 229.75C405.802 229.997 405.594 230.362 405.425 230.844C405.255 231.326 405.171 231.977 405.171 232.797C407.319 232.875 409.201 233.103 410.815 233.48C412.443 233.858 413.804 234.424 414.897 235.18C415.991 235.922 416.811 236.885 417.358 238.07C417.905 239.242 418.179 240.668 418.179 242.348ZM455.757 239.496C455.757 241.579 455.451 243.383 454.839 244.906C454.227 246.417 453.354 247.667 452.221 248.656C451.089 249.646 449.721 250.342 448.12 250.746C446.531 251.15 444.754 251.352 442.788 251.352C441.421 251.352 440.197 251.312 439.116 251.234C438.035 251.169 437.072 251.026 436.225 250.805C435.379 250.583 434.63 250.342 433.979 250.082C433.328 249.809 432.762 249.548 432.28 249.301V240.883H437.807C438.276 241.742 438.823 242.38 439.448 242.797C440.073 243.201 440.698 243.402 441.323 243.402C441.649 243.402 441.974 243.318 442.3 243.148C442.625 242.979 442.912 242.732 443.159 242.406C443.419 242.068 443.628 241.658 443.784 241.176C443.94 240.694 444.018 240.134 444.018 239.496V231.645L441.655 231.195V223.5H458.12V231.195L455.757 231.645V239.496ZM476.557 251.352C474.266 251.352 472.117 251.111 470.112 250.629C468.12 250.134 466.382 249.294 464.897 248.109C463.426 246.911 462.261 245.388 461.401 243.539C460.555 241.69 460.132 239.47 460.132 236.879C460.132 234.34 460.555 232.178 461.401 230.395C462.261 228.598 463.432 227.139 464.917 226.02C466.401 224.887 468.139 224.06 470.132 223.539C472.124 223.018 474.266 222.758 476.557 222.758C478.836 222.758 480.971 223.018 482.964 223.539C484.969 224.06 486.714 224.887 488.198 226.02C489.695 227.139 490.874 228.598 491.733 230.395C492.593 232.178 493.022 234.34 493.022 236.879C493.022 238.598 492.827 240.16 492.436 241.566C492.046 242.96 491.492 244.203 490.776 245.297C490.073 246.378 489.22 247.315 488.218 248.109C487.228 248.891 486.121 249.542 484.897 250.062C483.673 250.57 482.358 250.909 480.952 251.078C479.546 251.26 478.081 251.352 476.557 251.352ZM476.557 231.078C475.789 231.078 475.138 231.176 474.604 231.371C474.083 231.566 473.647 231.82 473.296 232.133C472.957 232.445 472.69 232.803 472.495 233.207C472.3 233.611 472.156 234.027 472.065 234.457C471.987 234.874 471.935 235.29 471.909 235.707C471.896 236.111 471.889 236.469 471.889 236.781C471.889 237.081 471.896 237.439 471.909 237.855C471.922 238.259 471.968 238.689 472.046 239.145C472.124 239.587 472.254 240.03 472.436 240.473C472.619 240.915 472.879 241.312 473.218 241.664C473.569 242.016 474.012 242.302 474.546 242.523C475.093 242.732 475.763 242.836 476.557 242.836C477.339 242.836 477.996 242.732 478.53 242.523C479.077 242.315 479.52 242.042 479.858 241.703C480.21 241.352 480.483 240.961 480.679 240.531C480.874 240.102 481.011 239.672 481.089 239.242C481.18 238.799 481.232 238.37 481.245 237.953C481.271 237.536 481.284 237.178 481.284 236.879C481.284 236.566 481.271 236.208 481.245 235.805C481.232 235.388 481.18 234.965 481.089 234.535C481.011 234.105 480.874 233.689 480.679 233.285C480.483 232.868 480.21 232.497 479.858 232.172C479.52 231.846 479.077 231.586 478.53 231.391C477.996 231.182 477.339 231.078 476.557 231.078ZM526.108 231.645C526.095 232.035 526.089 232.419 526.089 232.797C526.089 233.161 526.089 233.513 526.089 233.852V236.879C526.089 239.483 525.731 241.716 525.014 243.578C524.298 245.427 523.328 246.944 522.104 248.129C520.88 249.314 519.442 250.147 517.788 250.629C516.147 251.111 514.402 251.352 512.554 251.352C510.418 251.352 508.419 251.111 506.557 250.629C504.708 250.147 503.094 249.314 501.714 248.129C500.346 246.931 499.266 245.408 498.471 243.559C497.69 241.71 497.3 239.483 497.3 236.879V231.645L494.956 231.195V223.5H510.21V231.195L507.866 231.645V233.969C507.866 234.281 507.866 234.6 507.866 234.926C507.866 235.238 507.866 235.531 507.866 235.805C507.879 236.078 507.886 236.319 507.886 236.527C507.886 236.723 507.886 236.853 507.886 236.918C507.886 237.217 507.892 237.569 507.905 237.973C507.918 238.363 507.97 238.773 508.061 239.203C508.152 239.62 508.289 240.036 508.471 240.453C508.667 240.857 508.934 241.221 509.272 241.547C509.624 241.872 510.06 242.139 510.581 242.348C511.115 242.543 511.772 242.641 512.554 242.641C513.335 242.641 513.992 242.543 514.526 242.348C515.073 242.139 515.516 241.872 515.854 241.547C516.206 241.208 516.479 240.831 516.675 240.414C516.87 239.997 517.007 239.581 517.085 239.164C517.176 238.734 517.228 238.324 517.241 237.934C517.267 237.53 517.28 237.178 517.28 236.879C517.28 236.788 517.28 236.645 517.28 236.449C517.28 236.241 517.274 236.007 517.261 235.746C517.261 235.473 517.261 235.186 517.261 234.887C517.261 234.574 517.261 234.268 517.261 233.969V231.645L514.917 231.195V223.5H528.471V231.195L526.108 231.645ZM545.6 235.59L551.011 234.438V240.004L545.6 238.832V243.148C546.382 243.148 547.137 243.096 547.866 242.992C548.595 242.875 549.272 242.719 549.897 242.523C550.522 242.328 551.095 242.1 551.616 241.84C552.137 241.579 552.586 241.299 552.964 241H555.639V251H531.499V243.207L533.843 242.758V231.684L531.499 231.234V223.5H555.639V233.5H552.964C552.586 233.214 552.137 232.94 551.616 232.68C551.095 232.419 550.522 232.191 549.897 231.996C549.272 231.801 548.595 231.645 547.866 231.527C547.137 231.41 546.382 231.352 545.6 231.352V235.59ZM589.116 231.645C589.103 232.035 589.096 232.419 589.096 232.797C589.096 233.161 589.096 233.513 589.096 233.852V236.879C589.096 239.483 588.738 241.716 588.022 243.578C587.306 245.427 586.336 246.944 585.112 248.129C583.888 249.314 582.449 250.147 580.796 250.629C579.155 251.111 577.41 251.352 575.561 251.352C573.426 251.352 571.427 251.111 569.565 250.629C567.716 250.147 566.102 249.314 564.721 248.129C563.354 246.931 562.274 245.408 561.479 243.559C560.698 241.71 560.307 239.483 560.307 236.879V231.645L557.964 231.195V223.5H573.218V231.195L570.874 231.645V233.969C570.874 234.281 570.874 234.6 570.874 234.926C570.874 235.238 570.874 235.531 570.874 235.805C570.887 236.078 570.893 236.319 570.893 236.527C570.893 236.723 570.893 236.853 570.893 236.918C570.893 237.217 570.9 237.569 570.913 237.973C570.926 238.363 570.978 238.773 571.069 239.203C571.16 239.62 571.297 240.036 571.479 240.453C571.675 240.857 571.942 241.221 572.28 241.547C572.632 241.872 573.068 242.139 573.589 242.348C574.123 242.543 574.78 242.641 575.561 242.641C576.343 242.641 577 242.543 577.534 242.348C578.081 242.139 578.524 241.872 578.862 241.547C579.214 241.208 579.487 240.831 579.682 240.414C579.878 239.997 580.014 239.581 580.093 239.164C580.184 238.734 580.236 238.324 580.249 237.934C580.275 237.53 580.288 237.178 580.288 236.879C580.288 236.788 580.288 236.645 580.288 236.449C580.288 236.241 580.281 236.007 580.268 235.746C580.268 235.473 580.268 235.186 580.268 234.887C580.268 234.574 580.268 234.268 580.268 233.969V231.645L577.925 231.195V223.5H591.479V231.195L589.116 231.645ZM625.054 251H613.374C613.009 250.323 612.632 249.607 612.241 248.852C611.85 248.083 611.473 247.283 611.108 246.449C610.744 245.616 610.399 244.757 610.073 243.871C609.761 242.986 609.494 242.074 609.272 241.137H608.628V251H594.526V243.207L596.87 242.758V231.645L594.526 231.195V223.5H610.522C612.645 223.5 614.474 223.591 616.011 223.773C617.56 223.956 618.869 224.223 619.936 224.574C621.017 224.926 621.889 225.355 622.554 225.863C623.218 226.358 623.732 226.924 624.096 227.562C624.474 228.188 624.728 228.878 624.858 229.633C624.988 230.388 625.054 231.189 625.054 232.035C625.054 232.895 624.969 233.676 624.8 234.379C624.643 235.082 624.357 235.727 623.94 236.312C623.524 236.898 622.951 237.439 622.221 237.934C621.505 238.415 620.587 238.871 619.468 239.301C619.702 239.77 620.047 240.329 620.503 240.98C620.971 241.618 621.479 242.276 622.026 242.953C622.573 243.617 623.113 244.262 623.647 244.887C624.194 245.512 624.663 246.046 625.054 246.488V251ZM608.628 235.844C609.344 235.844 609.988 235.811 610.561 235.746C611.147 235.668 611.642 235.512 612.046 235.277C612.462 235.03 612.781 234.672 613.003 234.203C613.224 233.734 613.335 233.103 613.335 232.309C613.335 231.527 613.224 230.902 613.003 230.434C612.781 229.965 612.462 229.607 612.046 229.359C611.642 229.099 611.147 228.93 610.561 228.852C609.988 228.773 609.344 228.734 608.628 228.734V235.844ZM652.28 242.348C652.28 243.559 652.104 244.633 651.753 245.57C651.414 246.495 650.945 247.302 650.346 247.992C649.761 248.669 649.057 249.236 648.237 249.691C647.43 250.147 646.557 250.518 645.62 250.805C644.682 251.078 643.699 251.234 642.671 251.273C641.655 251.326 640.639 251.352 639.624 251.352C638.218 251.352 636.948 251.319 635.815 251.254C634.682 251.189 633.667 251.046 632.768 250.824C631.883 250.603 631.095 250.362 630.405 250.102C629.728 249.828 629.129 249.561 628.608 249.301V242.523H634.136C634.682 243.383 635.307 244.014 636.011 244.418C636.714 244.822 637.436 245.023 638.179 245.023C638.4 245.023 638.647 245.004 638.921 244.965C639.194 244.926 639.448 244.802 639.682 244.594C639.917 244.385 640.112 244.066 640.268 243.637C640.438 243.194 640.522 242.576 640.522 241.781C639.468 241.69 638.419 241.56 637.378 241.391C636.349 241.208 635.36 240.967 634.409 240.668C633.471 240.368 632.599 239.991 631.792 239.535C630.985 239.066 630.281 238.507 629.682 237.855C629.096 237.191 628.634 236.417 628.296 235.531C627.957 234.633 627.788 233.604 627.788 232.445C627.788 231.117 627.957 229.958 628.296 228.969C628.634 227.966 629.096 227.107 629.682 226.391C630.268 225.674 630.958 225.082 631.753 224.613C632.56 224.145 633.426 223.773 634.35 223.5C635.275 223.227 636.238 223.038 637.241 222.934C638.244 222.816 639.246 222.758 640.249 222.758C641.668 222.758 642.938 222.829 644.057 222.973C645.19 223.116 646.199 223.298 647.085 223.52C647.983 223.741 648.771 223.988 649.448 224.262C650.138 224.522 650.75 224.776 651.284 225.023V231.859H645.366C644.871 230.922 644.305 230.238 643.667 229.809C643.029 229.379 642.378 229.164 641.714 229.164C641.492 229.164 641.238 229.203 640.952 229.281C640.666 229.346 640.399 229.503 640.151 229.75C639.904 229.997 639.695 230.362 639.526 230.844C639.357 231.326 639.272 231.977 639.272 232.797C641.421 232.875 643.302 233.103 644.917 233.48C646.544 233.858 647.905 234.424 648.999 235.18C650.093 235.922 650.913 236.885 651.46 238.07C652.007 239.242 652.28 240.668 652.28 242.348Z" fill="white"/>
</g>
<path fill-rule="evenodd" clip-rule="evenodd" d="M428.711 948.822C427.95 948.936 427.35 948.184 427.631 947.468L444.51 904.36C444.826 903.552 445.951 903.504 446.337 904.282L466.95 945.791C467.293 946.481 466.761 947.281 465.993 947.233L461.548 946.952C460.742 946.901 460.213 947.777 460.631 948.467L472.566 968.157C472.98 968.839 472.467 969.707 471.67 969.673L465.943 969.427C465.141 969.392 464.629 970.268 465.052 970.951L480.394 995.73C480.813 996.406 480.314 997.275 479.52 997.255L457.409 996.697C456.831 996.682 456.361 997.161 456.387 997.739L457.652 1026.42C457.676 1026.97 457.249 1027.43 456.697 1027.46L445.039 1027.95C444.487 1027.98 444.02 1027.55 443.996 1027L442.731 998.321C442.705 997.743 442.195 997.306 441.62 997.37L419.641 999.808C418.852 999.896 418.279 999.072 418.636 998.363L431.739 972.371C432.1 971.655 431.512 970.826 430.716 970.929L425.033 971.661C424.241 971.763 423.654 970.942 424.006 970.227L434.162 949.596C434.518 948.872 433.913 948.045 433.115 948.164L428.711 948.822Z" fill="#BBC2FF"/>
<path d="M430.171 975.471L417.805 1000.01L429.473 998.719L436.691 974.7L430.171 975.471Z" fill="#E2DBFF"/>
<path d="M432.396 952.894L423.182 971.9L432.588 970.687L437.851 952.086L432.396 952.894Z" fill="#E2DBFF"/>
<path d="M445.333 902.259L427 949.078L433.836 948.057L445.333 902.259Z" fill="#E2DBFF"/>
<path fill-rule="evenodd" clip-rule="evenodd" d="M328.401 1011.37C327.644 1011.51 327.022 1010.77 327.281 1010.05L339.419 976.096C339.711 975.28 340.834 975.198 341.243 975.964L358.257 1007.8C358.62 1008.48 358.112 1009.3 357.343 1009.27L354.539 1009.18C353.732 1009.15 353.229 1010.04 353.668 1010.72L363.219 1025.46C363.653 1026.13 363.166 1027.02 362.368 1027L358.568 1026.95C357.765 1026.94 357.279 1027.84 357.722 1028.51L370.105 1047.23C370.544 1047.89 370.072 1048.78 369.278 1048.78L352.257 1048.86C351.678 1048.86 351.223 1049.36 351.266 1049.93L352.924 1072.31C352.965 1072.86 352.552 1073.34 352.001 1073.38L343.139 1074.02C342.588 1074.06 342.108 1073.65 342.067 1073.1L340.409 1050.72C340.366 1050.14 339.843 1049.72 339.27 1049.8L322.42 1052.18C321.634 1052.3 321.037 1051.49 321.373 1050.77L330.862 1030.46C331.202 1029.73 330.59 1028.92 329.797 1029.04L326.045 1029.64C325.257 1029.77 324.645 1028.97 324.976 1028.24L332.251 1012.27C332.585 1011.54 331.956 1010.73 331.162 1010.87L328.401 1011.37Z" fill="#C4C3FE"/>
<path fill-rule="evenodd" clip-rule="evenodd" d="M326.699 1011.68L340.178 973.972L337.533 1009.73L326.699 1011.68ZM331.085 1014.59L324.203 1029.94L339.119 1027.56L339.731 1013.04L331.085 1014.59ZM329.851 1032.61L320.591 1052.44L339.106 1049.83L340.195 1031.07L329.851 1032.61Z" fill="#E9DBFF"/>
<path d="M329.851 1032.61L320.591 1052.44L329.848 1051.14L335.023 1031.84L329.851 1032.61Z" fill="#E9DBFF"/>
<path d="M331.085 1014.59L324.203 1029.94L331.661 1028.75L335.408 1013.81L331.085 1014.59Z" fill="#E9DBFF"/>
<path d="M340.178 973.972L326.699 1011.68L332.116 1010.7L340.178 973.972Z" fill="#E9DBFF"/>
<path fill-rule="evenodd" clip-rule="evenodd" d="M129.986 990.257C130.668 990.516 131.375 989.94 131.258 989.22L128.462 971.879C128.324 971.022 127.235 970.736 126.693 971.413L115.729 985.131C115.274 985.701 115.605 986.55 116.327 986.66V986.66C117.083 986.776 117.398 987.695 116.872 988.25L111.543 993.874C110.994 994.453 111.312 995.411 112.098 995.548L112.387 995.598C113.178 995.735 113.493 996.701 112.936 997.278L105.793 1004.67C105.241 1005.25 105.544 1006.2 106.324 1006.35L113.947 1007.81C114.516 1007.92 114.873 1008.49 114.726 1009.05L111.914 1019.74C111.773 1020.28 112.092 1020.83 112.627 1020.97L116.332 1021.94C116.866 1022.08 117.412 1021.76 117.553 1021.23L120.365 1010.54C120.512 1009.98 121.103 1009.66 121.652 1009.84L129.007 1012.32C129.759 1012.58 130.493 1011.89 130.294 1011.13L127.715 1001.17C127.514 1000.39 128.263 999.707 129.019 999.977L129.295 1000.08C130.047 1000.34 130.794 999.667 130.601 998.892L128.729 991.373C128.544 990.63 129.27 989.985 129.986 990.257V990.257Z" fill="#CCCDFF"/>
<path d="M127.817 1001.56L130.757 1012.91L126.011 1011.31L125.169 1000.64L127.817 1001.56Z" fill="#E9E6FF"/>
<path d="M128.926 991.94L131.052 1000.7L127.242 999.342L126.726 991.107L128.926 991.94Z" fill="#E9E6FF"/>
<path d="M128.102 969.651L131.52 990.84L128.763 989.792L128.102 969.651Z" fill="#E9E6FF"/>
<path fill-rule="evenodd" clip-rule="evenodd" d="M89.134 965.774C89.8839 965.945 90.5398 965.241 90.315 964.506L83.5704 942.439C83.317 941.61 82.1993 941.476 81.7548 942.221L69.9277 962.064C69.5335 962.725 70.0022 963.564 70.7717 963.575L71.4866 963.584C72.2939 963.595 72.7549 964.509 72.2846 965.165L66.0858 973.82C65.6208 974.469 66.0659 975.374 66.8637 975.4L68.2143 975.446C69.0164 975.473 69.4603 976.386 68.9866 977.034L60.7515 988.306C60.2826 988.947 60.7127 989.852 61.5061 989.893L72.0481 990.435C72.6264 990.464 73.0579 990.977 72.9882 991.552L71.2435 1005.94C71.177 1006.49 71.5676 1006.98 72.116 1007.05L77.4341 1007.69C77.9825 1007.75 78.4809 1007.36 78.5474 1006.81L80.2921 992.427C80.3618 991.852 80.9037 991.456 81.4725 991.563L91.8421 993.526C92.6226 993.674 93.2567 992.897 92.9546 992.162L87.6501 979.269C87.3449 978.528 87.9944 977.746 88.78 977.909L90.1028 978.184C90.8841 978.346 91.5327 977.573 91.2362 976.832L87.2842 966.962C86.9843 966.213 87.6504 965.434 88.4373 965.614L89.134 965.774Z" fill="#CCCDFF"/>
<path d="M88.0324 980.192L93.6571 993.87L87.4495 992.695L84.5651 979.509L88.0324 980.192Z" fill="#E9E6FF"/>
<path d="M87.7678 967.985L91.9293 978.563L86.9324 977.525L84.874 967.327L87.7678 967.985Z" fill="#E9E6FF"/>
<path d="M82.9111 940.281L90.8205 966.16L87.1946 965.33L82.9111 940.281Z" fill="#E9E6FF"/>
<g filter="url(#filter1_i_38_2029)">
<path d="M94.3195 1001.96L12.4392 1008.76V1220.7H372.536L364.545 1135.16L328.592 1126.9L303.705 1110.16L263.4 1106.86L226.03 1075.52L175.8 1058.18L94.3195 1001.96Z" fill="url(#paint0_linear_38_2029)"/>
</g>
<g filter="url(#filter2_i_38_2029)">
<path d="M576.02 930.649L728 943.93V1358L17.1799 1347.81V1265.25L113.57 1233.07L190.199 1161.82L301.79 1080.6L462.054 1014.37L576.02 930.649Z" fill="url(#paint1_linear_38_2029)"/>
</g>
<path d="M631.055 0.784668C631.055 53.943 514.281 97.0364 370.232 97.0364C226.184 97.0364 109.41 53.943 109.41 0.784668" stroke="#0F2672"/>
<rect width="23.5949" height="35.039" rx="7" transform="matrix(0.990262 0.139218 -0.139128 0.990274 307.723 87.3616)" fill="#0F2672"/>
<ellipse rx="22.786" ry="22.7932" transform="matrix(0.990262 0.139218 -0.139128 0.990274 313.972 130.443)" fill="#3868AE"/>
<rect width="23.5955" height="35.0381" rx="7" transform="matrix(0.951027 0.309109 -0.308925 0.951086 210.446 67.1958)" fill="#0F2672"/>
<g filter="url(#filter3_di_38_2029)">
<ellipse rx="22.7866" ry="22.7926" transform="matrix(0.951027 0.309109 -0.308925 0.951086 209.122 110.708)" fill="#FFF55A"/>
</g>
<rect width="23.5964" height="35.0368" rx="7" transform="matrix(0.890946 0.454109 -0.453872 0.891067 131.978 28.6416)" fill="#0F2672"/>
<ellipse rx="22.7874" ry="22.7918" transform="matrix(0.890946 0.454109 -0.453872 0.891067 123.865 71.4107)" fill="#3868AE"/>
<rect width="23.5949" height="35.039" rx="7" transform="matrix(-0.990262 0.139218 0.139128 0.990274 432.736 87.3616)" fill="#0F2672"/>
<g filter="url(#filter4_di_38_2029)">
<ellipse rx="22.786" ry="22.7932" transform="matrix(-0.990262 0.139218 0.139128 0.990274 426.487 130.443)" fill="#FFF55A"/>
</g>
<rect width="23.5955" height="35.0381" rx="7" transform="matrix(-0.951027 0.309109 0.308925 0.951086 530.013 67.1958)" fill="#0F2672"/>
<ellipse rx="22.7866" ry="22.7926" transform="matrix(-0.951027 0.309109 0.308925 0.951086 531.337 110.708)" fill="#3868AE"/>
<rect width="23.5964" height="35.0368" rx="7" transform="matrix(-0.890946 0.454109 0.453872 0.891067 608.481 28.6416)" fill="#0F2672"/>
<g filter="url(#filter5_di_38_2029)">
<ellipse rx="22.7874" ry="22.7918" transform="matrix(-0.890946 0.454109 0.453872 0.891067 616.594 71.4107)" fill="#FFF55A"/>
</g>
<defs>
<filter id="filter0_d_38_2029" x="89.8035" y="221" width="566.477" height="45.9492" filterUnits="userSpaceOnUse" color-interpolation-filters="sRGB">
<feFlood flood-opacity="0" result="BackgroundImageFix"/>
<feColorMatrix in="SourceAlpha" type="matrix" values="0 0 0 0 0 0 0 0 0 0 0 0 0 0 0 0 0 0 127 0" result="hardAlpha"/>
<feOffset dy="4"/>
<feGaussianBlur stdDeviation="2"/>
<feComposite in2="hardAlpha" operator="out"/>
<feColorMatrix type="matrix" values="0 0 0 0 0 0 0 0 0 0 0 0 0 0 0 0 0 0 0.25 0"/>
<feBlend mode="normal" in2="BackgroundImageFix" result="effect1_dropShadow_38_2029"/>
<feBlend mode="normal" in="SourceGraphic" in2="effect1_dropShadow_38_2029" result="shape"/>
</filter>
<filter id="filter1_i_38_2029" x="12.4392" y="1001.96" width="364.097" height="222.736" filterUnits="userSpaceOnUse" color-interpolation-filters="sRGB">
<feFlood flood-opacity="0" result="BackgroundImageFix"/>
<feBlend mode="normal" in="SourceGraphic" in2="BackgroundImageFix" result="shape"/>
<feColorMatrix in="SourceAlpha" type="matrix" values="0 0 0 0 0 0 0 0 0 0 0 0 0 0 0 0 0 0 127 0" result="hardAlpha"/>
<feOffset dx="5" dy="8"/>
<feGaussianBlur stdDeviation="2"/>
<feComposite in2="hardAlpha" operator="arithmetic" k2="-1" k3="1"/>
<feColorMatrix type="matrix" values="0 0 0 0 1 0 0 0 0 0.941667 0 0 0 0 0.941667 0 0 0 0.25 0"/>
<feBlend mode="normal" in2="shape" result="effect1_innerShadow_38_2029"/>
</filter>
<filter id="filter2_i_38_2029" x="17.1799" y="930.649" width="710.82" height="431.351" filterUnits="userSpaceOnUse" color-interpolation-filters="sRGB">
<feFlood flood-opacity="0" result="BackgroundImageFix"/>
<feBlend mode="normal" in="SourceGraphic" in2="BackgroundImageFix" result="shape"/>
<feColorMatrix in="SourceAlpha" type="matrix" values="0 0 0 0 0 0 0 0 0 0 0 0 0 0 0 0 0 0 127 0" result="hardAlpha"/>
<feOffset dy="9"/>
<feGaussianBlur stdDeviation="2"/>
<feComposite in2="hardAlpha" operator="arithmetic" k2="-1" k3="1"/>
<feColorMatrix type="matrix" values="0 0 0 0 0.825 0 0 0 0 0.8635 0 0 0 0 1 0 0 0 0.67 0"/>
<feBlend mode="normal" in2="shape" result="effect1_innerShadow_38_2029"/>
</filter>
<filter id="filter3_di_38_2029" x="161.33" y="62.9084" width="95.584" height="95.5989" filterUnits="userSpaceOnUse" color-interpolation-filters="sRGB">
<feFlood flood-opacity="0" result="BackgroundImageFix"/>
<feColorMatrix in="SourceAlpha" type="matrix" values="0 0 0 0 0 0 0 0 0 0 0 0 0 0 0 0 0 0 127 0" result="hardAlpha"/>
<feOffset/>
<feGaussianBlur stdDeviation="12.5"/>
<feComposite in2="hardAlpha" operator="out"/>
<feColorMatrix type="matrix" values="0 0 0 0 1 0 0 0 0 0.818824 0 0 0 0 0.352941 0 0 0 1 0"/>
<feBlend mode="normal" in2="BackgroundImageFix" result="effect1_dropShadow_38_2029"/>
<feBlend mode="normal" in="SourceGraphic" in2="effect1_dropShadow_38_2029" result="shape"/>
<feColorMatrix in="SourceAlpha" type="matrix" values="0 0 0 0 0 0 0 0 0 0 0 0 0 0 0 0 0 0 127 0" result="hardAlpha"/>
<feOffset/>
<feGaussianBlur stdDeviation="2"/>
<feComposite in2="hardAlpha" operator="arithmetic" k2="-1" k3="1"/>
<feColorMatrix type="matrix" values="0 0 0 0 0.956863 0 0 0 0 0.784314 0 0 0 0 0.172549 0 0 0 1 0"/>
<feBlend mode="normal" in2="shape" result="effect2_innerShadow_38_2029"/>
</filter>
<filter id="filter4_di_38_2029" x="378.699" y="82.6465" width="95.5774" height="95.5925" filterUnits="userSpaceOnUse" color-interpolation-filters="sRGB">
<feFlood flood-opacity="0" result="BackgroundImageFix"/>
<feColorMatrix in="SourceAlpha" type="matrix" values="0 0 0 0 0 0 0 0 0 0 0 0 0 0 0 0 0 0 127 0" result="hardAlpha"/>
<feOffset/>
<feGaussianBlur stdDeviation="12.5"/>
<feComposite in2="hardAlpha" operator="out"/>
<feColorMatrix type="matrix" values="0 0 0 0 1 0 0 0 0 0.818824 0 0 0 0 0.352941 0 0 0 1 0"/>
<feBlend mode="normal" in2="BackgroundImageFix" result="effect1_dropShadow_38_2029"/>
<feBlend mode="normal" in="SourceGraphic" in2="effect1_dropShadow_38_2029" result="shape"/>
<feColorMatrix in="SourceAlpha" type="matrix" values="0 0 0 0 0 0 0 0 0 0 0 0 0 0 0 0 0 0 127 0" result="hardAlpha"/>
<feOffset/>
<feGaussianBlur stdDeviation="2"/>
<feComposite in2="hardAlpha" operator="arithmetic" k2="-1" k3="1"/>
<feColorMatrix type="matrix" values="0 0 0 0 0.956863 0 0 0 0 0.784314 0 0 0 0 0.172549 0 0 0 1 0"/>
<feBlend mode="normal" in2="shape" result="effect2_innerShadow_38_2029"/>
</filter>
<filter id="filter5_di_38_2029" x="568.803" y="23.6125" width="95.5814" height="95.5964" filterUnits="userSpaceOnUse" color-interpolation-filters="sRGB">
<feFlood flood-opacity="0" result="BackgroundImageFix"/>
<feColorMatrix in="SourceAlpha" type="matrix" values="0 0 0 0 0 0 0 0 0 0 0 0 0 0 0 0 0 0 127 0" result="hardAlpha"/>
<feOffset/>
<feGaussianBlur stdDeviation="12.5"/>
<feComposite in2="hardAlpha" operator="out"/>
<feColorMatrix type="matrix" values="0 0 0 0 1 0 0 0 0 0.818824 0 0 0 0 0.352941 0 0 0 1 0"/>
<feBlend mode="normal" in2="BackgroundImageFix" result="effect1_dropShadow_38_2029"/>
<feBlend mode="normal" in="SourceGraphic" in2="effect1_dropShadow_38_2029" result="shape"/>
<feColorMatrix in="SourceAlpha" type="matrix" values="0 0 0 0 0 0 0 0 0 0 0 0 0 0 0 0 0 0 127 0" result="hardAlpha"/>
<feOffset/>
<feGaussianBlur stdDeviation="2"/>
<feComposite in2="hardAlpha" operator="arithmetic" k2="-1" k3="1"/>
<feColorMatrix type="matrix" values="0 0 0 0 0.956863 0 0 0 0 0.784314 0 0 0 0 0.172549 0 0 0 1 0"/>
<feBlend mode="normal" in2="shape" result="effect2_innerShadow_38_2029"/>
</filter>
<linearGradient id="paint0_linear_38_2029" x1="147.617" y1="1020.99" x2="130.118" y2="1099.42" gradientUnits="userSpaceOnUse">
<stop stop-color="#D1CAFF"/>
<stop offset="1" stop-color="#849FEE"/>
</linearGradient>
<linearGradient id="paint1_linear_38_2029" x1="281.155" y1="1075.78" x2="-54.0116" y2="1207.16" gradientUnits="userSpaceOnUse">
<stop stop-color="#D1CAFF"/>
<stop offset="1" stop-color="#849FEE"/>
</linearGradient>
</defs>
</svg>
